G04*
G04 #@! TF.GenerationSoftware,Altium Limited,Altium Designer,21.6.1 (37)*
G04*
G04 Layer_Physical_Order=1*
G04 Layer_Color=255*
%FSLAX25Y25*%
%MOIN*%
G70*
G04*
G04 #@! TF.SameCoordinates,5EA0F2DE-1706-4193-BDFD-DA62A5601E92*
G04*
G04*
G04 #@! TF.FilePolarity,Positive*
G04*
G01*
G75*
%ADD18C,0.01000*%
%ADD19O,0.02362X0.08661*%
%ADD20R,0.12992X0.07087*%
%ADD21R,0.04528X0.02362*%
%ADD22R,0.03543X0.03150*%
%ADD23C,0.03937*%
%ADD24R,0.05709X0.02362*%
%ADD25R,0.03600X0.04800*%
%ADD26R,0.03150X0.03543*%
%ADD27R,0.02756X0.03543*%
%ADD28R,0.05906X0.05118*%
%ADD29R,0.05118X0.05906*%
%ADD30R,0.03543X0.02756*%
%ADD31R,0.02362X0.03150*%
%ADD32O,0.01181X0.08268*%
%ADD33O,0.08268X0.01181*%
%ADD34R,0.04724X0.05512*%
%ADD59C,0.01181*%
%ADD60C,0.01968*%
%ADD61C,0.04724*%
%ADD62O,0.03150X0.02441*%
%ADD63O,0.09843X0.03937*%
%ADD64O,0.07087X0.03937*%
%ADD65R,0.04724X0.04724*%
%ADD66C,0.05906*%
%ADD67R,0.05906X0.05906*%
%ADD68C,0.05512*%
%ADD69C,0.01968*%
G36*
X-12831Y86614D02*
X-12753Y86224D01*
X-12532Y85893D01*
X-12201Y85672D01*
X-11811Y85595D01*
X84965Y85595D01*
X84965Y-85595D01*
X-11811Y-85595D01*
X-12201Y-85672D01*
X-12532Y-85893D01*
X-12753Y-86224D01*
X-12831Y-86614D01*
X-12831Y-97406D01*
X-46224Y-97406D01*
X-46224Y-72835D01*
X-46302Y-72444D01*
X-46523Y-72114D01*
X-46854Y-71893D01*
X-47244Y-71815D01*
X-61408Y-71815D01*
X-61515Y-71343D01*
X-60890Y-71084D01*
X-60353Y-70673D01*
X-59942Y-70136D01*
X-59683Y-69511D01*
X-59660Y-69341D01*
X-62185Y-69341D01*
X-64710Y-69341D01*
X-64687Y-69511D01*
X-64429Y-70136D01*
X-64017Y-70673D01*
X-63480Y-71084D01*
X-62856Y-71343D01*
X-62962Y-71815D01*
X-73784Y-71815D01*
X-73784Y71815D01*
X-47244Y71815D01*
X-46854Y71893D01*
X-46523Y72114D01*
X-46302Y72444D01*
X-46224Y72835D01*
X-46224Y97406D01*
X-12831Y97406D01*
X-12831Y86614D01*
X-12831Y86614D02*
G37*
%LPC*%
G36*
X-26081Y80372D02*
X-27756Y80372D01*
X-27756Y78500D01*
X-26081Y78500D01*
X-26081Y80372D01*
X-26081Y80372D02*
G37*
G36*
X-28756Y80372D02*
X-30431Y80372D01*
X-30431Y78500D01*
X-28756Y78500D01*
X-28756Y80372D01*
X-28756Y80372D02*
G37*
G36*
X-26081Y77500D02*
X-27756Y77500D01*
X-27756Y75628D01*
X-26081Y75628D01*
X-26081Y77500D01*
X-26081Y77500D02*
G37*
G36*
X-28756Y77500D02*
X-30431Y77500D01*
X-30431Y75628D01*
X-28756Y75628D01*
X-28756Y77500D01*
X-28756Y77500D02*
G37*
G36*
X74000Y80513D02*
X74000Y80513D01*
X-21847Y80513D01*
X-22426Y80398D01*
X-22615Y80272D01*
X-24819Y80272D01*
X-24819Y75728D01*
X-24513Y75728D01*
X-24513Y67627D01*
X-41198Y50942D01*
X-49131Y50942D01*
X-49282Y51442D01*
X-49251Y51464D01*
X-48848Y52066D01*
X-48807Y52276D01*
X-50918Y52276D01*
X-53029Y52276D01*
X-52987Y52066D01*
X-52584Y51464D01*
X-52553Y51442D01*
X-52704Y50942D01*
X-54445Y50942D01*
X-54596Y51442D01*
X-54565Y51464D01*
X-54162Y52066D01*
X-54120Y52276D01*
X-56231Y52276D01*
X-58342Y52276D01*
X-58301Y52066D01*
X-57898Y51464D01*
X-57718Y51343D01*
X-57718Y50742D01*
X-57826Y50669D01*
X-58206Y50100D01*
X-58340Y49429D01*
X-58206Y48758D01*
X-57826Y48189D01*
X-57629Y48057D01*
X-57629Y47455D01*
X-57826Y47323D01*
X-58206Y46754D01*
X-58340Y46083D01*
X-58206Y45412D01*
X-57826Y44843D01*
X-57628Y44710D01*
X-57628Y44109D01*
X-57826Y43976D01*
X-58206Y43407D01*
X-58340Y42736D01*
X-58206Y42065D01*
X-57826Y41496D01*
X-57629Y41364D01*
X-57629Y40762D01*
X-57826Y40630D01*
X-58206Y40061D01*
X-58340Y39390D01*
X-58206Y38719D01*
X-57826Y38150D01*
X-57798Y38131D01*
X-57770Y37574D01*
X-58079Y37298D01*
X-58351Y37314D01*
X-61062Y40024D01*
X-61062Y62532D01*
X-58760Y64833D01*
X-48138Y64833D01*
X-48138Y63795D01*
X-48138Y63295D01*
X-48138Y63173D01*
X-48138Y58752D01*
X-47372Y58752D01*
X-47372Y55141D01*
X-47658Y54713D01*
X-47773Y54134D01*
X-47658Y53555D01*
X-47330Y53064D01*
X-46839Y52736D01*
X-46260Y52621D01*
X-45681Y52736D01*
X-45190Y53064D01*
X-44862Y53555D01*
X-44747Y54134D01*
X-44862Y54713D01*
X-45148Y55141D01*
X-45148Y58752D01*
X-44382Y58752D01*
X-44382Y63173D01*
X-44382Y63673D01*
X-44382Y63795D01*
X-44382Y68217D01*
X-48138Y68217D01*
X-48138Y67057D01*
X-59221Y67057D01*
X-59646Y66972D01*
X-60007Y66731D01*
X-60007Y66731D01*
X-62960Y63778D01*
X-63201Y63418D01*
X-63285Y62992D01*
X-63285Y62992D01*
X-63285Y39563D01*
X-63285Y39563D01*
X-63201Y39138D01*
X-62960Y38777D01*
X-59440Y35257D01*
X-59440Y35257D01*
X-59079Y35016D01*
X-58653Y34931D01*
X-57912Y34931D01*
X-57826Y34803D01*
X-57629Y34671D01*
X-57629Y34069D01*
X-57826Y33937D01*
X-58206Y33368D01*
X-58340Y32697D01*
X-58206Y32026D01*
X-57826Y31457D01*
X-57718Y31384D01*
X-57718Y30783D01*
X-57898Y30663D01*
X-58301Y30060D01*
X-58342Y29850D01*
X-56231Y29850D01*
X-54120Y29850D01*
X-54162Y30060D01*
X-54565Y30663D01*
X-54596Y30684D01*
X-54445Y31184D01*
X-52704Y31184D01*
X-52553Y30684D01*
X-52584Y30663D01*
X-52987Y30060D01*
X-53029Y29850D01*
X-50918Y29850D01*
X-48807Y29850D01*
X-48848Y30060D01*
X-49251Y30663D01*
X-49282Y30684D01*
X-49131Y31184D01*
X-48653Y31184D01*
X-48013Y30544D01*
X-48013Y20127D01*
X-50127Y18013D01*
X-58000Y18013D01*
X-58579Y17898D01*
X-59070Y17570D01*
X-59070Y17570D01*
X-68070Y8570D01*
X-68398Y8079D01*
X-68513Y7500D01*
X-68513Y7500D01*
X-68513Y-21085D01*
X-68398Y-21664D01*
X-68070Y-22155D01*
X-67579Y-22483D01*
X-67074Y-22584D01*
X-66626Y-23032D01*
X-66576Y-23065D01*
X-66542Y-23115D01*
X-66181Y-23356D01*
X-65756Y-23441D01*
X-65353Y-23441D01*
X-64931Y-23628D01*
X-64931Y-23941D01*
X-64931Y-25500D01*
X-62756Y-25500D01*
X-60581Y-25500D01*
X-60581Y-23628D01*
X-60159Y-23441D01*
X-59700Y-23441D01*
X-59319Y-23728D01*
X-59319Y-28272D01*
X-56047Y-28272D01*
X-55856Y-28734D01*
X-56351Y-29228D01*
X-59319Y-29228D01*
X-59319Y-33772D01*
X-55169Y-33772D01*
X-55169Y-31163D01*
X-55082Y-31105D01*
X-52238Y-28261D01*
X-52100Y-28282D01*
X-51726Y-28796D01*
X-51732Y-28825D01*
X-51647Y-29250D01*
X-51406Y-29611D01*
X-51584Y-30094D01*
X-51718Y-30293D01*
X-47077Y-30293D01*
X-47077Y-31293D01*
X-51718Y-31293D01*
X-51640Y-31410D01*
X-51520Y-31778D01*
X-51640Y-32145D01*
X-51718Y-32262D01*
X-47077Y-32262D01*
X-47077Y-32762D01*
X-46577Y-32762D01*
X-46577Y-33976D01*
X-43533Y-33976D01*
X-43221Y-33914D01*
X-43203Y-33922D01*
X-42875Y-34225D01*
X-42828Y-34306D01*
X-42874Y-34534D01*
X-42874Y-41620D01*
X-42789Y-42046D01*
X-42548Y-42406D01*
X-42187Y-42647D01*
X-41762Y-42732D01*
X-41336Y-42647D01*
X-40975Y-42406D01*
X-40579Y-42406D01*
X-40219Y-42647D01*
X-39793Y-42732D01*
X-39368Y-42647D01*
X-39149Y-42501D01*
X-38611Y-42406D01*
X-38250Y-42647D01*
X-37825Y-42732D01*
X-37399Y-42647D01*
X-37038Y-42406D01*
X-36642Y-42406D01*
X-36282Y-42647D01*
X-35986Y-42706D01*
X-35809Y-43072D01*
X-35789Y-43216D01*
X-38461Y-45888D01*
X-44739Y-45888D01*
X-47814Y-42814D01*
X-48175Y-42573D01*
X-48600Y-42488D01*
X-48600Y-42488D01*
X-49193Y-42488D01*
X-49621Y-42202D01*
X-50200Y-42087D01*
X-50779Y-42202D01*
X-51270Y-42530D01*
X-51598Y-43021D01*
X-51713Y-43600D01*
X-51598Y-44179D01*
X-51270Y-44670D01*
X-51142Y-44756D01*
X-51109Y-45313D01*
X-51407Y-45588D01*
X-56091Y-45588D01*
X-56091Y-45588D01*
X-56517Y-45673D01*
X-56689Y-45788D01*
X-57311Y-45788D01*
X-57558Y-45288D01*
X-57442Y-45136D01*
X-57183Y-44511D01*
X-57160Y-44341D01*
X-59685Y-44341D01*
X-59685Y-43841D01*
X-60185Y-43841D01*
X-60185Y-41316D01*
X-60356Y-41338D01*
X-60451Y-41378D01*
X-60703Y-40941D01*
X-60353Y-40673D01*
X-59942Y-40136D01*
X-59683Y-39511D01*
X-59660Y-39341D01*
X-61685Y-39341D01*
X-61685Y-41366D01*
X-61515Y-41343D01*
X-61419Y-41304D01*
X-61167Y-41740D01*
X-61517Y-42009D01*
X-61929Y-42545D01*
X-61948Y-42593D01*
X-62513Y-42649D01*
X-62905Y-42061D01*
X-63722Y-41515D01*
X-64685Y-41324D01*
X-65648Y-41515D01*
X-66465Y-42061D01*
X-67010Y-42878D01*
X-67202Y-43841D01*
X-67010Y-44804D01*
X-66465Y-45620D01*
X-65803Y-46063D01*
X-65788Y-46104D01*
X-65788Y-46577D01*
X-65803Y-46619D01*
X-66465Y-47061D01*
X-67010Y-47877D01*
X-67202Y-48841D01*
X-67010Y-49804D01*
X-66465Y-50620D01*
X-65803Y-51063D01*
X-65788Y-51104D01*
X-65788Y-51577D01*
X-65803Y-51618D01*
X-66465Y-52061D01*
X-67010Y-52877D01*
X-67202Y-53841D01*
X-67010Y-54804D01*
X-66465Y-55620D01*
X-65803Y-56063D01*
X-65788Y-56104D01*
X-65788Y-56577D01*
X-65803Y-56618D01*
X-66465Y-57061D01*
X-67010Y-57877D01*
X-67202Y-58841D01*
X-67010Y-59804D01*
X-66465Y-60620D01*
X-65803Y-61063D01*
X-65788Y-61104D01*
X-65788Y-61577D01*
X-65803Y-61619D01*
X-66465Y-62061D01*
X-67010Y-62878D01*
X-67202Y-63841D01*
X-67010Y-64804D01*
X-66465Y-65620D01*
X-65648Y-66166D01*
X-64685Y-66357D01*
X-63722Y-66166D01*
X-62905Y-65620D01*
X-62463Y-64958D01*
X-62422Y-64944D01*
X-61949Y-64944D01*
X-61907Y-64958D01*
X-61465Y-65620D01*
X-60648Y-66166D01*
X-59685Y-66357D01*
X-58722Y-66166D01*
X-57905Y-65620D01*
X-57360Y-64804D01*
X-57168Y-63841D01*
X-57360Y-62878D01*
X-57905Y-62061D01*
X-58493Y-61668D01*
X-58438Y-61104D01*
X-58390Y-61084D01*
X-57853Y-60673D01*
X-57442Y-60136D01*
X-57183Y-59511D01*
X-57160Y-59341D01*
X-59685Y-59341D01*
X-59685Y-58341D01*
X-57160Y-58341D01*
X-57183Y-58170D01*
X-57442Y-57545D01*
X-57853Y-57009D01*
X-58366Y-56616D01*
X-58405Y-56346D01*
X-58405Y-56336D01*
X-58366Y-56066D01*
X-57853Y-55673D01*
X-57442Y-55136D01*
X-57183Y-54511D01*
X-57160Y-54341D01*
X-59685Y-54341D01*
X-59685Y-53341D01*
X-57160Y-53341D01*
X-57183Y-53170D01*
X-57442Y-52545D01*
X-57774Y-52112D01*
X-57617Y-51612D01*
X-54391Y-51612D01*
X-54184Y-52112D01*
X-55388Y-53316D01*
X-55629Y-53676D01*
X-55714Y-54102D01*
X-55714Y-54102D01*
X-55714Y-58413D01*
X-56000Y-58842D01*
X-56115Y-59421D01*
X-56000Y-60000D01*
X-55672Y-60491D01*
X-55181Y-60819D01*
X-54930Y-60869D01*
X-54825Y-61400D01*
X-54870Y-61430D01*
X-55198Y-61921D01*
X-55313Y-62500D01*
X-55198Y-63079D01*
X-54870Y-63570D01*
X-54379Y-63898D01*
X-53800Y-64013D01*
X-53221Y-63898D01*
X-52793Y-63612D01*
X-51793Y-63612D01*
X-51525Y-64112D01*
X-51598Y-64221D01*
X-51713Y-64800D01*
X-51598Y-65379D01*
X-51270Y-65870D01*
X-50779Y-66198D01*
X-50200Y-66313D01*
X-49621Y-66198D01*
X-49193Y-65912D01*
X-28538Y-65912D01*
X-24664Y-69786D01*
X-24664Y-69786D01*
X-24303Y-70027D01*
X-23877Y-70112D01*
X-23877Y-70112D01*
X-6491Y-70112D01*
X-6491Y-70112D01*
X-6066Y-70027D01*
X-5705Y-69786D01*
X-4214Y-68295D01*
X-4214Y-68295D01*
X-3973Y-67935D01*
X-3953Y-67834D01*
X-3453Y-67883D01*
X-3453Y-68453D01*
X3453Y-68453D01*
X3453Y-66112D01*
X25200Y-66112D01*
X25200Y-66112D01*
X25626Y-66027D01*
X25986Y-65786D01*
X30661Y-61112D01*
X32462Y-61112D01*
X32600Y-61443D01*
X33059Y-62041D01*
X33656Y-62500D01*
X34353Y-62788D01*
X35100Y-62887D01*
X35847Y-62788D01*
X36544Y-62500D01*
X37141Y-62041D01*
X37600Y-61443D01*
X37738Y-61112D01*
X67362Y-61112D01*
X67500Y-61443D01*
X67959Y-62041D01*
X68557Y-62500D01*
X69253Y-62788D01*
X70000Y-62887D01*
X70747Y-62788D01*
X71443Y-62500D01*
X72041Y-62041D01*
X72500Y-61443D01*
X72789Y-60747D01*
X72887Y-60000D01*
X72789Y-59253D01*
X72500Y-58557D01*
X72041Y-57959D01*
X71443Y-57500D01*
X70747Y-57212D01*
X70000Y-57113D01*
X69253Y-57212D01*
X68557Y-57500D01*
X67959Y-57959D01*
X67500Y-58557D01*
X67362Y-58888D01*
X37738Y-58888D01*
X37600Y-58557D01*
X37141Y-57959D01*
X36544Y-57500D01*
X35847Y-57212D01*
X35100Y-57113D01*
X34353Y-57212D01*
X33656Y-57500D01*
X33059Y-57959D01*
X32600Y-58557D01*
X32462Y-58888D01*
X30200Y-58888D01*
X30200Y-58888D01*
X29774Y-58973D01*
X29414Y-59214D01*
X29414Y-59214D01*
X24739Y-63888D01*
X21172Y-63888D01*
X21073Y-63388D01*
X21692Y-63131D01*
X22393Y-62594D01*
X22931Y-61892D01*
X23269Y-61076D01*
X23319Y-60700D01*
X20000Y-60700D01*
X16681Y-60700D01*
X16730Y-61076D01*
X17069Y-61892D01*
X17606Y-62594D01*
X18308Y-63131D01*
X18927Y-63388D01*
X18828Y-63888D01*
X3453Y-63888D01*
X3453Y-61547D01*
X-3388Y-61547D01*
X-3453Y-61547D01*
X-3888Y-61391D01*
X-3888Y-56204D01*
X-3388Y-56104D01*
X-3103Y-56792D01*
X-2534Y-57534D01*
X-1792Y-58103D01*
X-927Y-58461D01*
X-500Y-58518D01*
X-500Y-55000D01*
X0Y-55000D01*
X0Y-54500D01*
X3518Y-54500D01*
X3461Y-54073D01*
X3103Y-53208D01*
X2534Y-52466D01*
X1792Y-51897D01*
X1104Y-51612D01*
X1204Y-51112D01*
X7500Y-51112D01*
X7500Y-51112D01*
X7925Y-51027D01*
X8286Y-50786D01*
X11286Y-47786D01*
X11527Y-47425D01*
X11612Y-47000D01*
X11612Y-39461D01*
X11961Y-39112D01*
X69500Y-39112D01*
X69500Y-39112D01*
X69925Y-39027D01*
X70286Y-38786D01*
X75786Y-33286D01*
X75786Y-33286D01*
X76027Y-32926D01*
X76112Y-32500D01*
X76112Y-10000D01*
X76112Y-10000D01*
X76027Y-9574D01*
X75786Y-9214D01*
X63612Y2961D01*
X63612Y9227D01*
X63706Y9290D01*
X64077Y9846D01*
X64208Y10502D01*
X64208Y16801D01*
X64077Y17457D01*
X63706Y18013D01*
X63150Y18384D01*
X62786Y18457D01*
X62835Y18957D01*
X66696Y18957D01*
X66696Y22600D01*
X60100Y22600D01*
X60100Y18957D01*
X62152Y18957D01*
X62201Y18457D01*
X61838Y18384D01*
X61282Y18013D01*
X60910Y17457D01*
X60780Y16801D01*
X60780Y10502D01*
X60910Y9846D01*
X61282Y9290D01*
X61388Y9218D01*
X61388Y2500D01*
X61388Y2500D01*
X61473Y2074D01*
X61714Y1714D01*
X73888Y-10461D01*
X73888Y-32039D01*
X69039Y-36888D01*
X11500Y-36888D01*
X11074Y-36973D01*
X10714Y-37214D01*
X10714Y-37214D01*
X9714Y-38214D01*
X9473Y-38574D01*
X9388Y-39000D01*
X9388Y-39000D01*
X9388Y-46539D01*
X7039Y-48888D01*
X750Y-48888D01*
X717Y-48388D01*
X901Y-48364D01*
X1741Y-48016D01*
X2462Y-47462D01*
X3016Y-46741D01*
X3364Y-45901D01*
X3483Y-45000D01*
X3364Y-44099D01*
X3103Y-43469D01*
X5786Y-40786D01*
X5786Y-40786D01*
X6027Y-40426D01*
X6112Y-40000D01*
X6112Y-40000D01*
X6112Y-31000D01*
X6027Y-30575D01*
X5786Y-30214D01*
X5786Y-30214D01*
X4786Y-29214D01*
X4425Y-28973D01*
X4000Y-28888D01*
X4000Y-28888D01*
X750Y-28888D01*
X717Y-28388D01*
X901Y-28364D01*
X1741Y-28016D01*
X2462Y-27463D01*
X3016Y-26741D01*
X3364Y-25901D01*
X3483Y-25000D01*
X3364Y-24099D01*
X3016Y-23259D01*
X2462Y-22537D01*
X1741Y-21984D01*
X901Y-21636D01*
X0Y-21518D01*
X-901Y-21636D01*
X-1741Y-21984D01*
X-2462Y-22537D01*
X-2802Y-22980D01*
X-3413Y-23014D01*
X-4888Y-21539D01*
X-4888Y-15000D01*
X-4888Y-15000D01*
X-4973Y-14574D01*
X-5214Y-14214D01*
X-7045Y-12383D01*
X-7120Y-12167D01*
X-7060Y-11741D01*
X-6431Y-11112D01*
X-750Y-11112D01*
X-717Y-11612D01*
X-901Y-11636D01*
X-1741Y-11984D01*
X-2462Y-12538D01*
X-3016Y-13259D01*
X-3364Y-14099D01*
X-3483Y-15000D01*
X-3364Y-15901D01*
X-3016Y-16741D01*
X-2462Y-17462D01*
X-1741Y-18016D01*
X-901Y-18364D01*
X0Y-18483D01*
X901Y-18364D01*
X1741Y-18016D01*
X2462Y-17462D01*
X3016Y-16741D01*
X3277Y-16112D01*
X8000Y-16112D01*
X8000Y-16112D01*
X8426Y-16027D01*
X8786Y-15786D01*
X13786Y-10786D01*
X13786Y-10786D01*
X14027Y-10425D01*
X14112Y-10000D01*
X14112Y-10000D01*
X14112Y32000D01*
X14112Y32000D01*
X14027Y32425D01*
X13786Y32786D01*
X13786Y32786D01*
X3103Y43469D01*
X3364Y44099D01*
X3483Y45000D01*
X3364Y45901D01*
X3016Y46741D01*
X2462Y47462D01*
X1741Y48016D01*
X901Y48364D01*
X0Y48482D01*
X-901Y48364D01*
X-1741Y48016D01*
X-2462Y47462D01*
X-3016Y46741D01*
X-3364Y45901D01*
X-3483Y45000D01*
X-3364Y44099D01*
X-3103Y43469D01*
X-7786Y38786D01*
X-8027Y38425D01*
X-8112Y38000D01*
X-8112Y38000D01*
X-8112Y23461D01*
X-12722Y18850D01*
X-13249Y19031D01*
X-13265Y19162D01*
X-9214Y23214D01*
X-9214Y23214D01*
X-8973Y23574D01*
X-8888Y24000D01*
X-8888Y24000D01*
X-8888Y44539D01*
X-1531Y51897D01*
X-901Y51636D01*
X0Y51517D01*
X901Y51636D01*
X1741Y51984D01*
X2462Y52538D01*
X3016Y53259D01*
X3364Y54099D01*
X3483Y55000D01*
X3364Y55901D01*
X3016Y56741D01*
X2462Y57463D01*
X1741Y58016D01*
X901Y58364D01*
X0Y58482D01*
X-901Y58364D01*
X-1741Y58016D01*
X-2462Y57463D01*
X-3016Y56741D01*
X-3364Y55901D01*
X-3483Y55000D01*
X-3364Y54099D01*
X-3103Y53469D01*
X-10388Y46184D01*
X-10888Y46391D01*
X-10888Y52539D01*
X-1531Y61897D01*
X-901Y61636D01*
X0Y61518D01*
X901Y61636D01*
X1741Y61984D01*
X2462Y62537D01*
X3016Y63259D01*
X3364Y64099D01*
X3483Y65000D01*
X3364Y65901D01*
X3016Y66741D01*
X2462Y67462D01*
X1741Y68016D01*
X901Y68364D01*
X0Y68483D01*
X-901Y68364D01*
X-1741Y68016D01*
X-2462Y67462D01*
X-3016Y66741D01*
X-3364Y65901D01*
X-3483Y65000D01*
X-3364Y64099D01*
X-3103Y63469D01*
X-12786Y53786D01*
X-13027Y53426D01*
X-13112Y53000D01*
X-13112Y53000D01*
X-13112Y31461D01*
X-36642Y7930D01*
X-36883Y7569D01*
X-36968Y7144D01*
X-36968Y7144D01*
X-36968Y1223D01*
X-37468Y1016D01*
X-39157Y2705D01*
X-38656Y3358D01*
X-38328Y4150D01*
X-38216Y5000D01*
X-38328Y5850D01*
X-38656Y6642D01*
X-39178Y7322D01*
X-39586Y7635D01*
X-39659Y8269D01*
X-30868Y17059D01*
X-30868Y17059D01*
X-30627Y17420D01*
X-30542Y17846D01*
X-30542Y22725D01*
X-29973Y22725D01*
X-29973Y26828D01*
X-29675Y26828D01*
X-29675Y28700D01*
X-31653Y28700D01*
X-33631Y28700D01*
X-33631Y26828D01*
X-33335Y26828D01*
X-33335Y22725D01*
X-32766Y22725D01*
X-32766Y18306D01*
X-42502Y8571D01*
X-42743Y8210D01*
X-42786Y7991D01*
X-43142Y7844D01*
X-43822Y7322D01*
X-44344Y6642D01*
X-44388Y6536D01*
X-44888Y6635D01*
X-44888Y9539D01*
X-34914Y19514D01*
X-34673Y19874D01*
X-34588Y20300D01*
X-34588Y20300D01*
X-34588Y32339D01*
X-34339Y32588D01*
X-22300Y32588D01*
X-22300Y32588D01*
X-21874Y32673D01*
X-21514Y32914D01*
X-14214Y40214D01*
X-13973Y40574D01*
X-13888Y41000D01*
X-13888Y41000D01*
X-13888Y65639D01*
X-9979Y69549D01*
X-9647Y69411D01*
X-8900Y69313D01*
X-8153Y69411D01*
X-7457Y69700D01*
X-6859Y70159D01*
X-6400Y70757D01*
X-6345Y70888D01*
X-5000Y70888D01*
X-5000Y70888D01*
X-4575Y70973D01*
X-4214Y71214D01*
X-3539Y71888D01*
X2669Y71888D01*
X2669Y71228D01*
X6425Y71228D01*
X6425Y75772D01*
X2669Y75772D01*
X2669Y74112D01*
X-4000Y74112D01*
X-4425Y74027D01*
X-4786Y73786D01*
X-4786Y73786D01*
X-5461Y73112D01*
X-6180Y73112D01*
X-6400Y73643D01*
X-6859Y74241D01*
X-7457Y74700D01*
X-8153Y74989D01*
X-8900Y75087D01*
X-9647Y74989D01*
X-10343Y74700D01*
X-10941Y74241D01*
X-11400Y73643D01*
X-11688Y72947D01*
X-11787Y72200D01*
X-11688Y71453D01*
X-11551Y71121D01*
X-15786Y66886D01*
X-16027Y66526D01*
X-16112Y66100D01*
X-16112Y66100D01*
X-16112Y41461D01*
X-22761Y34812D01*
X-34800Y34812D01*
X-35225Y34727D01*
X-35586Y34486D01*
X-35586Y34486D01*
X-36486Y33586D01*
X-36707Y33256D01*
X-36744Y33250D01*
X-37207Y33512D01*
X-37207Y38832D01*
X-36935Y39219D01*
X-36707Y39219D01*
X-34571Y39219D01*
X-34571Y41000D01*
X-34571Y42781D01*
X-36935Y42781D01*
X-36935Y42004D01*
X-37435Y41852D01*
X-37533Y41999D01*
X-40165Y44631D01*
X-40165Y46421D01*
X-45693Y46421D01*
X-45693Y43937D01*
X-45782Y43848D01*
X-49237Y43848D01*
X-49323Y43976D01*
X-49521Y44109D01*
X-49521Y44710D01*
X-49323Y44843D01*
X-48943Y45412D01*
X-48809Y46083D01*
X-48943Y46754D01*
X-49323Y47323D01*
X-49461Y47416D01*
X-49309Y47916D01*
X-40571Y47916D01*
X-40571Y47916D01*
X-39992Y48031D01*
X-39501Y48359D01*
X-21930Y65930D01*
X-21930Y65930D01*
X-21602Y66421D01*
X-21487Y67000D01*
X-21487Y67000D01*
X-21487Y75728D01*
X-20669Y75728D01*
X-20669Y77487D01*
X15274Y77487D01*
X15274Y65902D01*
X15228Y65421D01*
X14774Y65421D01*
X11565Y65421D01*
X11565Y71228D01*
X12331Y71228D01*
X12331Y75772D01*
X8575Y75772D01*
X8575Y71228D01*
X9341Y71228D01*
X9341Y65421D01*
X8520Y65421D01*
X8520Y62059D01*
X15228Y62059D01*
X15274Y61578D01*
X15274Y58041D01*
X12374Y58041D01*
X12374Y56260D01*
X12374Y54479D01*
X15274Y54479D01*
X15274Y34400D01*
X15250Y34400D01*
X15250Y28600D01*
X19850Y28600D01*
X19850Y34400D01*
X18301Y34400D01*
X18301Y45727D01*
X19807Y45727D01*
X19807Y45559D01*
X25335Y45559D01*
X25335Y48921D01*
X19807Y48921D01*
X19807Y48753D01*
X18301Y48753D01*
X18301Y53388D01*
X21669Y53388D01*
X21669Y52228D01*
X25425Y52228D01*
X25425Y56772D01*
X21669Y56772D01*
X21669Y55612D01*
X18301Y55612D01*
X18301Y58319D01*
X24480Y58319D01*
X24480Y61681D01*
X23714Y61681D01*
X23714Y64095D01*
X25843Y66224D01*
X25867Y66228D01*
X28425Y66228D01*
X28425Y70728D01*
X28425Y75272D01*
X24669Y75272D01*
X24669Y70728D01*
X24669Y68165D01*
X24580Y68105D01*
X24580Y68105D01*
X21816Y65341D01*
X21575Y64981D01*
X21490Y64555D01*
X21490Y64555D01*
X21490Y61681D01*
X18301Y61681D01*
X18301Y77487D01*
X73373Y77487D01*
X76487Y74373D01*
X76487Y67873D01*
X76386Y67789D01*
X75786Y67786D01*
X75786Y67786D01*
X74286Y69286D01*
X73926Y69527D01*
X73500Y69612D01*
X73500Y69612D01*
X70851Y69612D01*
X70747Y70086D01*
X71443Y70374D01*
X72041Y70833D01*
X72500Y71431D01*
X72789Y72127D01*
X72887Y72874D01*
X72789Y73621D01*
X72500Y74318D01*
X72041Y74915D01*
X71443Y75374D01*
X70747Y75662D01*
X70000Y75761D01*
X69253Y75662D01*
X68557Y75374D01*
X67959Y74915D01*
X67500Y74318D01*
X67362Y73986D01*
X34331Y73986D01*
X34331Y75272D01*
X30575Y75272D01*
X30575Y70728D01*
X30575Y66228D01*
X34331Y66228D01*
X34331Y67388D01*
X67635Y67388D01*
X67841Y66888D01*
X67500Y66443D01*
X67362Y66112D01*
X44000Y66112D01*
X43575Y66027D01*
X43214Y65786D01*
X43214Y65786D01*
X36214Y58786D01*
X35973Y58425D01*
X35888Y58000D01*
X35888Y58000D01*
X35888Y46507D01*
X35602Y46079D01*
X35487Y45500D01*
X35487Y45013D01*
X34193Y45013D01*
X34193Y45181D01*
X28665Y45181D01*
X28665Y41819D01*
X34193Y41819D01*
X34193Y41987D01*
X35487Y41987D01*
X35487Y4000D01*
X35487Y-12154D01*
X34959Y-12559D01*
X34500Y-13157D01*
X34212Y-13853D01*
X34113Y-14600D01*
X34212Y-15347D01*
X34500Y-16044D01*
X34959Y-16641D01*
X35557Y-17100D01*
X35628Y-17130D01*
X35628Y-20728D01*
X34075Y-20728D01*
X34075Y-25170D01*
X33975Y-25628D01*
X33975Y-25730D01*
X33975Y-27500D01*
X35953Y-27500D01*
X37931Y-27500D01*
X37931Y-25730D01*
X37931Y-25628D01*
X37831Y-25170D01*
X37831Y-22320D01*
X37852Y-22213D01*
X37852Y-22212D01*
X37852Y-18246D01*
X38314Y-18054D01*
X41030Y-20770D01*
X41030Y-20770D01*
X44330Y-24070D01*
X44821Y-24398D01*
X45400Y-24513D01*
X45400Y-24513D01*
X48247Y-24513D01*
X48247Y-25799D01*
X55153Y-25799D01*
X55153Y-24513D01*
X67138Y-24513D01*
X67138Y-25862D01*
X72862Y-25862D01*
X72862Y-20138D01*
X67138Y-20138D01*
X67138Y-21487D01*
X55153Y-21487D01*
X55153Y-19681D01*
X48247Y-19681D01*
X48247Y-21487D01*
X46027Y-21487D01*
X43170Y-18630D01*
X43170Y-18630D01*
X43170Y-18630D01*
X39800Y-15260D01*
X39887Y-14600D01*
X39788Y-13853D01*
X39500Y-13157D01*
X39041Y-12559D01*
X38513Y-12154D01*
X38513Y2487D01*
X48000Y2487D01*
X48000Y2487D01*
X48579Y2602D01*
X49070Y2930D01*
X53566Y7426D01*
X53566Y7426D01*
X53894Y7917D01*
X54010Y8496D01*
X54010Y8496D01*
X54010Y9744D01*
X54077Y9846D01*
X54208Y10502D01*
X54208Y16801D01*
X54077Y17457D01*
X53706Y18013D01*
X53150Y18384D01*
X52903Y18433D01*
X52879Y18456D01*
X52964Y18915D01*
X52982Y18957D01*
X53003Y18957D01*
X57152Y18957D01*
X57201Y18457D01*
X56838Y18384D01*
X56282Y18013D01*
X55910Y17457D01*
X55780Y16801D01*
X55780Y10502D01*
X55910Y9846D01*
X56282Y9290D01*
X56838Y8918D01*
X57494Y8788D01*
X58150Y8918D01*
X58706Y9290D01*
X59077Y9846D01*
X59208Y10502D01*
X59208Y16801D01*
X59077Y17457D01*
X58706Y18013D01*
X58150Y18384D01*
X57786Y18457D01*
X57835Y18957D01*
X59100Y18957D01*
X59100Y22600D01*
X52504Y22600D01*
X52504Y18988D01*
X52503Y18953D01*
X52406Y18497D01*
X52327Y18482D01*
X51838Y18384D01*
X51282Y18013D01*
X50910Y17457D01*
X50780Y16801D01*
X50780Y10502D01*
X50910Y9846D01*
X50983Y9737D01*
X50983Y9123D01*
X47373Y5513D01*
X38513Y5513D01*
X38513Y43500D01*
X38513Y45500D01*
X38398Y46079D01*
X38112Y46507D01*
X38112Y57539D01*
X44461Y63888D01*
X67362Y63888D01*
X67500Y63557D01*
X67959Y62959D01*
X68557Y62500D01*
X69253Y62212D01*
X70000Y62113D01*
X70747Y62212D01*
X71443Y62500D01*
X72041Y62959D01*
X72500Y63557D01*
X72789Y64253D01*
X72887Y65000D01*
X72789Y65747D01*
X72500Y66443D01*
X72159Y66888D01*
X72365Y67388D01*
X73039Y67388D01*
X73888Y66539D01*
X73888Y62586D01*
X71290Y59988D01*
X67138Y59988D01*
X67138Y54264D01*
X72862Y54264D01*
X72862Y58416D01*
X75786Y61340D01*
X75786Y61340D01*
X76386Y61337D01*
X76487Y61253D01*
X76487Y55627D01*
X73373Y52513D01*
X52953Y52513D01*
X52953Y54299D01*
X46047Y54299D01*
X46047Y48181D01*
X52953Y48181D01*
X52953Y49487D01*
X74000Y49487D01*
X74000Y49487D01*
X74579Y49602D01*
X75070Y49930D01*
X79070Y53930D01*
X79070Y53930D01*
X79398Y54421D01*
X79513Y55000D01*
X79513Y75000D01*
X79398Y75579D01*
X79070Y76070D01*
X79070Y76070D01*
X75070Y80070D01*
X74579Y80398D01*
X74483Y80417D01*
X74000Y80513D01*
X74000Y80513D02*
G37*
G36*
X-38376Y68317D02*
X-39854Y68317D01*
X-39854Y66445D01*
X-38376Y66445D01*
X-38376Y68317D01*
X-38376Y68317D02*
G37*
G36*
X-40854Y68317D02*
X-42332Y68317D01*
X-42332Y66445D01*
X-40854Y66445D01*
X-40854Y68317D01*
X-40854Y68317D02*
G37*
G36*
X-38376Y65445D02*
X-40354Y65445D01*
X-42332Y65445D01*
X-42332Y63895D01*
X-42332Y63395D01*
X-42332Y63073D01*
X-42332Y61524D01*
X-40354Y61524D01*
X-38376Y61524D01*
X-38376Y63073D01*
X-38376Y63573D01*
X-38376Y63895D01*
X-38376Y65445D01*
X-38376Y65445D02*
G37*
G36*
X-38376Y60524D02*
X-39854Y60524D01*
X-39854Y58652D01*
X-38376Y58652D01*
X-38376Y60524D01*
X-38376Y60524D02*
G37*
G36*
X-40854Y60524D02*
X-42332Y60524D01*
X-42332Y58652D01*
X-40854Y58652D01*
X-40854Y60524D01*
X-40854Y60524D02*
G37*
G36*
X-51823Y60682D02*
X-54275Y60682D01*
X-54275Y58591D01*
X-49298Y58591D01*
X-49320Y58762D01*
X-49579Y59386D01*
X-49991Y59923D01*
X-50527Y60335D01*
X-51152Y60593D01*
X-51823Y60682D01*
X-51823Y60682D02*
G37*
G36*
X-55275Y60682D02*
X-57728Y60682D01*
X-58399Y60593D01*
X-59023Y60335D01*
X-59560Y59923D01*
X-59972Y59386D01*
X-60230Y58762D01*
X-60253Y58591D01*
X-55275Y58591D01*
X-55275Y60682D01*
X-55275Y60682D02*
G37*
G36*
X-66508Y60682D02*
X-67582Y60682D01*
X-67582Y58591D01*
X-63983Y58591D01*
X-64005Y58762D01*
X-64264Y59386D01*
X-64676Y59923D01*
X-65212Y60335D01*
X-65837Y60593D01*
X-66508Y60682D01*
X-66508Y60682D02*
G37*
G36*
X-68582Y60682D02*
X-69657Y60682D01*
X-70328Y60593D01*
X-70953Y60335D01*
X-71489Y59923D01*
X-71901Y59386D01*
X-72160Y58762D01*
X-72182Y58591D01*
X-68582Y58591D01*
X-68582Y60682D01*
X-68582Y60682D02*
G37*
G36*
X11374Y58041D02*
X8420Y58041D01*
X8420Y56760D01*
X11374Y56760D01*
X11374Y58041D01*
X11374Y58041D02*
G37*
G36*
X-49298Y57591D02*
X-54275Y57591D01*
X-54275Y55500D01*
X-51823Y55500D01*
X-51152Y55589D01*
X-50527Y55847D01*
X-49991Y56259D01*
X-49579Y56796D01*
X-49320Y57420D01*
X-49298Y57591D01*
X-49298Y57591D02*
G37*
G36*
X-55275Y57591D02*
X-60253Y57591D01*
X-60230Y57420D01*
X-59972Y56796D01*
X-59560Y56259D01*
X-59023Y55847D01*
X-58399Y55589D01*
X-57728Y55500D01*
X-55275Y55500D01*
X-55275Y57591D01*
X-55275Y57591D02*
G37*
G36*
X-63983Y57591D02*
X-67582Y57591D01*
X-67582Y55500D01*
X-66508Y55500D01*
X-65837Y55589D01*
X-65212Y55847D01*
X-64676Y56259D01*
X-64264Y56796D01*
X-64005Y57420D01*
X-63983Y57591D01*
X-63983Y57591D02*
G37*
G36*
X-68582Y57591D02*
X-72182Y57591D01*
X-72160Y57420D01*
X-71901Y56796D01*
X-71489Y56259D01*
X-70953Y55847D01*
X-70328Y55589D01*
X-69657Y55500D01*
X-68582Y55500D01*
X-68582Y57591D01*
X-68582Y57591D02*
G37*
G36*
X31431Y56872D02*
X29953Y56872D01*
X29953Y55000D01*
X31431Y55000D01*
X31431Y56872D01*
X31431Y56872D02*
G37*
G36*
X28953Y56872D02*
X27475Y56872D01*
X27475Y55000D01*
X28953Y55000D01*
X28953Y56872D01*
X28953Y56872D02*
G37*
G36*
X11374Y55760D02*
X8420Y55760D01*
X8420Y54479D01*
X11374Y54479D01*
X11374Y55760D01*
X11374Y55760D02*
G37*
G36*
X-55731Y54603D02*
X-55731Y53276D01*
X-54120Y53276D01*
X-54162Y53486D01*
X-54565Y54088D01*
X-55167Y54491D01*
X-55731Y54603D01*
X-55731Y54603D02*
G37*
G36*
X-50418Y54603D02*
X-50418Y53276D01*
X-48807Y53276D01*
X-48848Y53486D01*
X-49251Y54088D01*
X-49853Y54491D01*
X-50418Y54603D01*
X-50418Y54603D02*
G37*
G36*
X-51417Y54603D02*
X-51982Y54491D01*
X-52584Y54088D01*
X-52987Y53486D01*
X-53029Y53276D01*
X-51417Y53276D01*
X-51417Y54603D01*
X-51417Y54603D02*
G37*
G36*
X-56731Y54603D02*
X-57296Y54491D01*
X-57898Y54088D01*
X-58301Y53486D01*
X-58342Y53276D01*
X-56731Y53276D01*
X-56731Y54603D01*
X-56731Y54603D02*
G37*
G36*
X31431Y54000D02*
X29953Y54000D01*
X29953Y52128D01*
X31431Y52128D01*
X31431Y54000D01*
X31431Y54000D02*
G37*
G36*
X28953Y54000D02*
X27475Y54000D01*
X27475Y52128D01*
X28953Y52128D01*
X28953Y54000D01*
X28953Y54000D02*
G37*
G36*
X59025Y44772D02*
X57547Y44772D01*
X57547Y42900D01*
X59025Y42900D01*
X59025Y44772D01*
X59025Y44772D02*
G37*
G36*
X56547Y44772D02*
X55069Y44772D01*
X55069Y42900D01*
X56547Y42900D01*
X56547Y44772D01*
X56547Y44772D02*
G37*
G36*
X-31207Y42781D02*
X-33571Y42781D01*
X-33571Y41500D01*
X-31207Y41500D01*
X-31207Y42781D01*
X-31207Y42781D02*
G37*
G36*
X59025Y41900D02*
X57547Y41900D01*
X57547Y40028D01*
X59025Y40028D01*
X59025Y41900D01*
X59025Y41900D02*
G37*
G36*
X56547Y41900D02*
X55069Y41900D01*
X55069Y40028D01*
X56547Y40028D01*
X56547Y41900D01*
X56547Y41900D02*
G37*
G36*
X-31207Y40500D02*
X-33571Y40500D01*
X-33571Y39219D01*
X-31207Y39219D01*
X-31207Y40500D01*
X-31207Y40500D02*
G37*
G36*
X52953Y46819D02*
X46047Y46819D01*
X46047Y40701D01*
X48586Y40701D01*
X48586Y39401D01*
X48586Y39401D01*
X48701Y38822D01*
X49029Y38331D01*
X50911Y36448D01*
X50911Y36356D01*
X50910Y36354D01*
X50780Y35698D01*
X50780Y33253D01*
X47453Y33253D01*
X47453Y34799D01*
X40547Y34799D01*
X40547Y28681D01*
X47453Y28681D01*
X47453Y30227D01*
X50780Y30227D01*
X50780Y29399D01*
X50910Y28743D01*
X51282Y28187D01*
X51838Y27816D01*
X52297Y27724D01*
X52406Y27703D01*
X52503Y27247D01*
X52504Y27212D01*
X52504Y26883D01*
X52504Y23600D01*
X59100Y23600D01*
X59100Y27243D01*
X58504Y27243D01*
X58216Y27707D01*
X58221Y27743D01*
X58778Y28115D01*
X59171Y28704D01*
X59310Y29399D01*
X59310Y32049D01*
X55678Y32049D01*
X55678Y29399D01*
X55816Y28704D01*
X56210Y28115D01*
X56766Y27743D01*
X56771Y27707D01*
X56484Y27243D01*
X53003Y27243D01*
X52972Y27243D01*
X52834Y27258D01*
X52786Y27743D01*
X53150Y27816D01*
X53706Y28187D01*
X54077Y28743D01*
X54208Y29399D01*
X54208Y35698D01*
X54077Y36354D01*
X53938Y36563D01*
X53938Y37075D01*
X53938Y37075D01*
X53823Y37655D01*
X53495Y38145D01*
X53495Y38145D01*
X51612Y40028D01*
X51612Y40701D01*
X52953Y40701D01*
X52953Y46819D01*
X52953Y46819D02*
G37*
G36*
X67994Y37415D02*
X67994Y33049D01*
X69310Y33049D01*
X69310Y35698D01*
X69172Y36393D01*
X68778Y36983D01*
X68189Y37376D01*
X67994Y37415D01*
X67994Y37415D02*
G37*
G36*
X66994Y37415D02*
X66799Y37376D01*
X66210Y36983D01*
X65816Y36393D01*
X65678Y35698D01*
X65678Y33049D01*
X66994Y33049D01*
X66994Y37415D01*
X66994Y37415D02*
G37*
G36*
X57994Y37415D02*
X57994Y33049D01*
X59310Y33049D01*
X59310Y35698D01*
X59171Y36393D01*
X58778Y36983D01*
X58189Y37376D01*
X57994Y37415D01*
X57994Y37415D02*
G37*
G36*
X56994Y37415D02*
X56799Y37376D01*
X56210Y36983D01*
X55816Y36393D01*
X55678Y35698D01*
X55678Y33049D01*
X56994Y33049D01*
X56994Y37415D01*
X56994Y37415D02*
G37*
G36*
X-29675Y31572D02*
X-31153Y31572D01*
X-31153Y29700D01*
X-29675Y29700D01*
X-29675Y31572D01*
X-29675Y31572D02*
G37*
G36*
X-32153Y31572D02*
X-33631Y31572D01*
X-33631Y29700D01*
X-32153Y29700D01*
X-32153Y31572D01*
X-32153Y31572D02*
G37*
G36*
X69310Y32049D02*
X67994Y32049D01*
X67994Y27683D01*
X68189Y27721D01*
X68778Y28115D01*
X69172Y28704D01*
X69310Y29399D01*
X69310Y32049D01*
X69310Y32049D02*
G37*
G36*
X66994Y32049D02*
X65678Y32049D01*
X65678Y29399D01*
X65816Y28704D01*
X66210Y28115D01*
X66799Y27721D01*
X66994Y27683D01*
X66994Y32049D01*
X66994Y32049D02*
G37*
G36*
X-54120Y28850D02*
X-55731Y28850D01*
X-55731Y27523D01*
X-55167Y27635D01*
X-54565Y28038D01*
X-54162Y28640D01*
X-54120Y28850D01*
X-54120Y28850D02*
G37*
G36*
X-48807Y28850D02*
X-50418Y28850D01*
X-50418Y27523D01*
X-49853Y27635D01*
X-49251Y28038D01*
X-48848Y28640D01*
X-48807Y28850D01*
X-48807Y28850D02*
G37*
G36*
X-51417Y28850D02*
X-53029Y28850D01*
X-52987Y28640D01*
X-52584Y28038D01*
X-51982Y27635D01*
X-51417Y27523D01*
X-51417Y28850D01*
X-51417Y28850D02*
G37*
G36*
X-56731Y28850D02*
X-58342Y28850D01*
X-58301Y28640D01*
X-57898Y28038D01*
X-57296Y27635D01*
X-56731Y27523D01*
X-56731Y28850D01*
X-56731Y28850D02*
G37*
G36*
X47553Y27419D02*
X44500Y27419D01*
X44500Y24760D01*
X47553Y24760D01*
X47553Y27419D01*
X47553Y27419D02*
G37*
G36*
X43500Y27419D02*
X40447Y27419D01*
X40447Y24760D01*
X43500Y24760D01*
X43500Y27419D01*
X43500Y27419D02*
G37*
G36*
X-51823Y26626D02*
X-54275Y26626D01*
X-54275Y24535D01*
X-49298Y24535D01*
X-49320Y24705D01*
X-49579Y25330D01*
X-49991Y25867D01*
X-50527Y26279D01*
X-51152Y26537D01*
X-51823Y26626D01*
X-51823Y26626D02*
G37*
G36*
X-55275Y26626D02*
X-57728Y26626D01*
X-58399Y26537D01*
X-59023Y26279D01*
X-59560Y25867D01*
X-59972Y25330D01*
X-60230Y24705D01*
X-60253Y24535D01*
X-55275Y24535D01*
X-55275Y26626D01*
X-55275Y26626D02*
G37*
G36*
X-66508Y26626D02*
X-67582Y26626D01*
X-67582Y24535D01*
X-63983Y24535D01*
X-64005Y24705D01*
X-64264Y25330D01*
X-64676Y25867D01*
X-65212Y26279D01*
X-65837Y26537D01*
X-66508Y26626D01*
X-66508Y26626D02*
G37*
G36*
X-68582Y26626D02*
X-69657Y26626D01*
X-70328Y26537D01*
X-70953Y26279D01*
X-71489Y25867D01*
X-71901Y25330D01*
X-72160Y24705D01*
X-72182Y24535D01*
X-68582Y24535D01*
X-68582Y26626D01*
X-68582Y26626D02*
G37*
G36*
X64831Y44672D02*
X61075Y44672D01*
X61075Y41597D01*
X60987Y41154D01*
X60987Y41153D01*
X60987Y36469D01*
X60910Y36354D01*
X60780Y35698D01*
X60780Y29399D01*
X60910Y28743D01*
X61282Y28187D01*
X61838Y27816D01*
X62201Y27743D01*
X62152Y27243D01*
X60100Y27243D01*
X60100Y23600D01*
X66696Y23600D01*
X66696Y27243D01*
X62835Y27243D01*
X62786Y27743D01*
X63150Y27816D01*
X63706Y28187D01*
X64077Y28743D01*
X64208Y29399D01*
X64208Y35698D01*
X64077Y36354D01*
X64013Y36450D01*
X64013Y40128D01*
X64831Y40128D01*
X64831Y44672D01*
X64831Y44672D02*
G37*
G36*
X-23869Y31472D02*
X-27625Y31472D01*
X-27625Y26928D01*
X-27625Y26928D01*
X-27627Y26875D01*
X-27627Y26875D01*
X-27627Y26429D01*
X-27627Y22725D01*
X-24265Y22725D01*
X-24265Y26875D01*
X-23869Y26928D01*
X-23869Y31472D01*
X-23869Y31472D02*
G37*
G36*
X-49298Y23535D02*
X-54275Y23535D01*
X-54275Y21444D01*
X-51823Y21444D01*
X-51152Y21533D01*
X-50527Y21791D01*
X-49991Y22203D01*
X-49579Y22740D01*
X-49320Y23365D01*
X-49298Y23535D01*
X-49298Y23535D02*
G37*
G36*
X-55275Y23535D02*
X-60253Y23535D01*
X-60230Y23365D01*
X-59972Y22740D01*
X-59560Y22203D01*
X-59023Y21791D01*
X-58399Y21533D01*
X-57728Y21444D01*
X-55275Y21444D01*
X-55275Y23535D01*
X-55275Y23535D02*
G37*
G36*
X-63983Y23535D02*
X-67582Y23535D01*
X-67582Y21444D01*
X-66508Y21444D01*
X-65837Y21533D01*
X-65212Y21791D01*
X-64676Y22203D01*
X-64264Y22740D01*
X-64005Y23365D01*
X-63983Y23535D01*
X-63983Y23535D02*
G37*
G36*
X-68582Y23535D02*
X-72182Y23535D01*
X-72160Y23365D01*
X-71901Y22740D01*
X-71489Y22203D01*
X-70953Y21791D01*
X-70328Y21533D01*
X-69657Y21444D01*
X-68582Y21444D01*
X-68582Y23535D01*
X-68582Y23535D02*
G37*
G36*
X47553Y23760D02*
X44500Y23760D01*
X44500Y21101D01*
X47553Y21101D01*
X47553Y23760D01*
X47553Y23760D02*
G37*
G36*
X43500Y23760D02*
X40447Y23760D01*
X40447Y21101D01*
X43500Y21101D01*
X43500Y23760D01*
X43500Y23760D02*
G37*
G36*
X26919Y23553D02*
X24260Y23553D01*
X24260Y20500D01*
X26919Y20500D01*
X26919Y23553D01*
X26919Y23553D02*
G37*
G36*
X23260Y23553D02*
X20601Y23553D01*
X20601Y20500D01*
X23260Y20500D01*
X23260Y23553D01*
X23260Y23553D02*
G37*
G36*
X26919Y19500D02*
X24260Y19500D01*
X24260Y16447D01*
X26919Y16447D01*
X26919Y19500D01*
X26919Y19500D02*
G37*
G36*
X23260Y19500D02*
X20601Y19500D01*
X20601Y16447D01*
X23260Y16447D01*
X23260Y19500D01*
X23260Y19500D02*
G37*
G36*
X25828Y13521D02*
X22874Y13521D01*
X22874Y12240D01*
X25828Y12240D01*
X25828Y13521D01*
X25828Y13521D02*
G37*
G36*
X21874Y13521D02*
X18920Y13521D01*
X18920Y12240D01*
X21874Y12240D01*
X21874Y13521D01*
X21874Y13521D02*
G37*
G36*
X25828Y11240D02*
X22874Y11240D01*
X22874Y9959D01*
X25828Y9959D01*
X25828Y11240D01*
X25828Y11240D02*
G37*
G36*
X21874Y11240D02*
X18920Y11240D01*
X18920Y9959D01*
X21874Y9959D01*
X21874Y11240D01*
X21874Y11240D02*
G37*
G36*
X25335Y41441D02*
X19807Y41441D01*
X19807Y38079D01*
X21057Y38079D01*
X21057Y34929D01*
X21057Y34929D01*
X21173Y34350D01*
X21501Y33859D01*
X24930Y30430D01*
X24930Y30430D01*
X25421Y30102D01*
X26000Y29987D01*
X26000Y29987D01*
X28150Y29987D01*
X28150Y28600D01*
X29727Y28600D01*
X29727Y23453D01*
X28181Y23453D01*
X28181Y16547D01*
X29227Y16547D01*
X29227Y9681D01*
X28272Y9681D01*
X28272Y6319D01*
X34980Y6319D01*
X34980Y9681D01*
X32254Y9681D01*
X32254Y16547D01*
X34299Y16547D01*
X34299Y23453D01*
X32754Y23453D01*
X32754Y31500D01*
X32750Y31517D01*
X32750Y34400D01*
X28150Y34400D01*
X28150Y33013D01*
X26627Y33013D01*
X24084Y35556D01*
X24084Y38079D01*
X25335Y38079D01*
X25335Y41441D01*
X25335Y41441D02*
G37*
G36*
X67494Y18515D02*
X66838Y18384D01*
X66282Y18013D01*
X65910Y17457D01*
X65780Y16801D01*
X65780Y10502D01*
X65910Y9846D01*
X65987Y9731D01*
X65987Y5500D01*
X66102Y4921D01*
X66430Y4430D01*
X66921Y4102D01*
X67500Y3987D01*
X68079Y4102D01*
X68570Y4430D01*
X68898Y4921D01*
X69013Y5500D01*
X69013Y9750D01*
X69077Y9846D01*
X69208Y10502D01*
X69208Y16801D01*
X69077Y17457D01*
X68706Y18013D01*
X68150Y18384D01*
X67494Y18515D01*
X67494Y18515D02*
G37*
G36*
X33899Y-447D02*
X31240Y-447D01*
X31240Y-3500D01*
X33899Y-3500D01*
X33899Y-447D01*
X33899Y-447D02*
G37*
G36*
X30240Y-447D02*
X27581Y-447D01*
X27581Y-3500D01*
X30240Y-3500D01*
X30240Y-447D01*
X30240Y-447D02*
G37*
G36*
X33899Y-4500D02*
X31240Y-4500D01*
X31240Y-7553D01*
X33899Y-7553D01*
X33899Y-4500D01*
X33899Y-4500D02*
G37*
G36*
X30240Y-4500D02*
X27581Y-4500D01*
X27581Y-7553D01*
X30240Y-7553D01*
X30240Y-4500D01*
X30240Y-4500D02*
G37*
G36*
X70500Y-12204D02*
X70500Y-14626D01*
X72922Y-14626D01*
X72886Y-14353D01*
X72588Y-13632D01*
X72113Y-13013D01*
X71494Y-12539D01*
X70773Y-12240D01*
X70500Y-12204D01*
X70500Y-12204D02*
G37*
G36*
X69500Y-12204D02*
X69227Y-12240D01*
X68506Y-12539D01*
X67887Y-13013D01*
X67413Y-13632D01*
X67114Y-14353D01*
X67078Y-14626D01*
X69500Y-14626D01*
X69500Y-12204D01*
X69500Y-12204D02*
G37*
G36*
X55253Y-12101D02*
X52200Y-12101D01*
X52200Y-14760D01*
X55253Y-14760D01*
X55253Y-12101D01*
X55253Y-12101D02*
G37*
G36*
X51200Y-12101D02*
X48147Y-12101D01*
X48147Y-14760D01*
X51200Y-14760D01*
X51200Y-12101D01*
X51200Y-12101D02*
G37*
G36*
X72922Y-15626D02*
X70500Y-15626D01*
X70500Y-18048D01*
X70773Y-18012D01*
X71494Y-17714D01*
X72113Y-17239D01*
X72588Y-16620D01*
X72886Y-15899D01*
X72922Y-15626D01*
X72922Y-15626D02*
G37*
G36*
X69500Y-15626D02*
X67078Y-15626D01*
X67114Y-15899D01*
X67413Y-16620D01*
X67887Y-17239D01*
X68506Y-17714D01*
X69227Y-18012D01*
X69500Y-18048D01*
X69500Y-15626D01*
X69500Y-15626D02*
G37*
G36*
X55253Y-15760D02*
X52200Y-15760D01*
X52200Y-18419D01*
X55253Y-18419D01*
X55253Y-15760D01*
X55253Y-15760D02*
G37*
G36*
X51200Y-15760D02*
X48147Y-15760D01*
X48147Y-18419D01*
X51200Y-18419D01*
X51200Y-15760D01*
X51200Y-15760D02*
G37*
G36*
X25728Y5941D02*
X19020Y5941D01*
X19020Y2579D01*
X21746Y2579D01*
X21746Y-547D01*
X20201Y-547D01*
X20201Y-7453D01*
X21734Y-7453D01*
X21734Y-8125D01*
X11373Y-18487D01*
X8958Y-18487D01*
X8780Y-18220D01*
X7963Y-17675D01*
X7000Y-17483D01*
X6037Y-17675D01*
X5220Y-18220D01*
X4675Y-19037D01*
X4483Y-20000D01*
X4675Y-20963D01*
X5220Y-21780D01*
X6037Y-22325D01*
X7000Y-22517D01*
X7963Y-22325D01*
X8780Y-21780D01*
X8958Y-21513D01*
X12000Y-21513D01*
X12000Y-21513D01*
X12579Y-21398D01*
X13070Y-21070D01*
X24318Y-9822D01*
X24318Y-9822D01*
X24646Y-9331D01*
X24761Y-8752D01*
X24761Y-8752D01*
X24761Y-7453D01*
X26319Y-7453D01*
X26319Y-547D01*
X24773Y-547D01*
X24773Y2579D01*
X25728Y2579D01*
X25728Y5941D01*
X25728Y5941D02*
G37*
G36*
X31925Y-20728D02*
X28169Y-20728D01*
X28169Y-25272D01*
X28169Y-25272D01*
X28169Y-25728D01*
X28169Y-25728D01*
X28169Y-26888D01*
X11000Y-26888D01*
X11000Y-26888D01*
X10575Y-26973D01*
X10214Y-27214D01*
X10214Y-27214D01*
X8926Y-28501D01*
X8421Y-28602D01*
X7930Y-28930D01*
X7602Y-29421D01*
X7487Y-30000D01*
X7602Y-30579D01*
X7930Y-31070D01*
X8421Y-31398D01*
X9000Y-31513D01*
X9579Y-31398D01*
X10070Y-31070D01*
X10398Y-30579D01*
X10499Y-30074D01*
X11461Y-29112D01*
X28169Y-29112D01*
X28169Y-30272D01*
X29132Y-30272D01*
X29132Y-31228D01*
X28169Y-31228D01*
X28169Y-35772D01*
X32319Y-35772D01*
X32319Y-31228D01*
X31356Y-31228D01*
X31356Y-30272D01*
X31925Y-30272D01*
X31925Y-25728D01*
X31925Y-25728D01*
X31925Y-25272D01*
X31925Y-25272D01*
X31925Y-20728D01*
X31925Y-20728D02*
G37*
G36*
X-60581Y-26500D02*
X-62256Y-26500D01*
X-62256Y-28372D01*
X-60581Y-28372D01*
X-60581Y-26500D01*
X-60581Y-26500D02*
G37*
G36*
X-63256Y-26500D02*
X-64931Y-26500D01*
X-64931Y-28372D01*
X-63256Y-28372D01*
X-63256Y-26500D01*
X-63256Y-26500D02*
G37*
G36*
X37931Y-28500D02*
X36453Y-28500D01*
X36453Y-30372D01*
X37931Y-30372D01*
X37931Y-28500D01*
X37931Y-28500D02*
G37*
G36*
X35453Y-28500D02*
X33975Y-28500D01*
X33975Y-30372D01*
X35453Y-30372D01*
X35453Y-28500D01*
X35453Y-28500D02*
G37*
G36*
X-60581Y-29128D02*
X-62256Y-29128D01*
X-62256Y-31000D01*
X-60581Y-31000D01*
X-60581Y-29128D01*
X-60581Y-29128D02*
G37*
G36*
X-63256Y-29128D02*
X-64931Y-29128D01*
X-64931Y-31000D01*
X-63256Y-31000D01*
X-63256Y-29128D01*
X-63256Y-29128D02*
G37*
G36*
X37931Y-31128D02*
X36256Y-31128D01*
X36256Y-33000D01*
X37931Y-33000D01*
X37931Y-31128D01*
X37931Y-31128D02*
G37*
G36*
X35256Y-31128D02*
X33581Y-31128D01*
X33581Y-33000D01*
X35256Y-33000D01*
X35256Y-31128D01*
X35256Y-31128D02*
G37*
G36*
X-60581Y-32000D02*
X-62256Y-32000D01*
X-62256Y-33872D01*
X-60581Y-33872D01*
X-60581Y-32000D01*
X-60581Y-32000D02*
G37*
G36*
X-63256Y-32000D02*
X-64931Y-32000D01*
X-64931Y-33872D01*
X-63256Y-33872D01*
X-63256Y-32000D01*
X-63256Y-32000D02*
G37*
G36*
X-47577Y-33262D02*
X-51718Y-33262D01*
X-51478Y-33620D01*
X-51085Y-33883D01*
X-50620Y-33976D01*
X-47577Y-33976D01*
X-47577Y-33262D01*
X-47577Y-33262D02*
G37*
G36*
X37931Y-34000D02*
X36256Y-34000D01*
X36256Y-35872D01*
X37931Y-35872D01*
X37931Y-34000D01*
X37931Y-34000D02*
G37*
G36*
X35256Y-34000D02*
X33581Y-34000D01*
X33581Y-35872D01*
X35256Y-35872D01*
X35256Y-34000D01*
X35256Y-34000D02*
G37*
G36*
X-61685Y-36316D02*
X-61685Y-38341D01*
X-59660Y-38341D01*
X-59683Y-38170D01*
X-59942Y-37545D01*
X-60353Y-37009D01*
X-60890Y-36597D01*
X-61515Y-36338D01*
X-61685Y-36316D01*
X-61685Y-36316D02*
G37*
G36*
X-62685Y-36316D02*
X-62856Y-36338D01*
X-63480Y-36597D01*
X-64017Y-37009D01*
X-64429Y-37545D01*
X-64687Y-38170D01*
X-64710Y-38341D01*
X-62685Y-38341D01*
X-62685Y-36316D01*
X-62685Y-36316D02*
G37*
G36*
X-62685Y-39341D02*
X-64710Y-39341D01*
X-64687Y-39511D01*
X-64429Y-40136D01*
X-64017Y-40673D01*
X-63480Y-41084D01*
X-62856Y-41343D01*
X-62685Y-41366D01*
X-62685Y-39341D01*
X-62685Y-39341D02*
G37*
G36*
X-59185Y-41316D02*
X-59185Y-43341D01*
X-57160Y-43341D01*
X-57183Y-43170D01*
X-57442Y-42545D01*
X-57853Y-42009D01*
X-58390Y-41597D01*
X-59014Y-41338D01*
X-59185Y-41316D01*
X-59185Y-41316D02*
G37*
G36*
X70500Y-49204D02*
X70500Y-51626D01*
X72922Y-51626D01*
X72886Y-51353D01*
X72588Y-50632D01*
X72113Y-50013D01*
X71494Y-49538D01*
X70773Y-49240D01*
X70500Y-49204D01*
X70500Y-49204D02*
G37*
G36*
X69500Y-49204D02*
X69227Y-49240D01*
X68506Y-49538D01*
X67887Y-50013D01*
X67413Y-50632D01*
X67114Y-51353D01*
X67078Y-51626D01*
X69500Y-51626D01*
X69500Y-49204D01*
X69500Y-49204D02*
G37*
G36*
X72922Y-52626D02*
X70500Y-52626D01*
X70500Y-55048D01*
X70773Y-55012D01*
X71494Y-54713D01*
X72113Y-54239D01*
X72588Y-53620D01*
X72886Y-52899D01*
X72922Y-52626D01*
X72922Y-52626D02*
G37*
G36*
X69500Y-52626D02*
X67078Y-52626D01*
X67114Y-52899D01*
X67413Y-53620D01*
X67887Y-54239D01*
X68506Y-54713D01*
X69227Y-55012D01*
X69500Y-55048D01*
X69500Y-52626D01*
X69500Y-52626D02*
G37*
G36*
X3518Y-55500D02*
X500Y-55500D01*
X500Y-58518D01*
X927Y-58461D01*
X1792Y-58103D01*
X2534Y-57534D01*
X3103Y-56792D01*
X3461Y-55927D01*
X3518Y-55500D01*
X3518Y-55500D02*
G37*
G36*
X20500Y-56881D02*
X20500Y-59700D01*
X23319Y-59700D01*
X23269Y-59324D01*
X22931Y-58508D01*
X22393Y-57806D01*
X21692Y-57269D01*
X20876Y-56931D01*
X20500Y-56881D01*
X20500Y-56881D02*
G37*
G36*
X19500Y-56881D02*
X19124Y-56931D01*
X18308Y-57269D01*
X17606Y-57806D01*
X17069Y-58508D01*
X16730Y-59324D01*
X16681Y-59700D01*
X19500Y-59700D01*
X19500Y-56881D01*
X19500Y-56881D02*
G37*
G36*
X72862Y-65012D02*
X67138Y-65012D01*
X67138Y-66762D01*
X11126Y-66762D01*
X11126Y-66762D01*
X10701Y-66847D01*
X10340Y-67088D01*
X10340Y-67088D01*
X5039Y-72388D01*
X-25039Y-72388D01*
X-29401Y-68026D01*
X-29502Y-67521D01*
X-29830Y-67030D01*
X-30321Y-66702D01*
X-30900Y-66587D01*
X-31479Y-66702D01*
X-31970Y-67030D01*
X-32298Y-67521D01*
X-32413Y-68100D01*
X-32298Y-68679D01*
X-31970Y-69170D01*
X-31479Y-69498D01*
X-30974Y-69599D01*
X-26286Y-74286D01*
X-26286Y-74286D01*
X-25925Y-74527D01*
X-25500Y-74612D01*
X5500Y-74612D01*
X5500Y-74612D01*
X5926Y-74527D01*
X6286Y-74286D01*
X11586Y-68986D01*
X67138Y-68986D01*
X67138Y-70736D01*
X72862Y-70736D01*
X72862Y-65012D01*
X72862Y-65012D02*
G37*
G36*
X-61685Y-66316D02*
X-61685Y-68341D01*
X-59660Y-68341D01*
X-59683Y-68170D01*
X-59942Y-67545D01*
X-60353Y-67009D01*
X-60890Y-66597D01*
X-61515Y-66338D01*
X-61685Y-66316D01*
X-61685Y-66316D02*
G37*
G36*
X-62685Y-66316D02*
X-62856Y-66338D01*
X-63480Y-66597D01*
X-64017Y-67009D01*
X-64429Y-67545D01*
X-64687Y-68170D01*
X-64710Y-68341D01*
X-62685Y-68341D01*
X-62685Y-66316D01*
X-62685Y-66316D02*
G37*
%LPD*%
G36*
X67500Y71431D02*
X67959Y70833D01*
X68557Y70374D01*
X69253Y70086D01*
X69149Y69612D01*
X34331Y69612D01*
X34331Y71762D01*
X67362Y71762D01*
X67500Y71431D01*
X67500Y71431D02*
G37*
G36*
X-45693Y38189D02*
X-45693Y35579D01*
X-42446Y35579D01*
X-42339Y35557D01*
X-41653Y35557D01*
X-41612Y35517D01*
X-41612Y22419D01*
X-44487Y19545D01*
X-44987Y19752D01*
X-44987Y31171D01*
X-44987Y31171D01*
X-45102Y31750D01*
X-45430Y32241D01*
X-45430Y32241D01*
X-46956Y33767D01*
X-47447Y34095D01*
X-48026Y34210D01*
X-48026Y34210D01*
X-49309Y34210D01*
X-49461Y34710D01*
X-49323Y34803D01*
X-48943Y35372D01*
X-48809Y36043D01*
X-48943Y36714D01*
X-49323Y37283D01*
X-49521Y37416D01*
X-49521Y37896D01*
X-49129Y38278D01*
X-45782Y38278D01*
X-45693Y38189D01*
X-45693Y38189D02*
G37*
G36*
X-12462Y15258D02*
X-12513Y15000D01*
X-12398Y14421D01*
X-12070Y13930D01*
X-11579Y13602D01*
X-11000Y13487D01*
X-10421Y13602D01*
X-9930Y13930D01*
X-9896Y13980D01*
X-3315Y13980D01*
X-3016Y13259D01*
X-2462Y12538D01*
X-1741Y11984D01*
X-901Y11636D01*
X-717Y11612D01*
X-750Y11112D01*
X-14000Y11112D01*
X-14000Y11112D01*
X-14425Y11027D01*
X-14786Y10786D01*
X-22433Y3139D01*
X-22933Y3346D01*
X-22933Y5494D01*
X-12923Y15505D01*
X-12462Y15258D01*
X-12462Y15258D02*
G37*
G36*
X-11112Y29609D02*
X-11112Y24461D01*
X-15074Y20499D01*
X-15579Y20398D01*
X-16070Y20070D01*
X-16398Y19579D01*
X-16499Y19074D01*
X-26370Y9202D01*
X-26870Y9409D01*
X-26870Y10238D01*
X-26528Y10581D01*
X-26023Y10681D01*
X-25532Y11009D01*
X-25204Y11500D01*
X-25089Y12079D01*
X-25204Y12658D01*
X-25532Y13149D01*
X-26023Y13477D01*
X-26602Y13592D01*
X-27181Y13477D01*
X-27368Y13352D01*
X-27687Y13740D01*
X-11612Y29816D01*
X-11112Y29609D01*
X-11112Y29609D02*
G37*
G36*
X-717Y8388D02*
X-901Y8364D01*
X-1741Y8016D01*
X-2462Y7463D01*
X-3016Y6741D01*
X-3277Y6112D01*
X-15000Y6112D01*
X-15000Y6112D01*
X-15426Y6027D01*
X-15786Y5786D01*
X-15786Y5786D01*
X-20120Y1453D01*
X-20662Y1617D01*
X-20687Y1741D01*
X-13539Y8888D01*
X-750Y8888D01*
X-717Y8388D01*
X-717Y8388D02*
G37*
G36*
X4888Y1461D02*
X1531Y-1897D01*
X901Y-1636D01*
X0Y-1517D01*
X-901Y-1636D01*
X-1741Y-1984D01*
X-2462Y-2537D01*
X-3016Y-3259D01*
X-3364Y-4099D01*
X-3483Y-5000D01*
X-3364Y-5901D01*
X-3016Y-6741D01*
X-2462Y-7463D01*
X-1741Y-8016D01*
X-901Y-8364D01*
X-717Y-8388D01*
X-750Y-8888D01*
X-6892Y-8888D01*
X-6892Y-8888D01*
X-7317Y-8973D01*
X-7678Y-9214D01*
X-8461Y-9996D01*
X-18337Y-9996D01*
X-18682Y-10065D01*
X-18900Y-9900D01*
X-19065Y-9682D01*
X-18996Y-9337D01*
X-18996Y-2250D01*
X-18996Y-569D01*
X-14539Y3888D01*
X-3277Y3888D01*
X-3016Y3259D01*
X-2462Y2537D01*
X-1741Y1984D01*
X-901Y1636D01*
X0Y1517D01*
X901Y1636D01*
X1741Y1984D01*
X2462Y2537D01*
X3016Y3259D01*
X3364Y4099D01*
X3483Y5000D01*
X3364Y5901D01*
X3016Y6741D01*
X2462Y7463D01*
X1741Y8016D01*
X901Y8364D01*
X717Y8388D01*
X750Y8888D01*
X4888Y8888D01*
X4888Y1461D01*
X4888Y1461D02*
G37*
G36*
X-31965Y8756D02*
X-31898Y8421D01*
X-31570Y7930D01*
X-31570Y7930D01*
X-31570Y7507D01*
X-31570Y7507D01*
X-31485Y7082D01*
X-31244Y6721D01*
X-31063Y6539D01*
X-31063Y-909D01*
X-31382Y-1141D01*
X-31563Y-1209D01*
X-31919Y-1138D01*
X-32345Y-1223D01*
X-32705Y-1464D01*
X-33101Y-1464D01*
X-33462Y-1223D01*
X-33888Y-1138D01*
X-34244Y-1209D01*
X-34425Y-1142D01*
X-34744Y-909D01*
X-34744Y6683D01*
X-32498Y8929D01*
X-31965Y8756D01*
X-31965Y8756D02*
G37*
G36*
X-49545Y14487D02*
X-52553Y11478D01*
X-53059Y11378D01*
X-53549Y11050D01*
X-53878Y10559D01*
X-53978Y10053D01*
X-56178Y7853D01*
X-56684Y7753D01*
X-57174Y7424D01*
X-57503Y6934D01*
X-57603Y6428D01*
X-62971Y1060D01*
X-63212Y699D01*
X-63297Y274D01*
X-63297Y274D01*
X-63297Y-1234D01*
X-64457Y-1234D01*
X-64457Y-4990D01*
X-55513Y-4990D01*
X-55513Y-1234D01*
X-56673Y-1234D01*
X-56673Y754D01*
X-52426Y5001D01*
X-51921Y5102D01*
X-51430Y5430D01*
X-51102Y5921D01*
X-51001Y6426D01*
X-48926Y8501D01*
X-48421Y8602D01*
X-47930Y8930D01*
X-47612Y9406D01*
X-47571Y9415D01*
X-47112Y9323D01*
X-47112Y500D01*
X-47112Y500D01*
X-47027Y75D01*
X-46786Y-286D01*
X-43781Y-3291D01*
X-43421Y-3532D01*
X-42995Y-3617D01*
X-42874Y-3617D01*
X-42874Y-5793D01*
X-42874Y-9337D01*
X-42842Y-9496D01*
X-43188Y-9996D01*
X-45965Y-9996D01*
X-45965Y-9179D01*
X-46049Y-8754D01*
X-46290Y-8393D01*
X-46290Y-8393D01*
X-47728Y-6955D01*
X-47728Y-4181D01*
X-52272Y-4181D01*
X-52272Y-8331D01*
X-49498Y-8331D01*
X-48332Y-9496D01*
X-48535Y-9996D01*
X-50620Y-9996D01*
X-51045Y-10081D01*
X-51406Y-10322D01*
X-51647Y-10683D01*
X-51732Y-11108D01*
X-51647Y-11534D01*
X-51406Y-11895D01*
X-51584Y-12377D01*
X-51741Y-12612D01*
X-51802Y-12918D01*
X-52236Y-13109D01*
X-52312Y-13115D01*
X-53464Y-11964D01*
X-53464Y-11964D01*
X-55401Y-10026D01*
X-55401Y-9896D01*
X-55486Y-9470D01*
X-55513Y-9429D01*
X-55513Y-7140D01*
X-64457Y-7140D01*
X-64457Y-10896D01*
X-63558Y-10896D01*
X-63297Y-11315D01*
X-63212Y-11740D01*
X-62971Y-12101D01*
X-60286Y-14786D01*
X-59926Y-15027D01*
X-59500Y-15112D01*
X-59500Y-15112D01*
X-56564Y-15112D01*
X-55448Y-16228D01*
X-55655Y-16728D01*
X-59319Y-16728D01*
X-59319Y-21217D01*
X-60581Y-21217D01*
X-60581Y-19500D01*
X-62756Y-19500D01*
X-64931Y-19500D01*
X-64931Y-20344D01*
X-65431Y-20606D01*
X-65487Y-20568D01*
X-65487Y6873D01*
X-57373Y14987D01*
X-49752Y14987D01*
X-49545Y14487D01*
X-49545Y14487D02*
G37*
G36*
X-901Y41636D02*
X0Y41517D01*
X901Y41636D01*
X1531Y41897D01*
X11888Y31539D01*
X11888Y-9539D01*
X7539Y-13888D01*
X3277Y-13888D01*
X3016Y-13259D01*
X2462Y-12538D01*
X1741Y-11984D01*
X901Y-11636D01*
X717Y-11612D01*
X750Y-11112D01*
X3000Y-11112D01*
X3000Y-11112D01*
X3426Y-11027D01*
X3786Y-10786D01*
X10786Y-3786D01*
X10786Y-3786D01*
X11027Y-3426D01*
X11112Y-3000D01*
X11112Y25000D01*
X11112Y25000D01*
X11027Y25425D01*
X10786Y25786D01*
X10786Y25786D01*
X3103Y33469D01*
X3364Y34099D01*
X3483Y35000D01*
X3364Y35901D01*
X3016Y36741D01*
X2462Y37462D01*
X1741Y38016D01*
X901Y38364D01*
X0Y38482D01*
X-901Y38364D01*
X-1741Y38016D01*
X-2462Y37462D01*
X-3016Y36741D01*
X-3364Y35901D01*
X-3483Y35000D01*
X-3364Y34099D01*
X-3016Y33259D01*
X-2462Y32537D01*
X-1741Y31984D01*
X-901Y31636D01*
X0Y31517D01*
X901Y31636D01*
X1531Y31897D01*
X8888Y24539D01*
X8888Y-2539D01*
X2539Y-8888D01*
X750Y-8888D01*
X717Y-8388D01*
X901Y-8364D01*
X1741Y-8016D01*
X2462Y-7463D01*
X3016Y-6741D01*
X3364Y-5901D01*
X3483Y-5000D01*
X3364Y-4099D01*
X3103Y-3469D01*
X6786Y214D01*
X7027Y575D01*
X7112Y1000D01*
X7112Y10000D01*
X7112Y19000D01*
X7112Y19000D01*
X7027Y19425D01*
X6786Y19786D01*
X3103Y23469D01*
X3364Y24099D01*
X3483Y25000D01*
X3364Y25901D01*
X3016Y26741D01*
X2462Y27463D01*
X1741Y28016D01*
X901Y28364D01*
X0Y28482D01*
X-901Y28364D01*
X-1741Y28016D01*
X-2462Y27463D01*
X-3016Y26741D01*
X-3364Y25901D01*
X-3483Y25000D01*
X-3364Y24099D01*
X-3016Y23259D01*
X-2462Y22537D01*
X-1741Y21984D01*
X-901Y21636D01*
X0Y21518D01*
X901Y21636D01*
X1531Y21897D01*
X4888Y18539D01*
X4888Y11112D01*
X750Y11112D01*
X717Y11612D01*
X901Y11636D01*
X1741Y11984D01*
X2462Y12538D01*
X3016Y13259D01*
X3364Y14099D01*
X3483Y15000D01*
X3364Y15901D01*
X3016Y16741D01*
X2462Y17462D01*
X1741Y18016D01*
X901Y18364D01*
X0Y18483D01*
X-901Y18364D01*
X-1741Y18016D01*
X-2462Y17462D01*
X-3016Y16741D01*
X-3315Y16020D01*
X-9896Y16020D01*
X-9930Y16070D01*
X-10421Y16398D01*
X-11000Y16513D01*
X-11259Y16462D01*
X-11505Y16923D01*
X-6214Y22214D01*
X-6214Y22214D01*
X-5973Y22575D01*
X-5888Y23000D01*
X-5888Y37539D01*
X-1531Y41897D01*
X-901Y41636D01*
X-901Y41636D02*
G37*
G36*
X-20000Y-21807D02*
X-20919Y-21807D01*
X-20919Y-21807D01*
X-21345Y-21892D01*
X-21706Y-22133D01*
X-21706Y-22133D01*
X-22074Y-22501D01*
X-22579Y-22602D01*
X-23070Y-22930D01*
X-23398Y-23421D01*
X-23513Y-24000D01*
X-23398Y-24579D01*
X-23070Y-25070D01*
X-22579Y-25398D01*
X-22000Y-25513D01*
X-21421Y-25398D01*
X-20930Y-25070D01*
X-20602Y-24579D01*
X-20501Y-24074D01*
X-20500Y-24072D01*
X-20000Y-24131D01*
X-20000Y-33000D01*
X-41634Y-33000D01*
X-41634Y-11000D01*
X-35726Y-11000D01*
X-35534Y-11462D01*
X-35786Y-11714D01*
X-36027Y-12075D01*
X-36112Y-12500D01*
X-36112Y-12500D01*
X-36112Y-15000D01*
X-36112Y-15000D01*
X-36027Y-15426D01*
X-35786Y-15786D01*
X-34499Y-17074D01*
X-34398Y-17579D01*
X-34070Y-18070D01*
X-33579Y-18398D01*
X-33000Y-18513D01*
X-32421Y-18398D01*
X-31930Y-18070D01*
X-31602Y-17579D01*
X-31487Y-17000D01*
X-31602Y-16421D01*
X-31930Y-15930D01*
X-32421Y-15602D01*
X-32926Y-15501D01*
X-33888Y-14539D01*
X-33888Y-13677D01*
X-33429Y-13585D01*
X-33388Y-13594D01*
X-33070Y-14070D01*
X-32579Y-14398D01*
X-32000Y-14513D01*
X-31421Y-14398D01*
X-30930Y-14070D01*
X-30602Y-13579D01*
X-30487Y-13000D01*
X-30602Y-12421D01*
X-30807Y-12113D01*
X-30807Y-11000D01*
X-20000Y-11000D01*
X-20000Y-21807D01*
X-20000Y-21807D02*
G37*
G36*
X-9112Y-34095D02*
X-9112Y-44662D01*
X-9574Y-44854D01*
X-11888Y-42539D01*
X-11888Y-38978D01*
X-11888Y-38978D01*
X-11973Y-38553D01*
X-12214Y-38192D01*
X-12214Y-38192D01*
X-13674Y-36732D01*
X-13674Y-33874D01*
X-11250Y-33874D01*
X-10824Y-33789D01*
X-10464Y-33548D01*
X-10424Y-33489D01*
X-9796Y-33411D01*
X-9112Y-34095D01*
X-9112Y-34095D02*
G37*
G36*
X-32112Y-50838D02*
X-32112Y-57993D01*
X-32398Y-58421D01*
X-32513Y-59000D01*
X-32398Y-59579D01*
X-32070Y-60070D01*
X-31579Y-60398D01*
X-31000Y-60513D01*
X-30421Y-60398D01*
X-29930Y-60070D01*
X-29612Y-59594D01*
X-29571Y-59585D01*
X-29112Y-59677D01*
X-29112Y-61388D01*
X-52793Y-61388D01*
X-53221Y-61102D01*
X-53471Y-61052D01*
X-53577Y-60521D01*
X-53532Y-60491D01*
X-53204Y-60000D01*
X-53088Y-59421D01*
X-53204Y-58842D01*
X-53490Y-58413D01*
X-53490Y-54562D01*
X-52539Y-53612D01*
X-36000Y-53612D01*
X-36000Y-53612D01*
X-35574Y-53527D01*
X-35214Y-53286D01*
X-32574Y-50646D01*
X-32112Y-50838D01*
X-32112Y-50838D02*
G37*
G36*
X-18337Y-33874D02*
X-15898Y-33874D01*
X-15898Y-37193D01*
X-15898Y-37193D01*
X-15813Y-37618D01*
X-15572Y-37979D01*
X-14112Y-39439D01*
X-14112Y-43000D01*
X-14112Y-43000D01*
X-14027Y-43426D01*
X-13786Y-43786D01*
X-9759Y-47813D01*
X-9966Y-48313D01*
X-11850Y-48313D01*
X-11850Y-51169D01*
X-9388Y-51169D01*
X-9388Y-48891D01*
X-8888Y-48684D01*
X-8352Y-49221D01*
X-8352Y-60113D01*
X-8392Y-60154D01*
X-9488Y-60154D01*
X-9488Y-57075D01*
X-15187Y-57075D01*
X-15213Y-57075D01*
X-15687Y-57014D01*
X-15687Y-56975D01*
X-18150Y-56975D01*
X-18150Y-60331D01*
X-18150Y-63687D01*
X-15687Y-63687D01*
X-15687Y-63647D01*
X-15213Y-63587D01*
X-15187Y-63587D01*
X-9488Y-63587D01*
X-9488Y-62378D01*
X-7931Y-62378D01*
X-7931Y-62378D01*
X-7506Y-62293D01*
X-7145Y-62052D01*
X-6612Y-61519D01*
X-6112Y-61726D01*
X-6112Y-67048D01*
X-6618Y-67555D01*
X-7007Y-67236D01*
X-6902Y-67079D01*
X-6787Y-66500D01*
X-6902Y-65921D01*
X-7230Y-65430D01*
X-7721Y-65102D01*
X-8300Y-64987D01*
X-8879Y-65102D01*
X-9307Y-65388D01*
X-23539Y-65388D01*
X-26888Y-62039D01*
X-26888Y-57931D01*
X-25500Y-57931D01*
X-25500Y-55756D01*
X-25500Y-53581D01*
X-26254Y-53581D01*
X-26461Y-53081D01*
X-25699Y-52319D01*
X-22728Y-52319D01*
X-22728Y-48169D01*
X-23390Y-48169D01*
X-23597Y-47669D01*
X-23259Y-47331D01*
X-23259Y-47331D01*
X-23018Y-46971D01*
X-22933Y-46545D01*
X-22933Y-43035D01*
X-22577Y-42841D01*
X-22577Y-38077D01*
X-21577Y-38077D01*
X-21577Y-42718D01*
X-21218Y-42478D01*
X-20811Y-42762D01*
X-19477Y-44096D01*
X-19477Y-48413D01*
X-21512Y-48413D01*
X-21512Y-54925D01*
X-15813Y-54925D01*
X-15787Y-54925D01*
X-15313Y-54986D01*
X-15313Y-55025D01*
X-12850Y-55025D01*
X-12850Y-51669D01*
X-12850Y-48313D01*
X-15313Y-48313D01*
X-15313Y-48353D01*
X-15787Y-48413D01*
X-15813Y-48413D01*
X-17253Y-48413D01*
X-17253Y-43635D01*
X-17253Y-43635D01*
X-17337Y-43210D01*
X-17578Y-42849D01*
X-18996Y-41431D01*
X-18996Y-38077D01*
X-18996Y-34534D01*
X-19065Y-34188D01*
X-18900Y-33970D01*
X-18682Y-33805D01*
X-18337Y-33874D01*
X-18337Y-33874D02*
G37*
%LPC*%
G36*
X-47628Y1431D02*
X-49500Y1431D01*
X-49500Y-244D01*
X-47628Y-244D01*
X-47628Y1431D01*
X-47628Y1431D02*
G37*
G36*
X-50500Y1431D02*
X-52372Y1431D01*
X-52372Y-244D01*
X-50500Y-244D01*
X-50500Y1431D01*
X-50500Y1431D02*
G37*
G36*
X-47628Y-1244D02*
X-49500Y-1244D01*
X-49500Y-2919D01*
X-47628Y-2919D01*
X-47628Y-1244D01*
X-47628Y-1244D02*
G37*
G36*
X-50500Y-1244D02*
X-52372Y-1244D01*
X-52372Y-2919D01*
X-50500Y-2919D01*
X-50500Y-1244D01*
X-50500Y-1244D02*
G37*
G36*
X-60581Y-16628D02*
X-62256Y-16628D01*
X-62256Y-18500D01*
X-60581Y-18500D01*
X-60581Y-16628D01*
X-60581Y-16628D02*
G37*
G36*
X-63256Y-16628D02*
X-64931Y-16628D01*
X-64931Y-18500D01*
X-63256Y-18500D01*
X-63256Y-16628D01*
X-63256Y-16628D02*
G37*
G36*
X-9388Y-52169D02*
X-11850Y-52169D01*
X-11850Y-55025D01*
X-9388Y-55025D01*
X-9388Y-52169D01*
X-9388Y-52169D02*
G37*
G36*
X-22628Y-53581D02*
X-24500Y-53581D01*
X-24500Y-55256D01*
X-22628Y-55256D01*
X-22628Y-53581D01*
X-22628Y-53581D02*
G37*
G36*
X-22628Y-56256D02*
X-24500Y-56256D01*
X-24500Y-57931D01*
X-22628Y-57931D01*
X-22628Y-56256D01*
X-22628Y-56256D02*
G37*
G36*
X-19150Y-56975D02*
X-21612Y-56975D01*
X-21612Y-59831D01*
X-19150Y-59831D01*
X-19150Y-56975D01*
X-19150Y-56975D02*
G37*
G36*
X-19150Y-60831D02*
X-21612Y-60831D01*
X-21612Y-63687D01*
X-19150Y-63687D01*
X-19150Y-60831D01*
X-19150Y-60831D02*
G37*
%LPD*%
D18*
X-11000Y15000D02*
X0Y15000D01*
D19*
X67494Y32549D02*
D03*
X62494Y32549D02*
D03*
X57494Y32549D02*
D03*
X52494Y32549D02*
D03*
X67494Y13651D02*
D03*
X62494Y13651D02*
D03*
X57494Y13651D02*
D03*
X52494Y13651D02*
D03*
D20*
X59600Y23100D02*
D03*
D21*
X-42929Y44740D02*
D03*
X-42929Y37260D02*
D03*
X-34071Y41000D02*
D03*
X31429Y43500D02*
D03*
X22571Y39760D02*
D03*
X22571Y47240D02*
D03*
D22*
X-50000Y-6256D02*
D03*
X-50000Y-744D02*
D03*
X-25000Y-55756D02*
D03*
X-25000Y-50244D02*
D03*
D23*
X-59685Y-43841D02*
D03*
X-59685Y-63841D02*
D03*
X-59685Y-58841D02*
D03*
X-59685Y-53841D02*
D03*
X-64685Y-43841D02*
D03*
X-64685Y-48841D02*
D03*
X-64685Y-53841D02*
D03*
X-64685Y-58841D02*
D03*
X-64685Y-63841D02*
D03*
X-62185Y-68841D02*
D03*
X-62185Y-38841D02*
D03*
X-24000Y-20000D02*
D03*
X7000Y-20000D02*
D03*
D24*
X21126Y60000D02*
D03*
X11874Y56260D02*
D03*
X11874Y63740D02*
D03*
X31626Y8000D02*
D03*
X22374Y4260D02*
D03*
X22374Y11740D02*
D03*
D25*
X30450Y31500D02*
D03*
X17550Y31500D02*
D03*
D26*
X30244Y-33500D02*
D03*
X35756Y-33500D02*
D03*
X-22744Y78000D02*
D03*
X-28256Y78000D02*
D03*
X-62756Y-26000D02*
D03*
X-57244Y-26000D02*
D03*
X-62756Y-31500D02*
D03*
X-57244Y-31500D02*
D03*
X-62756Y-19000D02*
D03*
X-57244Y-19000D02*
D03*
D27*
X29453Y54500D02*
D03*
X23547Y54500D02*
D03*
X62953Y42400D02*
D03*
X57047Y42400D02*
D03*
X35953Y-28000D02*
D03*
X30047Y-28000D02*
D03*
X35953Y-23000D02*
D03*
X30047Y-23000D02*
D03*
X4547Y73500D02*
D03*
X10453Y73500D02*
D03*
X32453Y68500D02*
D03*
X26547Y68500D02*
D03*
X26547Y73000D02*
D03*
X32453Y73000D02*
D03*
X-40354Y65945D02*
D03*
X-46260Y65945D02*
D03*
X-46260Y61024D02*
D03*
X-40354Y61024D02*
D03*
X-31653Y29200D02*
D03*
X-25747Y29200D02*
D03*
D28*
X49500Y51240D02*
D03*
X49500Y43760D02*
D03*
X44000Y31740D02*
D03*
X44000Y24260D02*
D03*
X51700Y-22740D02*
D03*
X51700Y-15260D02*
D03*
D29*
X30740Y-4000D02*
D03*
X23260Y-4000D02*
D03*
X23760Y20000D02*
D03*
X31240Y20000D02*
D03*
D30*
X-62185Y-3112D02*
D03*
X-62185Y-9018D02*
D03*
X-57785Y-3112D02*
D03*
X-57785Y-9018D02*
D03*
D31*
X-31654Y24800D02*
D03*
X-25946Y24800D02*
D03*
D32*
X-41762Y-5793D02*
D03*
X-39793Y-5793D02*
D03*
X-37825Y-5793D02*
D03*
X-35856Y-5793D02*
D03*
X-33888Y-5793D02*
D03*
X-31919Y-5793D02*
D03*
X-29951Y-5793D02*
D03*
X-27982Y-5793D02*
D03*
X-26014Y-5793D02*
D03*
X-24045Y-5793D02*
D03*
X-22077Y-5793D02*
D03*
X-20108Y-5793D02*
D03*
X-20108Y-38077D02*
D03*
X-22077Y-38077D02*
D03*
X-24045Y-38077D02*
D03*
X-26014Y-38077D02*
D03*
X-27982Y-38077D02*
D03*
X-29951Y-38077D02*
D03*
X-31919Y-38077D02*
D03*
X-33888Y-38077D02*
D03*
X-35856Y-38077D02*
D03*
X-37825Y-38077D02*
D03*
X-39793Y-38077D02*
D03*
X-41762Y-38077D02*
D03*
D33*
X-14793Y-11108D02*
D03*
X-14793Y-13077D02*
D03*
X-14793Y-15045D02*
D03*
X-14793Y-17014D02*
D03*
X-14793Y-18982D02*
D03*
X-14793Y-20951D02*
D03*
X-14793Y-22919D02*
D03*
X-14793Y-24888D02*
D03*
X-14793Y-26856D02*
D03*
X-14793Y-28825D02*
D03*
X-14793Y-30793D02*
D03*
X-14793Y-32762D02*
D03*
X-47077Y-32762D02*
D03*
X-47077Y-30793D02*
D03*
X-47077Y-28825D02*
D03*
X-47077Y-26856D02*
D03*
X-47077Y-24888D02*
D03*
X-47077Y-22919D02*
D03*
X-47077Y-20951D02*
D03*
X-47077Y-18982D02*
D03*
X-47077Y-17014D02*
D03*
X-47077Y-15045D02*
D03*
X-47077Y-13077D02*
D03*
X-47077Y-11108D02*
D03*
D34*
X-18650Y-51669D02*
D03*
X-12350Y-51669D02*
D03*
X-12350Y-60331D02*
D03*
X-18650Y-60331D02*
D03*
D59*
X-54602Y-54102D02*
X-53000Y-52500D01*
X-54602Y-59421D02*
X-54602Y-54102D01*
X-50200Y-64800D02*
X-28077Y-64800D01*
X-23877Y-69000D01*
X-45200Y-47000D02*
X-38000Y-47000D01*
X-50200Y-43600D02*
X-48600Y-43600D01*
X-45200Y-47000D01*
X-61626Y-46900D02*
X-56291Y-46900D01*
X-56091Y-46700D02*
X-50200Y-46700D01*
X-56291Y-46900D02*
X-56091Y-46700D01*
X-64685Y-43841D02*
X-61626Y-46900D01*
X-22300Y33700D02*
X-15000Y41000D01*
X-34800Y33700D02*
X-22300Y33700D01*
X-35700Y32800D02*
X-34800Y33700D01*
X-35700Y20300D02*
X-35700Y32800D01*
X-41716Y4304D02*
X-41716Y7784D01*
X-25846Y24899D02*
X-25846Y29101D01*
X-25946Y24800D02*
X-25846Y24899D01*
X-25846Y29101D02*
X-25747Y29200D01*
X-41716Y7784D02*
X-31654Y17846D01*
X-31654Y24800D01*
X-46000Y10000D02*
X-35700Y20300D01*
X-41606Y44500D02*
X-38319Y41213D01*
X-57785Y1215D02*
X-38319Y20681D01*
X-38319Y41213D01*
X-42339Y36669D02*
X-41192Y36669D01*
X-40500Y35977D01*
X-62185Y274D02*
X-57229Y5229D01*
X-54979Y7479D02*
X-52479Y9979D01*
X-42929Y37260D02*
X-42339Y36669D01*
X-52479Y9979D02*
X-40500Y21959D01*
X-40500Y35977D01*
X-57229Y5229D02*
X-54979Y7479D01*
X-57785Y-3112D02*
X-57785Y1215D01*
X-46000Y500D02*
X-46000Y10000D01*
X-46000Y500D02*
X-42995Y-2505D01*
X-65756Y-22329D02*
X-53979Y-22329D01*
X-62185Y-3112D02*
X-62185Y274D01*
X-42000Y44500D02*
X-41606Y44500D01*
X5500Y-73500D02*
X11126Y-67874D01*
X-30900Y-68100D02*
X-25500Y-73500D01*
X5500Y-73500D01*
X-6491Y-69000D02*
X-5000Y-67509D01*
X-23877Y-69000D02*
X-6491Y-69000D01*
X-24000Y-66500D02*
X-8300Y-66500D01*
X-38000Y-47000D02*
X-33888Y-42888D01*
X-41996Y4024D02*
X-41716Y4304D01*
X-41996Y3971D02*
X-41996Y4024D01*
X-48819Y-7437D02*
X-48819Y-7240D01*
X-49803Y-6256D02*
X-48819Y-7240D01*
X-47077Y-11108D02*
X-47077Y-9179D01*
X-48819Y-7437D02*
X-47077Y-9179D01*
X-50000Y-6256D02*
X-49803Y-6256D01*
X-24037Y-38077D02*
X-24037Y-27888D01*
X35100Y-60000D02*
X70000Y-60000D01*
X30200Y-60000D02*
X35100Y-60000D01*
X-47077Y-26856D02*
X-46872Y-26856D01*
X-50620Y-26856D02*
X-47077Y-26856D01*
X-41762Y-5793D02*
X-41762Y-2505D01*
X-42995Y-2505D02*
X-41762Y-2505D01*
X-41996Y3971D02*
X-37825Y-200D01*
X-54000Y-10106D02*
X-51029Y-13077D01*
X-54000Y-10106D02*
X-54000Y-8500D01*
X-54250Y-12750D02*
X-51955Y-15045D01*
X-56513Y-10487D02*
X-54250Y-12750D01*
X-57785Y-9018D02*
X-57391Y-9018D01*
X-56513Y-9896D01*
X-56513Y-10487D02*
X-56513Y-9896D01*
X-53106Y-16997D02*
X-47069Y-16997D01*
X-59500Y-14000D02*
X-56103Y-14000D01*
X-53106Y-16997D01*
X-62185Y-11315D02*
X-62185Y-9018D01*
X-62185Y-11315D02*
X-59500Y-14000D01*
X-44012Y44740D02*
X-42929Y44740D01*
X-44443Y44309D02*
X-44012Y44740D01*
X-44443Y43615D02*
X-44443Y44309D01*
X-45322Y42736D02*
X-44443Y43615D01*
X-50918Y42736D02*
X-45322Y42736D01*
X-55610Y39605D02*
X-51032Y42487D01*
X-44443Y37691D02*
X-44012Y37260D01*
X-44443Y37691D02*
X-44443Y38511D01*
X-44012Y37260D02*
X-42929Y37260D01*
X-50918Y39390D02*
X-45322Y39390D01*
X-44443Y38511D01*
X-46260Y54235D02*
X-46260Y61024D01*
X-62173Y39563D02*
X-62173Y62992D01*
X-59221Y65945D01*
X-46260Y65945D01*
X-64685Y-53841D02*
X-61344Y-50500D01*
X-63626Y-49000D02*
X-63445Y-48819D01*
X-37319Y-48819D01*
X-61344Y-50500D02*
X-36500Y-50500D01*
X-52584Y-20934D02*
X-47069Y-20934D01*
X-15000Y41000D02*
X-15000Y66100D01*
X-53000Y-52500D02*
X-36000Y-52500D01*
X-53800Y-62500D02*
X-28513Y-62500D01*
X-37319Y-48819D02*
X-31919Y-43419D01*
X-36500Y-50500D02*
X-29943Y-43943D01*
X-36000Y-52500D02*
X-27982Y-44482D01*
X-52389Y-26839D02*
X-50637Y-26839D01*
X-55869Y-30319D02*
X-52389Y-26839D01*
X-50637Y-26839D02*
X-50620Y-26856D01*
X-35856Y7144D02*
X-12000Y31000D01*
X-35856Y-5793D02*
X-35856Y7144D01*
X-27982Y10699D02*
X-26602Y12079D01*
X-27982Y-5793D02*
X-27982Y10699D01*
X-35000Y-15000D02*
X-33000Y-17000D01*
X-35000Y-15000D02*
X-35000Y-12500D01*
X-33888Y-11388D01*
X-33888Y-5793D01*
X-31919Y-12919D02*
X-31919Y-5793D01*
X-32000Y-13000D02*
X-31919Y-12919D01*
X-30458Y7507D02*
X-30458Y8958D01*
X-29951Y-5793D02*
X-29951Y7000D01*
X-30500Y9000D02*
X-30458Y8958D01*
X-30458Y7507D02*
X-29951Y7000D01*
X-12000Y31000D02*
X-12000Y53000D01*
X0Y-65000D02*
X25200Y-65000D01*
X30200Y-60000D01*
X-28000Y-62200D02*
X-28000Y-53047D01*
X-26272Y-51319D02*
X-26272Y-51319D01*
X-28000Y-53047D02*
X-26272Y-51319D01*
X-26272Y-51319D02*
X-25197Y-50244D01*
X-28000Y-62500D02*
X-24000Y-66500D01*
X-5000Y-67509D02*
X-5000Y-48623D01*
X-28513Y-62500D02*
X-28000Y-62500D01*
X-28513Y-62500D02*
X-28213Y-62200D01*
X-28000Y-62200D01*
X-20106Y-60125D02*
X-19196Y-61035D01*
X-33888Y-42888D02*
X-33888Y-38077D01*
X-31919Y-43419D02*
X-31919Y-38077D01*
X-29951Y-41620D02*
X-29943Y-41628D01*
X-29951Y-41620D02*
X-29951Y-38060D01*
X-29943Y-43943D02*
X-29943Y-41628D01*
X-27982Y-44482D02*
X-27982Y-38077D01*
X-31000Y-50000D02*
X-26014Y-45014D01*
X-31000Y-59000D02*
X-31000Y-50000D01*
X-26014Y-45014D02*
X-26014Y-38077D01*
X-9100Y72000D02*
X-5000Y72000D01*
X-9100Y72000D02*
X-8900Y72200D01*
X-15000Y66100D02*
X-9100Y72000D01*
X-37825Y-5793D02*
X-37825Y-200D01*
X57047Y42400D02*
X57500Y41947D01*
X57500Y32449D02*
X57500Y41947D01*
X17260Y54500D02*
X23547Y54500D01*
X10453Y64331D02*
X11043Y63740D01*
X12071Y63740D01*
X10453Y64331D02*
X10453Y73500D01*
X62500Y2500D02*
X62500Y13551D01*
X62500Y2500D02*
X75000Y-10000D01*
X75000Y-32500D02*
X75000Y-10000D01*
X36740Y-16319D02*
X37500Y-15559D01*
X37500Y-14600D01*
X36740Y-22213D02*
X36740Y-16319D01*
X32453Y68500D02*
X73500Y68500D01*
X25366Y67319D02*
X25760Y67319D01*
X26547Y68106D01*
X22602Y64555D02*
X25366Y67319D01*
X73500Y68500D02*
X75000Y67000D01*
X75000Y62126D02*
X75000Y67000D01*
X11126Y-67874D02*
X70000Y-67874D01*
X-13000Y-43000D02*
X-13000Y-38978D01*
X-6000Y-45245D02*
X-6000Y-33000D01*
X-6000Y-45245D02*
X-1245Y-50000D01*
X7500Y-50000D01*
X-7240Y-60574D02*
X-7240Y-48760D01*
X-13000Y-43000D02*
X-7240Y-48760D01*
X-8000Y-45623D02*
X-8000Y-33634D01*
X-8000Y-45623D02*
X-5000Y-48623D01*
X-25000Y-50244D02*
X-25000Y-47500D01*
X-22077Y-45894D02*
X-22077Y-38077D01*
X-24045Y-46545D02*
X-24045Y-38077D01*
X-25000Y-47500D02*
X-24045Y-46545D01*
X-22077Y-45894D02*
X-21970Y-46000D01*
X69500Y-38000D02*
X75000Y-32500D01*
X29260Y-28000D02*
X29653Y-27606D01*
X30047Y-28000D02*
X30244Y-28197D01*
X30244Y-33500D02*
X30244Y-28197D01*
X10500Y-47000D02*
X10500Y-39000D01*
X11500Y-38000D02*
X69500Y-38000D01*
X10500Y-39000D02*
X11500Y-38000D01*
X-4000Y73000D02*
X4047Y73000D01*
X-5000Y72000D02*
X-4000Y73000D01*
X26547Y68106D02*
X26547Y73000D01*
X22602Y60590D02*
X22602Y64555D01*
X20929Y60000D02*
X22012Y60000D01*
X22602Y60590D01*
X32579Y72874D02*
X70000Y72874D01*
X32453Y73000D02*
X32579Y72874D01*
X11000Y-28000D02*
X29260Y-28000D01*
X9000Y-30000D02*
X11000Y-28000D01*
X35953Y-23000D02*
X36740Y-22213D01*
X30047Y-28000D02*
X30047Y-23000D01*
X30047Y-23000D01*
X7500Y-50000D02*
X10500Y-47000D01*
X37000Y45500D02*
X37000Y58000D01*
X44000Y65000D01*
X70000Y65000D01*
X70000Y57126D02*
X75000Y62126D01*
X-26014Y-5793D02*
X-26014Y7986D01*
X-10000Y24000D01*
X-24045Y5955D02*
X-7000Y23000D01*
X-24045Y-5793D02*
X-24045Y5955D01*
X-7000Y23000D02*
X-7000Y38000D01*
X-20919Y-22919D02*
X-14793Y-22919D01*
X-22000Y-24000D02*
X-20919Y-22919D01*
X-51029Y-13077D02*
X-47077Y-13077D01*
X-51955Y-15045D02*
X-47086Y-15045D01*
X-10841Y-30793D02*
X-8000Y-33634D01*
X-14793Y-30793D02*
X-10841Y-30793D01*
X-10175Y-28825D02*
X-6000Y-33000D01*
X-14793Y-28825D02*
X-10175Y-28825D01*
X-14793Y-26856D02*
X-8888Y-26856D01*
X-744Y-35000D02*
X0Y-35000D01*
X-8888Y-26856D02*
X-744Y-35000D01*
X-67000Y-21085D02*
X-65839Y-22246D01*
X-57244Y-26000D02*
X-57244Y-22447D01*
X-53979Y-22329D02*
X-52584Y-20934D01*
X5000Y-40000D02*
X5000Y-31000D01*
X4000Y-30000D02*
X5000Y-31000D01*
X0Y-45000D02*
X5000Y-40000D01*
X0Y-15000D02*
X8000Y-15000D01*
X13000Y-10000D01*
X-2000Y-30000D02*
X4000Y-30000D01*
X-8000Y-24000D02*
X-2000Y-30000D01*
X-10000Y24000D02*
X-10000Y45000D01*
X-22077Y1923D02*
X-14000Y10000D01*
X0Y25000D02*
X683Y24317D01*
X-22077Y-5793D02*
X-22077Y1923D01*
X-14000Y10000D02*
X6000Y10000D01*
X683Y24317D02*
X6000Y19000D01*
X-7000Y38000D02*
X0Y45000D01*
X-20108Y-5793D02*
X-20108Y-108D01*
X-47077Y-11108D02*
X-41892Y-11108D01*
X-39000Y-14000D01*
X-56231Y52776D02*
X-50918Y52776D01*
X-56231Y29350D02*
X-50918Y29350D01*
X-62173Y39563D02*
X-58653Y36043D01*
X-56231Y36043D01*
X-57226Y-18982D02*
X-47077Y-18982D01*
X-25197Y-50244D02*
X-25000Y-50244D01*
X-57244Y-19000D02*
X-57226Y-18982D01*
X-47069Y-26839D02*
X-39781Y-26839D01*
X-47092Y-28785D02*
X-47069Y-28808D01*
X-39558Y-28808D01*
X-10000Y45000D02*
X0Y55000D01*
X-20108Y-108D02*
X-15000Y5000D01*
X0Y5000D01*
X-12000Y53000D02*
X0Y65000D01*
X6000Y10000D02*
X6000Y19000D01*
X6000Y1000D02*
X6000Y10000D01*
X-8000Y-24000D02*
X-8000Y-24000D01*
X0Y45000D02*
X13000Y32000D01*
X13000Y-10000D02*
X13000Y32000D01*
X0Y35000D02*
X10000Y25000D01*
X10000Y-3000D02*
X10000Y25000D01*
X3000Y-10000D02*
X10000Y-3000D01*
X0Y-5000D02*
X6000Y1000D01*
X-6892Y-10000D02*
X3000Y-10000D01*
X-14793Y-11108D02*
X-8000Y-11108D01*
X-6892Y-10000D01*
X500Y-24500D02*
X1000Y-25000D01*
X-6000Y-22000D02*
X-3660Y-24340D01*
X-660Y-24340D02*
X0Y-25000D01*
X-3660Y-24340D02*
X-660Y-24340D01*
X-6000Y-22000D02*
X-6000Y-15000D01*
X-14786Y-37193D02*
X-13000Y-38978D01*
X-7931Y-61266D02*
X-7240Y-60574D01*
X-12065Y-61266D02*
X-7931Y-61266D01*
X-18365Y-51604D02*
X-18365Y-43635D01*
X-20108Y-41892D02*
X-18365Y-43635D01*
X-14786Y-37193D02*
X-14786Y-32745D01*
X-7923Y-13077D02*
X-6000Y-15000D01*
X-14793Y-13077D02*
X-7923Y-13077D01*
X-14793Y-15045D02*
X-9455Y-15045D01*
X-8000Y-16500D01*
X-8000Y-24000D02*
X-8000Y-16500D01*
X-20108Y-41892D02*
X-20108Y-38077D01*
D60*
X-58000Y16500D02*
X-49500Y16500D01*
X-46500Y19500D02*
X-46500Y31171D01*
X-49500Y16500D02*
X-46500Y19500D01*
X-56231Y32697D02*
X-48026Y32697D01*
X-67000Y-21085D02*
X-67000Y7500D01*
X-58000Y16500D01*
X-48026Y32697D02*
X-46500Y31171D01*
X-40571Y49429D02*
X-23000Y67000D01*
X-56231Y49429D02*
X-40571Y49429D01*
X-21847Y79000D02*
X74000Y79000D01*
X-23000Y77847D02*
X-21847Y79000D01*
X16787Y31500D02*
X16787Y79000D01*
X37729Y-15329D02*
X42100Y-19700D01*
X51960Y-23000D02*
X70000Y-23000D01*
X51700Y-22740D02*
X51960Y-23000D01*
X42100Y-19700D02*
X42100Y-19700D01*
X37000Y-14600D02*
X37729Y-15329D01*
X42100Y-19700D02*
X45400Y-23000D01*
X51700Y-23000D01*
X37000Y-14100D02*
X37000Y4000D01*
X37000Y-14100D02*
X37500Y-14600D01*
X78000Y55000D02*
X78000Y75000D01*
X74000Y79000D02*
X78000Y75000D01*
X74000Y51000D02*
X78000Y55000D01*
X49500Y31740D02*
X52318Y31740D01*
X44000Y31740D02*
X49500Y31740D01*
X67500Y5500D02*
X67500Y13551D01*
X52318Y31740D02*
X52500Y31922D01*
X52500Y32449D01*
X52425Y32524D02*
X52425Y37075D01*
X52425Y32524D02*
X52500Y32449D01*
X50099Y39401D02*
X52425Y37075D01*
X49500Y43760D02*
X50099Y43161D01*
X50099Y39401D02*
X50099Y43161D01*
X49500Y51240D02*
X49740Y51000D01*
X74000Y51000D01*
X31240Y20000D02*
X31240Y31500D01*
X30457Y31500D02*
X31240Y31500D01*
X26000Y31500D02*
X30457Y31500D01*
X22571Y34929D02*
X26000Y31500D01*
X22571Y34929D02*
X22571Y39760D01*
X37000Y43500D02*
X37000Y45500D01*
X37000Y4000D02*
X37000Y43500D01*
X37000Y43500D02*
X37000Y43500D01*
X31429Y43500D02*
X37000Y43500D01*
X17260Y47240D02*
X22571Y47240D01*
X17000Y47500D02*
X17260Y47240D01*
X52496Y8496D02*
X52496Y10295D01*
X62953Y41606D02*
X62953Y42000D01*
X62500Y32449D02*
X62500Y41154D01*
X62953Y41606D01*
X37000Y4000D02*
X48000Y4000D01*
X52496Y8496D01*
X-23000Y67000D02*
X-23000Y77847D01*
X12000Y-20000D02*
X23248Y-8752D01*
X7000Y-20000D02*
X12000Y-20000D01*
X23248Y-4012D02*
X23260Y-4000D01*
X23248Y-8752D02*
X23248Y-4012D01*
X30740Y8681D02*
X30740Y19000D01*
X31421Y8000D02*
X31626Y8000D01*
X22374Y4260D02*
X22579Y4260D01*
X23260Y3579D01*
X30740Y8681D02*
X31421Y8000D01*
X23260Y-4000D02*
X23260Y3579D01*
D61*
X-8900Y72200D02*
D03*
X70000Y-15126D02*
D03*
X70000Y72874D02*
D03*
X70000Y65000D02*
D03*
X70000Y-60000D02*
D03*
X70000Y-52126D02*
D03*
X35100Y-60000D02*
D03*
X37000Y-14600D02*
D03*
X59600Y23100D02*
D03*
D62*
X-50918Y52776D02*
D03*
X-50918Y49429D02*
D03*
X-50918Y46083D02*
D03*
X-50918Y42736D02*
D03*
X-50918Y39390D02*
D03*
X-50918Y36043D02*
D03*
X-50918Y32697D02*
D03*
X-50918Y29350D02*
D03*
X-56231Y29350D02*
D03*
X-56231Y32697D02*
D03*
X-56231Y36043D02*
D03*
X-56231Y39390D02*
D03*
X-56231Y42736D02*
D03*
X-56231Y46083D02*
D03*
X-56231Y49429D02*
D03*
X-56231Y52776D02*
D03*
D63*
X-54775Y58091D02*
D03*
X-54775Y24035D02*
D03*
D64*
X-68082Y24035D02*
D03*
X-68082Y58091D02*
D03*
D65*
X70000Y-23000D02*
D03*
X70000Y57126D02*
D03*
X70000Y-67874D02*
D03*
D66*
X0Y65000D02*
D03*
X0Y55000D02*
D03*
X0Y45000D02*
D03*
X0Y35000D02*
D03*
X0Y25000D02*
D03*
X0Y15000D02*
D03*
X0Y5000D02*
D03*
X0Y-5000D02*
D03*
X0Y-15000D02*
D03*
X0Y-25000D02*
D03*
X0Y-35000D02*
D03*
X0Y-45000D02*
D03*
X0Y-55000D02*
D03*
D67*
X0Y-65000D02*
D03*
D68*
X20000Y-60200D02*
D03*
X-41500Y5000D02*
D03*
D69*
X-45800Y-54900D02*
D03*
X-59685Y-63841D02*
D03*
X-59685Y-58841D02*
D03*
X-54602Y-59421D02*
D03*
X-50200Y-64800D02*
D03*
X-50200Y-46700D02*
D03*
X-52400Y-55200D02*
D03*
X-50200Y-43600D02*
D03*
X-42500Y40500D02*
D03*
X-43500Y29500D02*
D03*
X-60500Y8600D02*
D03*
X-56104Y6354D02*
D03*
X-52500Y6500D02*
D03*
X-52479Y9979D02*
D03*
X-49000Y10000D02*
D03*
X-8300Y-66500D02*
D03*
X-53500Y-500D02*
D03*
X-54000Y-8500D02*
D03*
X-46260Y54134D02*
D03*
X-30500Y44100D02*
D03*
X-18000Y31500D02*
D03*
X-59685Y-53841D02*
D03*
X-64685Y-63841D02*
D03*
X-64685Y-48841D02*
D03*
X-64685Y-58841D02*
D03*
X-59685Y-43841D02*
D03*
X-64685Y-53841D02*
D03*
X-45300Y-68000D02*
D03*
X-53800Y-62500D02*
D03*
X-46735Y-36385D02*
D03*
X-64685Y-43841D02*
D03*
X-51800Y-37200D02*
D03*
X-33000Y500D02*
D03*
X-26602Y12079D02*
D03*
X-30500Y37600D02*
D03*
X-33000Y-17000D02*
D03*
X-32000Y-13000D02*
D03*
X-30500Y9000D02*
D03*
X-24606Y-86614D02*
D03*
X17500Y-33000D02*
D03*
X44500Y-30000D02*
D03*
X63500Y-31500D02*
D03*
X51000Y-3000D02*
D03*
X56500Y59500D02*
D03*
X-32000Y77500D02*
D03*
X-30900Y-68100D02*
D03*
X-31000Y-59000D02*
D03*
X-22515Y-60125D02*
D03*
X-35200Y-55000D02*
D03*
X-23000Y55000D02*
D03*
X-32500Y51000D02*
D03*
X-18000Y72500D02*
D03*
X55200Y46400D02*
D03*
X48600Y70700D02*
D03*
X48000Y75500D02*
D03*
X-21970Y-46000D02*
D03*
X67500Y5500D02*
D03*
X49500Y31740D02*
D03*
X-67500Y-31500D02*
D03*
X9000Y-30000D02*
D03*
X67500Y39500D02*
D03*
X44000Y19000D02*
D03*
X77000Y-40000D02*
D03*
X-13500Y25000D02*
D03*
X-20000Y18000D02*
D03*
X17000Y12000D02*
D03*
X23500Y25500D02*
D03*
X26500Y-50000D02*
D03*
X-22000Y-24000D02*
D03*
X-7000Y13000D02*
D03*
X8000Y-10000D02*
D03*
X-9000Y7500D02*
D03*
X-5000Y19000D02*
D03*
X6000Y24000D02*
D03*
X7000Y33000D02*
D03*
X12000Y49000D02*
D03*
X29500Y59500D02*
D03*
X7000Y-45000D02*
D03*
X20000Y-21500D02*
D03*
X30000Y-10000D02*
D03*
X53500Y-49500D02*
D03*
X51000Y-76500D02*
D03*
X20500Y-76500D02*
D03*
X-15000Y19000D02*
D03*
X-11000Y15000D02*
D03*
X-40500Y70500D02*
D03*
X-10000Y-5500D02*
D03*
X-68000Y13500D02*
D03*
X-50200Y3600D02*
D03*
X-67500Y-26000D02*
D03*
X-63000Y-14500D02*
D03*
X-13200Y-46200D02*
D03*
X-17500Y-35500D02*
D03*
X-11000Y-36000D02*
D03*
M02*
