M48
;Layer_Color=9474304
;FILE_FORMAT=2:5
INCH,TZ
;TYPE=PLATED
T1F00S00C0.01181
T2F00S00C0.01575
T3F00S00C0.01968
T5F00S00C0.02717
T6F00S00C0.02756
T7F00S00C0.03150
T8F00S00C0.03543
%
T01
X-64685Y-63841
X-59685
Y-58841
Y-53841
X-64685
Y-48841
Y-43841
X-59685
X-50200Y-43600
Y-46700
X-52400Y-55200
X-54602Y-59421
X-53800Y-62500
X-50200Y-64800
X-45300Y-68000
X-45800Y-54900
X-35200Y-55000
X-31000Y-59000
X-30900Y-68100
X-22515Y-60125
X-21970Y-46000
X-13200Y-46200
X-11000Y-36000
X-17500Y-35500
X-22000Y-24000
X-33000Y-17000
X-32000Y-13000
X-33000Y500
X-30500Y9000
X-26602Y12079
X-20000Y18000
X-15000Y19000
X-13500Y25000
X-18000Y31500
X-11000Y15000
X-7000Y13000
X-9000Y7500
X-10000Y-5500
X8000Y-10000
X9000Y-30000
X17500Y-33000
X20000Y-21500
X30000Y-10000
X51000Y-3000
X44000Y19000
X49500Y31740
X23500Y25500
X6000Y24000
X7000Y33000
X-5000Y19000
X17000Y12000
X7000Y-45000
X26500Y-50000
X53500Y-49500
X63500Y-31500
X44500Y-30000
X51000Y-76500
X20500
X-8300Y-66500
X-24606Y-86614
X-64685Y-58841
X-67500Y-31500
Y-26000
X-63000Y-14500
X-54000Y-8500
X-53500Y-500
X-50200Y3600
X-52500Y6500
X-52479Y9979
X-49000Y10000
X-56104Y6354
X-60500Y8600
X-68000Y13500
X-43500Y29500
X-46735Y-36385
X-51800Y-37200
X77000Y-40000
X67500Y5500
Y39500
X55200Y46400
X56500Y59500
X48600Y70700
X48000Y75500
X29500Y59500
X12000Y49000
X-23000Y55000
X-32500Y51000
X-30500Y44100
Y37600
X-42500Y40500
X-46260Y54134
X-40500Y70500
X-32000Y77500
X-18000Y72500
T02
X-56231Y29350
Y32697
X-50918
Y29350
Y36043
Y39390
Y42736
Y46083
Y49429
Y52776
X-56231
Y49429
Y46083
Y42736
Y39390
Y36043
T03
X-24000Y-20000
X7000
T05
X-62185Y-68841
Y-38841
T06
X35100Y-60000
X37000Y-14600
X-8900Y72200
T07
X70000Y-67874
Y-60000
Y-52126
Y-23000
Y-15126
Y57126
Y65000
Y72874
T08
X0Y-65000
Y-55000
Y-45000
Y-35000
Y-25000
Y-15000
Y-5000
Y5000
Y15000
Y25000
X59600Y23100
X-41500Y5000
X20000Y-60200
X0Y35000
Y45000
Y55000
Y65000
M30
