G04*
G04 #@! TF.GenerationSoftware,Altium Limited,Altium Designer,21.6.1 (37)*
G04*
G04 Layer_Color=8388736*
%FSLAX25Y25*%
%MOIN*%
G70*
G04*
G04 #@! TF.SameCoordinates,5EA0F2DE-1706-4193-BDFD-DA62A5601E92*
G04*
G04*
G04 #@! TF.FilePolarity,Negative*
G04*
G01*
G75*
%ADD35O,0.03162X0.09461*%
%ADD36R,0.13792X0.07887*%
%ADD37R,0.05328X0.03162*%
%ADD38R,0.04343X0.03950*%
%ADD39C,0.04737*%
%ADD40R,0.06509X0.03162*%
%ADD41R,0.04400X0.05600*%
%ADD42R,0.03950X0.04343*%
%ADD43R,0.03556X0.04343*%
%ADD44R,0.06706X0.05918*%
%ADD45R,0.05918X0.06706*%
%ADD46R,0.04343X0.03556*%
%ADD47R,0.03162X0.03950*%
%ADD48O,0.01981X0.09068*%
%ADD49O,0.09068X0.01981*%
%ADD50R,0.05524X0.06312*%
%ADD51C,0.05524*%
%ADD52O,0.03950X0.03241*%
%ADD53O,0.10642X0.04737*%
%ADD54O,0.07887X0.04737*%
%ADD55R,0.05524X0.05524*%
%ADD56C,0.06706*%
%ADD57R,0.06706X0.06706*%
%ADD58C,0.06312*%
D35*
X67494Y32549D02*
D03*
X62494Y32549D02*
D03*
X57494Y32549D02*
D03*
X52494Y32549D02*
D03*
X67494Y13651D02*
D03*
X62494Y13651D02*
D03*
X57494Y13651D02*
D03*
X52494Y13651D02*
D03*
D36*
X59600Y23100D02*
D03*
D37*
X-42929Y44740D02*
D03*
X-42929Y37260D02*
D03*
X-34071Y41000D02*
D03*
X31429Y43500D02*
D03*
X22571Y39760D02*
D03*
X22571Y47240D02*
D03*
D38*
X-50000Y-6256D02*
D03*
X-50000Y-744D02*
D03*
X-25000Y-55756D02*
D03*
X-25000Y-50244D02*
D03*
D39*
X-59685Y-43841D02*
D03*
X-59685Y-63841D02*
D03*
X-59685Y-58841D02*
D03*
X-59685Y-53841D02*
D03*
X-64685Y-43841D02*
D03*
X-64685Y-48841D02*
D03*
X-64685Y-53841D02*
D03*
X-64685Y-58841D02*
D03*
X-64685Y-63841D02*
D03*
X-62185Y-68841D02*
D03*
X-62185Y-38841D02*
D03*
D40*
X21126Y60000D02*
D03*
X11874Y56260D02*
D03*
X11874Y63740D02*
D03*
X31626Y8000D02*
D03*
X22374Y4260D02*
D03*
X22374Y11740D02*
D03*
D41*
X30450Y31500D02*
D03*
X17550Y31500D02*
D03*
D42*
X30244Y-33500D02*
D03*
X35756Y-33500D02*
D03*
X-22744Y78000D02*
D03*
X-28256Y78000D02*
D03*
X-62756Y-26000D02*
D03*
X-57244Y-26000D02*
D03*
X-62756Y-31500D02*
D03*
X-57244Y-31500D02*
D03*
X-62756Y-19000D02*
D03*
X-57244Y-19000D02*
D03*
D43*
X29453Y54500D02*
D03*
X23547Y54500D02*
D03*
X62953Y42400D02*
D03*
X57047Y42400D02*
D03*
X35953Y-28000D02*
D03*
X30047Y-28000D02*
D03*
X35953Y-23000D02*
D03*
X30047Y-23000D02*
D03*
X4547Y73500D02*
D03*
X10453Y73500D02*
D03*
X32453Y68500D02*
D03*
X26547Y68500D02*
D03*
X26547Y73000D02*
D03*
X32453Y73000D02*
D03*
X-40354Y65945D02*
D03*
X-46260Y65945D02*
D03*
X-46260Y61024D02*
D03*
X-40354Y61024D02*
D03*
X-31653Y29200D02*
D03*
X-25747Y29200D02*
D03*
D44*
X49500Y51240D02*
D03*
X49500Y43760D02*
D03*
X44000Y31740D02*
D03*
X44000Y24260D02*
D03*
X51700Y-22740D02*
D03*
X51700Y-15260D02*
D03*
D45*
X30740Y-4000D02*
D03*
X23260Y-4000D02*
D03*
X23760Y20000D02*
D03*
X31240Y20000D02*
D03*
D46*
X-62185Y-3112D02*
D03*
X-62185Y-9018D02*
D03*
X-57785Y-3112D02*
D03*
X-57785Y-9018D02*
D03*
D47*
X-31654Y24800D02*
D03*
X-25946Y24800D02*
D03*
D48*
X-41762Y-5793D02*
D03*
X-39793Y-5793D02*
D03*
X-37825Y-5793D02*
D03*
X-35856Y-5793D02*
D03*
X-33888Y-5793D02*
D03*
X-31919Y-5793D02*
D03*
X-29951Y-5793D02*
D03*
X-27982Y-5793D02*
D03*
X-26014Y-5793D02*
D03*
X-24045Y-5793D02*
D03*
X-22077Y-5793D02*
D03*
X-20108Y-5793D02*
D03*
X-20108Y-38077D02*
D03*
X-22077Y-38077D02*
D03*
X-24045Y-38077D02*
D03*
X-26014Y-38077D02*
D03*
X-27982Y-38077D02*
D03*
X-29951Y-38077D02*
D03*
X-31919Y-38077D02*
D03*
X-33888Y-38077D02*
D03*
X-35856Y-38077D02*
D03*
X-37825Y-38077D02*
D03*
X-39793Y-38077D02*
D03*
X-41762Y-38077D02*
D03*
D49*
X-14793Y-11108D02*
D03*
X-14793Y-13077D02*
D03*
X-14793Y-15045D02*
D03*
X-14793Y-17014D02*
D03*
X-14793Y-18982D02*
D03*
X-14793Y-20951D02*
D03*
X-14793Y-22919D02*
D03*
X-14793Y-24888D02*
D03*
X-14793Y-26856D02*
D03*
X-14793Y-28825D02*
D03*
X-14793Y-30793D02*
D03*
X-14793Y-32762D02*
D03*
X-47077Y-32762D02*
D03*
X-47077Y-30793D02*
D03*
X-47077Y-28825D02*
D03*
X-47077Y-26856D02*
D03*
X-47077Y-24888D02*
D03*
X-47077Y-22919D02*
D03*
X-47077Y-20951D02*
D03*
X-47077Y-18982D02*
D03*
X-47077Y-17014D02*
D03*
X-47077Y-15045D02*
D03*
X-47077Y-13077D02*
D03*
X-47077Y-11108D02*
D03*
D50*
X-18650Y-51669D02*
D03*
X-12350Y-51669D02*
D03*
X-12350Y-60331D02*
D03*
X-18650Y-60331D02*
D03*
D51*
X-8900Y72200D02*
D03*
X70000Y-15126D02*
D03*
X70000Y72874D02*
D03*
X70000Y65000D02*
D03*
X70000Y-60000D02*
D03*
X70000Y-52126D02*
D03*
X35100Y-60000D02*
D03*
X37000Y-14600D02*
D03*
X59600Y23100D02*
D03*
D52*
X-50918Y52776D02*
D03*
X-50918Y49429D02*
D03*
X-50918Y46083D02*
D03*
X-50918Y42736D02*
D03*
X-50918Y39390D02*
D03*
X-50918Y36043D02*
D03*
X-50918Y32697D02*
D03*
X-50918Y29350D02*
D03*
X-56231Y29350D02*
D03*
X-56231Y32697D02*
D03*
X-56231Y36043D02*
D03*
X-56231Y39390D02*
D03*
X-56231Y42736D02*
D03*
X-56231Y46083D02*
D03*
X-56231Y49429D02*
D03*
X-56231Y52776D02*
D03*
D53*
X-54775Y58091D02*
D03*
X-54775Y24035D02*
D03*
D54*
X-68082Y24035D02*
D03*
X-68082Y58091D02*
D03*
D55*
X70000Y-23000D02*
D03*
X70000Y57126D02*
D03*
X70000Y-67874D02*
D03*
D56*
X0Y65000D02*
D03*
X0Y55000D02*
D03*
X0Y45000D02*
D03*
X0Y35000D02*
D03*
X0Y25000D02*
D03*
X0Y15000D02*
D03*
X0Y5000D02*
D03*
X0Y-5000D02*
D03*
X0Y-15000D02*
D03*
X0Y-25000D02*
D03*
X0Y-35000D02*
D03*
X0Y-45000D02*
D03*
X0Y-55000D02*
D03*
D57*
X0Y-65000D02*
D03*
D58*
X20000Y-60200D02*
D03*
X-41500Y5000D02*
D03*
M02*
