G04*
G04 #@! TF.GenerationSoftware,Altium Limited,Altium Designer,21.6.1 (37)*
G04*
G04 Layer_Physical_Order=2*
G04 Layer_Color=16711680*
%FSLAX25Y25*%
%MOIN*%
G70*
G04*
G04 #@! TF.SameCoordinates,5EA0F2DE-1706-4193-BDFD-DA62A5601E92*
G04*
G04*
G04 #@! TF.FilePolarity,Positive*
G04*
G01*
G75*
%ADD18C,0.01000*%
%ADD23C,0.03937*%
%ADD59C,0.01181*%
%ADD60C,0.01968*%
%ADD61C,0.04724*%
%ADD62O,0.03150X0.02441*%
%ADD63O,0.09843X0.03937*%
%ADD64O,0.07087X0.03937*%
%ADD65R,0.04724X0.04724*%
%ADD66C,0.05906*%
%ADD67R,0.05906X0.05906*%
%ADD68C,0.05512*%
%ADD69C,0.01968*%
%ADD70R,0.04724X0.05906*%
G36*
X-12831Y86614D02*
X-12753Y86224D01*
X-12532Y85893D01*
X-12201Y85672D01*
X-11811Y85595D01*
X84965Y85595D01*
X84965Y-85595D01*
X-11811Y-85595D01*
X-12201Y-85672D01*
X-12532Y-85893D01*
X-12753Y-86224D01*
X-12831Y-86614D01*
X-12831Y-97406D01*
X-15660Y-97406D01*
X-15660Y-94791D01*
X-18622Y-94791D01*
X-21584Y-94791D01*
X-21584Y-97406D01*
X-33634Y-97406D01*
X-33634Y-90839D01*
X-39358Y-90839D01*
X-39358Y-97406D01*
X-46224Y-97406D01*
X-46224Y-72835D01*
X-46302Y-72444D01*
X-46523Y-72114D01*
X-46854Y-71893D01*
X-47244Y-71815D01*
X-61408Y-71815D01*
X-61515Y-71343D01*
X-60890Y-71084D01*
X-60353Y-70673D01*
X-59942Y-70136D01*
X-59683Y-69511D01*
X-59660Y-69341D01*
X-62185Y-69341D01*
X-64710Y-69341D01*
X-64687Y-69511D01*
X-64429Y-70136D01*
X-64017Y-70673D01*
X-63480Y-71084D01*
X-62856Y-71343D01*
X-62962Y-71815D01*
X-73784Y-71815D01*
X-73784Y71815D01*
X-47244Y71815D01*
X-46854Y71893D01*
X-46523Y72114D01*
X-46302Y72444D01*
X-46224Y72835D01*
X-46224Y97406D01*
X-39358Y97406D01*
X-39358Y90839D01*
X-33634Y90839D01*
X-33634Y97406D01*
X-21584Y97406D01*
X-21584Y94791D01*
X-18622Y94791D01*
X-15660Y94791D01*
X-15660Y97406D01*
X-12831Y97406D01*
X-12831Y86614D01*
X-12831Y86614D02*
G37*
%LPC*%
G36*
X-15660Y93791D02*
X-18122Y93791D01*
X-18122Y90739D01*
X-15660Y90739D01*
X-15660Y93791D01*
X-15660Y93791D02*
G37*
G36*
X-19122Y93791D02*
X-21584Y93791D01*
X-21584Y90739D01*
X-19122Y90739D01*
X-19122Y93791D01*
X-19122Y93791D02*
G37*
G36*
X70000Y75761D02*
X69253Y75662D01*
X68557Y75374D01*
X67959Y74915D01*
X67500Y74318D01*
X67212Y73621D01*
X67113Y72874D01*
X67212Y72127D01*
X67500Y71431D01*
X67959Y70833D01*
X68557Y70374D01*
X69253Y70086D01*
X70000Y69987D01*
X70747Y70086D01*
X71443Y70374D01*
X72041Y70833D01*
X72500Y71431D01*
X72789Y72127D01*
X72887Y72874D01*
X72789Y73621D01*
X72500Y74318D01*
X72041Y74915D01*
X71443Y75374D01*
X70747Y75662D01*
X70000Y75761D01*
X70000Y75761D02*
G37*
G36*
X-8900Y75087D02*
X-9647Y74989D01*
X-10343Y74700D01*
X-10941Y74241D01*
X-11400Y73643D01*
X-11688Y72947D01*
X-11787Y72200D01*
X-11688Y71453D01*
X-11400Y70757D01*
X-10941Y70159D01*
X-10343Y69700D01*
X-9647Y69411D01*
X-8900Y69313D01*
X-8153Y69411D01*
X-7457Y69700D01*
X-6859Y70159D01*
X-6400Y70757D01*
X-6112Y71453D01*
X-6013Y72200D01*
X-6112Y72947D01*
X-6400Y73643D01*
X-6859Y74241D01*
X-7457Y74700D01*
X-8153Y74989D01*
X-8900Y75087D01*
X-8900Y75087D02*
G37*
G36*
X-15660Y66742D02*
X-18122Y66742D01*
X-18122Y63689D01*
X-15660Y63689D01*
X-15660Y66742D01*
X-15660Y66742D02*
G37*
G36*
X-19122Y66742D02*
X-21584Y66742D01*
X-21584Y63689D01*
X-19122Y63689D01*
X-19122Y66742D01*
X-19122Y66742D02*
G37*
G36*
X70000Y67887D02*
X69253Y67788D01*
X68557Y67500D01*
X67959Y67041D01*
X67500Y66443D01*
X67212Y65747D01*
X67113Y65000D01*
X67212Y64253D01*
X67500Y63557D01*
X67959Y62959D01*
X68557Y62500D01*
X69253Y62212D01*
X70000Y62113D01*
X70747Y62212D01*
X71443Y62500D01*
X72041Y62959D01*
X72500Y63557D01*
X72789Y64253D01*
X72887Y65000D01*
X72789Y65747D01*
X72500Y66443D01*
X72041Y67041D01*
X71443Y67500D01*
X70747Y67788D01*
X70000Y67887D01*
X70000Y67887D02*
G37*
G36*
X0Y68483D02*
X-901Y68364D01*
X-1741Y68016D01*
X-2462Y67462D01*
X-3016Y66741D01*
X-3364Y65901D01*
X-3483Y65000D01*
X-3364Y64099D01*
X-3016Y63259D01*
X-2462Y62537D01*
X-1741Y61984D01*
X-901Y61636D01*
X0Y61518D01*
X901Y61636D01*
X1741Y61984D01*
X2462Y62537D01*
X3016Y63259D01*
X3364Y64099D01*
X3483Y65000D01*
X3364Y65901D01*
X3016Y66741D01*
X2462Y67462D01*
X1741Y68016D01*
X901Y68364D01*
X0Y68483D01*
X0Y68483D02*
G37*
G36*
X-15660Y62689D02*
X-18122Y62689D01*
X-18122Y59636D01*
X-15660Y59636D01*
X-15660Y62689D01*
X-15660Y62689D02*
G37*
G36*
X-19122Y62689D02*
X-21584Y62689D01*
X-21584Y59636D01*
X-19122Y59636D01*
X-19122Y62689D01*
X-19122Y62689D02*
G37*
G36*
X-51823Y60682D02*
X-54275Y60682D01*
X-54275Y58591D01*
X-49298Y58591D01*
X-49320Y58762D01*
X-49579Y59386D01*
X-49991Y59923D01*
X-50527Y60335D01*
X-51152Y60593D01*
X-51823Y60682D01*
X-51823Y60682D02*
G37*
G36*
X-55275Y60682D02*
X-57728Y60682D01*
X-58399Y60593D01*
X-59023Y60335D01*
X-59560Y59923D01*
X-59972Y59386D01*
X-60230Y58762D01*
X-60253Y58591D01*
X-55275Y58591D01*
X-55275Y60682D01*
X-55275Y60682D02*
G37*
G36*
X-66508Y60682D02*
X-67582Y60682D01*
X-67582Y58591D01*
X-63983Y58591D01*
X-64005Y58762D01*
X-64264Y59386D01*
X-64676Y59923D01*
X-65212Y60335D01*
X-65837Y60593D01*
X-66508Y60682D01*
X-66508Y60682D02*
G37*
G36*
X-68582Y60682D02*
X-69657Y60682D01*
X-70328Y60593D01*
X-70953Y60335D01*
X-71489Y59923D01*
X-71901Y59386D01*
X-72160Y58762D01*
X-72182Y58591D01*
X-68582Y58591D01*
X-68582Y60682D01*
X-68582Y60682D02*
G37*
G36*
X-49298Y57591D02*
X-54275Y57591D01*
X-54275Y55500D01*
X-51823Y55500D01*
X-51152Y55589D01*
X-50527Y55847D01*
X-49991Y56259D01*
X-49579Y56796D01*
X-49320Y57420D01*
X-49298Y57591D01*
X-49298Y57591D02*
G37*
G36*
X-55275Y57591D02*
X-60253Y57591D01*
X-60230Y57420D01*
X-59972Y56796D01*
X-59560Y56259D01*
X-59023Y55847D01*
X-58399Y55589D01*
X-57728Y55500D01*
X-55275Y55500D01*
X-55275Y57591D01*
X-55275Y57591D02*
G37*
G36*
X-63983Y57591D02*
X-67582Y57591D01*
X-67582Y55500D01*
X-66508Y55500D01*
X-65837Y55589D01*
X-65212Y55847D01*
X-64676Y56259D01*
X-64264Y56796D01*
X-64005Y57420D01*
X-63983Y57591D01*
X-63983Y57591D02*
G37*
G36*
X-68582Y57591D02*
X-72182Y57591D01*
X-72160Y57420D01*
X-71901Y56796D01*
X-71489Y56259D01*
X-70953Y55847D01*
X-70328Y55589D01*
X-69657Y55500D01*
X-68582Y55500D01*
X-68582Y57591D01*
X-68582Y57591D02*
G37*
G36*
X72862Y59988D02*
X67138Y59988D01*
X67138Y54264D01*
X72862Y54264D01*
X72862Y59988D01*
X72862Y59988D02*
G37*
G36*
X-55731Y54603D02*
X-55731Y53276D01*
X-54120Y53276D01*
X-54162Y53486D01*
X-54565Y54088D01*
X-55167Y54491D01*
X-55731Y54603D01*
X-55731Y54603D02*
G37*
G36*
X-50418Y54603D02*
X-50418Y53276D01*
X-48807Y53276D01*
X-48848Y53486D01*
X-49251Y54088D01*
X-49853Y54491D01*
X-50418Y54603D01*
X-50418Y54603D02*
G37*
G36*
X-51417Y54603D02*
X-51982Y54491D01*
X-52584Y54088D01*
X-52987Y53486D01*
X-53029Y53276D01*
X-51417Y53276D01*
X-51417Y54603D01*
X-51417Y54603D02*
G37*
G36*
X-56731Y54603D02*
X-57296Y54491D01*
X-57898Y54088D01*
X-58301Y53486D01*
X-58342Y53276D01*
X-56731Y53276D01*
X-56731Y54603D01*
X-56731Y54603D02*
G37*
G36*
X0Y58482D02*
X-901Y58364D01*
X-1741Y58016D01*
X-2462Y57463D01*
X-3016Y56741D01*
X-3364Y55901D01*
X-3483Y55000D01*
X-3364Y54099D01*
X-3016Y53259D01*
X-2462Y52538D01*
X-1741Y51984D01*
X-901Y51636D01*
X0Y51517D01*
X901Y51636D01*
X1741Y51984D01*
X2462Y52538D01*
X3016Y53259D01*
X3364Y54099D01*
X3483Y55000D01*
X3364Y55901D01*
X3016Y56741D01*
X2462Y57463D01*
X1741Y58016D01*
X901Y58364D01*
X0Y58482D01*
X0Y58482D02*
G37*
G36*
X-46260Y55647D02*
X-46839Y55532D01*
X-47330Y55204D01*
X-47658Y54713D01*
X-47773Y54134D01*
X-47658Y53555D01*
X-47330Y53064D01*
X-47279Y53030D01*
X-47279Y51014D01*
X-48443Y49851D01*
X-48922Y49996D01*
X-48943Y50100D01*
X-49323Y50669D01*
X-49431Y50742D01*
X-49431Y51343D01*
X-49251Y51464D01*
X-48848Y52066D01*
X-48807Y52276D01*
X-50918Y52276D01*
X-53029Y52276D01*
X-52987Y52066D01*
X-52584Y51464D01*
X-52553Y51442D01*
X-52704Y50942D01*
X-54445Y50942D01*
X-54596Y51442D01*
X-54565Y51464D01*
X-54162Y52066D01*
X-54120Y52276D01*
X-56231Y52276D01*
X-58342Y52276D01*
X-58301Y52066D01*
X-57898Y51464D01*
X-57867Y51442D01*
X-58018Y50942D01*
X-58839Y50942D01*
X-58839Y50942D01*
X-59418Y50827D01*
X-59909Y50499D01*
X-62094Y48314D01*
X-62422Y47823D01*
X-62537Y47244D01*
X-62537Y47244D01*
X-62537Y34449D01*
X-62537Y34449D01*
X-62422Y33870D01*
X-62094Y33379D01*
X-60342Y31627D01*
X-60342Y31627D01*
X-59851Y31299D01*
X-59272Y31184D01*
X-59272Y31184D01*
X-58018Y31184D01*
X-57867Y30684D01*
X-57898Y30663D01*
X-58301Y30060D01*
X-58342Y29850D01*
X-56231Y29850D01*
X-54120Y29850D01*
X-54162Y30060D01*
X-54565Y30663D01*
X-54596Y30684D01*
X-54445Y31184D01*
X-52704Y31184D01*
X-52553Y30684D01*
X-52584Y30663D01*
X-52987Y30060D01*
X-53029Y29850D01*
X-50918Y29850D01*
X-48807Y29850D01*
X-48848Y30060D01*
X-49251Y30663D01*
X-49431Y30783D01*
X-49431Y31384D01*
X-49323Y31457D01*
X-48943Y32026D01*
X-48809Y32697D01*
X-48943Y33368D01*
X-49323Y33937D01*
X-49520Y34069D01*
X-49520Y34671D01*
X-49323Y34803D01*
X-48943Y35372D01*
X-48809Y36043D01*
X-48943Y36714D01*
X-49323Y37283D01*
X-49521Y37416D01*
X-49521Y38017D01*
X-49323Y38150D01*
X-48943Y38719D01*
X-48809Y39390D01*
X-48943Y40061D01*
X-49323Y40630D01*
X-49520Y40762D01*
X-49520Y41364D01*
X-49323Y41496D01*
X-48943Y42065D01*
X-48809Y42736D01*
X-48943Y43407D01*
X-49323Y43976D01*
X-49521Y44109D01*
X-49521Y44710D01*
X-49323Y44843D01*
X-48943Y45412D01*
X-48809Y46083D01*
X-48895Y46515D01*
X-45539Y49871D01*
X-45318Y50202D01*
X-45240Y50592D01*
X-45240Y53030D01*
X-45190Y53064D01*
X-44862Y53555D01*
X-44747Y54134D01*
X-44862Y54713D01*
X-45190Y55204D01*
X-45681Y55532D01*
X-46260Y55647D01*
X-46260Y55647D02*
G37*
G36*
X-15660Y45351D02*
X-18122Y45351D01*
X-18122Y42298D01*
X-15660Y42298D01*
X-15660Y45351D01*
X-15660Y45351D02*
G37*
G36*
X-19122Y45351D02*
X-21584Y45351D01*
X-21584Y42298D01*
X-19122Y42298D01*
X-19122Y45351D01*
X-19122Y45351D02*
G37*
G36*
X0Y48482D02*
X-901Y48364D01*
X-1741Y48016D01*
X-2462Y47462D01*
X-3016Y46741D01*
X-3364Y45901D01*
X-3483Y45000D01*
X-3364Y44099D01*
X-3016Y43259D01*
X-2462Y42538D01*
X-1741Y41984D01*
X-901Y41636D01*
X0Y41517D01*
X901Y41636D01*
X1741Y41984D01*
X2462Y42538D01*
X3016Y43259D01*
X3364Y44099D01*
X3483Y45000D01*
X3364Y45901D01*
X3016Y46741D01*
X2462Y47462D01*
X1741Y48016D01*
X901Y48364D01*
X0Y48482D01*
X0Y48482D02*
G37*
G36*
X-33634Y45251D02*
X-39358Y45251D01*
X-39358Y38345D01*
X-33634Y38345D01*
X-33634Y45251D01*
X-33634Y45251D02*
G37*
G36*
X-15660Y41298D02*
X-18122Y41298D01*
X-18122Y38245D01*
X-15660Y38245D01*
X-15660Y41298D01*
X-15660Y41298D02*
G37*
G36*
X-19122Y41298D02*
X-21584Y41298D01*
X-21584Y38245D01*
X-19122Y38245D01*
X-19122Y41298D01*
X-19122Y41298D02*
G37*
G36*
X0Y38482D02*
X-901Y38364D01*
X-1741Y38016D01*
X-2462Y37462D01*
X-3016Y36741D01*
X-3364Y35901D01*
X-3483Y35000D01*
X-3364Y34099D01*
X-3016Y33259D01*
X-2462Y32537D01*
X-1741Y31984D01*
X-901Y31636D01*
X0Y31517D01*
X901Y31636D01*
X1741Y31984D01*
X2462Y32537D01*
X3016Y33259D01*
X3364Y34099D01*
X3483Y35000D01*
X3364Y35901D01*
X3016Y36741D01*
X2462Y37462D01*
X1741Y38016D01*
X901Y38364D01*
X0Y38482D01*
X0Y38482D02*
G37*
G36*
X-54120Y28850D02*
X-55731Y28850D01*
X-55731Y27523D01*
X-55167Y27635D01*
X-54565Y28038D01*
X-54162Y28640D01*
X-54120Y28850D01*
X-54120Y28850D02*
G37*
G36*
X-48807Y28850D02*
X-50418Y28850D01*
X-50418Y27523D01*
X-49853Y27635D01*
X-49251Y28038D01*
X-48848Y28640D01*
X-48807Y28850D01*
X-48807Y28850D02*
G37*
G36*
X-51417Y28850D02*
X-53029Y28850D01*
X-52987Y28640D01*
X-52584Y28038D01*
X-51982Y27635D01*
X-51417Y27523D01*
X-51417Y28850D01*
X-51417Y28850D02*
G37*
G36*
X-56731Y28850D02*
X-58342Y28850D01*
X-58301Y28640D01*
X-57898Y28038D01*
X-57296Y27635D01*
X-56731Y27523D01*
X-56731Y28850D01*
X-56731Y28850D02*
G37*
G36*
X-51823Y26626D02*
X-54275Y26626D01*
X-54275Y24535D01*
X-49298Y24535D01*
X-49320Y24705D01*
X-49579Y25330D01*
X-49991Y25867D01*
X-50527Y26279D01*
X-51152Y26537D01*
X-51823Y26626D01*
X-51823Y26626D02*
G37*
G36*
X-55275Y26626D02*
X-57728Y26626D01*
X-58399Y26537D01*
X-59023Y26279D01*
X-59560Y25867D01*
X-59972Y25330D01*
X-60230Y24705D01*
X-60253Y24535D01*
X-55275Y24535D01*
X-55275Y26626D01*
X-55275Y26626D02*
G37*
G36*
X-66508Y26626D02*
X-67582Y26626D01*
X-67582Y24535D01*
X-63983Y24535D01*
X-64005Y24705D01*
X-64264Y25330D01*
X-64676Y25867D01*
X-65212Y26279D01*
X-65837Y26537D01*
X-66508Y26626D01*
X-66508Y26626D02*
G37*
G36*
X-68582Y26626D02*
X-69657Y26626D01*
X-70328Y26537D01*
X-70953Y26279D01*
X-71489Y25867D01*
X-71901Y25330D01*
X-72160Y24705D01*
X-72182Y24535D01*
X-68582Y24535D01*
X-68582Y26626D01*
X-68582Y26626D02*
G37*
G36*
X0Y28482D02*
X-901Y28364D01*
X-1741Y28016D01*
X-2462Y27463D01*
X-3016Y26741D01*
X-3364Y25901D01*
X-3483Y25000D01*
X-3364Y24099D01*
X-3016Y23259D01*
X-2462Y22537D01*
X-1741Y21984D01*
X-901Y21636D01*
X0Y21518D01*
X901Y21636D01*
X1741Y21984D01*
X2462Y22537D01*
X3016Y23259D01*
X3364Y24099D01*
X3483Y25000D01*
X3364Y25901D01*
X3016Y26741D01*
X2462Y27463D01*
X1741Y28016D01*
X901Y28364D01*
X0Y28482D01*
X0Y28482D02*
G37*
G36*
X-49298Y23535D02*
X-54275Y23535D01*
X-54275Y21444D01*
X-51823Y21444D01*
X-51152Y21533D01*
X-50527Y21791D01*
X-49991Y22203D01*
X-49579Y22740D01*
X-49320Y23365D01*
X-49298Y23535D01*
X-49298Y23535D02*
G37*
G36*
X-55275Y23535D02*
X-60253Y23535D01*
X-60230Y23365D01*
X-59972Y22740D01*
X-59560Y22203D01*
X-59023Y21791D01*
X-58399Y21533D01*
X-57728Y21444D01*
X-55275Y21444D01*
X-55275Y23535D01*
X-55275Y23535D02*
G37*
G36*
X-63983Y23535D02*
X-67582Y23535D01*
X-67582Y21444D01*
X-66508Y21444D01*
X-65837Y21533D01*
X-65212Y21791D01*
X-64676Y22203D01*
X-64264Y22740D01*
X-64005Y23365D01*
X-63983Y23535D01*
X-63983Y23535D02*
G37*
G36*
X-68582Y23535D02*
X-72182Y23535D01*
X-72160Y23365D01*
X-71901Y22740D01*
X-71489Y22203D01*
X-70953Y21791D01*
X-70328Y21533D01*
X-69657Y21444D01*
X-68582Y21444D01*
X-68582Y23535D01*
X-68582Y23535D02*
G37*
G36*
X-15000Y20513D02*
X-15579Y20398D01*
X-16070Y20070D01*
X-16398Y19579D01*
X-16513Y19000D01*
X-16398Y18421D01*
X-16070Y17930D01*
X-15579Y17602D01*
X-15000Y17487D01*
X-14940Y17499D01*
X-12502Y15060D01*
X-12513Y15000D01*
X-12398Y14421D01*
X-12070Y13930D01*
X-11579Y13602D01*
X-11000Y13487D01*
X-10421Y13602D01*
X-9930Y13930D01*
X-9602Y14421D01*
X-9487Y15000D01*
X-9602Y15579D01*
X-9930Y16070D01*
X-10421Y16398D01*
X-11000Y16513D01*
X-11060Y16501D01*
X-13498Y18940D01*
X-13487Y19000D01*
X-13602Y19579D01*
X-13930Y20070D01*
X-14421Y20398D01*
X-15000Y20513D01*
X-15000Y20513D02*
G37*
G36*
X0Y18483D02*
X-901Y18364D01*
X-1741Y18016D01*
X-2462Y17462D01*
X-3016Y16741D01*
X-3364Y15901D01*
X-3483Y15000D01*
X-3364Y14099D01*
X-3016Y13259D01*
X-2462Y12538D01*
X-1741Y11984D01*
X-901Y11636D01*
X0Y11518D01*
X901Y11636D01*
X1741Y11984D01*
X2462Y12538D01*
X3016Y13259D01*
X3364Y14099D01*
X3483Y15000D01*
X3364Y15901D01*
X3016Y16741D01*
X2462Y17462D01*
X1741Y18016D01*
X901Y18364D01*
X0Y18483D01*
X0Y18483D02*
G37*
G36*
X-15660Y14248D02*
X-18122Y14248D01*
X-18122Y11196D01*
X-15660Y11196D01*
X-15660Y14248D01*
X-15660Y14248D02*
G37*
G36*
X-19122Y14248D02*
X-21584Y14248D01*
X-21584Y11196D01*
X-19122Y11196D01*
X-19122Y14248D01*
X-19122Y14248D02*
G37*
G36*
X-33634Y66642D02*
X-39358Y66642D01*
X-39358Y59736D01*
X-34832Y59736D01*
X-34724Y59715D01*
X-34724Y59715D01*
X-34594Y59715D01*
X-27714Y52834D01*
X-27714Y13087D01*
X-28000Y12658D01*
X-28115Y12079D01*
X-28000Y11500D01*
X-27672Y11009D01*
X-27181Y10681D01*
X-26602Y10566D01*
X-26023Y10681D01*
X-25532Y11009D01*
X-25204Y11500D01*
X-25089Y12079D01*
X-25204Y12658D01*
X-25490Y13087D01*
X-25490Y53295D01*
X-25575Y53720D01*
X-25816Y54081D01*
X-25816Y54081D01*
X-33348Y61613D01*
X-33634Y61804D01*
X-33634Y66642D01*
X-33634Y66642D02*
G37*
G36*
X-49000Y11513D02*
X-49579Y11398D01*
X-50070Y11070D01*
X-50398Y10579D01*
X-50487Y10133D01*
X-50997Y10133D01*
X-51036Y10329D01*
X-51081Y10559D01*
X-51409Y11050D01*
X-51900Y11378D01*
X-52479Y11493D01*
X-53059Y11378D01*
X-53549Y11050D01*
X-53878Y10559D01*
X-53993Y9979D01*
X-53878Y9400D01*
X-53549Y8909D01*
X-53059Y8581D01*
X-52633Y8497D01*
X-52633Y7987D01*
X-52832Y7947D01*
X-53079Y7898D01*
X-53570Y7570D01*
X-53898Y7079D01*
X-54013Y6500D01*
X-53898Y5921D01*
X-53570Y5430D01*
X-53079Y5102D01*
X-52500Y4987D01*
X-51921Y5102D01*
X-51430Y5430D01*
X-51102Y5921D01*
X-50987Y6500D01*
X-51102Y7079D01*
X-51430Y7570D01*
X-51921Y7898D01*
X-52346Y7983D01*
X-52346Y8493D01*
X-52148Y8532D01*
X-51900Y8581D01*
X-51409Y8909D01*
X-51081Y9400D01*
X-50993Y9846D01*
X-50483Y9846D01*
X-50444Y9651D01*
X-50398Y9421D01*
X-50070Y8930D01*
X-49579Y8602D01*
X-49000Y8487D01*
X-48421Y8602D01*
X-47930Y8930D01*
X-47602Y9421D01*
X-47487Y10000D01*
X-47602Y10579D01*
X-47930Y11070D01*
X-48421Y11398D01*
X-49000Y11513D01*
X-49000Y11513D02*
G37*
G36*
X-33634Y14148D02*
X-39358Y14148D01*
X-39358Y8026D01*
X-39807Y7805D01*
X-39858Y7844D01*
X-40650Y8172D01*
X-41500Y8284D01*
X-42350Y8172D01*
X-43142Y7844D01*
X-43822Y7322D01*
X-44344Y6642D01*
X-44672Y5850D01*
X-44784Y5000D01*
X-44672Y4150D01*
X-44344Y3358D01*
X-43822Y2678D01*
X-43142Y2156D01*
X-42350Y1828D01*
X-41500Y1716D01*
X-40650Y1828D01*
X-39858Y2156D01*
X-39178Y2678D01*
X-38656Y3358D01*
X-38328Y4150D01*
X-38216Y5000D01*
X-38328Y5850D01*
X-38656Y6642D01*
X-38773Y6794D01*
X-38552Y7243D01*
X-33634Y7243D01*
X-33634Y7888D01*
X-31508Y7888D01*
X-31079Y7602D01*
X-30500Y7487D01*
X-29921Y7602D01*
X-29430Y7930D01*
X-29102Y8421D01*
X-28987Y9000D01*
X-29102Y9579D01*
X-29430Y10070D01*
X-29921Y10398D01*
X-30500Y10513D01*
X-31079Y10398D01*
X-31508Y10112D01*
X-33634Y10112D01*
X-33634Y14148D01*
X-33634Y14148D02*
G37*
G36*
X-15660Y10195D02*
X-18122Y10195D01*
X-18122Y7143D01*
X-15660Y7143D01*
X-15660Y10195D01*
X-15660Y10195D02*
G37*
G36*
X-19122Y10195D02*
X-21584Y10195D01*
X-21584Y7143D01*
X-19122Y7143D01*
X-19122Y10195D01*
X-19122Y10195D02*
G37*
G36*
X-56104Y7868D02*
X-56684Y7753D01*
X-57174Y7424D01*
X-57503Y6934D01*
X-57618Y6354D01*
X-57503Y5775D01*
X-57174Y5284D01*
X-56684Y4956D01*
X-56104Y4841D01*
X-55525Y4956D01*
X-55034Y5284D01*
X-54706Y5775D01*
X-54591Y6354D01*
X-54706Y6934D01*
X-55034Y7424D01*
X-55525Y7753D01*
X-56104Y7868D01*
X-56104Y7868D02*
G37*
G36*
X49500Y33253D02*
X48921Y33138D01*
X48430Y32810D01*
X48102Y32319D01*
X47987Y31740D01*
X48102Y31161D01*
X48388Y30733D01*
X48388Y9500D01*
X48388Y9500D01*
X48473Y9075D01*
X48714Y8714D01*
X52714Y4714D01*
X52714Y4714D01*
X53075Y4473D01*
X53500Y4388D01*
X66492Y4388D01*
X66921Y4102D01*
X67500Y3987D01*
X68079Y4102D01*
X68570Y4430D01*
X68898Y4921D01*
X69013Y5500D01*
X68898Y6079D01*
X68570Y6570D01*
X68079Y6898D01*
X67500Y7013D01*
X66921Y6898D01*
X66492Y6612D01*
X53961Y6612D01*
X50612Y9961D01*
X50612Y30733D01*
X50898Y31161D01*
X51013Y31740D01*
X50898Y32319D01*
X50570Y32810D01*
X50079Y33138D01*
X49500Y33253D01*
X49500Y33253D02*
G37*
G36*
X0Y8483D02*
X-901Y8364D01*
X-1741Y8016D01*
X-2462Y7463D01*
X-3016Y6741D01*
X-3364Y5901D01*
X-3483Y5000D01*
X-3364Y4099D01*
X-3016Y3259D01*
X-2462Y2537D01*
X-1741Y1984D01*
X-901Y1636D01*
X0Y1517D01*
X901Y1636D01*
X1741Y1984D01*
X2462Y2537D01*
X3016Y3259D01*
X3364Y4099D01*
X3483Y5000D01*
X3364Y5901D01*
X3016Y6741D01*
X2462Y7463D01*
X1741Y8016D01*
X901Y8364D01*
X0Y8483D01*
X0Y8483D02*
G37*
G36*
X0Y-1517D02*
X-901Y-1636D01*
X-1741Y-1984D01*
X-2462Y-2537D01*
X-3016Y-3259D01*
X-3364Y-4099D01*
X-3483Y-5000D01*
X-3364Y-5901D01*
X-3016Y-6741D01*
X-2462Y-7463D01*
X-1741Y-8016D01*
X-901Y-8364D01*
X0Y-8483D01*
X901Y-8364D01*
X1741Y-8016D01*
X2462Y-7463D01*
X3016Y-6741D01*
X3364Y-5901D01*
X3483Y-5000D01*
X3364Y-4099D01*
X3016Y-3259D01*
X2462Y-2537D01*
X1741Y-1984D01*
X901Y-1636D01*
X0Y-1517D01*
X0Y-1517D02*
G37*
G36*
X-15660Y-7143D02*
X-18122Y-7143D01*
X-18122Y-10195D01*
X-15660Y-10195D01*
X-15660Y-7143D01*
X-15660Y-7143D02*
G37*
G36*
X-19122Y-7143D02*
X-21584Y-7143D01*
X-21584Y-10195D01*
X-19122Y-10195D01*
X-19122Y-7143D01*
X-19122Y-7143D02*
G37*
G36*
X-15660Y-11196D02*
X-18122Y-11196D01*
X-18122Y-14248D01*
X-15660Y-14248D01*
X-15660Y-11196D01*
X-15660Y-11196D02*
G37*
G36*
X-19122Y-11196D02*
X-21584Y-11196D01*
X-21584Y-14248D01*
X-19122Y-14248D01*
X-19122Y-11196D01*
X-19122Y-11196D02*
G37*
G36*
X-34724Y-7221D02*
X-34832Y-7243D01*
X-39358Y-7243D01*
X-39358Y-14148D01*
X-33634Y-14148D01*
X-33634Y-14112D01*
X-33007Y-14112D01*
X-32579Y-14398D01*
X-32000Y-14513D01*
X-31421Y-14398D01*
X-30930Y-14070D01*
X-30602Y-13579D01*
X-30487Y-13000D01*
X-30602Y-12421D01*
X-30930Y-11930D01*
X-31421Y-11602D01*
X-32000Y-11487D01*
X-32579Y-11602D01*
X-33007Y-11888D01*
X-33634Y-11888D01*
X-33634Y-8441D01*
X-33612Y-8333D01*
X-33634Y-8226D01*
X-33634Y-7243D01*
X-34617Y-7243D01*
X-34724Y-7221D01*
X-34724Y-7221D02*
G37*
G36*
X70500Y-12204D02*
X70500Y-14626D01*
X72922Y-14626D01*
X72886Y-14353D01*
X72588Y-13632D01*
X72113Y-13013D01*
X71494Y-12539D01*
X70773Y-12240D01*
X70500Y-12204D01*
X70500Y-12204D02*
G37*
G36*
X69500Y-12204D02*
X69227Y-12240D01*
X68506Y-12539D01*
X67887Y-13013D01*
X67413Y-13632D01*
X67114Y-14353D01*
X67078Y-14626D01*
X69500Y-14626D01*
X69500Y-12204D01*
X69500Y-12204D02*
G37*
G36*
X37000Y-11713D02*
X36253Y-11812D01*
X35557Y-12100D01*
X34959Y-12559D01*
X34500Y-13157D01*
X34212Y-13853D01*
X34113Y-14600D01*
X34212Y-15347D01*
X34500Y-16044D01*
X34959Y-16641D01*
X35557Y-17100D01*
X36253Y-17389D01*
X37000Y-17487D01*
X37747Y-17389D01*
X38443Y-17100D01*
X39041Y-16641D01*
X39500Y-16044D01*
X39788Y-15347D01*
X39887Y-14600D01*
X39788Y-13853D01*
X39500Y-13157D01*
X39041Y-12559D01*
X38443Y-12100D01*
X37747Y-11812D01*
X37000Y-11713D01*
X37000Y-11713D02*
G37*
G36*
X72922Y-15626D02*
X70500Y-15626D01*
X70500Y-18048D01*
X70773Y-18012D01*
X71494Y-17714D01*
X72113Y-17239D01*
X72588Y-16620D01*
X72886Y-15899D01*
X72922Y-15626D01*
X72922Y-15626D02*
G37*
G36*
X69500Y-15626D02*
X67078Y-15626D01*
X67114Y-15899D01*
X67413Y-16620D01*
X67887Y-17239D01*
X68506Y-17714D01*
X69227Y-18012D01*
X69500Y-18048D01*
X69500Y-15626D01*
X69500Y-15626D02*
G37*
G36*
X0Y-11518D02*
X-901Y-11636D01*
X-1741Y-11984D01*
X-2462Y-12538D01*
X-3016Y-13259D01*
X-3364Y-14099D01*
X-3483Y-15000D01*
X-3364Y-15901D01*
X-3016Y-16741D01*
X-2462Y-17462D01*
X-1780Y-17987D01*
X-1778Y-18042D01*
X-2094Y-18487D01*
X-22042Y-18487D01*
X-22220Y-18220D01*
X-23037Y-17675D01*
X-24000Y-17483D01*
X-24963Y-17675D01*
X-25780Y-18220D01*
X-26325Y-19037D01*
X-26517Y-20000D01*
X-26325Y-20963D01*
X-25780Y-21780D01*
X-24963Y-22325D01*
X-24000Y-22517D01*
X-23259Y-22369D01*
X-23037Y-22325D01*
X-22799Y-22749D01*
X-23070Y-22930D01*
X-23398Y-23421D01*
X-23513Y-24000D01*
X-23398Y-24579D01*
X-23070Y-25070D01*
X-22579Y-25398D01*
X-22000Y-25513D01*
X-21421Y-25398D01*
X-20992Y-25112D01*
X-8461Y-25112D01*
X-2786Y-30786D01*
X-2426Y-31027D01*
X-2000Y-31112D01*
X-750Y-31112D01*
X-717Y-31612D01*
X-901Y-31636D01*
X-1741Y-31984D01*
X-2462Y-32537D01*
X-3016Y-33259D01*
X-3364Y-34099D01*
X-3483Y-35000D01*
X-3364Y-35901D01*
X-3016Y-36741D01*
X-2462Y-37462D01*
X-1741Y-38016D01*
X-901Y-38364D01*
X0Y-38482D01*
X901Y-38364D01*
X1741Y-38016D01*
X2462Y-37462D01*
X3016Y-36741D01*
X3364Y-35901D01*
X3483Y-35000D01*
X3364Y-34099D01*
X3016Y-33259D01*
X2462Y-32537D01*
X1741Y-31984D01*
X901Y-31636D01*
X717Y-31612D01*
X750Y-31112D01*
X7993Y-31112D01*
X8421Y-31398D01*
X9000Y-31513D01*
X9579Y-31398D01*
X10070Y-31070D01*
X10398Y-30579D01*
X10513Y-30000D01*
X10398Y-29421D01*
X10070Y-28930D01*
X9579Y-28602D01*
X9000Y-28487D01*
X8421Y-28602D01*
X7993Y-28888D01*
X750Y-28888D01*
X717Y-28388D01*
X901Y-28364D01*
X1741Y-28016D01*
X2462Y-27463D01*
X3016Y-26741D01*
X3364Y-25901D01*
X3483Y-25000D01*
X3364Y-24099D01*
X3016Y-23259D01*
X2462Y-22537D01*
X1780Y-22013D01*
X1778Y-21958D01*
X2094Y-21513D01*
X5042Y-21513D01*
X5220Y-21780D01*
X6037Y-22325D01*
X7000Y-22517D01*
X7963Y-22325D01*
X8780Y-21780D01*
X9325Y-20963D01*
X9517Y-20000D01*
X9325Y-19037D01*
X8780Y-18220D01*
X7963Y-17675D01*
X7000Y-17483D01*
X6037Y-17675D01*
X5220Y-18220D01*
X5042Y-18487D01*
X2094Y-18487D01*
X1778Y-18042D01*
X1780Y-17987D01*
X2462Y-17462D01*
X3016Y-16741D01*
X3364Y-15901D01*
X3483Y-15000D01*
X3364Y-14099D01*
X3016Y-13259D01*
X2462Y-12538D01*
X1741Y-11984D01*
X901Y-11636D01*
X0Y-11518D01*
X0Y-11518D02*
G37*
G36*
X72862Y-20138D02*
X67138Y-20138D01*
X67138Y-25862D01*
X72862Y-25862D01*
X72862Y-20138D01*
X72862Y-20138D02*
G37*
G36*
X-61685Y-36316D02*
X-61685Y-38341D01*
X-59660Y-38341D01*
X-59683Y-38170D01*
X-59942Y-37545D01*
X-60353Y-37009D01*
X-60890Y-36597D01*
X-61515Y-36338D01*
X-61685Y-36316D01*
X-61685Y-36316D02*
G37*
G36*
X-62685Y-36316D02*
X-62856Y-36338D01*
X-63480Y-36597D01*
X-64017Y-37009D01*
X-64429Y-37545D01*
X-64687Y-38170D01*
X-64710Y-38341D01*
X-62685Y-38341D01*
X-62685Y-36316D01*
X-62685Y-36316D02*
G37*
G36*
X-15660Y-38245D02*
X-18122Y-38245D01*
X-18122Y-41298D01*
X-15660Y-41298D01*
X-15660Y-38245D01*
X-15660Y-38245D02*
G37*
G36*
X-19122Y-38245D02*
X-21584Y-38245D01*
X-21584Y-41298D01*
X-19122Y-41298D01*
X-19122Y-38245D01*
X-19122Y-38245D02*
G37*
G36*
X-59660Y-39341D02*
X-61685Y-39341D01*
X-61685Y-41366D01*
X-61515Y-41343D01*
X-60890Y-41084D01*
X-60353Y-40673D01*
X-59942Y-40136D01*
X-59683Y-39511D01*
X-59660Y-39341D01*
X-59660Y-39341D02*
G37*
G36*
X-62685Y-39341D02*
X-64710Y-39341D01*
X-64687Y-39511D01*
X-64429Y-40136D01*
X-64017Y-40673D01*
X-63480Y-41084D01*
X-62856Y-41343D01*
X-62685Y-41366D01*
X-62685Y-39341D01*
X-62685Y-39341D02*
G37*
G36*
X-33634Y-38345D02*
X-39358Y-38345D01*
X-39358Y-45251D01*
X-33634Y-45251D01*
X-33634Y-38345D01*
X-33634Y-38345D02*
G37*
G36*
X-15660Y-42298D02*
X-18122Y-42298D01*
X-18122Y-45351D01*
X-15660Y-45351D01*
X-15660Y-42298D01*
X-15660Y-42298D02*
G37*
G36*
X-19122Y-42298D02*
X-21584Y-42298D01*
X-21584Y-45351D01*
X-19122Y-45351D01*
X-19122Y-42298D01*
X-19122Y-42298D02*
G37*
G36*
X-64685Y-42327D02*
X-65264Y-42443D01*
X-65755Y-42771D01*
X-66083Y-43262D01*
X-66198Y-43841D01*
X-66083Y-44420D01*
X-65755Y-44911D01*
X-65264Y-45239D01*
X-64685Y-45354D01*
X-64106Y-45239D01*
X-63615Y-44911D01*
X-63287Y-44420D01*
X-63172Y-43841D01*
X-63287Y-43262D01*
X-63615Y-42771D01*
X-64106Y-42443D01*
X-64685Y-42327D01*
X-64685Y-42327D02*
G37*
G36*
X0Y-41517D02*
X-901Y-41636D01*
X-1741Y-41984D01*
X-2462Y-42538D01*
X-3016Y-43259D01*
X-3364Y-44099D01*
X-3483Y-45000D01*
X-3364Y-45901D01*
X-3016Y-46741D01*
X-2462Y-47462D01*
X-1741Y-48016D01*
X-901Y-48364D01*
X0Y-48482D01*
X901Y-48364D01*
X1741Y-48016D01*
X2462Y-47462D01*
X3016Y-46741D01*
X3364Y-45901D01*
X3483Y-45000D01*
X3364Y-44099D01*
X3016Y-43259D01*
X2462Y-42538D01*
X1741Y-41984D01*
X901Y-41636D01*
X0Y-41517D01*
X0Y-41517D02*
G37*
G36*
X-64685Y-47327D02*
X-65264Y-47442D01*
X-65755Y-47771D01*
X-66083Y-48261D01*
X-66198Y-48841D01*
X-66083Y-49420D01*
X-65755Y-49911D01*
X-65264Y-50239D01*
X-64685Y-50354D01*
X-64106Y-50239D01*
X-63615Y-49911D01*
X-63287Y-49420D01*
X-63172Y-48841D01*
X-63287Y-48261D01*
X-63615Y-47771D01*
X-64106Y-47442D01*
X-64685Y-47327D01*
X-64685Y-47327D02*
G37*
G36*
X70500Y-49204D02*
X70500Y-51626D01*
X72922Y-51626D01*
X72886Y-51353D01*
X72588Y-50632D01*
X72113Y-50013D01*
X71494Y-49538D01*
X70773Y-49240D01*
X70500Y-49204D01*
X70500Y-49204D02*
G37*
G36*
X69500Y-49204D02*
X69227Y-49240D01*
X68506Y-49538D01*
X67887Y-50013D01*
X67413Y-50632D01*
X67114Y-51353D01*
X67078Y-51626D01*
X69500Y-51626D01*
X69500Y-49204D01*
X69500Y-49204D02*
G37*
G36*
X500Y-51482D02*
X500Y-54500D01*
X3518Y-54500D01*
X3461Y-54073D01*
X3103Y-53208D01*
X2534Y-52466D01*
X1792Y-51897D01*
X927Y-51539D01*
X500Y-51482D01*
X500Y-51482D02*
G37*
G36*
X-500Y-51482D02*
X-927Y-51539D01*
X-1792Y-51897D01*
X-2534Y-52466D01*
X-3103Y-53208D01*
X-3461Y-54073D01*
X-3518Y-54500D01*
X-500Y-54500D01*
X-500Y-51482D01*
X-500Y-51482D02*
G37*
G36*
X72922Y-52626D02*
X70500Y-52626D01*
X70500Y-55048D01*
X70773Y-55012D01*
X71494Y-54713D01*
X72113Y-54239D01*
X72588Y-53620D01*
X72886Y-52899D01*
X72922Y-52626D01*
X72922Y-52626D02*
G37*
G36*
X69500Y-52626D02*
X67078Y-52626D01*
X67114Y-52899D01*
X67413Y-53620D01*
X67887Y-54239D01*
X68506Y-54713D01*
X69227Y-55012D01*
X69500Y-55048D01*
X69500Y-52626D01*
X69500Y-52626D02*
G37*
G36*
X-64685Y-52327D02*
X-65264Y-52443D01*
X-65755Y-52771D01*
X-66083Y-53262D01*
X-66198Y-53841D01*
X-66083Y-54420D01*
X-65755Y-54911D01*
X-65264Y-55239D01*
X-64685Y-55354D01*
X-64106Y-55239D01*
X-63615Y-54911D01*
X-63287Y-54420D01*
X-63172Y-53841D01*
X-63287Y-53262D01*
X-63615Y-52771D01*
X-64106Y-52443D01*
X-64685Y-52327D01*
X-64685Y-52327D02*
G37*
G36*
X3518Y-55500D02*
X500Y-55500D01*
X500Y-58518D01*
X927Y-58461D01*
X1792Y-58103D01*
X2534Y-57534D01*
X3103Y-56792D01*
X3461Y-55927D01*
X3518Y-55500D01*
X3518Y-55500D02*
G37*
G36*
X-500Y-55500D02*
X-3518Y-55500D01*
X-3461Y-55927D01*
X-3103Y-56792D01*
X-2534Y-57534D01*
X-1792Y-58103D01*
X-927Y-58461D01*
X-500Y-58518D01*
X-500Y-55500D01*
X-500Y-55500D02*
G37*
G36*
X20500Y-56881D02*
X20500Y-59700D01*
X23319Y-59700D01*
X23269Y-59324D01*
X22931Y-58508D01*
X22393Y-57806D01*
X21692Y-57269D01*
X20876Y-56931D01*
X20500Y-56881D01*
X20500Y-56881D02*
G37*
G36*
X19500Y-56881D02*
X19124Y-56931D01*
X18308Y-57269D01*
X17606Y-57806D01*
X17069Y-58508D01*
X16730Y-59324D01*
X16681Y-59700D01*
X19500Y-59700D01*
X19500Y-56881D01*
X19500Y-56881D02*
G37*
G36*
X-54602Y-57907D02*
X-55181Y-58023D01*
X-55672Y-58351D01*
X-56000Y-58842D01*
X-56100Y-59347D01*
X-56742Y-59988D01*
X-61944Y-59988D01*
X-61944Y-59988D01*
X-62370Y-60073D01*
X-62731Y-60314D01*
X-62731Y-60314D01*
X-64759Y-62342D01*
X-65264Y-62443D01*
X-65755Y-62771D01*
X-66083Y-63261D01*
X-66198Y-63841D01*
X-66083Y-64420D01*
X-65755Y-64911D01*
X-65264Y-65239D01*
X-64685Y-65354D01*
X-64106Y-65239D01*
X-63615Y-64911D01*
X-63287Y-64420D01*
X-63186Y-63915D01*
X-61484Y-62212D01*
X-60819Y-62212D01*
X-60667Y-62712D01*
X-60755Y-62771D01*
X-61083Y-63261D01*
X-61198Y-63841D01*
X-61083Y-64420D01*
X-60755Y-64911D01*
X-60264Y-65239D01*
X-59685Y-65354D01*
X-59106Y-65239D01*
X-58678Y-64953D01*
X-55141Y-64953D01*
X-55141Y-64953D01*
X-54715Y-64868D01*
X-54354Y-64627D01*
X-53726Y-63999D01*
X-53221Y-63898D01*
X-52730Y-63570D01*
X-52402Y-63079D01*
X-52287Y-62500D01*
X-52402Y-61921D01*
X-52730Y-61430D01*
X-53221Y-61102D01*
X-53471Y-61052D01*
X-53577Y-60521D01*
X-53532Y-60491D01*
X-53204Y-60000D01*
X-53088Y-59421D01*
X-53204Y-58842D01*
X-53532Y-58351D01*
X-54023Y-58023D01*
X-54602Y-57907D01*
X-54602Y-57907D02*
G37*
G36*
X-15660Y-59636D02*
X-18122Y-59636D01*
X-18122Y-62689D01*
X-15660Y-62689D01*
X-15660Y-59636D01*
X-15660Y-59636D02*
G37*
G36*
X-19122Y-59636D02*
X-21584Y-59636D01*
X-21584Y-62689D01*
X-19122Y-62689D01*
X-19122Y-59636D01*
X-19122Y-59636D02*
G37*
G36*
X70000Y-57113D02*
X69253Y-57212D01*
X68557Y-57500D01*
X67959Y-57959D01*
X67500Y-58557D01*
X67212Y-59253D01*
X67113Y-60000D01*
X67212Y-60747D01*
X67500Y-61443D01*
X67959Y-62041D01*
X68557Y-62500D01*
X69253Y-62788D01*
X70000Y-62887D01*
X70747Y-62788D01*
X71443Y-62500D01*
X72041Y-62041D01*
X72500Y-61443D01*
X72789Y-60747D01*
X72887Y-60000D01*
X72789Y-59253D01*
X72500Y-58557D01*
X72041Y-57959D01*
X71443Y-57500D01*
X70747Y-57212D01*
X70000Y-57113D01*
X70000Y-57113D02*
G37*
G36*
X35100Y-57113D02*
X34353Y-57212D01*
X33656Y-57500D01*
X33059Y-57959D01*
X32600Y-58557D01*
X32311Y-59253D01*
X32213Y-60000D01*
X32311Y-60747D01*
X32600Y-61443D01*
X33059Y-62041D01*
X33656Y-62500D01*
X34353Y-62788D01*
X35100Y-62887D01*
X35847Y-62788D01*
X36544Y-62500D01*
X37141Y-62041D01*
X37600Y-61443D01*
X37889Y-60747D01*
X37987Y-60000D01*
X37889Y-59253D01*
X37600Y-58557D01*
X37141Y-57959D01*
X36544Y-57500D01*
X35847Y-57212D01*
X35100Y-57113D01*
X35100Y-57113D02*
G37*
G36*
X23319Y-60700D02*
X20500Y-60700D01*
X20500Y-63519D01*
X20876Y-63469D01*
X21692Y-63131D01*
X22393Y-62594D01*
X22931Y-61892D01*
X23269Y-61076D01*
X23319Y-60700D01*
X23319Y-60700D02*
G37*
G36*
X19500Y-60700D02*
X16681Y-60700D01*
X16730Y-61076D01*
X17069Y-61892D01*
X17606Y-62594D01*
X18308Y-63131D01*
X19124Y-63469D01*
X19500Y-63519D01*
X19500Y-60700D01*
X19500Y-60700D02*
G37*
G36*
X3453Y-61547D02*
X-3453Y-61547D01*
X-3453Y-65388D01*
X-7293Y-65388D01*
X-7721Y-65102D01*
X-8300Y-64987D01*
X-8879Y-65102D01*
X-9370Y-65430D01*
X-9698Y-65921D01*
X-9813Y-66500D01*
X-9698Y-67079D01*
X-9370Y-67570D01*
X-8879Y-67898D01*
X-8300Y-68013D01*
X-7721Y-67898D01*
X-7293Y-67612D01*
X-3453Y-67612D01*
X-3453Y-68453D01*
X3453Y-68453D01*
X3453Y-61547D01*
X3453Y-61547D02*
G37*
G36*
X-50200Y-42087D02*
X-50779Y-42202D01*
X-51270Y-42530D01*
X-51321Y-42606D01*
X-51618Y-42606D01*
X-52043Y-42690D01*
X-52404Y-42931D01*
X-52404Y-42931D01*
X-56889Y-47416D01*
X-57130Y-47777D01*
X-57214Y-48202D01*
X-57214Y-48202D01*
X-57214Y-54942D01*
X-57461Y-55188D01*
X-62144Y-55188D01*
X-62570Y-55273D01*
X-62931Y-55514D01*
X-62931Y-55514D01*
X-64759Y-57342D01*
X-65264Y-57443D01*
X-65755Y-57771D01*
X-66083Y-58262D01*
X-66198Y-58841D01*
X-66083Y-59420D01*
X-65755Y-59911D01*
X-65264Y-60239D01*
X-64685Y-60354D01*
X-64106Y-60239D01*
X-63615Y-59911D01*
X-63287Y-59420D01*
X-63186Y-58915D01*
X-61684Y-57412D01*
X-57000Y-57412D01*
X-57000Y-57412D01*
X-56574Y-57327D01*
X-56214Y-57086D01*
X-55316Y-56189D01*
X-55316Y-56189D01*
X-55075Y-55828D01*
X-54990Y-55402D01*
X-54990Y-48663D01*
X-51885Y-45557D01*
X-51821Y-45554D01*
X-51545Y-46041D01*
X-51598Y-46121D01*
X-51713Y-46700D01*
X-51598Y-47279D01*
X-51312Y-47708D01*
X-51312Y-63793D01*
X-51598Y-64221D01*
X-51713Y-64800D01*
X-51598Y-65379D01*
X-51270Y-65870D01*
X-50779Y-66198D01*
X-50200Y-66313D01*
X-49621Y-66198D01*
X-49130Y-65870D01*
X-48802Y-65379D01*
X-48687Y-64800D01*
X-48802Y-64221D01*
X-49088Y-63793D01*
X-49088Y-47708D01*
X-48802Y-47279D01*
X-48687Y-46700D01*
X-48802Y-46121D01*
X-49130Y-45630D01*
X-49428Y-45431D01*
X-49428Y-44869D01*
X-49130Y-44670D01*
X-48802Y-44179D01*
X-48687Y-43600D01*
X-48802Y-43021D01*
X-49130Y-42530D01*
X-49621Y-42202D01*
X-50200Y-42087D01*
X-50200Y-42087D02*
G37*
G36*
X-33000Y-15487D02*
X-33579Y-15602D01*
X-34070Y-15930D01*
X-34398Y-16421D01*
X-34499Y-16926D01*
X-42786Y-25214D01*
X-43027Y-25574D01*
X-43112Y-26000D01*
X-43112Y-26000D01*
X-43112Y-57685D01*
X-43112Y-57685D01*
X-43027Y-58111D01*
X-42786Y-58471D01*
X-39645Y-61613D01*
X-39645Y-61613D01*
X-39358Y-61804D01*
X-39358Y-66642D01*
X-33634Y-66642D01*
X-33634Y-59736D01*
X-38160Y-59736D01*
X-38268Y-59715D01*
X-38268Y-59715D01*
X-38398Y-59715D01*
X-40888Y-57225D01*
X-40888Y-26461D01*
X-32926Y-18499D01*
X-32421Y-18398D01*
X-31930Y-18070D01*
X-31602Y-17579D01*
X-31487Y-17000D01*
X-31602Y-16421D01*
X-31930Y-15930D01*
X-32421Y-15602D01*
X-33000Y-15487D01*
X-33000Y-15487D02*
G37*
G36*
X-15660Y-63689D02*
X-18122Y-63689D01*
X-18122Y-66742D01*
X-15660Y-66742D01*
X-15660Y-63689D01*
X-15660Y-63689D02*
G37*
G36*
X-19122Y-63689D02*
X-21584Y-63689D01*
X-21584Y-66742D01*
X-19122Y-66742D01*
X-19122Y-63689D01*
X-19122Y-63689D02*
G37*
G36*
X-61685Y-66316D02*
X-61685Y-68341D01*
X-59660Y-68341D01*
X-59683Y-68170D01*
X-59942Y-67545D01*
X-60353Y-67009D01*
X-60890Y-66597D01*
X-61515Y-66338D01*
X-61685Y-66316D01*
X-61685Y-66316D02*
G37*
G36*
X-62685Y-66316D02*
X-62856Y-66338D01*
X-63480Y-66597D01*
X-64017Y-67009D01*
X-64429Y-67545D01*
X-64687Y-68170D01*
X-64710Y-68341D01*
X-62685Y-68341D01*
X-62685Y-66316D01*
X-62685Y-66316D02*
G37*
G36*
X-31000Y-57487D02*
X-31579Y-57602D01*
X-32070Y-57930D01*
X-32398Y-58421D01*
X-32513Y-59000D01*
X-32398Y-59579D01*
X-32112Y-60008D01*
X-32112Y-67242D01*
X-32298Y-67521D01*
X-32413Y-68100D01*
X-32298Y-68679D01*
X-31970Y-69170D01*
X-31479Y-69498D01*
X-30900Y-69613D01*
X-30321Y-69498D01*
X-29830Y-69170D01*
X-29502Y-68679D01*
X-29387Y-68100D01*
X-29502Y-67521D01*
X-29830Y-67030D01*
X-29888Y-66991D01*
X-29888Y-60008D01*
X-29602Y-59579D01*
X-29487Y-59000D01*
X-29602Y-58421D01*
X-29930Y-57930D01*
X-30421Y-57602D01*
X-31000Y-57487D01*
X-31000Y-57487D02*
G37*
G36*
X72862Y-65012D02*
X67138Y-65012D01*
X67138Y-70736D01*
X72862Y-70736D01*
X72862Y-65012D01*
X72862Y-65012D02*
G37*
G36*
X-15660Y-90739D02*
X-18122Y-90739D01*
X-18122Y-93791D01*
X-15660Y-93791D01*
X-15660Y-90739D01*
X-15660Y-90739D02*
G37*
G36*
X-19122Y-90739D02*
X-21584Y-90739D01*
X-21584Y-93791D01*
X-19122Y-93791D01*
X-19122Y-90739D01*
X-19122Y-90739D02*
G37*
%LPD*%
D18*
X-46260Y50592D02*
X-46260Y54134D01*
X-50769Y46083D02*
X-46260Y50592D01*
X-50918Y46083D02*
X-50769Y46083D01*
X-15000Y19000D02*
X-11000Y15000D01*
D23*
X-62185Y-68841D02*
D03*
X-62185Y-38841D02*
D03*
X-24000Y-20000D02*
D03*
X7000Y-20000D02*
D03*
D59*
X-56281Y-61100D02*
X-54602Y-59421D01*
X-64685Y-63841D02*
X-61944Y-61100D01*
X-56281Y-61100D01*
X-59685Y-63841D02*
X-55141Y-63841D01*
X-53800Y-62500D01*
X-56102Y-55402D02*
X-56102Y-48202D01*
X-62144Y-56300D02*
X-57000Y-56300D01*
X-56102Y-55402D01*
X-50318Y-43718D02*
X-50200Y-43600D01*
X-51618Y-43718D02*
X-50318Y-43718D01*
X-56102Y-48202D02*
X-51618Y-43718D01*
X-50200Y-64800D02*
X-50200Y-46700D01*
X-64685Y-58841D02*
X-62144Y-56300D01*
X-8300Y-66500D02*
X-1500Y-66500D01*
X-55610Y42521D02*
X-51032Y39639D01*
X-42000Y-26000D02*
X-33000Y-17000D01*
X-42000Y-57685D02*
X-38858Y-60827D01*
X-42000Y-57685D02*
X-42000Y-26000D01*
X-34800Y9000D02*
X-30500Y9000D01*
X-36496Y10695D02*
X-34800Y9000D01*
X-26602Y12079D02*
X-26602Y53295D01*
X-34134Y60827D02*
X-26602Y53295D01*
X-36496Y-11228D02*
X-34724Y-13000D01*
X-32000Y-13000D01*
X-36496Y-11228D02*
X-36496Y-10695D01*
X-38268Y-60827D02*
X-36496Y-62598D01*
X-38858Y-60827D02*
X-38268Y-60827D01*
X-36496Y-63189D02*
X-36496Y-62598D01*
X-36496Y-10695D02*
X-36496Y-10105D01*
X-34724Y-8333D01*
X-36496Y62598D02*
X-34724Y60827D01*
X-34134Y60827D01*
X-36496Y62598D02*
X-36496Y63189D01*
X-31000Y-68000D02*
X-31000Y-59000D01*
X-31000Y-68000D02*
X-30900Y-68100D01*
X-1500Y-66500D02*
X0Y-65000D01*
X53500Y5500D02*
X67500Y5500D01*
X49500Y9500D02*
X53500Y5500D01*
X49500Y9500D02*
X49500Y31740D01*
X-2000Y-30000D02*
X9000Y-30000D01*
X-22000Y-24000D02*
X-8000Y-24000D01*
X-2000Y-30000D01*
D60*
X-56231Y32697D02*
X-50918Y32697D01*
X-61024Y34449D02*
X-59272Y32697D01*
X-56231Y32697D01*
X-61024Y34449D02*
X-61024Y47244D01*
X-58839Y49429D02*
X-56231Y49429D01*
X-61024Y47244D02*
X-58839Y49429D01*
X-56231Y49429D02*
X-50918Y49429D01*
X-24000Y-20000D02*
X7000Y-20000D01*
D61*
X-8900Y72200D02*
D03*
X70000Y-15126D02*
D03*
X70000Y72874D02*
D03*
X70000Y65000D02*
D03*
X70000Y-60000D02*
D03*
X70000Y-52126D02*
D03*
X35100Y-60000D02*
D03*
X37000Y-14600D02*
D03*
X59600Y23100D02*
D03*
D62*
X-50918Y52776D02*
D03*
X-50918Y49429D02*
D03*
X-50918Y46083D02*
D03*
X-50918Y42736D02*
D03*
X-50918Y39390D02*
D03*
X-50918Y36043D02*
D03*
X-50918Y32697D02*
D03*
X-50918Y29350D02*
D03*
X-56231Y29350D02*
D03*
X-56231Y32697D02*
D03*
X-56231Y36043D02*
D03*
X-56231Y39390D02*
D03*
X-56231Y42736D02*
D03*
X-56231Y46083D02*
D03*
X-56231Y49429D02*
D03*
X-56231Y52776D02*
D03*
D63*
X-54775Y58091D02*
D03*
X-54775Y24035D02*
D03*
D64*
X-68082Y24035D02*
D03*
X-68082Y58091D02*
D03*
D65*
X70000Y-23000D02*
D03*
X70000Y57126D02*
D03*
X70000Y-67874D02*
D03*
D66*
X0Y65000D02*
D03*
X0Y55000D02*
D03*
X0Y45000D02*
D03*
X0Y35000D02*
D03*
X0Y25000D02*
D03*
X0Y15000D02*
D03*
X0Y5000D02*
D03*
X0Y-5000D02*
D03*
X0Y-15000D02*
D03*
X0Y-25000D02*
D03*
X0Y-35000D02*
D03*
X0Y-45000D02*
D03*
X0Y-55000D02*
D03*
D67*
X0Y-65000D02*
D03*
D68*
X20000Y-60200D02*
D03*
X-41500Y5000D02*
D03*
D69*
X-45800Y-54900D02*
D03*
X-59685Y-63841D02*
D03*
X-59685Y-58841D02*
D03*
X-54602Y-59421D02*
D03*
X-50200Y-64800D02*
D03*
X-50200Y-46700D02*
D03*
X-52400Y-55200D02*
D03*
X-50200Y-43600D02*
D03*
X-42500Y40500D02*
D03*
X-43500Y29500D02*
D03*
X-60500Y8600D02*
D03*
X-56104Y6354D02*
D03*
X-52500Y6500D02*
D03*
X-52479Y9979D02*
D03*
X-49000Y10000D02*
D03*
X-8300Y-66500D02*
D03*
X-53500Y-500D02*
D03*
X-54000Y-8500D02*
D03*
X-46260Y54134D02*
D03*
X-30500Y44100D02*
D03*
X-18000Y31500D02*
D03*
X-59685Y-53841D02*
D03*
X-64685Y-63841D02*
D03*
X-64685Y-48841D02*
D03*
X-64685Y-58841D02*
D03*
X-59685Y-43841D02*
D03*
X-64685Y-53841D02*
D03*
X-45300Y-68000D02*
D03*
X-53800Y-62500D02*
D03*
X-46735Y-36385D02*
D03*
X-64685Y-43841D02*
D03*
X-51800Y-37200D02*
D03*
X-33000Y500D02*
D03*
X-26602Y12079D02*
D03*
X-30500Y37600D02*
D03*
X-33000Y-17000D02*
D03*
X-32000Y-13000D02*
D03*
X-30500Y9000D02*
D03*
X-24606Y-86614D02*
D03*
X17500Y-33000D02*
D03*
X44500Y-30000D02*
D03*
X63500Y-31500D02*
D03*
X51000Y-3000D02*
D03*
X56500Y59500D02*
D03*
X-32000Y77500D02*
D03*
X-30900Y-68100D02*
D03*
X-31000Y-59000D02*
D03*
X-22515Y-60125D02*
D03*
X-35200Y-55000D02*
D03*
X-23000Y55000D02*
D03*
X-32500Y51000D02*
D03*
X-18000Y72500D02*
D03*
X55200Y46400D02*
D03*
X48600Y70700D02*
D03*
X48000Y75500D02*
D03*
X-21970Y-46000D02*
D03*
X67500Y5500D02*
D03*
X49500Y31740D02*
D03*
X-67500Y-31500D02*
D03*
X9000Y-30000D02*
D03*
X67500Y39500D02*
D03*
X44000Y19000D02*
D03*
X77000Y-40000D02*
D03*
X-13500Y25000D02*
D03*
X-20000Y18000D02*
D03*
X17000Y12000D02*
D03*
X23500Y25500D02*
D03*
X26500Y-50000D02*
D03*
X-22000Y-24000D02*
D03*
X-7000Y13000D02*
D03*
X8000Y-10000D02*
D03*
X-9000Y7500D02*
D03*
X-5000Y19000D02*
D03*
X6000Y24000D02*
D03*
X7000Y33000D02*
D03*
X12000Y49000D02*
D03*
X29500Y59500D02*
D03*
X7000Y-45000D02*
D03*
X20000Y-21500D02*
D03*
X30000Y-10000D02*
D03*
X53500Y-49500D02*
D03*
X51000Y-76500D02*
D03*
X20500Y-76500D02*
D03*
X-15000Y19000D02*
D03*
X-11000Y15000D02*
D03*
X-40500Y70500D02*
D03*
X-10000Y-5500D02*
D03*
X-68000Y13500D02*
D03*
X-50200Y3600D02*
D03*
X-67500Y-26000D02*
D03*
X-63000Y-14500D02*
D03*
X-13200Y-46200D02*
D03*
X-17500Y-35500D02*
D03*
X-11000Y-36000D02*
D03*
D70*
X-36496Y-63189D02*
D03*
X-18622Y-63189D02*
D03*
X-18622Y-94291D02*
D03*
X-36496Y-94291D02*
D03*
X-36496Y-41798D02*
D03*
X-18622Y-41798D02*
D03*
X-18622Y-10695D02*
D03*
X-36496Y-10695D02*
D03*
X-36496Y41798D02*
D03*
X-18622Y41798D02*
D03*
X-18622Y10695D02*
D03*
X-36496Y10695D02*
D03*
X-36496Y63189D02*
D03*
X-18622Y63189D02*
D03*
X-18622Y94291D02*
D03*
X-36496Y94291D02*
D03*
M02*
