G04*
G04 #@! TF.GenerationSoftware,Altium Limited,Altium Designer,21.6.1 (37)*
G04*
G04 Layer_Color=65535*
%FSLAX25Y25*%
%MOIN*%
G70*
G04*
G04 #@! TF.SameCoordinates,5EA0F2DE-1706-4193-BDFD-DA62A5601E92*
G04*
G04*
G04 #@! TF.FilePolarity,Positive*
G04*
G01*
G75*
%ADD10C,0.00984*%
%ADD11C,0.00500*%
%ADD12C,0.00800*%
%ADD13C,0.02362*%
%ADD14C,0.00591*%
%ADD15C,0.00787*%
%ADD16C,0.00394*%
%ADD17C,0.00787*%
%ADD18C,0.01000*%
G36*
X-58905Y-72345D02*
X-58905Y-68144D01*
X-54705Y-68144D01*
X-58905Y-72345D01*
X-58905Y-72345D02*
G37*
D10*
X71332Y32549D02*
X70594Y32975D01*
X70594Y32123D01*
X71332Y32549D01*
X68486Y25397D02*
X67748Y25823D01*
X67748Y24971D01*
X68486Y25397D01*
X-42437Y48000D02*
X-43175Y48426D01*
X-43175Y47574D01*
X-42437Y48000D01*
X12392Y67000D02*
X11654Y67426D01*
X11654Y66574D01*
X12392Y67000D01*
X22892Y15000D02*
X22154Y15426D01*
X22154Y14574D01*
X22892Y15000D01*
X30985Y27500D02*
X30247Y27926D01*
X30247Y27074D01*
X30985Y27500D01*
X23063Y50500D02*
X22325Y50926D01*
X22325Y50074D01*
X23063Y50500D01*
X-46584Y-8352D02*
X-47323Y-7926D01*
X-47323Y-8779D01*
X-46584Y-8352D01*
D11*
X-5750Y72200D02*
X-5904Y73173D01*
X-6352Y74051D01*
X-7049Y74748D01*
X-7927Y75195D01*
X-8900Y75350D01*
X-9873Y75195D01*
X-10751Y74748D01*
X-11448Y74051D01*
X-11896Y73173D01*
X-12050Y72200D01*
X-11896Y71227D01*
X-11448Y70349D01*
X-10751Y69652D01*
X-9873Y69204D01*
X-8900Y69050D01*
X-7927Y69204D01*
X-7049Y69652D01*
X-6352Y70349D01*
X-5904Y71227D01*
X-5750Y72200D01*
X38250Y-60000D02*
X38096Y-59027D01*
X37648Y-58149D01*
X36951Y-57452D01*
X36073Y-57004D01*
X35100Y-56850D01*
X34127Y-57004D01*
X33249Y-57452D01*
X32552Y-58149D01*
X32105Y-59027D01*
X31950Y-60000D01*
X32105Y-60973D01*
X32552Y-61851D01*
X33249Y-62548D01*
X34127Y-62995D01*
X35100Y-63150D01*
X36073Y-62995D01*
X36951Y-62548D01*
X37648Y-61851D01*
X38096Y-60973D01*
X38250Y-60000D01*
X40150Y-14600D02*
X39996Y-13627D01*
X39548Y-12749D01*
X38851Y-12052D01*
X37973Y-11604D01*
X37000Y-11450D01*
X36027Y-11604D01*
X35149Y-12052D01*
X34452Y-12749D01*
X34005Y-13627D01*
X33850Y-14600D01*
X34005Y-15573D01*
X34452Y-16451D01*
X35149Y-17148D01*
X36027Y-17595D01*
X37000Y-17750D01*
X37973Y-17595D01*
X38851Y-17148D01*
X39548Y-16451D01*
X39996Y-15573D01*
X40150Y-14600D01*
X-58905Y-72345D02*
X-54705Y-68145D01*
X-69665Y-68145D02*
X-69665Y-39538D01*
X-65465Y-72345D02*
X-58905Y-72345D01*
X-69665Y-68145D02*
X-65465Y-72345D01*
X-69665Y-39537D02*
X-65465Y-35337D01*
X-58905Y-35337D02*
X-54705Y-39537D01*
X-65465Y-35337D02*
X-58905Y-35337D01*
X-54705Y-68144D02*
X-54705Y-39537D01*
X-48164Y23827D02*
X-48164Y59063D01*
X24500Y29000D02*
X24500Y34000D01*
X21500Y29000D02*
X24000Y31500D01*
X21500Y34000D02*
X24000Y31500D01*
X21500Y29000D02*
X21500Y34000D01*
X27675Y29000D02*
X27675Y34000D01*
X29475Y28000D02*
X29475Y28300D01*
X18475Y28000D02*
X18475Y28300D01*
X18475Y28000D02*
X29475Y28000D01*
X18475Y35000D02*
X29475Y35000D01*
X29475Y34700D02*
X29475Y35000D01*
X18475Y34700D02*
X18475Y35000D01*
X72701Y23900D02*
X72701Y21400D01*
X73201Y20900D01*
X74200Y20900D01*
X74700Y21400D01*
X74700Y23900D01*
X75700Y23400D02*
X76200Y23900D01*
X77199Y23900D01*
X77699Y23400D01*
X77699Y22900D01*
X77199Y22400D01*
X76700Y22400D01*
X77199Y22400D01*
X77699Y21900D01*
X77699Y21400D01*
X77199Y20900D01*
X76200Y20900D01*
X75700Y21400D01*
X-52250Y4500D02*
X-52749Y5000D01*
X-53749Y5000D01*
X-54249Y4500D01*
X-54249Y2500D01*
X-53749Y2001D01*
X-52749Y2001D01*
X-52250Y2500D01*
X-51250Y2001D02*
X-50250Y2001D01*
X-50750Y2001D01*
X-50750Y5000D01*
X-51250Y4500D01*
X-48751Y2001D02*
X-47751Y2001D01*
X-48251Y2001D01*
X-48251Y5000D01*
X-48751Y4500D01*
X-16648Y80949D02*
X-14649Y80949D01*
X-15648Y80949D01*
X-15648Y77950D01*
X-13649Y77950D02*
X-13649Y80949D01*
X-12149Y80949D01*
X-11649Y80450D01*
X-11649Y79450D01*
X-12149Y78950D01*
X-13649Y78950D01*
X-10650Y77451D02*
X-8650Y77451D01*
X-7651Y80949D02*
X-6651Y80949D01*
X-7151Y80949D01*
X-7151Y77950D01*
X-7651Y77950D01*
X-6651Y77950D01*
X-5152Y77950D02*
X-5152Y80949D01*
X-3652Y80949D01*
X-3152Y80450D01*
X-3152Y79450D01*
X-3652Y78950D01*
X-5152Y78950D01*
X-4152Y78950D02*
X-3152Y77950D01*
X-32999Y48500D02*
X-31000Y48500D01*
X-31000Y48000D01*
X-32999Y46000D01*
X-32999Y45500D01*
X-31000Y45500D01*
X-30000Y45500D02*
X-29001Y45500D01*
X-29500Y45500D01*
X-29500Y48500D01*
X-30000Y48000D01*
X-52500Y-42000D02*
X-52500Y-39501D01*
X-51250Y-39501D01*
X-50834Y-39917D01*
X-50834Y-40750D01*
X-51250Y-41167D01*
X-52500Y-41167D01*
X-50001Y-42000D02*
X-49168Y-42000D01*
X-49584Y-42000D01*
X-49584Y-39501D01*
X-50001Y-39917D01*
X-61334Y18562D02*
X-62167Y18562D01*
X-61750Y18562D01*
X-61750Y16479D01*
X-62167Y16063D01*
X-62584Y16063D01*
X-63000Y16479D01*
X-60501Y16063D02*
X-59668Y16063D01*
X-60084Y16063D01*
X-60084Y18562D01*
X-60501Y18146D01*
X80000Y-39401D02*
X79001Y-39401D01*
X79500Y-39401D01*
X79500Y-41900D01*
X79001Y-42399D01*
X78501Y-42399D01*
X78001Y-41900D01*
X82499Y-42399D02*
X82499Y-39401D01*
X81000Y-40900D01*
X82999Y-40900D01*
X40751Y-32500D02*
X40251Y-32000D01*
X39251Y-32000D01*
X38751Y-32500D01*
X38751Y-34500D01*
X39251Y-34999D01*
X40251Y-34999D01*
X40751Y-34500D01*
X41750Y-34999D02*
X42750Y-34999D01*
X42250Y-34999D01*
X42250Y-32000D01*
X41750Y-32500D01*
X44249Y-32500D02*
X44749Y-32000D01*
X45749Y-32000D01*
X46249Y-32500D01*
X46249Y-34500D01*
X45749Y-34999D01*
X44749Y-34999D01*
X44249Y-34500D01*
X44249Y-32500D01*
X38751Y45500D02*
X38751Y48500D01*
X40251Y48500D01*
X40750Y48000D01*
X40750Y47000D01*
X40251Y46500D01*
X38751Y46500D01*
X39751Y46500D02*
X40750Y45500D01*
X41750Y45500D02*
X42750Y45500D01*
X42250Y45500D01*
X42250Y48500D01*
X41750Y48000D01*
X44249Y45500D02*
X45249Y45500D01*
X44749Y45500D01*
X44749Y48500D01*
X44249Y48000D01*
X32751Y53000D02*
X32751Y55999D01*
X34251Y55999D01*
X34751Y55500D01*
X34751Y54500D01*
X34251Y54000D01*
X32751Y54000D01*
X33751Y54000D02*
X34751Y53000D01*
X35750Y53000D02*
X36750Y53000D01*
X36250Y53000D01*
X36250Y55999D01*
X35750Y55500D01*
X38249Y55500D02*
X38749Y55999D01*
X39749Y55999D01*
X40249Y55500D01*
X40249Y53500D01*
X39749Y53000D01*
X38749Y53000D01*
X38249Y53500D01*
X38249Y55500D01*
X16000Y42000D02*
X16000Y44000D01*
X15500Y44499D01*
X14501Y44499D01*
X14001Y44000D01*
X14001Y42000D01*
X14501Y41500D01*
X15500Y41500D01*
X15000Y42500D02*
X16000Y41500D01*
X15500Y41500D02*
X16000Y42000D01*
X18999Y41500D02*
X17000Y41500D01*
X18999Y43500D01*
X18999Y44000D01*
X18499Y44499D01*
X17500Y44499D01*
X17000Y44000D01*
X9457Y33000D02*
X9457Y30000D01*
X10957Y30000D01*
X11457Y30500D01*
X11457Y32500D01*
X10957Y33000D01*
X9457Y33000D01*
X12456Y30000D02*
X13456Y30000D01*
X12956Y30000D01*
X12956Y33000D01*
X12456Y32500D01*
X43500Y20000D02*
X43000Y20500D01*
X42001Y20500D01*
X41501Y20000D01*
X41501Y18000D01*
X42001Y17501D01*
X43000Y17501D01*
X43500Y18000D01*
X44500Y18000D02*
X45000Y17501D01*
X45999Y17501D01*
X46499Y18000D01*
X46499Y20000D01*
X45999Y20500D01*
X45000Y20500D01*
X44500Y20000D01*
X44500Y19500D01*
X45000Y19000D01*
X46499Y19000D01*
X79100Y46799D02*
X78101Y46799D01*
X78600Y46799D01*
X78600Y44300D01*
X78101Y43801D01*
X77601Y43801D01*
X77101Y44300D01*
X82099Y43801D02*
X80100Y43801D01*
X82099Y45800D01*
X82099Y46300D01*
X81599Y46799D01*
X80600Y46799D01*
X80100Y46300D01*
X57401Y45000D02*
X57401Y48000D01*
X58900Y48000D01*
X59400Y47500D01*
X59400Y46500D01*
X58900Y46000D01*
X57401Y46000D01*
X58400Y46000D02*
X59400Y45000D01*
X60400Y45500D02*
X60900Y45000D01*
X61899Y45000D01*
X62399Y45500D01*
X62399Y47500D01*
X61899Y48000D01*
X60900Y48000D01*
X60400Y47500D01*
X60400Y47000D01*
X60900Y46500D01*
X62399Y46500D01*
X78600Y-2300D02*
X77601Y-2300D01*
X78100Y-2300D01*
X78100Y-4800D01*
X77601Y-5300D01*
X77101Y-5300D01*
X76601Y-4800D01*
X79600Y-2800D02*
X80100Y-2300D01*
X81099Y-2300D01*
X81599Y-2800D01*
X81599Y-3300D01*
X81099Y-3800D01*
X80599Y-3800D01*
X81099Y-3800D01*
X81599Y-4300D01*
X81599Y-4800D01*
X81099Y-5300D01*
X80100Y-5300D01*
X79600Y-4800D01*
X50799Y-7301D02*
X50300Y-6801D01*
X49300Y-6801D01*
X48800Y-7301D01*
X48800Y-9300D01*
X49300Y-9800D01*
X50300Y-9800D01*
X50799Y-9300D01*
X53798Y-6801D02*
X51799Y-6801D01*
X51799Y-8301D01*
X52799Y-7801D01*
X53299Y-7801D01*
X53798Y-8301D01*
X53798Y-9300D01*
X53299Y-9800D01*
X52299Y-9800D01*
X51799Y-9300D01*
X11003Y-50451D02*
X13002Y-50451D01*
X12002Y-50451D01*
X12002Y-53450D01*
X14002Y-53450D02*
X14002Y-50451D01*
X15501Y-50451D01*
X16001Y-50950D01*
X16001Y-51950D01*
X15501Y-52450D01*
X14002Y-52450D01*
X17001Y-53949D02*
X19000Y-53949D01*
X21999Y-50950D02*
X21499Y-50451D01*
X20500Y-50451D01*
X20000Y-50950D01*
X20000Y-52950D01*
X20500Y-53450D01*
X21499Y-53450D01*
X21999Y-52950D01*
X21999Y-51950D01*
X21000Y-51950D01*
X22999Y-53450D02*
X22999Y-50451D01*
X24998Y-53450D01*
X24998Y-50451D01*
X25998Y-50451D02*
X25998Y-53450D01*
X27497Y-53450D01*
X27997Y-52950D01*
X27997Y-50950D01*
X27497Y-50451D01*
X25998Y-50451D01*
X15003Y-12851D02*
X17002Y-12851D01*
X16002Y-12851D01*
X16002Y-15850D01*
X18002Y-15850D02*
X18002Y-12851D01*
X19501Y-12851D01*
X20001Y-13350D01*
X20001Y-14350D01*
X19501Y-14850D01*
X18002Y-14850D01*
X21001Y-16349D02*
X23000Y-16349D01*
X24000Y-12851D02*
X24000Y-15850D01*
X25499Y-15850D01*
X25999Y-15350D01*
X25999Y-14850D01*
X25499Y-14350D01*
X24000Y-14350D01*
X25499Y-14350D01*
X25999Y-13850D01*
X25999Y-13350D01*
X25499Y-12851D01*
X24000Y-12851D01*
X26999Y-15850D02*
X26999Y-13850D01*
X27999Y-12851D01*
X28998Y-13850D01*
X28998Y-15850D01*
X28998Y-14350D01*
X26999Y-14350D01*
X29998Y-12851D02*
X31997Y-12851D01*
X30998Y-12851D01*
X30998Y-15850D01*
X30502Y-65751D02*
X32502Y-65751D01*
X31502Y-65751D01*
X31502Y-68750D01*
X33501Y-68750D02*
X33501Y-65751D01*
X35001Y-65751D01*
X35501Y-66250D01*
X35501Y-67250D01*
X35001Y-67750D01*
X33501Y-67750D01*
X36500Y-69249D02*
X38500Y-69249D01*
X39499Y-66250D02*
X39999Y-65751D01*
X40999Y-65751D01*
X41499Y-66250D01*
X41499Y-66750D01*
X40999Y-67250D01*
X40499Y-67250D01*
X40999Y-67250D01*
X41499Y-67750D01*
X41499Y-68250D01*
X40999Y-68750D01*
X39999Y-68750D01*
X39499Y-68250D01*
X42498Y-65751D02*
X42498Y-67750D01*
X43498Y-68750D01*
X44498Y-67750D01*
X44498Y-65751D01*
X-36001Y5725D02*
X-34002Y5725D01*
X-35002Y5725D01*
X-35002Y2726D01*
X-33002Y2726D02*
X-33002Y5725D01*
X-31503Y5725D01*
X-31003Y5226D01*
X-31003Y4226D01*
X-31503Y3726D01*
X-33002Y3726D01*
X-30003Y2227D02*
X-28004Y2227D01*
X-27004Y5725D02*
X-27004Y2726D01*
X-25505Y2726D01*
X-25005Y3226D01*
X-25005Y5226D01*
X-25505Y5725D01*
X-27004Y5725D01*
X-24005Y5725D02*
X-24005Y2726D01*
X-22506Y2726D01*
X-22006Y3226D01*
X-22006Y3726D01*
X-22506Y4226D01*
X-24005Y4226D01*
X-22506Y4226D01*
X-22006Y4726D01*
X-22006Y5226D01*
X-22506Y5725D01*
X-24005Y5725D01*
X-19007Y5226D02*
X-19507Y5725D01*
X-20506Y5725D01*
X-21006Y5226D01*
X-21006Y3226D01*
X-20506Y2726D01*
X-19507Y2726D01*
X-19007Y3226D01*
X-19007Y4226D01*
X-20006Y4226D01*
X38829Y-29973D02*
X38829Y-26974D01*
X40328Y-26974D01*
X40828Y-27474D01*
X40828Y-28474D01*
X40328Y-28974D01*
X38829Y-28974D01*
X39829Y-28974D02*
X40828Y-29973D01*
X41828Y-29973D02*
X42828Y-29973D01*
X42328Y-29973D01*
X42328Y-26974D01*
X41828Y-27474D01*
X44327Y-27474D02*
X44827Y-26974D01*
X45827Y-26974D01*
X46326Y-27474D01*
X46326Y-27974D01*
X45827Y-28474D01*
X45327Y-28474D01*
X45827Y-28474D01*
X46326Y-28974D01*
X46326Y-29473D01*
X45827Y-29973D01*
X44827Y-29973D01*
X44327Y-29473D01*
X38759Y-24733D02*
X38759Y-21734D01*
X40259Y-21734D01*
X40759Y-22234D01*
X40759Y-23234D01*
X40259Y-23733D01*
X38759Y-23733D01*
X39759Y-23733D02*
X40759Y-24733D01*
X41759Y-24733D02*
X42758Y-24733D01*
X42258Y-24733D01*
X42258Y-21734D01*
X41759Y-22234D01*
X46257Y-24733D02*
X44258Y-24733D01*
X46257Y-22734D01*
X46257Y-22234D01*
X45757Y-21734D01*
X44758Y-21734D01*
X44258Y-22234D01*
X35501Y67001D02*
X35501Y69999D01*
X37000Y69999D01*
X37500Y69500D01*
X37500Y68500D01*
X37000Y68000D01*
X35501Y68000D01*
X36500Y68000D02*
X37500Y67001D01*
X40499Y69999D02*
X38500Y69999D01*
X38500Y68500D01*
X39500Y69000D01*
X39999Y69000D01*
X40499Y68500D01*
X40499Y67500D01*
X39999Y67001D01*
X39000Y67001D01*
X38500Y67500D01*
X14501Y8999D02*
X14501Y6500D01*
X15000Y6001D01*
X16000Y6001D01*
X16500Y6500D01*
X16500Y8999D01*
X17500Y6001D02*
X18499Y6001D01*
X18000Y6001D01*
X18000Y8999D01*
X17500Y8500D01*
X16000Y-3500D02*
X15500Y-3001D01*
X14501Y-3001D01*
X14001Y-3500D01*
X14001Y-5500D01*
X14501Y-5999D01*
X15500Y-5999D01*
X16000Y-5500D01*
X17000Y-3500D02*
X17500Y-3001D01*
X18499Y-3001D01*
X18999Y-3500D01*
X18999Y-4000D01*
X18499Y-4500D01*
X18000Y-4500D01*
X18499Y-4500D01*
X18999Y-5000D01*
X18999Y-5500D01*
X18499Y-5999D01*
X17500Y-5999D01*
X17000Y-5500D01*
X16000Y21000D02*
X15500Y21499D01*
X14501Y21499D01*
X14001Y21000D01*
X14001Y19000D01*
X14501Y18500D01*
X15500Y18500D01*
X16000Y19000D01*
X18999Y18500D02*
X17000Y18500D01*
X18999Y20500D01*
X18999Y21000D01*
X18499Y21499D01*
X17500Y21499D01*
X17000Y21000D01*
X5001Y77000D02*
X5001Y80000D01*
X6500Y80000D01*
X7000Y79500D01*
X7000Y78500D01*
X6500Y78000D01*
X5001Y78000D01*
X6001Y78000D02*
X7000Y77000D01*
X8000Y79500D02*
X8500Y80000D01*
X9499Y80000D01*
X9999Y79500D01*
X9999Y79000D01*
X9499Y78500D01*
X9999Y78000D01*
X9999Y77500D01*
X9499Y77000D01*
X8500Y77000D01*
X8000Y77500D01*
X8000Y78000D01*
X8500Y78500D01*
X8000Y79000D01*
X8000Y79500D01*
X8500Y78500D02*
X9499Y78500D01*
X35501Y71000D02*
X35501Y74000D01*
X37000Y74000D01*
X37500Y73500D01*
X37500Y72500D01*
X37000Y72000D01*
X35501Y72000D01*
X36500Y72000D02*
X37500Y71000D01*
X38500Y74000D02*
X40499Y74000D01*
X40499Y73500D01*
X38500Y71500D01*
X38500Y71000D01*
X7500Y59000D02*
X7500Y61000D01*
X7000Y61500D01*
X6001Y61500D01*
X5501Y61000D01*
X5501Y59000D01*
X6001Y58500D01*
X7000Y58500D01*
X6500Y59500D02*
X7500Y58500D01*
X7000Y58500D02*
X7500Y59000D01*
X8500Y58500D02*
X9499Y58500D01*
X8999Y58500D01*
X8999Y61500D01*
X8500Y61000D01*
X-25834Y84083D02*
X-26250Y84499D01*
X-27084Y84499D01*
X-27500Y84083D01*
X-27500Y82416D01*
X-27084Y82000D01*
X-26250Y82000D01*
X-25834Y82416D01*
X-25001Y82000D02*
X-24168Y82000D01*
X-24584Y82000D01*
X-24584Y84499D01*
X-25001Y84083D01*
X-32334Y-51917D02*
X-32750Y-51501D01*
X-33584Y-51501D01*
X-34000Y-51917D01*
X-34000Y-53584D01*
X-33584Y-54000D01*
X-32750Y-54000D01*
X-32334Y-53584D01*
X-31501Y-51917D02*
X-31084Y-51501D01*
X-30251Y-51501D01*
X-29835Y-51917D01*
X-29835Y-52334D01*
X-30251Y-52750D01*
X-29835Y-53167D01*
X-29835Y-53584D01*
X-30251Y-54000D01*
X-31084Y-54000D01*
X-31501Y-53584D01*
X-31501Y-53167D01*
X-31084Y-52750D01*
X-31501Y-52334D01*
X-31501Y-51917D01*
X-31084Y-52750D02*
X-30251Y-52750D01*
X-37000Y65000D02*
X-37000Y67499D01*
X-35750Y67499D01*
X-35334Y67083D01*
X-35334Y66250D01*
X-35750Y65833D01*
X-37000Y65833D01*
X-36167Y65833D02*
X-35334Y65000D01*
X-33251Y65000D02*
X-33251Y67499D01*
X-34501Y66250D01*
X-32835Y66250D01*
X-37000Y60000D02*
X-37000Y62499D01*
X-35750Y62499D01*
X-35334Y62083D01*
X-35334Y61250D01*
X-35750Y60833D01*
X-37000Y60833D01*
X-36167Y60833D02*
X-35334Y60000D01*
X-34501Y62083D02*
X-34084Y62499D01*
X-33251Y62499D01*
X-32835Y62083D01*
X-32835Y61666D01*
X-33251Y61250D01*
X-33668Y61250D01*
X-33251Y61250D01*
X-32835Y60833D01*
X-32835Y60417D01*
X-33251Y60000D01*
X-34084Y60000D01*
X-34501Y60417D01*
X-68399Y-24732D02*
X-68815Y-24316D01*
X-69649Y-24316D01*
X-70065Y-24732D01*
X-70065Y-26398D01*
X-69649Y-26815D01*
X-68815Y-26815D01*
X-68399Y-26398D01*
X-65900Y-24316D02*
X-66733Y-24732D01*
X-67566Y-25565D01*
X-67566Y-26398D01*
X-67149Y-26815D01*
X-66316Y-26815D01*
X-65900Y-26398D01*
X-65900Y-25982D01*
X-66316Y-25565D01*
X-67566Y-25565D01*
X-17000Y-4501D02*
X-17000Y-6583D01*
X-16583Y-7000D01*
X-15750Y-7000D01*
X-15334Y-6583D01*
X-15334Y-4501D01*
X-12835Y-7000D02*
X-14501Y-7000D01*
X-12835Y-5334D01*
X-12835Y-4917D01*
X-13251Y-4501D01*
X-14084Y-4501D01*
X-14501Y-4917D01*
X-18285Y-43566D02*
X-18285Y-43982D01*
X-17452Y-44815D01*
X-16619Y-43982D01*
X-16619Y-43566D01*
X-17452Y-44815D02*
X-17452Y-46065D01*
X-15786Y-46065D02*
X-14953Y-46065D01*
X-15369Y-46065D01*
X-15369Y-43566D01*
X-15786Y-43982D01*
X-59000Y-14000D02*
X-59000Y-11501D01*
X-57750Y-11501D01*
X-57334Y-11917D01*
X-57334Y-12750D01*
X-57750Y-13167D01*
X-59000Y-13167D01*
X-58167Y-13167D02*
X-57334Y-14000D01*
X-56501Y-14000D02*
X-55668Y-14000D01*
X-56084Y-14000D01*
X-56084Y-11501D01*
X-56501Y-11917D01*
X-65500Y-14000D02*
X-65500Y-11501D01*
X-64250Y-11501D01*
X-63834Y-11917D01*
X-63834Y-12750D01*
X-64250Y-13167D01*
X-65500Y-13167D01*
X-64667Y-13167D02*
X-63834Y-14000D01*
X-61335Y-14000D02*
X-63001Y-14000D01*
X-61335Y-12334D01*
X-61335Y-11917D01*
X-61751Y-11501D01*
X-62584Y-11501D01*
X-63001Y-11917D01*
X-68334Y-17917D02*
X-68750Y-17501D01*
X-69583Y-17501D01*
X-70000Y-17917D01*
X-70000Y-19583D01*
X-69583Y-20000D01*
X-68750Y-20000D01*
X-68334Y-19583D01*
X-66251Y-20000D02*
X-66251Y-17501D01*
X-67501Y-18750D01*
X-65835Y-18750D01*
X-68334Y-31417D02*
X-68750Y-31001D01*
X-69583Y-31001D01*
X-70000Y-31417D01*
X-70000Y-33084D01*
X-69583Y-33500D01*
X-68750Y-33500D01*
X-68334Y-33084D01*
X-67501Y-31001D02*
X-65835Y-31001D01*
X-65835Y-31417D01*
X-67501Y-33084D01*
X-67501Y-33500D01*
X-22800Y28000D02*
X-22800Y30499D01*
X-21550Y30499D01*
X-21134Y30083D01*
X-21134Y29250D01*
X-21550Y28833D01*
X-22800Y28833D01*
X-21967Y28833D02*
X-21134Y28000D01*
X-18635Y30499D02*
X-19468Y30083D01*
X-20301Y29250D01*
X-20301Y28416D01*
X-19884Y28000D01*
X-19051Y28000D01*
X-18635Y28416D01*
X-18635Y28833D01*
X-19051Y29250D01*
X-20301Y29250D01*
D12*
X24134Y-60200D02*
X24014Y-59211D01*
X23660Y-58279D01*
X23094Y-57459D01*
X22348Y-56798D01*
X21466Y-56335D01*
X20498Y-56096D01*
X19502Y-56096D01*
X18534Y-56335D01*
X17652Y-56798D01*
X16906Y-57459D01*
X16340Y-58279D01*
X15986Y-59211D01*
X15866Y-60200D01*
X15986Y-61189D01*
X16340Y-62121D01*
X16906Y-62941D01*
X17652Y-63602D01*
X18534Y-64065D01*
X19502Y-64304D01*
X20498Y-64304D01*
X21466Y-64065D01*
X22348Y-63602D01*
X23094Y-62941D01*
X23660Y-62121D01*
X24014Y-61189D01*
X24134Y-60200D01*
X-37366Y5000D02*
X-37486Y5989D01*
X-37840Y6921D01*
X-38406Y7741D01*
X-39152Y8402D01*
X-40034Y8865D01*
X-41002Y9104D01*
X-41998Y9104D01*
X-42966Y8865D01*
X-43848Y8402D01*
X-44594Y7741D01*
X-45160Y6921D01*
X-45514Y5989D01*
X-45634Y5000D01*
X-45514Y4011D01*
X-45160Y3079D01*
X-44594Y2259D01*
X-43848Y1598D01*
X-42966Y1135D01*
X-41998Y896D01*
X-41002Y896D01*
X-40034Y1135D01*
X-39152Y1598D01*
X-38406Y2259D01*
X-37840Y3079D01*
X-37486Y4011D01*
X-37366Y5000D01*
X-43307Y-75226D02*
X-41808Y-75226D01*
X-42557Y-75226D01*
X-42557Y-79724D01*
X-43307Y-79724D01*
X-41808Y-79724D01*
X-39558Y-79724D02*
X-39558Y-75226D01*
X-37309Y-75226D01*
X-36559Y-75976D01*
X-36559Y-77475D01*
X-37309Y-78225D01*
X-39558Y-78225D01*
X-38059Y-78225D02*
X-36559Y-79724D01*
X-30561Y-79724D02*
X-30561Y-75226D01*
X-28312Y-75226D01*
X-27562Y-75976D01*
X-27562Y-77475D01*
X-28312Y-78225D01*
X-30561Y-78225D01*
X-29062Y-78225D02*
X-27562Y-79724D01*
X-23813Y-79724D02*
X-25313Y-79724D01*
X-26063Y-78975D01*
X-26063Y-77475D01*
X-25313Y-76725D01*
X-23813Y-76725D01*
X-23064Y-77475D01*
X-23064Y-78225D01*
X-26063Y-78225D01*
X-21564Y-79724D02*
X-21564Y-76725D01*
X-20814Y-76725D01*
X-20065Y-77475D01*
X-20065Y-79724D01*
X-20065Y-77475D01*
X-19315Y-76725D01*
X-18565Y-77475D01*
X-18565Y-79724D01*
X-16316Y-79724D02*
X-14816Y-79724D01*
X-14066Y-78975D01*
X-14066Y-77475D01*
X-14816Y-76725D01*
X-16316Y-76725D01*
X-17065Y-77475D01*
X-17065Y-78975D01*
X-16316Y-79724D01*
X-11817Y-75976D02*
X-11817Y-76725D01*
X-12567Y-76725D01*
X-11067Y-76725D01*
X-11817Y-76725D01*
X-11817Y-78975D01*
X-11067Y-79724D01*
X-6569Y-79724D02*
X-8068Y-79724D01*
X-8818Y-78975D01*
X-8818Y-77475D01*
X-8068Y-76725D01*
X-6569Y-76725D01*
X-5819Y-77475D01*
X-5819Y-78225D01*
X-8818Y-78225D01*
D13*
X-36250Y-15439D02*
X-36695Y-14516D01*
X-37694Y-14288D01*
X-38495Y-14927D01*
X-38495Y-15951D01*
X-37694Y-16590D01*
X-36695Y-16362D01*
X-36250Y-15439D01*
D14*
X69836Y19557D02*
X69836Y26643D01*
X50151Y19557D02*
X50151Y26643D01*
X68655Y19557D02*
X69836Y19557D01*
X68655Y26643D02*
X69836Y26643D01*
X50151Y19557D02*
X51332Y19557D01*
X50151Y26643D02*
X51332Y26643D01*
D15*
X-39287Y46905D02*
X-35744Y46905D01*
X-35744Y43756D02*
X-35744Y46905D01*
X-39287Y35094D02*
X-35744Y35094D01*
X-35744Y38244D01*
X62913Y-7252D02*
X81024Y-7252D01*
X62913Y-30874D02*
X62913Y-7252D01*
X62913Y-30874D02*
X81024Y-30874D01*
X81024Y-7252D01*
X81024Y49252D02*
X81024Y80748D01*
X62913Y49252D02*
X81024Y49252D01*
X62913Y49252D02*
X62913Y80748D01*
X81024Y80748D01*
X62913Y-44252D02*
X81024Y-44252D01*
X62913Y-75748D02*
X62913Y-44252D01*
X62913Y-75748D02*
X81024Y-75748D01*
X81024Y-44252D01*
X19256Y54094D02*
X19256Y57244D01*
X16106Y54094D02*
X19256Y54094D01*
X19256Y62756D02*
X19256Y65905D01*
X16106Y65905D02*
X19256Y65905D01*
X29756Y2094D02*
X29756Y5244D01*
X26606Y2094D02*
X29756Y2094D01*
X29756Y10756D02*
X29756Y13905D01*
X26606Y13905D02*
X29756Y13905D01*
X29756Y37595D02*
X29756Y40744D01*
X26213Y37595D02*
X29756Y37595D01*
X29756Y46256D02*
X29756Y49406D01*
X26213Y49406D02*
X29756Y49406D01*
X51787Y77591D02*
X51787Y71687D01*
X54739Y71687D01*
X55723Y72671D01*
X55723Y76607D01*
X54739Y77591D01*
X51787Y77591D01*
X51687Y61991D02*
X51687Y56087D01*
X54639Y56087D01*
X55623Y57071D01*
X55623Y61007D01*
X54639Y61991D01*
X51687Y61991D01*
X51387Y69591D02*
X51387Y65655D01*
X53355Y63687D01*
X55323Y65655D01*
X55323Y69591D01*
X57291Y66639D02*
X61227Y66639D01*
X59259Y68607D02*
X59259Y64671D01*
D16*
X-51900Y-3500D02*
X-48100Y-3500D01*
X33000Y-35400D02*
X33000Y-31600D01*
X25713Y53122D02*
X27287Y53122D01*
X25713Y55878D02*
X27287Y55878D01*
X59213Y41022D02*
X60787Y41022D01*
X59213Y43778D02*
X60787Y43778D01*
X46547Y47500D02*
X52453Y47500D01*
X41047Y28000D02*
X46953Y28000D01*
X32213Y-29378D02*
X33787Y-29378D01*
X32213Y-26622D02*
X33787Y-26622D01*
X48747Y-19000D02*
X54653Y-19000D01*
X32213Y-24378D02*
X33787Y-24378D01*
X32213Y-21622D02*
X33787Y-21622D01*
X27000Y-6953D02*
X27000Y-1047D01*
X27500Y17047D02*
X27500Y22953D01*
X6713Y74878D02*
X8287Y74878D01*
X6713Y72122D02*
X8287Y72122D01*
X28713Y67122D02*
X30287Y67122D01*
X28713Y69878D02*
X30287Y69878D01*
X28713Y74378D02*
X30287Y74378D01*
X28713Y71622D02*
X30287Y71622D01*
X-44094Y62402D02*
X-42520Y62402D01*
X-44094Y59646D02*
X-42520Y59646D01*
X-44094Y64567D02*
X-42520Y64567D01*
X-44094Y67323D02*
X-42520Y67323D01*
X-20421Y-56492D02*
X-20421Y-55311D01*
X-10579Y-56590D02*
X-10579Y-55409D01*
X-26900Y-53000D02*
X-23100Y-53000D01*
X-23500Y26350D02*
X-23500Y23200D01*
X-60000Y-20900D02*
X-60000Y-17100D01*
X-59163Y-6853D02*
X-59163Y-5278D01*
X-56407Y-6853D02*
X-56407Y-5278D01*
X-63563Y-6853D02*
X-63563Y-5278D01*
X-60807Y-6853D02*
X-60807Y-5278D01*
X-29487Y27822D02*
X-27913Y27822D01*
X-29487Y30578D02*
X-27913Y30578D01*
X-60000Y-33400D02*
X-60000Y-29600D01*
X-25500Y76100D02*
X-25500Y79900D01*
X-60000Y-27900D02*
X-60000Y-24100D01*
D17*
X-74933Y23445D02*
X-73555Y23445D01*
X-74933Y23445D02*
X-74933Y58681D01*
X-73554Y58681D01*
D18*
X-41368Y-32368D02*
X-41368Y-11502D01*
X-20502Y-32368D02*
X-20502Y-11502D01*
X-41368Y-11502D02*
X-20502Y-11502D01*
X-41368Y-32368D02*
X-20502Y-32368D01*
X60936Y-66580D02*
X59952Y-65596D01*
X57984Y-65596D01*
X57000Y-66580D01*
X57000Y-67564D01*
X57984Y-68548D01*
X59952Y-68548D01*
X60936Y-69532D01*
X60936Y-70516D01*
X59952Y-71500D01*
X57984Y-71500D01*
X57000Y-70516D01*
X57000Y-57096D02*
X57000Y-61032D01*
X58968Y-63000D01*
X60936Y-61032D01*
X60936Y-57096D01*
X56400Y-22864D02*
X61648Y-22864D01*
X59024Y-20240D02*
X59024Y-25488D01*
X60936Y-50080D02*
X59952Y-49096D01*
X57984Y-49096D01*
X57000Y-50080D01*
X57000Y-54016D01*
X57984Y-55000D01*
X59952Y-55000D01*
X60936Y-54016D01*
X60936Y-52048D01*
X58968Y-52048D01*
X-43307Y-88583D02*
X-41641Y-88583D01*
X-42474Y-88583D01*
X-42474Y-83584D01*
X-43307Y-84417D01*
X-39142Y-88583D02*
X-39142Y-87750D01*
X-38309Y-87750D01*
X-38309Y-88583D01*
X-39142Y-88583D01*
X-34976Y-84417D02*
X-34143Y-83584D01*
X-32477Y-83584D01*
X-31644Y-84417D01*
X-31644Y-87750D01*
X-32477Y-88583D01*
X-34143Y-88583D01*
X-34976Y-87750D01*
X-34976Y-84417D01*
M02*
