G04*
G04 #@! TF.GenerationSoftware,Altium Limited,Altium Designer,25.8.1 (18)*
G04*
G04 Layer_Physical_Order=2*
G04 Layer_Color=16711680*
%FSLAX25Y25*%
%MOIN*%
G70*
G04*
G04 #@! TF.SameCoordinates,4A8940AF-88C6-46E9-BDBB-6CC6B346DEE9*
G04*
G04*
G04 #@! TF.FilePolarity,Positive*
G04*
G01*
G75*
%ADD17R,0.04724X0.04724*%
%ADD18C,0.04724*%
%ADD19C,0.06200*%
%ADD20R,0.02756X0.03543*%
%ADD21C,0.01000*%
G36*
X-15748Y-12128D02*
X-21108Y-12128D01*
X-21108Y-6709D01*
X-20260Y-6709D01*
X-20260Y-1165D01*
X-25016Y-1165D01*
X-25016Y-6709D01*
X-24167Y-6709D01*
X-24167Y-12128D01*
X-50670Y-12128D01*
X-57821Y-4976D01*
X-57661Y-4380D01*
X-57661Y-3494D01*
X-57890Y-2639D01*
X-58333Y-1873D01*
X-58959Y-1247D01*
X-59726Y-804D01*
X-60581Y-575D01*
X-61466Y-575D01*
X-62321Y-804D01*
X-63088Y-1247D01*
X-63714Y-1873D01*
X-64157Y-2639D01*
X-64386Y-3494D01*
X-64386Y-4380D01*
X-64157Y-5235D01*
X-63714Y-6001D01*
X-63088Y-6627D01*
X-62321Y-7070D01*
X-61466Y-7299D01*
X-60581Y-7299D01*
X-59984Y-7139D01*
X-53459Y-13664D01*
X-53650Y-14126D01*
X-67276Y-14126D01*
X-67276Y14126D01*
X-15748Y14126D01*
X-15748Y-12128D01*
X-15748Y-12128D02*
G37*
G36*
X67276Y-14126D02*
X15748Y-14126D01*
X15748Y-12990D01*
X22029Y-6709D01*
X25016Y-6709D01*
X25016Y-1165D01*
X20260Y-1165D01*
X20260Y-4152D01*
X16210Y-8202D01*
X15748Y-8011D01*
X15748Y14126D01*
X67276Y14126D01*
X67276Y-14126D01*
X67276Y-14126D02*
G37*
%LPC*%
G36*
X-42767Y9100D02*
X-43847Y9100D01*
X-44890Y8821D01*
X-45825Y8281D01*
X-46588Y7518D01*
X-47128Y6583D01*
X-47407Y5540D01*
X-47407Y4460D01*
X-47128Y3418D01*
X-46588Y2482D01*
X-45825Y1719D01*
X-44890Y1179D01*
X-43847Y900D01*
X-42767Y900D01*
X-41725Y1179D01*
X-40790Y1719D01*
X-40026Y2482D01*
X-39487Y3418D01*
X-39207Y4460D01*
X-39207Y5540D01*
X-39487Y6583D01*
X-40026Y7518D01*
X-40790Y8281D01*
X-41725Y8821D01*
X-42767Y9100D01*
X-42767Y9100D02*
G37*
G36*
X-57661Y7299D02*
X-64386Y7299D01*
X-64386Y575D01*
X-57661Y575D01*
X-57661Y7299D01*
X-57661Y7299D02*
G37*
G36*
X-26165Y-1165D02*
X-28043Y-1165D01*
X-28043Y-3437D01*
X-26165Y-3437D01*
X-26165Y-1165D01*
X-26165Y-1165D02*
G37*
G36*
X-29043Y-1165D02*
X-30921Y-1165D01*
X-30921Y-3437D01*
X-29043Y-3437D01*
X-29043Y-1165D01*
X-29043Y-1165D02*
G37*
G36*
X-42767Y-900D02*
X-42807Y-900D01*
X-42807Y-4500D01*
X-39207Y-4500D01*
X-39207Y-4460D01*
X-39487Y-3418D01*
X-40026Y-2482D01*
X-40790Y-1719D01*
X-41725Y-1179D01*
X-42767Y-900D01*
X-42767Y-900D02*
G37*
G36*
X-43807Y-900D02*
X-43847Y-900D01*
X-44890Y-1179D01*
X-45825Y-1719D01*
X-46588Y-2482D01*
X-47128Y-3418D01*
X-47407Y-4460D01*
X-47407Y-4500D01*
X-43807Y-4500D01*
X-43807Y-900D01*
X-43807Y-900D02*
G37*
G36*
X-26165Y-4437D02*
X-28043Y-4437D01*
X-28043Y-6709D01*
X-26165Y-6709D01*
X-26165Y-4437D01*
X-26165Y-4437D02*
G37*
G36*
X-29043Y-4437D02*
X-30921Y-4437D01*
X-30921Y-6709D01*
X-29043Y-6709D01*
X-29043Y-4437D01*
X-29043Y-4437D02*
G37*
G36*
X-39207Y-5500D02*
X-42807Y-5500D01*
X-42807Y-9100D01*
X-42767Y-9100D01*
X-41725Y-8821D01*
X-40790Y-8281D01*
X-40026Y-7518D01*
X-39487Y-6583D01*
X-39207Y-5540D01*
X-39207Y-5500D01*
X-39207Y-5500D02*
G37*
G36*
X-43807Y-5500D02*
X-47407Y-5500D01*
X-47407Y-5540D01*
X-47128Y-6583D01*
X-46588Y-7518D01*
X-45825Y-8281D01*
X-44890Y-8821D01*
X-43847Y-9100D01*
X-43807Y-9100D01*
X-43807Y-5500D01*
X-43807Y-5500D02*
G37*
G36*
X43847Y9100D02*
X42767Y9100D01*
X41725Y8821D01*
X40790Y8281D01*
X40026Y7518D01*
X39487Y6583D01*
X39207Y5540D01*
X39207Y4460D01*
X39487Y3418D01*
X40026Y2482D01*
X40790Y1719D01*
X41725Y1179D01*
X42767Y900D01*
X43847Y900D01*
X44890Y1179D01*
X45825Y1719D01*
X46588Y2482D01*
X47128Y3418D01*
X47407Y4460D01*
X47407Y5540D01*
X47128Y6583D01*
X46588Y7518D01*
X45825Y8281D01*
X44890Y8821D01*
X43847Y9100D01*
X43847Y9100D02*
G37*
G36*
X30921Y-1165D02*
X29043Y-1165D01*
X29043Y-3437D01*
X30921Y-3437D01*
X30921Y-1165D01*
X30921Y-1165D02*
G37*
G36*
X28043Y-1165D02*
X26165Y-1165D01*
X26165Y-3437D01*
X28043Y-3437D01*
X28043Y-1165D01*
X28043Y-1165D02*
G37*
G36*
X43847Y-900D02*
X43807Y-900D01*
X43807Y-4500D01*
X47407Y-4500D01*
X47407Y-4460D01*
X47128Y-3418D01*
X46588Y-2482D01*
X45825Y-1719D01*
X44890Y-1179D01*
X43847Y-900D01*
X43847Y-900D02*
G37*
G36*
X42807Y-900D02*
X42767Y-900D01*
X41725Y-1179D01*
X40790Y-1719D01*
X40026Y-2482D01*
X39487Y-3418D01*
X39207Y-4460D01*
X39207Y-4500D01*
X42807Y-4500D01*
X42807Y-900D01*
X42807Y-900D02*
G37*
G36*
X30921Y-4437D02*
X29043Y-4437D01*
X29043Y-6709D01*
X30921Y-6709D01*
X30921Y-4437D01*
X30921Y-4437D02*
G37*
G36*
X28043Y-4437D02*
X26165Y-4437D01*
X26165Y-6709D01*
X28043Y-6709D01*
X28043Y-4437D01*
X28043Y-4437D02*
G37*
G36*
X47407Y-5500D02*
X43807Y-5500D01*
X43807Y-9100D01*
X43847Y-9100D01*
X44890Y-8821D01*
X45825Y-8281D01*
X46588Y-7518D01*
X47128Y-6583D01*
X47407Y-5540D01*
X47407Y-5500D01*
X47407Y-5500D02*
G37*
G36*
X42807Y-5500D02*
X39207Y-5500D01*
X39207Y-5540D01*
X39487Y-6583D01*
X40026Y-7518D01*
X40790Y-8281D01*
X41725Y-8821D01*
X42767Y-9100D01*
X42807Y-9100D01*
X42807Y-5500D01*
X42807Y-5500D02*
G37*
%LPD*%
D17*
X-61024Y3937D02*
D03*
D18*
X-61024Y-3937D02*
D03*
D19*
X43307Y5000D02*
D03*
X43307Y-5000D02*
D03*
X-43307Y5000D02*
D03*
X-43307Y-5000D02*
D03*
D20*
X28543Y-3937D02*
D03*
X22638Y-3937D02*
D03*
X-28543Y-3937D02*
D03*
X-22638Y-3937D02*
D03*
D21*
X-51303Y-13657D02*
X12917Y-13657D01*
X-61024Y-3937D02*
X-51303Y-13657D01*
X22638Y-4331D02*
X22638Y-3937D01*
X21760Y-5209D02*
X22638Y-4331D01*
X21366Y-5209D02*
X21760Y-5209D01*
X12917Y-13657D02*
X21366Y-5209D01*
X-22638Y-13500D02*
X-22638Y-3937D01*
M02*
