G04*
G04 #@! TF.GenerationSoftware,Altium Limited,Altium Designer,25.8.1 (18)*
G04*
G04 Layer_Physical_Order=2*
G04 Layer_Color=16711680*
%FSLAX25Y25*%
%MOIN*%
G70*
G04*
G04 #@! TF.SameCoordinates,938AAF5A-3C05-41E3-841C-15E9F8BEC9A4*
G04*
G04*
G04 #@! TF.FilePolarity,Positive*
G04*
G01*
G75*
%ADD69C,0.01181*%
%ADD70C,0.01968*%
%ADD71C,0.01500*%
%ADD72R,0.05906X0.05906*%
%ADD73C,0.05906*%
%ADD74C,0.05512*%
%ADD75R,0.04724X0.04724*%
%ADD76C,0.04724*%
%ADD77O,0.02441X0.03150*%
%ADD78O,0.03937X0.09843*%
%ADD79O,0.03937X0.07087*%
%ADD80R,0.03780X0.03780*%
%ADD81C,0.03780*%
%ADD82C,0.03937*%
%ADD83R,0.05906X0.05906*%
%ADD84C,0.01968*%
%ADD85R,0.05512X0.06693*%
G36*
X85101Y-104786D02*
X21198Y-104786D01*
X21198Y-82677D01*
X21083Y-82098D01*
X20755Y-81607D01*
X20264Y-81279D01*
X19685Y-81164D01*
X-11811Y-81164D01*
X-12390Y-81279D01*
X-12881Y-81607D01*
X-13209Y-82098D01*
X-13324Y-82677D01*
X-13324Y-104786D01*
X-199274Y-104786D01*
X-199274Y104786D01*
X-13324Y104786D01*
X-13324Y82677D01*
X-13209Y82098D01*
X-12881Y81607D01*
X-12390Y81279D01*
X-11811Y81164D01*
X19685Y81164D01*
X20264Y81279D01*
X20755Y81607D01*
X21083Y82098D01*
X21198Y82677D01*
X21151Y82915D01*
X21151Y104786D01*
X85101Y104786D01*
X85101Y-104786D01*
X85101Y-104786D02*
G37*
%LPC*%
G36*
X60835Y103627D02*
X60835Y100027D01*
X62926Y100027D01*
X62926Y101102D01*
X62837Y101773D01*
X62579Y102398D01*
X62167Y102934D01*
X61630Y103346D01*
X61006Y103605D01*
X60835Y103627D01*
X60835Y103627D02*
G37*
G36*
X26779Y103627D02*
X26779Y100027D01*
X28870Y100027D01*
X28870Y101102D01*
X28782Y101773D01*
X28523Y102398D01*
X28111Y102934D01*
X27574Y103346D01*
X26950Y103605D01*
X26779Y103627D01*
X26779Y103627D02*
G37*
G36*
X59835Y103627D02*
X59665Y103605D01*
X59040Y103346D01*
X58503Y102934D01*
X58091Y102398D01*
X57833Y101773D01*
X57744Y101102D01*
X57744Y100027D01*
X59835Y100027D01*
X59835Y103627D01*
X59835Y103627D02*
G37*
G36*
X25779Y103627D02*
X25609Y103605D01*
X24984Y103346D01*
X24447Y102934D01*
X24035Y102398D01*
X23777Y101773D01*
X23688Y101102D01*
X23688Y100027D01*
X25779Y100027D01*
X25779Y103627D01*
X25779Y103627D02*
G37*
G36*
X77862Y96513D02*
X77283Y96398D01*
X76855Y96112D01*
X66500Y96112D01*
X66500Y96112D01*
X66075Y96027D01*
X65714Y95786D01*
X65714Y95786D01*
X64413Y94486D01*
X52386Y94486D01*
X52386Y94486D01*
X51960Y94401D01*
X51600Y94160D01*
X47782Y90343D01*
X47541Y89982D01*
X47456Y89556D01*
X47456Y89556D01*
X47456Y89518D01*
X47087Y89271D01*
X46954Y89073D01*
X46353Y89073D01*
X46220Y89271D01*
X45651Y89651D01*
X44980Y89785D01*
X44309Y89651D01*
X43740Y89271D01*
X43608Y89074D01*
X43006Y89074D01*
X42875Y89271D01*
X42305Y89651D01*
X41634Y89785D01*
X40963Y89651D01*
X40394Y89271D01*
X40261Y89073D01*
X39660Y89073D01*
X39527Y89271D01*
X38958Y89651D01*
X38287Y89785D01*
X37616Y89651D01*
X37047Y89271D01*
X36915Y89074D01*
X36313Y89074D01*
X36182Y89271D01*
X35612Y89651D01*
X34941Y89785D01*
X34270Y89651D01*
X33701Y89271D01*
X33628Y89163D01*
X33027Y89163D01*
X32907Y89343D01*
X32304Y89746D01*
X32094Y89787D01*
X32094Y87676D01*
X32094Y85565D01*
X32304Y85607D01*
X32907Y86010D01*
X33027Y86190D01*
X33628Y86190D01*
X33701Y86082D01*
X34270Y85701D01*
X34941Y85568D01*
X35612Y85701D01*
X36182Y86082D01*
X36313Y86279D01*
X36915Y86279D01*
X37047Y86082D01*
X37616Y85701D01*
X38287Y85568D01*
X38958Y85701D01*
X39527Y86082D01*
X39660Y86280D01*
X40261Y86280D01*
X40394Y86082D01*
X40963Y85701D01*
X41634Y85568D01*
X41876Y85616D01*
X42122Y85155D01*
X41389Y84422D01*
X40963Y84337D01*
X40394Y83957D01*
X40261Y83759D01*
X39660Y83759D01*
X39527Y83957D01*
X38958Y84337D01*
X38287Y84471D01*
X37616Y84337D01*
X37047Y83957D01*
X36915Y83760D01*
X36313Y83760D01*
X36182Y83957D01*
X35612Y84337D01*
X34941Y84471D01*
X34270Y84337D01*
X33701Y83957D01*
X33628Y83849D01*
X33027Y83849D01*
X32907Y84029D01*
X32304Y84432D01*
X32094Y84473D01*
X32094Y82362D01*
X32094Y80251D01*
X32304Y80293D01*
X32907Y80696D01*
X33027Y80876D01*
X33628Y80876D01*
X33701Y80768D01*
X34270Y80387D01*
X34941Y80254D01*
X35612Y80387D01*
X36182Y80768D01*
X36313Y80965D01*
X36915Y80965D01*
X37047Y80768D01*
X37616Y80387D01*
X38287Y80254D01*
X38958Y80387D01*
X39527Y80768D01*
X39660Y80966D01*
X40261Y80966D01*
X40394Y80768D01*
X40603Y80628D01*
X40637Y80458D01*
X40913Y80045D01*
X45152Y75805D01*
X43078Y73731D01*
X42802Y73317D01*
X42705Y72830D01*
X42705Y72201D01*
X42642Y72159D01*
X42142Y72427D01*
X42142Y72887D01*
X42045Y73375D01*
X41769Y73788D01*
X41296Y74262D01*
X41296Y74652D01*
X41330Y74703D01*
X41445Y75282D01*
X41330Y75861D01*
X41002Y76352D01*
X40511Y76680D01*
X39931Y76795D01*
X39352Y76680D01*
X38862Y76352D01*
X38533Y75861D01*
X38418Y75282D01*
X38533Y74703D01*
X38747Y74384D01*
X38747Y73734D01*
X38844Y73246D01*
X39120Y72833D01*
X39412Y72540D01*
X39205Y72040D01*
X14710Y72040D01*
X10849Y75901D01*
X10436Y76178D01*
X9948Y76275D01*
X-61036Y76275D01*
X-61523Y76178D01*
X-61937Y75901D01*
X-65879Y71959D01*
X-66097Y71916D01*
X-66588Y71588D01*
X-66916Y71097D01*
X-67031Y70518D01*
X-66916Y69939D01*
X-66698Y69612D01*
X-66915Y69116D01*
X-66919Y69112D01*
X-74154Y69112D01*
X-81388Y76346D01*
X-81388Y82493D01*
X-81102Y82921D01*
X-80987Y83500D01*
X-81102Y84079D01*
X-81430Y84570D01*
X-81921Y84898D01*
X-82500Y85013D01*
X-83079Y84898D01*
X-83570Y84570D01*
X-83898Y84079D01*
X-84013Y83500D01*
X-83898Y82921D01*
X-83612Y82493D01*
X-83612Y75886D01*
X-83612Y75886D01*
X-83527Y75460D01*
X-83286Y75100D01*
X-75401Y67214D01*
X-75400Y67214D01*
X-75040Y66973D01*
X-74614Y66888D01*
X-73059Y66888D01*
X-73059Y59342D01*
X-66547Y59342D01*
X-66547Y66888D01*
X-39752Y66888D01*
X-39752Y59342D01*
X-33240Y59342D01*
X-33240Y66888D01*
X-27652Y66888D01*
X-27612Y66848D01*
X-27612Y39129D01*
X-27612Y39129D01*
X-27527Y38704D01*
X-27395Y38506D01*
X-27395Y36790D01*
X-27681Y36362D01*
X-27796Y35783D01*
X-27681Y35204D01*
X-27353Y34713D01*
X-26862Y34385D01*
X-26283Y34270D01*
X-25704Y34385D01*
X-25213Y34713D01*
X-24885Y35204D01*
X-24770Y35783D01*
X-24885Y36362D01*
X-25171Y36790D01*
X-25171Y38912D01*
X-25171Y38912D01*
X-25256Y39338D01*
X-25388Y39536D01*
X-25388Y67308D01*
X-25388Y67308D01*
X-25473Y67734D01*
X-25714Y68094D01*
X-25714Y68094D01*
X-26406Y68786D01*
X-26766Y69027D01*
X-27192Y69112D01*
X-27192Y69112D01*
X-60728Y69112D01*
X-61004Y69612D01*
X-60984Y69714D01*
X-59472Y71226D01*
X8385Y71226D01*
X12246Y67365D01*
X12659Y67088D01*
X13147Y66991D01*
X41025Y66991D01*
X41513Y67088D01*
X41926Y67365D01*
X44881Y70319D01*
X45157Y70733D01*
X45254Y71220D01*
X45254Y72302D01*
X47385Y74432D01*
X47603Y74476D01*
X48094Y74804D01*
X48422Y75295D01*
X48537Y75874D01*
X48422Y76453D01*
X48094Y76944D01*
X47603Y77272D01*
X47212Y77350D01*
X44778Y79784D01*
X44931Y80140D01*
X45010Y80260D01*
X45651Y80387D01*
X46220Y80768D01*
X46353Y80966D01*
X46954Y80966D01*
X47087Y80768D01*
X47656Y80387D01*
X48327Y80254D01*
X48998Y80387D01*
X49567Y80768D01*
X49699Y80965D01*
X50301Y80965D01*
X50433Y80768D01*
X51002Y80387D01*
X51673Y80254D01*
X52344Y80387D01*
X52913Y80768D01*
X52986Y80876D01*
X53587Y80876D01*
X53708Y80696D01*
X54310Y80293D01*
X54520Y80251D01*
X54520Y82362D01*
X54520Y84473D01*
X54310Y84432D01*
X53708Y84029D01*
X53587Y83849D01*
X52986Y83849D01*
X52913Y83957D01*
X52344Y84337D01*
X51673Y84471D01*
X51002Y84337D01*
X50433Y83957D01*
X50301Y83760D01*
X49699Y83760D01*
X49567Y83957D01*
X48998Y84337D01*
X48327Y84471D01*
X47656Y84337D01*
X47087Y83957D01*
X46954Y83759D01*
X46353Y83759D01*
X46220Y83957D01*
X45651Y84337D01*
X45553Y84357D01*
X45408Y84835D01*
X45701Y85129D01*
X45978Y85543D01*
X46064Y85977D01*
X46220Y86082D01*
X46353Y86280D01*
X46954Y86280D01*
X47087Y86082D01*
X47656Y85701D01*
X48327Y85568D01*
X48998Y85701D01*
X49567Y86082D01*
X49699Y86279D01*
X50301Y86279D01*
X50433Y86082D01*
X51002Y85701D01*
X51673Y85568D01*
X52344Y85701D01*
X52913Y86082D01*
X52986Y86190D01*
X53587Y86190D01*
X53708Y86010D01*
X54310Y85607D01*
X54520Y85565D01*
X54520Y87676D01*
X54520Y89787D01*
X54310Y89746D01*
X53708Y89343D01*
X53587Y89163D01*
X52986Y89163D01*
X52913Y89271D01*
X52344Y89651D01*
X51673Y89785D01*
X51002Y89651D01*
X50824Y89533D01*
X50505Y89921D01*
X52846Y92262D01*
X64874Y92262D01*
X64874Y92262D01*
X65299Y92347D01*
X65660Y92588D01*
X66961Y93888D01*
X76855Y93888D01*
X77283Y93602D01*
X77862Y93487D01*
X78441Y93602D01*
X78932Y93930D01*
X79260Y94421D01*
X79375Y95000D01*
X79260Y95579D01*
X78932Y96070D01*
X78441Y96398D01*
X77862Y96513D01*
X77862Y96513D02*
G37*
G36*
X28870Y99027D02*
X26779Y99027D01*
X26779Y95428D01*
X26950Y95450D01*
X27574Y95709D01*
X28111Y96121D01*
X28523Y96657D01*
X28782Y97282D01*
X28870Y97953D01*
X28870Y99027D01*
X28870Y99027D02*
G37*
G36*
X62926Y99027D02*
X60835Y99027D01*
X60835Y95428D01*
X61006Y95450D01*
X61630Y95709D01*
X62167Y96121D01*
X62579Y96657D01*
X62837Y97282D01*
X62926Y97953D01*
X62926Y99027D01*
X62926Y99027D02*
G37*
G36*
X59835Y99027D02*
X57744Y99027D01*
X57744Y97953D01*
X57833Y97282D01*
X58091Y96657D01*
X58503Y96121D01*
X59040Y95709D01*
X59665Y95450D01*
X59835Y95428D01*
X59835Y99027D01*
X59835Y99027D02*
G37*
G36*
X25779Y99027D02*
X23688Y99027D01*
X23688Y97953D01*
X23777Y97282D01*
X24035Y96657D01*
X24447Y96121D01*
X24984Y95709D01*
X25609Y95450D01*
X25779Y95428D01*
X25779Y99027D01*
X25779Y99027D02*
G37*
G36*
X-33240Y98138D02*
X-39752Y98138D01*
X-39752Y95417D01*
X-45688Y95417D01*
X-46116Y95703D01*
X-46695Y95818D01*
X-47274Y95703D01*
X-47765Y95375D01*
X-48093Y94884D01*
X-48209Y94305D01*
X-48093Y93726D01*
X-47765Y93235D01*
X-47274Y92907D01*
X-46695Y92791D01*
X-46116Y92907D01*
X-45688Y93193D01*
X-39752Y93193D01*
X-39752Y90445D01*
X-33240Y90445D01*
X-33240Y98138D01*
X-33240Y98138D02*
G37*
G36*
X-66547Y98138D02*
X-73059Y98138D01*
X-73059Y95417D01*
X-74188Y95417D01*
X-74616Y95703D01*
X-75195Y95818D01*
X-75774Y95703D01*
X-76265Y95375D01*
X-76593Y94884D01*
X-76709Y94305D01*
X-76593Y93726D01*
X-76265Y93235D01*
X-75774Y92907D01*
X-75195Y92791D01*
X-74616Y92907D01*
X-74188Y93193D01*
X-73059Y93193D01*
X-73059Y90445D01*
X-66547Y90445D01*
X-66547Y98138D01*
X-66547Y98138D02*
G37*
G36*
X-117728Y98138D02*
X-124240Y98138D01*
X-124240Y90445D01*
X-117728Y90445D01*
X-117728Y93179D01*
X-115216Y93179D01*
X-114788Y92893D01*
X-114209Y92778D01*
X-113629Y92893D01*
X-113139Y93221D01*
X-112811Y93712D01*
X-112695Y94291D01*
X-112811Y94871D01*
X-113139Y95361D01*
X-113629Y95689D01*
X-114209Y95805D01*
X-114788Y95689D01*
X-115216Y95403D01*
X-117728Y95403D01*
X-117728Y98138D01*
X-117728Y98138D02*
G37*
G36*
X-168909Y98138D02*
X-175421Y98138D01*
X-175421Y90445D01*
X-168909Y90445D01*
X-168909Y93179D01*
X-166216Y93179D01*
X-165788Y92893D01*
X-165209Y92778D01*
X-164629Y92893D01*
X-164139Y93221D01*
X-163811Y93712D01*
X-163695Y94291D01*
X-163811Y94871D01*
X-164139Y95361D01*
X-164629Y95689D01*
X-165209Y95805D01*
X-165788Y95689D01*
X-166216Y95403D01*
X-168909Y95403D01*
X-168909Y98138D01*
X-168909Y98138D02*
G37*
G36*
X-15366Y98138D02*
X-21878Y98138D01*
X-21878Y90445D01*
X-15366Y90445D01*
X-15366Y98138D01*
X-15366Y98138D02*
G37*
G36*
X-84421Y98138D02*
X-90933Y98138D01*
X-90933Y90445D01*
X-84421Y90445D01*
X-84421Y98138D01*
X-84421Y98138D02*
G37*
G36*
X-135602Y98138D02*
X-142114Y98138D01*
X-142114Y90445D01*
X-135602Y90445D01*
X-135602Y98138D01*
X-135602Y98138D02*
G37*
G36*
X-186784Y98138D02*
X-193295Y98138D01*
X-193295Y90445D01*
X-186784Y90445D01*
X-186784Y98138D01*
X-186784Y98138D02*
G37*
G36*
X55520Y89787D02*
X55520Y88176D01*
X56847Y88176D01*
X56735Y88741D01*
X56333Y89343D01*
X55730Y89746D01*
X55520Y89787D01*
X55520Y89787D02*
G37*
G36*
X31094Y89787D02*
X30884Y89746D01*
X30282Y89343D01*
X29879Y88741D01*
X29767Y88176D01*
X31094Y88176D01*
X31094Y89787D01*
X31094Y89787D02*
G37*
G36*
X60835Y91698D02*
X60835Y86720D01*
X62926Y86720D01*
X62926Y89173D01*
X62837Y89843D01*
X62579Y90468D01*
X62167Y91005D01*
X61630Y91417D01*
X61006Y91675D01*
X60835Y91698D01*
X60835Y91698D02*
G37*
G36*
X26779Y91698D02*
X26779Y86720D01*
X28870Y86720D01*
X28870Y89173D01*
X28782Y89843D01*
X28523Y90468D01*
X28111Y91005D01*
X27574Y91417D01*
X26950Y91675D01*
X26779Y91698D01*
X26779Y91698D02*
G37*
G36*
X59835Y91698D02*
X59665Y91675D01*
X59040Y91417D01*
X58503Y91005D01*
X58091Y90468D01*
X57833Y89843D01*
X57744Y89173D01*
X57744Y86720D01*
X59835Y86720D01*
X59835Y91698D01*
X59835Y91698D02*
G37*
G36*
X25779Y91698D02*
X25609Y91675D01*
X24984Y91417D01*
X24447Y91005D01*
X24035Y90468D01*
X23777Y89843D01*
X23688Y89173D01*
X23688Y86720D01*
X25779Y86720D01*
X25779Y91698D01*
X25779Y91698D02*
G37*
G36*
X56847Y87176D02*
X55520Y87176D01*
X55520Y85565D01*
X55730Y85607D01*
X56333Y86010D01*
X56735Y86612D01*
X56847Y87176D01*
X56847Y87176D02*
G37*
G36*
X31094Y87176D02*
X29767Y87176D01*
X29879Y86612D01*
X30282Y86010D01*
X30884Y85607D01*
X31094Y85565D01*
X31094Y87176D01*
X31094Y87176D02*
G37*
G36*
X55520Y84473D02*
X55520Y82862D01*
X56847Y82862D01*
X56735Y83427D01*
X56333Y84029D01*
X55730Y84432D01*
X55520Y84473D01*
X55520Y84473D02*
G37*
G36*
X31094Y84473D02*
X30884Y84432D01*
X30282Y84029D01*
X29879Y83427D01*
X29767Y82862D01*
X31094Y82862D01*
X31094Y84473D01*
X31094Y84473D02*
G37*
G36*
X59835Y85720D02*
X57744Y85720D01*
X57744Y83267D01*
X57833Y82597D01*
X58091Y81972D01*
X58503Y81436D01*
X59040Y81024D01*
X59665Y80765D01*
X59835Y80743D01*
X59835Y85720D01*
X59835Y85720D02*
G37*
G36*
X25779Y85720D02*
X23688Y85720D01*
X23688Y83267D01*
X23777Y82597D01*
X24035Y81972D01*
X24447Y81436D01*
X24984Y81024D01*
X25609Y80765D01*
X25779Y80743D01*
X25779Y85720D01*
X25779Y85720D02*
G37*
G36*
X62926Y85720D02*
X60835Y85720D01*
X60835Y80743D01*
X61006Y80765D01*
X61630Y81024D01*
X62167Y81436D01*
X62579Y81972D01*
X62837Y82597D01*
X62926Y83267D01*
X62926Y85720D01*
X62926Y85720D02*
G37*
G36*
X28870Y85720D02*
X26779Y85720D01*
X26779Y80743D01*
X26950Y80765D01*
X27574Y81024D01*
X28111Y81436D01*
X28523Y81972D01*
X28782Y82597D01*
X28870Y83267D01*
X28870Y85720D01*
X28870Y85720D02*
G37*
G36*
X56847Y81862D02*
X55520Y81862D01*
X55520Y80251D01*
X55730Y80293D01*
X56333Y80696D01*
X56735Y81298D01*
X56847Y81862D01*
X56847Y81862D02*
G37*
G36*
X31094Y81862D02*
X29767Y81862D01*
X29879Y81298D01*
X30282Y80696D01*
X30884Y80293D01*
X31094Y80251D01*
X31094Y81862D01*
X31094Y81862D02*
G37*
G36*
X-84123Y73612D02*
X-84123Y73612D01*
X-93500Y73612D01*
X-93500Y73612D01*
X-93925Y73527D01*
X-94286Y73286D01*
X-94286Y73286D01*
X-97786Y69786D01*
X-98027Y69425D01*
X-98112Y69000D01*
X-98112Y69000D01*
X-98112Y47008D01*
X-98398Y46579D01*
X-98513Y46000D01*
X-98398Y45421D01*
X-98070Y44930D01*
X-97579Y44602D01*
X-97000Y44487D01*
X-96421Y44602D01*
X-95930Y44930D01*
X-95602Y45421D01*
X-95487Y46000D01*
X-95602Y46579D01*
X-95888Y47008D01*
X-95888Y68539D01*
X-95112Y69316D01*
X-94612Y69108D01*
X-94612Y40961D01*
X-98286Y37286D01*
X-98527Y36926D01*
X-98612Y36500D01*
X-98612Y36500D01*
X-98612Y33007D01*
X-98898Y32579D01*
X-99013Y32000D01*
X-98898Y31421D01*
X-98570Y30930D01*
X-98079Y30602D01*
X-97500Y30487D01*
X-96921Y30602D01*
X-96430Y30930D01*
X-96102Y31421D01*
X-95987Y32000D01*
X-96102Y32579D01*
X-96388Y33007D01*
X-96388Y36039D01*
X-92714Y39714D01*
X-92714Y39714D01*
X-92473Y40075D01*
X-92388Y40500D01*
X-92388Y69348D01*
X-92348Y69388D01*
X-84961Y69388D01*
X-80830Y65257D01*
X-80830Y52841D01*
X-80830Y52841D01*
X-80745Y52415D01*
X-80504Y52054D01*
X-75483Y47033D01*
X-75122Y46792D01*
X-74696Y46707D01*
X-74696Y46707D01*
X-50279Y46707D01*
X-44612Y41039D01*
X-44612Y13508D01*
X-44898Y13079D01*
X-45013Y12500D01*
X-44898Y11921D01*
X-44570Y11430D01*
X-44079Y11102D01*
X-43500Y10987D01*
X-42921Y11102D01*
X-42430Y11430D01*
X-42102Y11921D01*
X-41987Y12500D01*
X-42102Y13079D01*
X-42388Y13508D01*
X-42388Y41500D01*
X-42388Y41500D01*
X-42415Y41635D01*
X-41954Y41882D01*
X-41084Y41012D01*
X-41084Y41012D01*
X-40723Y40771D01*
X-40298Y40686D01*
X-39752Y40686D01*
X-39752Y37951D01*
X-33240Y37951D01*
X-33240Y45644D01*
X-39752Y45644D01*
X-39752Y43532D01*
X-40252Y43325D01*
X-47214Y50286D01*
X-47574Y50527D01*
X-48000Y50612D01*
X-48000Y50612D01*
X-73539Y50612D01*
X-76569Y53642D01*
X-76569Y66058D01*
X-76654Y66484D01*
X-76895Y66845D01*
X-76895Y66845D01*
X-83336Y73286D01*
X-83697Y73527D01*
X-84123Y73612D01*
X-84123Y73612D02*
G37*
G36*
X72469Y75736D02*
X66744Y75736D01*
X66744Y70012D01*
X72469Y70012D01*
X72469Y75736D01*
X72469Y75736D02*
G37*
G36*
X69606Y67887D02*
X68859Y67788D01*
X68163Y67500D01*
X67565Y67041D01*
X67106Y66443D01*
X66818Y65747D01*
X66719Y65000D01*
X66818Y64253D01*
X67106Y63557D01*
X67565Y62959D01*
X68163Y62500D01*
X68859Y62212D01*
X69606Y62113D01*
X70354Y62212D01*
X71050Y62500D01*
X71648Y62959D01*
X72106Y63557D01*
X72395Y64253D01*
X72493Y65000D01*
X72395Y65747D01*
X72106Y66443D01*
X71648Y67041D01*
X71050Y67500D01*
X70354Y67788D01*
X69606Y67887D01*
X69606Y67887D02*
G37*
G36*
X-10000Y68284D02*
X-10850Y68172D01*
X-11642Y67844D01*
X-12322Y67322D01*
X-12844Y66642D01*
X-13172Y65850D01*
X-13284Y65000D01*
X-13172Y64150D01*
X-12844Y63358D01*
X-12322Y62678D01*
X-11642Y62156D01*
X-10850Y61828D01*
X-10000Y61716D01*
X-9150Y61828D01*
X-8358Y62156D01*
X-7678Y62678D01*
X-7156Y63358D01*
X-6828Y64150D01*
X-6716Y65000D01*
X-6828Y65850D01*
X-7156Y66642D01*
X-7678Y67322D01*
X-8358Y67844D01*
X-9150Y68172D01*
X-10000Y68284D01*
X-10000Y68284D02*
G37*
G36*
X0Y68483D02*
X-901Y68364D01*
X-1741Y68016D01*
X-2462Y67462D01*
X-3016Y66741D01*
X-3364Y65901D01*
X-3483Y65000D01*
X-3364Y64099D01*
X-3016Y63259D01*
X-2462Y62537D01*
X-1741Y61984D01*
X-901Y61636D01*
X0Y61518D01*
X901Y61636D01*
X1741Y61984D01*
X2462Y62537D01*
X3016Y63259D01*
X3364Y64099D01*
X3483Y65000D01*
X3364Y65901D01*
X3016Y66741D01*
X2462Y67462D01*
X1741Y68016D01*
X901Y68364D01*
X0Y68483D01*
X0Y68483D02*
G37*
G36*
X-117728Y67035D02*
X-124240Y67035D01*
X-124240Y59342D01*
X-117728Y59342D01*
X-117728Y67035D01*
X-117728Y67035D02*
G37*
G36*
X-168909Y67035D02*
X-175421Y67035D01*
X-175421Y59342D01*
X-168909Y59342D01*
X-168909Y67035D01*
X-168909Y67035D02*
G37*
G36*
X-62492Y58437D02*
X-62492Y55618D01*
X-59673Y55618D01*
X-59723Y55994D01*
X-60061Y56810D01*
X-60599Y57512D01*
X-61300Y58049D01*
X-62116Y58388D01*
X-62492Y58437D01*
X-62492Y58437D02*
G37*
G36*
X-63492Y58437D02*
X-63868Y58388D01*
X-64685Y58049D01*
X-65386Y57512D01*
X-65924Y56810D01*
X-66262Y55994D01*
X-66311Y55618D01*
X-63492Y55618D01*
X-63492Y58437D01*
X-63492Y58437D02*
G37*
G36*
X-43307Y58402D02*
X-44157Y58290D01*
X-44949Y57962D01*
X-45629Y57440D01*
X-46151Y56760D01*
X-46479Y55968D01*
X-46591Y55118D01*
X-46479Y54268D01*
X-46151Y53476D01*
X-45629Y52796D01*
X-44949Y52274D01*
X-44157Y51946D01*
X-43307Y51834D01*
X-42457Y51946D01*
X-41665Y52274D01*
X-40985Y52796D01*
X-40463Y53476D01*
X-40135Y54268D01*
X-40023Y55118D01*
X-40135Y55968D01*
X-40463Y56760D01*
X-40985Y57440D01*
X-41665Y57962D01*
X-42457Y58290D01*
X-43307Y58402D01*
X-43307Y58402D02*
G37*
G36*
X-59673Y54618D02*
X-62492Y54618D01*
X-62492Y51799D01*
X-62116Y51849D01*
X-61300Y52187D01*
X-60599Y52725D01*
X-60061Y53426D01*
X-59723Y54242D01*
X-59673Y54618D01*
X-59673Y54618D02*
G37*
G36*
X-63492Y54618D02*
X-66311Y54618D01*
X-66262Y54242D01*
X-65924Y53426D01*
X-65386Y52725D01*
X-64685Y52187D01*
X-63868Y51849D01*
X-63492Y51799D01*
X-63492Y54618D01*
X-63492Y54618D02*
G37*
G36*
X-10000Y58284D02*
X-10850Y58172D01*
X-11642Y57844D01*
X-12322Y57322D01*
X-12844Y56642D01*
X-13172Y55850D01*
X-13284Y55000D01*
X-13172Y54150D01*
X-12844Y53358D01*
X-12322Y52678D01*
X-11642Y52156D01*
X-10850Y51828D01*
X-10000Y51716D01*
X-9150Y51828D01*
X-8358Y52156D01*
X-7678Y52678D01*
X-7156Y53358D01*
X-6828Y54150D01*
X-6716Y55000D01*
X-6828Y55850D01*
X-7156Y56642D01*
X-7678Y57322D01*
X-8358Y57844D01*
X-9150Y58172D01*
X-10000Y58284D01*
X-10000Y58284D02*
G37*
G36*
X0Y58482D02*
X-901Y58364D01*
X-1741Y58016D01*
X-2462Y57463D01*
X-3016Y56741D01*
X-3364Y55901D01*
X-3483Y55000D01*
X-3364Y54099D01*
X-3016Y53259D01*
X-2462Y52538D01*
X-1741Y51984D01*
X-901Y51636D01*
X0Y51517D01*
X901Y51636D01*
X1741Y51984D01*
X2462Y52538D01*
X3016Y53259D01*
X3364Y54099D01*
X3483Y55000D01*
X3364Y55901D01*
X3016Y56741D01*
X2462Y57463D01*
X1741Y58016D01*
X901Y58364D01*
X0Y58482D01*
X0Y58482D02*
G37*
G36*
X0Y48482D02*
X-901Y48364D01*
X-1741Y48016D01*
X-2462Y47462D01*
X-3016Y46741D01*
X-3277Y46112D01*
X-6936Y46112D01*
X-7156Y46642D01*
X-7678Y47322D01*
X-8358Y47844D01*
X-9150Y48172D01*
X-10000Y48284D01*
X-10850Y48172D01*
X-11642Y47844D01*
X-12322Y47322D01*
X-12844Y46642D01*
X-13172Y45850D01*
X-13284Y45000D01*
X-13172Y44150D01*
X-12844Y43358D01*
X-12322Y42678D01*
X-11642Y42156D01*
X-10850Y41828D01*
X-10000Y41716D01*
X-9150Y41828D01*
X-8358Y42156D01*
X-7678Y42678D01*
X-7156Y43358D01*
X-6936Y43888D01*
X-3277Y43888D01*
X-3016Y43259D01*
X-2462Y42538D01*
X-1741Y41984D01*
X-901Y41636D01*
X0Y41517D01*
X901Y41636D01*
X1741Y41984D01*
X2462Y42538D01*
X3016Y43259D01*
X3364Y44099D01*
X3483Y45000D01*
X3364Y45901D01*
X3016Y46741D01*
X2462Y47462D01*
X1741Y48016D01*
X901Y48364D01*
X0Y48482D01*
X0Y48482D02*
G37*
G36*
X-66547Y45644D02*
X-73059Y45644D01*
X-73059Y43921D01*
X-80581Y43921D01*
X-81010Y44208D01*
X-81589Y44323D01*
X-82168Y44208D01*
X-82659Y43880D01*
X-82987Y43389D01*
X-83102Y42809D01*
X-82987Y42230D01*
X-82659Y41739D01*
X-82168Y41411D01*
X-81589Y41296D01*
X-81010Y41411D01*
X-80581Y41697D01*
X-73059Y41697D01*
X-73059Y37951D01*
X-66547Y37951D01*
X-66547Y45644D01*
X-66547Y45644D02*
G37*
G36*
X-117728Y45646D02*
X-124240Y45646D01*
X-124240Y37953D01*
X-117728Y37953D01*
X-117728Y40679D01*
X-114716Y40679D01*
X-114288Y40393D01*
X-113709Y40278D01*
X-113129Y40393D01*
X-112639Y40721D01*
X-112311Y41212D01*
X-112195Y41791D01*
X-112311Y42371D01*
X-112639Y42861D01*
X-113129Y43189D01*
X-113709Y43305D01*
X-114288Y43189D01*
X-114716Y42903D01*
X-117728Y42903D01*
X-117728Y45646D01*
X-117728Y45646D02*
G37*
G36*
X-168909Y45646D02*
X-175421Y45646D01*
X-175421Y37953D01*
X-168909Y37953D01*
X-168909Y40679D01*
X-166216Y40679D01*
X-165788Y40393D01*
X-165209Y40278D01*
X-164629Y40393D01*
X-164139Y40721D01*
X-163811Y41212D01*
X-163695Y41791D01*
X-163811Y42371D01*
X-164139Y42861D01*
X-164629Y43189D01*
X-165209Y43305D01*
X-165788Y43189D01*
X-166216Y42903D01*
X-168909Y42903D01*
X-168909Y45646D01*
X-168909Y45646D02*
G37*
G36*
X-10000Y38284D02*
X-10850Y38172D01*
X-11642Y37844D01*
X-12322Y37322D01*
X-12844Y36642D01*
X-13172Y35850D01*
X-13284Y35000D01*
X-13172Y34150D01*
X-12844Y33358D01*
X-12322Y32678D01*
X-11642Y32156D01*
X-10850Y31828D01*
X-10000Y31716D01*
X-9150Y31828D01*
X-8358Y32156D01*
X-7678Y32678D01*
X-7156Y33358D01*
X-6828Y34150D01*
X-6716Y35000D01*
X-6828Y35850D01*
X-7156Y36642D01*
X-7678Y37322D01*
X-8358Y37844D01*
X-9150Y38172D01*
X-10000Y38284D01*
X-10000Y38284D02*
G37*
G36*
X0Y38482D02*
X-901Y38364D01*
X-1741Y38016D01*
X-2462Y37462D01*
X-3016Y36741D01*
X-3364Y35901D01*
X-3483Y35000D01*
X-3364Y34099D01*
X-3016Y33259D01*
X-2462Y32537D01*
X-1741Y31984D01*
X-901Y31636D01*
X0Y31517D01*
X901Y31636D01*
X1741Y31984D01*
X2462Y32537D01*
X3016Y33259D01*
X3364Y34099D01*
X3483Y35000D01*
X3364Y35901D01*
X3016Y36741D01*
X2462Y37462D01*
X1741Y38016D01*
X901Y38364D01*
X0Y38482D01*
X0Y38482D02*
G37*
G36*
X42453Y36453D02*
X35547Y36453D01*
X35547Y29547D01*
X42453Y29547D01*
X42453Y36453D01*
X42453Y36453D02*
G37*
G36*
X-10000Y28284D02*
X-10850Y28172D01*
X-11642Y27844D01*
X-12322Y27322D01*
X-12844Y26642D01*
X-13172Y25850D01*
X-13284Y25000D01*
X-13172Y24150D01*
X-12844Y23358D01*
X-12322Y22678D01*
X-11642Y22156D01*
X-10850Y21828D01*
X-10000Y21716D01*
X-9150Y21828D01*
X-8358Y22156D01*
X-7678Y22678D01*
X-7156Y23358D01*
X-6828Y24150D01*
X-6716Y25000D01*
X-6828Y25850D01*
X-7156Y26642D01*
X-7678Y27322D01*
X-8358Y27844D01*
X-9150Y28172D01*
X-10000Y28284D01*
X-10000Y28284D02*
G37*
G36*
X0Y28482D02*
X-901Y28364D01*
X-1741Y28016D01*
X-2462Y27463D01*
X-3016Y26741D01*
X-3364Y25901D01*
X-3483Y25000D01*
X-3364Y24099D01*
X-3016Y23259D01*
X-2462Y22537D01*
X-1741Y21984D01*
X-901Y21636D01*
X0Y21518D01*
X901Y21636D01*
X1741Y21984D01*
X2462Y22537D01*
X3016Y23259D01*
X3364Y24099D01*
X3483Y25000D01*
X3364Y25901D01*
X3016Y26741D01*
X2462Y27463D01*
X1741Y28016D01*
X901Y28364D01*
X0Y28482D01*
X0Y28482D02*
G37*
G36*
X-53000Y26784D02*
X-53850Y26672D01*
X-54642Y26344D01*
X-55322Y25822D01*
X-55844Y25142D01*
X-56172Y24350D01*
X-56284Y23500D01*
X-56172Y22650D01*
X-55844Y21858D01*
X-55322Y21178D01*
X-54642Y20656D01*
X-53850Y20328D01*
X-53000Y20216D01*
X-52150Y20328D01*
X-51358Y20656D01*
X-50678Y21178D01*
X-50156Y21858D01*
X-49828Y22650D01*
X-49716Y23500D01*
X-49828Y24350D01*
X-50156Y25142D01*
X-50678Y25822D01*
X-51358Y26344D01*
X-52150Y26672D01*
X-53000Y26784D01*
X-53000Y26784D02*
G37*
G36*
X39000Y26482D02*
X38099Y26364D01*
X37259Y26016D01*
X36538Y25462D01*
X35984Y24741D01*
X35636Y23901D01*
X35517Y23000D01*
X35636Y22099D01*
X35984Y21259D01*
X36538Y20538D01*
X37259Y19984D01*
X38099Y19636D01*
X39000Y19518D01*
X39901Y19636D01*
X40741Y19984D01*
X41462Y20538D01*
X42016Y21259D01*
X42364Y22099D01*
X42483Y23000D01*
X42364Y23901D01*
X42016Y24741D01*
X41462Y25462D01*
X40741Y26016D01*
X39901Y26364D01*
X39000Y26482D01*
X39000Y26482D02*
G37*
G36*
X0Y18483D02*
X-901Y18364D01*
X-1741Y18016D01*
X-2462Y17462D01*
X-3016Y16741D01*
X-3364Y15901D01*
X-3483Y15000D01*
X-3364Y14099D01*
X-3016Y13259D01*
X-2462Y12538D01*
X-1741Y11984D01*
X-901Y11636D01*
X0Y11518D01*
X901Y11636D01*
X1741Y11984D01*
X2462Y12538D01*
X3016Y13259D01*
X3364Y14099D01*
X3483Y15000D01*
X3364Y15901D01*
X3016Y16741D01*
X2462Y17462D01*
X1741Y18016D01*
X901Y18364D01*
X0Y18483D01*
X0Y18483D02*
G37*
G36*
X-117728Y14543D02*
X-124240Y14543D01*
X-124240Y6850D01*
X-117728Y6850D01*
X-117728Y14543D01*
X-117728Y14543D02*
G37*
G36*
X-168909Y14543D02*
X-175421Y14543D01*
X-175421Y6850D01*
X-168909Y6850D01*
X-168909Y14543D01*
X-168909Y14543D02*
G37*
G36*
X-84421Y67035D02*
X-90933Y67035D01*
X-90933Y59342D01*
X-89112Y59342D01*
X-89112Y45644D01*
X-90933Y45644D01*
X-90933Y37951D01*
X-88789Y37951D01*
X-88789Y14542D01*
X-90933Y14542D01*
X-90933Y6849D01*
X-91335Y6612D01*
X-93493Y6612D01*
X-93921Y6898D01*
X-94500Y7013D01*
X-95079Y6898D01*
X-95570Y6570D01*
X-95898Y6079D01*
X-96013Y5500D01*
X-95898Y4921D01*
X-95570Y4430D01*
X-95079Y4102D01*
X-94500Y3987D01*
X-93921Y4102D01*
X-93493Y4388D01*
X-86988Y4388D01*
X-86988Y4388D01*
X-86988Y4388D01*
X-54008Y4388D01*
X-53579Y4102D01*
X-53000Y3987D01*
X-52421Y4102D01*
X-51930Y4430D01*
X-51602Y4921D01*
X-51487Y5500D01*
X-51602Y6079D01*
X-51930Y6570D01*
X-52421Y6898D01*
X-53000Y7013D01*
X-53579Y6898D01*
X-54008Y6612D01*
X-66145Y6612D01*
X-66547Y6849D01*
X-66547Y7112D01*
X-66547Y14542D01*
X-73059Y14542D01*
X-73059Y7112D01*
X-73059Y6849D01*
X-73461Y6612D01*
X-84020Y6612D01*
X-84421Y6849D01*
X-84421Y14542D01*
X-86565Y14542D01*
X-86565Y37951D01*
X-84421Y37951D01*
X-84421Y45644D01*
X-86888Y45644D01*
X-86888Y59342D01*
X-84421Y59342D01*
X-84421Y67035D01*
X-84421Y67035D02*
G37*
G36*
X80500Y46612D02*
X80500Y46612D01*
X60000Y46612D01*
X59575Y46527D01*
X59214Y46286D01*
X53214Y40286D01*
X52973Y39926D01*
X52888Y39500D01*
X52888Y39500D01*
X52888Y36507D01*
X52602Y36079D01*
X52487Y35500D01*
X52602Y34921D01*
X52930Y34430D01*
X53421Y34102D01*
X54000Y33987D01*
X54579Y34102D01*
X55070Y34430D01*
X55398Y34921D01*
X55513Y35500D01*
X55398Y36079D01*
X55112Y36507D01*
X55112Y39039D01*
X60461Y44388D01*
X80039Y44388D01*
X81388Y43039D01*
X81388Y6961D01*
X79039Y4612D01*
X73008Y4612D01*
X72579Y4898D01*
X72000Y5013D01*
X71421Y4898D01*
X70930Y4570D01*
X70602Y4079D01*
X70487Y3500D01*
X70602Y2921D01*
X70930Y2430D01*
X71421Y2102D01*
X72000Y1987D01*
X72579Y2102D01*
X73008Y2388D01*
X79500Y2388D01*
X79500Y2388D01*
X79926Y2473D01*
X80286Y2714D01*
X83286Y5714D01*
X83527Y6075D01*
X83612Y6500D01*
X83612Y43500D01*
X83612Y43500D01*
X83527Y43925D01*
X83286Y44286D01*
X83286Y44286D01*
X81286Y46286D01*
X80926Y46527D01*
X80500Y46612D01*
X80500Y46612D02*
G37*
G36*
X-10000Y8284D02*
X-10850Y8172D01*
X-11642Y7844D01*
X-12322Y7322D01*
X-12844Y6642D01*
X-13172Y5850D01*
X-13284Y5000D01*
X-13172Y4150D01*
X-12844Y3358D01*
X-12322Y2678D01*
X-11642Y2156D01*
X-10850Y1828D01*
X-10000Y1716D01*
X-9150Y1828D01*
X-8358Y2156D01*
X-7678Y2678D01*
X-7156Y3358D01*
X-6828Y4150D01*
X-6716Y5000D01*
X-6828Y5850D01*
X-7156Y6642D01*
X-7678Y7322D01*
X-8358Y7844D01*
X-9150Y8172D01*
X-10000Y8284D01*
X-10000Y8284D02*
G37*
G36*
X0Y8483D02*
X-901Y8364D01*
X-1741Y8016D01*
X-2462Y7463D01*
X-3016Y6741D01*
X-3364Y5901D01*
X-3483Y5000D01*
X-3364Y4099D01*
X-3016Y3259D01*
X-2462Y2537D01*
X-1741Y1984D01*
X-901Y1636D01*
X0Y1517D01*
X901Y1636D01*
X1741Y1984D01*
X2462Y2537D01*
X3016Y3259D01*
X3364Y4099D01*
X3483Y5000D01*
X3364Y5901D01*
X3016Y6741D01*
X2462Y7463D01*
X1741Y8016D01*
X901Y8364D01*
X0Y8483D01*
X0Y8483D02*
G37*
G36*
X47000Y7284D02*
X46150Y7172D01*
X45358Y6844D01*
X44678Y6322D01*
X44156Y5642D01*
X43828Y4850D01*
X43716Y4000D01*
X43828Y3150D01*
X44156Y2358D01*
X44678Y1678D01*
X45358Y1156D01*
X46150Y828D01*
X47000Y716D01*
X47850Y828D01*
X48642Y1156D01*
X49322Y1678D01*
X49844Y2358D01*
X50172Y3150D01*
X50284Y4000D01*
X50172Y4850D01*
X49844Y5642D01*
X49322Y6322D01*
X48642Y6844D01*
X47850Y7172D01*
X47000Y7284D01*
X47000Y7284D02*
G37*
G36*
X-135602Y67035D02*
X-142114Y67035D01*
X-142114Y59342D01*
X-139970Y59342D01*
X-139970Y45646D01*
X-142114Y45646D01*
X-142114Y37953D01*
X-139970Y37953D01*
X-139970Y14543D01*
X-142114Y14543D01*
X-142114Y6850D01*
X-139970Y6850D01*
X-139970Y-4000D01*
X-139970Y-6850D01*
X-142114Y-6850D01*
X-142114Y-14543D01*
X-139970Y-14543D01*
X-139970Y-37953D01*
X-142114Y-37953D01*
X-142114Y-45646D01*
X-139970Y-45646D01*
X-139970Y-59342D01*
X-142114Y-59342D01*
X-142114Y-67035D01*
X-135602Y-67035D01*
X-135602Y-59342D01*
X-137746Y-59342D01*
X-137746Y-45646D01*
X-135602Y-45646D01*
X-135602Y-37953D01*
X-137746Y-37953D01*
X-137746Y-14543D01*
X-135602Y-14543D01*
X-135602Y-6850D01*
X-137746Y-6850D01*
X-137746Y-5112D01*
X-104527Y-5112D01*
X-104472Y-5173D01*
X-104287Y-5579D01*
X-105456Y-6749D01*
X-105698Y-7109D01*
X-105782Y-7535D01*
X-105782Y-7535D01*
X-105782Y-19818D01*
X-106068Y-20246D01*
X-106184Y-20825D01*
X-106068Y-21404D01*
X-105740Y-21895D01*
X-105249Y-22223D01*
X-104670Y-22339D01*
X-104091Y-22223D01*
X-103600Y-21895D01*
X-103272Y-21404D01*
X-103157Y-20825D01*
X-103272Y-20246D01*
X-103558Y-19818D01*
X-103558Y-7995D01*
X-96856Y-1293D01*
X-69077Y-1293D01*
X-68886Y-1755D01*
X-69519Y-2388D01*
X-89908Y-2388D01*
X-89930Y-2355D01*
X-90421Y-2027D01*
X-91000Y-1912D01*
X-91579Y-2027D01*
X-92070Y-2355D01*
X-92398Y-2846D01*
X-92513Y-3425D01*
X-92421Y-3888D01*
X-92697Y-4388D01*
X-97914Y-4388D01*
X-98340Y-4473D01*
X-98701Y-4714D01*
X-98701Y-4714D01*
X-98978Y-4991D01*
X-99000Y-4987D01*
X-99579Y-5102D01*
X-100070Y-5430D01*
X-100398Y-5921D01*
X-100513Y-6500D01*
X-100398Y-7079D01*
X-100070Y-7570D01*
X-99579Y-7898D01*
X-99000Y-8013D01*
X-98421Y-7898D01*
X-97930Y-7570D01*
X-97602Y-7079D01*
X-97523Y-6681D01*
X-97454Y-6612D01*
X-91335Y-6612D01*
X-90933Y-6849D01*
X-90933Y-7047D01*
X-91090Y-7547D01*
X-93493Y-7547D01*
X-93921Y-7261D01*
X-94500Y-7145D01*
X-95079Y-7261D01*
X-95570Y-7589D01*
X-95898Y-8080D01*
X-96013Y-8659D01*
X-95898Y-9238D01*
X-95570Y-9729D01*
X-95079Y-10057D01*
X-94500Y-10172D01*
X-93921Y-10057D01*
X-93493Y-9771D01*
X-90933Y-9771D01*
X-90933Y-14542D01*
X-88789Y-14542D01*
X-88789Y-37951D01*
X-90933Y-37951D01*
X-90933Y-45644D01*
X-88789Y-45644D01*
X-88789Y-59342D01*
X-90933Y-59342D01*
X-90933Y-66826D01*
X-91400Y-67116D01*
X-91421Y-67102D01*
X-92000Y-66987D01*
X-92579Y-67102D01*
X-93070Y-67430D01*
X-93398Y-67921D01*
X-93466Y-68261D01*
X-93936Y-68555D01*
X-93997Y-68563D01*
X-94082Y-68523D01*
X-94102Y-68421D01*
X-94430Y-67930D01*
X-94921Y-67602D01*
X-95500Y-67487D01*
X-96079Y-67602D01*
X-96570Y-67930D01*
X-96898Y-68421D01*
X-97013Y-69000D01*
X-96898Y-69579D01*
X-96570Y-70070D01*
X-96079Y-70398D01*
X-95574Y-70499D01*
X-93712Y-72361D01*
X-93712Y-72361D01*
X-93671Y-72388D01*
X-93823Y-72888D01*
X-96039Y-72888D01*
X-100888Y-68039D01*
X-100888Y-61507D01*
X-100602Y-61079D01*
X-100487Y-60500D01*
X-100602Y-59921D01*
X-100930Y-59430D01*
X-101421Y-59102D01*
X-102000Y-58987D01*
X-102579Y-59102D01*
X-103070Y-59430D01*
X-103398Y-59921D01*
X-103513Y-60500D01*
X-103398Y-61079D01*
X-103112Y-61507D01*
X-103112Y-68500D01*
X-103112Y-68500D01*
X-103027Y-68925D01*
X-102786Y-69286D01*
X-97286Y-74786D01*
X-97286Y-74786D01*
X-96925Y-75027D01*
X-96500Y-75112D01*
X-63500Y-75112D01*
X-63500Y-75112D01*
X-63074Y-75027D01*
X-62714Y-74786D01*
X-58039Y-70112D01*
X-56286Y-70112D01*
X-56134Y-70612D01*
X-56286Y-70714D01*
X-56286Y-70714D01*
X-61461Y-75888D01*
X-175768Y-75888D01*
X-186784Y-64872D01*
X-186784Y-59342D01*
X-188927Y-59342D01*
X-188927Y-45646D01*
X-186784Y-45646D01*
X-186784Y-37953D01*
X-188927Y-37953D01*
X-188927Y-19265D01*
X-188843Y-19139D01*
X-188758Y-18713D01*
X-188758Y-18287D01*
X-188843Y-17861D01*
X-188927Y-17735D01*
X-188927Y-14543D01*
X-186784Y-14543D01*
X-186784Y-6850D01*
X-188927Y-6850D01*
X-188927Y6850D01*
X-186784Y6850D01*
X-186784Y14543D01*
X-188927Y14543D01*
X-188927Y37953D01*
X-186784Y37953D01*
X-186784Y45646D01*
X-188927Y45646D01*
X-188927Y59342D01*
X-186784Y59342D01*
X-186784Y67035D01*
X-193295Y67035D01*
X-193295Y59342D01*
X-191151Y59342D01*
X-191151Y45646D01*
X-193295Y45646D01*
X-193295Y37953D01*
X-191151Y37953D01*
X-191151Y14543D01*
X-193295Y14543D01*
X-193295Y6850D01*
X-191151Y6850D01*
X-191151Y-6850D01*
X-193295Y-6850D01*
X-193295Y-14543D01*
X-191151Y-14543D01*
X-191151Y-18118D01*
X-191151Y-18118D01*
X-191075Y-18500D01*
X-191151Y-18882D01*
X-191151Y-18882D01*
X-191151Y-37953D01*
X-193295Y-37953D01*
X-193295Y-45646D01*
X-191151Y-45646D01*
X-191151Y-59342D01*
X-193295Y-59342D01*
X-193295Y-67035D01*
X-187765Y-67035D01*
X-177015Y-77786D01*
X-177015Y-77786D01*
X-176654Y-78027D01*
X-176228Y-78112D01*
X-61000Y-78112D01*
X-61000Y-78112D01*
X-60575Y-78027D01*
X-60214Y-77786D01*
X-55039Y-72612D01*
X-41508Y-72612D01*
X-41079Y-72898D01*
X-40500Y-73013D01*
X-39921Y-72898D01*
X-39430Y-72570D01*
X-39102Y-72079D01*
X-38987Y-71500D01*
X-39102Y-70921D01*
X-39430Y-70430D01*
X-39921Y-70102D01*
X-40500Y-69987D01*
X-41079Y-70102D01*
X-41085Y-70106D01*
X-41120Y-70093D01*
X-41250Y-69515D01*
X-38770Y-67035D01*
X-33240Y-67035D01*
X-33240Y-59342D01*
X-39752Y-59342D01*
X-39752Y-64872D01*
X-42768Y-67888D01*
X-58500Y-67888D01*
X-58500Y-67888D01*
X-58925Y-67973D01*
X-59286Y-68214D01*
X-59286Y-68214D01*
X-63961Y-72888D01*
X-72677Y-72888D01*
X-72829Y-72388D01*
X-72789Y-72361D01*
X-69017Y-68589D01*
X-68776Y-68229D01*
X-68691Y-67803D01*
X-68691Y-67803D01*
X-68691Y-67035D01*
X-66547Y-67035D01*
X-66547Y-59342D01*
X-73059Y-59342D01*
X-73059Y-67035D01*
X-71315Y-67035D01*
X-71108Y-67535D01*
X-74035Y-70463D01*
X-91697Y-70463D01*
X-91746Y-69963D01*
X-91421Y-69898D01*
X-90992Y-69612D01*
X-82500Y-69612D01*
X-82500Y-69612D01*
X-82074Y-69527D01*
X-81714Y-69286D01*
X-80714Y-68286D01*
X-80714Y-68286D01*
X-80473Y-67926D01*
X-80388Y-67500D01*
X-80388Y-58878D01*
X-80388Y-58878D01*
X-80473Y-58452D01*
X-80714Y-58092D01*
X-81888Y-56917D01*
X-81888Y-36661D01*
X-81888Y-36661D01*
X-81973Y-36236D01*
X-82214Y-35875D01*
X-84258Y-33831D01*
X-84258Y-20153D01*
X-84218Y-20112D01*
X-60870Y-20112D01*
X-60870Y-20112D01*
X-60445Y-20027D01*
X-60084Y-19786D01*
X-54196Y-13898D01*
X-54196Y-13898D01*
X-53955Y-13537D01*
X-53870Y-13112D01*
X-53870Y-11573D01*
X-51410Y-9112D01*
X-50507Y-9112D01*
X-50079Y-9398D01*
X-49500Y-9513D01*
X-48921Y-9398D01*
X-48430Y-9070D01*
X-48102Y-8579D01*
X-47987Y-8000D01*
X-48102Y-7421D01*
X-48430Y-6930D01*
X-48921Y-6602D01*
X-49500Y-6487D01*
X-50079Y-6602D01*
X-50507Y-6888D01*
X-51870Y-6888D01*
X-51870Y-6888D01*
X-52296Y-6973D01*
X-52656Y-7214D01*
X-55768Y-10326D01*
X-56009Y-10686D01*
X-56094Y-11112D01*
X-56094Y-11112D01*
X-56094Y-12651D01*
X-61331Y-17888D01*
X-84678Y-17888D01*
X-84678Y-17888D01*
X-85104Y-17973D01*
X-85464Y-18214D01*
X-85465Y-18214D01*
X-86065Y-18814D01*
X-86421Y-18723D01*
X-86565Y-18623D01*
X-86565Y-14542D01*
X-84421Y-14542D01*
X-84421Y-7112D01*
X-84421Y-6849D01*
X-84020Y-6612D01*
X-75459Y-6612D01*
X-73059Y-9012D01*
X-73059Y-14542D01*
X-66547Y-14542D01*
X-66547Y-6849D01*
X-72077Y-6849D01*
X-73814Y-5112D01*
X-73607Y-4612D01*
X-69058Y-4612D01*
X-69058Y-4612D01*
X-68633Y-4527D01*
X-68272Y-4286D01*
X-66960Y-2974D01*
X-45790Y-2974D01*
X-39752Y-9012D01*
X-39752Y-14542D01*
X-33240Y-14542D01*
X-33240Y-6849D01*
X-38770Y-6849D01*
X-44543Y-1076D01*
X-44904Y-835D01*
X-45329Y-750D01*
X-45329Y-750D01*
X-48024Y-750D01*
X-48216Y-288D01*
X-45539Y2388D01*
X-43007Y2388D01*
X-42579Y2102D01*
X-42000Y1987D01*
X-41421Y2102D01*
X-40930Y2430D01*
X-40602Y2921D01*
X-40487Y3500D01*
X-40602Y4079D01*
X-40808Y4388D01*
X-40574Y4888D01*
X-36461Y4888D01*
X-34073Y2501D01*
X-33713Y2260D01*
X-33287Y2175D01*
X-33024Y2175D01*
X-32960Y2080D01*
X-32469Y1751D01*
X-31890Y1636D01*
X-31311Y1751D01*
X-30820Y2080D01*
X-30492Y2571D01*
X-30376Y3150D01*
X-30492Y3729D01*
X-30820Y4220D01*
X-31311Y4548D01*
X-31890Y4663D01*
X-32469Y4548D01*
X-32691Y4399D01*
X-32827Y4399D01*
X-34777Y6349D01*
X-34569Y6849D01*
X-33240Y6849D01*
X-33240Y14542D01*
X-39752Y14542D01*
X-39752Y7112D01*
X-47000Y7112D01*
X-47425Y7027D01*
X-47786Y6786D01*
X-51961Y2612D01*
X-99000Y2612D01*
X-99426Y2527D01*
X-99786Y2286D01*
X-99786Y2286D01*
X-104961Y-2888D01*
X-137746Y-2888D01*
X-137746Y6850D01*
X-135602Y6850D01*
X-135602Y14543D01*
X-137746Y14543D01*
X-137746Y37953D01*
X-135602Y37953D01*
X-135602Y45646D01*
X-137746Y45646D01*
X-137746Y59342D01*
X-135602Y59342D01*
X-135602Y67035D01*
X-135602Y67035D02*
G37*
G36*
X-117728Y-6850D02*
X-124240Y-6850D01*
X-124240Y-14543D01*
X-117728Y-14543D01*
X-117728Y-11821D01*
X-115216Y-11821D01*
X-114788Y-12107D01*
X-114209Y-12222D01*
X-113629Y-12107D01*
X-113139Y-11779D01*
X-112811Y-11288D01*
X-112695Y-10709D01*
X-112811Y-10130D01*
X-113139Y-9639D01*
X-113629Y-9311D01*
X-114209Y-9195D01*
X-114788Y-9311D01*
X-115216Y-9597D01*
X-117728Y-9597D01*
X-117728Y-6850D01*
X-117728Y-6850D02*
G37*
G36*
X-168909Y-6850D02*
X-175421Y-6850D01*
X-175421Y-14543D01*
X-168909Y-14543D01*
X-168909Y-11821D01*
X-166216Y-11821D01*
X-165788Y-12107D01*
X-165209Y-12222D01*
X-164629Y-12107D01*
X-164139Y-11779D01*
X-163811Y-11288D01*
X-163695Y-10709D01*
X-163811Y-10130D01*
X-164139Y-9639D01*
X-164629Y-9311D01*
X-165209Y-9195D01*
X-165788Y-9311D01*
X-166216Y-9597D01*
X-168909Y-9597D01*
X-168909Y-6850D01*
X-168909Y-6850D02*
G37*
G36*
X-15366Y67035D02*
X-21878Y67035D01*
X-21878Y59342D01*
X-20431Y59342D01*
X-20431Y45644D01*
X-21878Y45644D01*
X-21878Y37951D01*
X-20431Y37951D01*
X-20431Y14542D01*
X-21878Y14542D01*
X-21878Y6849D01*
X-19734Y6849D01*
X-19734Y-6849D01*
X-21878Y-6849D01*
X-21878Y-14129D01*
X-22358Y-14450D01*
X-22408Y-14450D01*
X-23250Y-13607D01*
X-23250Y-1407D01*
X-23335Y-981D01*
X-23576Y-620D01*
X-23576Y-620D01*
X-26447Y2251D01*
X-26447Y2536D01*
X-26161Y2964D01*
X-26046Y3543D01*
X-26161Y4122D01*
X-26489Y4613D01*
X-26980Y4941D01*
X-27559Y5057D01*
X-28138Y4941D01*
X-28629Y4613D01*
X-28957Y4122D01*
X-29072Y3543D01*
X-28957Y2964D01*
X-28671Y2536D01*
X-28671Y1790D01*
X-28671Y1790D01*
X-28586Y1365D01*
X-28345Y1004D01*
X-25474Y-1867D01*
X-25474Y-14068D01*
X-25474Y-14068D01*
X-25390Y-14493D01*
X-25148Y-14854D01*
X-23654Y-16348D01*
X-23654Y-16348D01*
X-23294Y-16589D01*
X-22868Y-16674D01*
X-22868Y-16674D01*
X-22251Y-16674D01*
X-21876Y-16924D01*
X-21297Y-17040D01*
X-20718Y-16924D01*
X-20227Y-16596D01*
X-19899Y-16105D01*
X-19784Y-15526D01*
X-19880Y-15042D01*
X-19614Y-14542D01*
X-15366Y-14542D01*
X-15366Y-13112D01*
X-14727Y-13112D01*
X-14687Y-13152D01*
X-14687Y-18017D01*
X-15187Y-18284D01*
X-15421Y-18127D01*
X-16000Y-18012D01*
X-16579Y-18127D01*
X-17007Y-18414D01*
X-29884Y-18414D01*
X-32084Y-16214D01*
X-32445Y-15973D01*
X-32870Y-15888D01*
X-32870Y-15888D01*
X-35870Y-15888D01*
X-35870Y-15888D01*
X-36296Y-15973D01*
X-36656Y-16214D01*
X-37150Y-16707D01*
X-41189Y-16707D01*
X-41614Y-16792D01*
X-41975Y-17033D01*
X-41975Y-17033D01*
X-43331Y-18388D01*
X-51363Y-18388D01*
X-51791Y-18102D01*
X-52370Y-17987D01*
X-52949Y-18102D01*
X-53440Y-18430D01*
X-53768Y-18921D01*
X-53883Y-19500D01*
X-53768Y-20079D01*
X-53440Y-20570D01*
X-52949Y-20898D01*
X-52370Y-21013D01*
X-51791Y-20898D01*
X-51363Y-20612D01*
X-42870Y-20612D01*
X-42870Y-20612D01*
X-42445Y-20527D01*
X-42084Y-20286D01*
X-40728Y-18931D01*
X-36689Y-18931D01*
X-36689Y-18931D01*
X-36263Y-18846D01*
X-35903Y-18605D01*
X-35410Y-18112D01*
X-33331Y-18112D01*
X-31131Y-20312D01*
X-31131Y-20312D01*
X-31017Y-20388D01*
X-31085Y-20746D01*
X-31168Y-20888D01*
X-37363Y-20888D01*
X-37791Y-20602D01*
X-38370Y-20487D01*
X-38949Y-20602D01*
X-39440Y-20930D01*
X-39768Y-21421D01*
X-39883Y-22000D01*
X-39858Y-22128D01*
X-40156Y-22427D01*
X-40397Y-22787D01*
X-40482Y-23213D01*
X-40482Y-23213D01*
X-40482Y-26000D01*
X-40482Y-26000D01*
X-40397Y-26425D01*
X-40156Y-26786D01*
X-39286Y-27656D01*
X-39286Y-27656D01*
X-38925Y-27897D01*
X-38500Y-27982D01*
X-26520Y-27982D01*
X-19734Y-34768D01*
X-19734Y-37951D01*
X-21878Y-37951D01*
X-21878Y-45644D01*
X-19734Y-45644D01*
X-19734Y-59342D01*
X-21878Y-59342D01*
X-21878Y-67035D01*
X-15366Y-67035D01*
X-15366Y-59342D01*
X-17510Y-59342D01*
X-17510Y-45644D01*
X-15366Y-45644D01*
X-15366Y-37951D01*
X-17510Y-37951D01*
X-17510Y-34307D01*
X-17510Y-34307D01*
X-17595Y-33882D01*
X-17836Y-33521D01*
X-17836Y-33521D01*
X-24843Y-26513D01*
X-24636Y-26013D01*
X-12653Y-26013D01*
X-12653Y-26013D01*
X-12074Y-25898D01*
X-11583Y-25570D01*
X-10999Y-24986D01*
X-10537Y-25177D01*
X-10537Y-25452D01*
X-10537Y-25452D01*
X-10452Y-25878D01*
X-10211Y-26239D01*
X-6112Y-30338D01*
X-6112Y-70918D01*
X-6398Y-71346D01*
X-6513Y-71925D01*
X-6398Y-72504D01*
X-6070Y-72995D01*
X-5579Y-73323D01*
X-5000Y-73439D01*
X-4421Y-73323D01*
X-3930Y-72995D01*
X-3602Y-72504D01*
X-3487Y-71925D01*
X-3602Y-71346D01*
X-3888Y-70918D01*
X-3888Y-68609D01*
X-3453Y-68453D01*
X-3388Y-68453D01*
X3453Y-68453D01*
X3453Y-61547D01*
X-3388Y-61547D01*
X-3453Y-61547D01*
X-3888Y-61391D01*
X-3888Y-56204D01*
X-3388Y-56104D01*
X-3103Y-56792D01*
X-2534Y-57534D01*
X-1792Y-58103D01*
X-927Y-58461D01*
X-500Y-58518D01*
X-500Y-55000D01*
X-500Y-51482D01*
X-927Y-51539D01*
X-1792Y-51897D01*
X-2534Y-52466D01*
X-3103Y-53208D01*
X-3388Y-53896D01*
X-3888Y-53796D01*
X-3888Y-45750D01*
X-3388Y-45717D01*
X-3364Y-45901D01*
X-3016Y-46741D01*
X-2462Y-47462D01*
X-1741Y-48016D01*
X-901Y-48364D01*
X0Y-48482D01*
X901Y-48364D01*
X1741Y-48016D01*
X2462Y-47462D01*
X3016Y-46741D01*
X3364Y-45901D01*
X3483Y-45000D01*
X3364Y-44099D01*
X3016Y-43259D01*
X2462Y-42538D01*
X1741Y-41984D01*
X901Y-41636D01*
X0Y-41517D01*
X-901Y-41636D01*
X-1741Y-41984D01*
X-2462Y-42538D01*
X-3016Y-43259D01*
X-3364Y-44099D01*
X-3388Y-44282D01*
X-3888Y-44250D01*
X-3888Y-35750D01*
X-3388Y-35717D01*
X-3364Y-35901D01*
X-3016Y-36741D01*
X-2462Y-37462D01*
X-1741Y-38016D01*
X-901Y-38364D01*
X0Y-38482D01*
X901Y-38364D01*
X1741Y-38016D01*
X2462Y-37462D01*
X3016Y-36741D01*
X3364Y-35901D01*
X3483Y-35000D01*
X3364Y-34099D01*
X3016Y-33259D01*
X2462Y-32537D01*
X1741Y-31984D01*
X901Y-31636D01*
X717Y-31612D01*
X750Y-31112D01*
X14539Y-31112D01*
X17888Y-34461D01*
X17888Y-39500D01*
X17888Y-39500D01*
X17973Y-39926D01*
X18214Y-40286D01*
X22714Y-44786D01*
X23075Y-45027D01*
X23500Y-45112D01*
X50575Y-45112D01*
X50575Y-45112D01*
X51000Y-45027D01*
X51361Y-44786D01*
X52786Y-43361D01*
X52786Y-43361D01*
X53027Y-43000D01*
X53112Y-42575D01*
X53112Y-42575D01*
X53112Y-37582D01*
X53398Y-37154D01*
X53513Y-36575D01*
X53398Y-35996D01*
X53070Y-35505D01*
X52579Y-35177D01*
X52000Y-35061D01*
X51421Y-35177D01*
X50930Y-35505D01*
X50602Y-35996D01*
X50487Y-36575D01*
X50602Y-37154D01*
X50888Y-37582D01*
X50888Y-42114D01*
X50114Y-42888D01*
X23961Y-42888D01*
X20112Y-39039D01*
X20112Y-34000D01*
X20112Y-34000D01*
X20027Y-33575D01*
X19786Y-33214D01*
X15786Y-29214D01*
X15426Y-28973D01*
X15000Y-28888D01*
X15000Y-28888D01*
X750Y-28888D01*
X717Y-28388D01*
X901Y-28364D01*
X1741Y-28016D01*
X2462Y-27463D01*
X3016Y-26741D01*
X3364Y-25901D01*
X3483Y-25000D01*
X3364Y-24099D01*
X3016Y-23259D01*
X2462Y-22537D01*
X1741Y-21984D01*
X1101Y-21719D01*
X1201Y-21219D01*
X6153Y-21219D01*
X6421Y-21398D01*
X7000Y-21513D01*
X7579Y-21398D01*
X8070Y-21070D01*
X8398Y-20579D01*
X8513Y-20000D01*
X8398Y-19421D01*
X8070Y-18930D01*
X7579Y-18602D01*
X7000Y-18487D01*
X6421Y-18602D01*
X5930Y-18930D01*
X5886Y-18995D01*
X-6432Y-18995D01*
X-7501Y-17926D01*
X-7602Y-17421D01*
X-7930Y-16930D01*
X-8421Y-16602D01*
X-9000Y-16487D01*
X-9487Y-16583D01*
X-9987Y-16319D01*
X-9987Y-12127D01*
X-9373Y-11513D01*
X-2094Y-11513D01*
X-1778Y-11958D01*
X-1780Y-12013D01*
X-2462Y-12538D01*
X-3016Y-13259D01*
X-3364Y-14099D01*
X-3483Y-15000D01*
X-3364Y-15901D01*
X-3016Y-16741D01*
X-2462Y-17462D01*
X-1741Y-18016D01*
X-901Y-18364D01*
X0Y-18483D01*
X901Y-18364D01*
X1741Y-18016D01*
X2462Y-17462D01*
X3016Y-16741D01*
X3364Y-15901D01*
X3483Y-15000D01*
X3364Y-14099D01*
X3016Y-13259D01*
X2462Y-12538D01*
X1780Y-12013D01*
X1778Y-11958D01*
X2094Y-11513D01*
X13363Y-11513D01*
X13363Y-11513D01*
X13942Y-11398D01*
X14433Y-11070D01*
X15071Y-10432D01*
X15500Y-10517D01*
X16463Y-10325D01*
X17280Y-9780D01*
X17825Y-8963D01*
X18017Y-8000D01*
X17825Y-7037D01*
X17280Y-6220D01*
X16463Y-5675D01*
X15500Y-5483D01*
X14537Y-5675D01*
X13720Y-6220D01*
X13175Y-7037D01*
X12983Y-8000D01*
X13002Y-8097D01*
X12659Y-8487D01*
X2094Y-8487D01*
X1778Y-8042D01*
X1780Y-7987D01*
X2462Y-7463D01*
X3016Y-6741D01*
X3364Y-5901D01*
X3483Y-5000D01*
X3364Y-4099D01*
X3016Y-3259D01*
X2462Y-2537D01*
X1741Y-1984D01*
X901Y-1636D01*
X0Y-1517D01*
X-901Y-1636D01*
X-1741Y-1984D01*
X-2462Y-2537D01*
X-3016Y-3259D01*
X-3364Y-4099D01*
X-3483Y-5000D01*
X-3364Y-5901D01*
X-3016Y-6741D01*
X-2462Y-7463D01*
X-1780Y-7987D01*
X-1778Y-8042D01*
X-2094Y-8487D01*
X-10000Y-8487D01*
X-10000Y-8487D01*
X-10579Y-8602D01*
X-11070Y-8930D01*
X-12570Y-10430D01*
X-12898Y-10921D01*
X-12926Y-11061D01*
X-13469Y-11226D01*
X-13480Y-11214D01*
X-13841Y-10973D01*
X-14267Y-10888D01*
X-14267Y-10888D01*
X-15366Y-10888D01*
X-15366Y-6849D01*
X-17510Y-6849D01*
X-17510Y6849D01*
X-15366Y6849D01*
X-15366Y14542D01*
X-18207Y14542D01*
X-18207Y37951D01*
X-15366Y37951D01*
X-15366Y45644D01*
X-18207Y45644D01*
X-18207Y59342D01*
X-15366Y59342D01*
X-15366Y67035D01*
X-15366Y67035D02*
G37*
G36*
X72862Y-12138D02*
X67138Y-12138D01*
X67138Y-17862D01*
X72862Y-17862D01*
X72862Y-12138D01*
X72862Y-12138D02*
G37*
G36*
X70500Y-19952D02*
X70500Y-22374D01*
X72922Y-22374D01*
X72886Y-22101D01*
X72588Y-21380D01*
X72113Y-20761D01*
X71494Y-20287D01*
X70773Y-19988D01*
X70500Y-19952D01*
X70500Y-19952D02*
G37*
G36*
X69500Y-19952D02*
X69227Y-19988D01*
X68506Y-20287D01*
X67887Y-20761D01*
X67413Y-21380D01*
X67114Y-22101D01*
X67078Y-22374D01*
X69500Y-22374D01*
X69500Y-19952D01*
X69500Y-19952D02*
G37*
G36*
X72922Y-23374D02*
X70500Y-23374D01*
X70500Y-25796D01*
X70773Y-25760D01*
X71494Y-25462D01*
X72113Y-24987D01*
X72588Y-24368D01*
X72886Y-23647D01*
X72922Y-23374D01*
X72922Y-23374D02*
G37*
G36*
X69500Y-23374D02*
X67078Y-23374D01*
X67114Y-23647D01*
X67413Y-24368D01*
X67887Y-24987D01*
X68506Y-25462D01*
X69227Y-25760D01*
X69500Y-25796D01*
X69500Y-23374D01*
X69500Y-23374D02*
G37*
G36*
X10000Y-21716D02*
X9150Y-21828D01*
X8358Y-22156D01*
X7678Y-22678D01*
X7156Y-23358D01*
X6828Y-24150D01*
X6716Y-25000D01*
X6828Y-25850D01*
X7156Y-26642D01*
X7678Y-27322D01*
X8358Y-27844D01*
X9150Y-28172D01*
X10000Y-28284D01*
X10850Y-28172D01*
X11642Y-27844D01*
X12322Y-27322D01*
X12844Y-26642D01*
X13172Y-25850D01*
X13284Y-25000D01*
X13172Y-24150D01*
X12844Y-23358D01*
X12322Y-22678D01*
X11642Y-22156D01*
X10850Y-21828D01*
X10000Y-21716D01*
X10000Y-21716D02*
G37*
G36*
X-98943Y-31216D02*
X-99793Y-31328D01*
X-100585Y-31656D01*
X-101266Y-32178D01*
X-101787Y-32858D01*
X-102115Y-33650D01*
X-102227Y-34500D01*
X-102115Y-35350D01*
X-101787Y-36142D01*
X-101266Y-36822D01*
X-100585Y-37344D01*
X-99793Y-37672D01*
X-98943Y-37784D01*
X-98093Y-37672D01*
X-97301Y-37344D01*
X-96621Y-36822D01*
X-96099Y-36142D01*
X-95771Y-35350D01*
X-95660Y-34500D01*
X-95771Y-33650D01*
X-96099Y-32858D01*
X-96621Y-32178D01*
X-97301Y-31656D01*
X-98093Y-31328D01*
X-98943Y-31216D01*
X-98943Y-31216D02*
G37*
G36*
X10000Y-31716D02*
X9150Y-31828D01*
X8358Y-32156D01*
X7678Y-32678D01*
X7156Y-33358D01*
X6828Y-34150D01*
X6716Y-35000D01*
X6828Y-35850D01*
X7156Y-36642D01*
X7678Y-37322D01*
X8358Y-37844D01*
X9150Y-38172D01*
X10000Y-38284D01*
X10850Y-38172D01*
X11642Y-37844D01*
X12322Y-37322D01*
X12844Y-36642D01*
X13172Y-35850D01*
X13284Y-35000D01*
X13172Y-34150D01*
X12844Y-33358D01*
X12322Y-32678D01*
X11642Y-32156D01*
X10850Y-31828D01*
X10000Y-31716D01*
X10000Y-31716D02*
G37*
G36*
X-33240Y-37951D02*
X-39752Y-37951D01*
X-39752Y-45644D01*
X-33240Y-45644D01*
X-33240Y-37951D01*
X-33240Y-37951D02*
G37*
G36*
X-66547Y-37951D02*
X-73059Y-37951D01*
X-73059Y-45644D01*
X-66547Y-45644D01*
X-66547Y-37951D01*
X-66547Y-37951D02*
G37*
G36*
X-117728Y-37953D02*
X-124240Y-37953D01*
X-124240Y-45646D01*
X-117728Y-45646D01*
X-117728Y-37953D01*
X-117728Y-37953D02*
G37*
G36*
X-168909Y-37953D02*
X-175421Y-37953D01*
X-175421Y-45646D01*
X-168909Y-45646D01*
X-168909Y-37953D01*
X-168909Y-37953D02*
G37*
G36*
X10000Y-41716D02*
X9150Y-41828D01*
X8358Y-42156D01*
X7678Y-42678D01*
X7156Y-43358D01*
X6828Y-44150D01*
X6716Y-45000D01*
X6828Y-45850D01*
X7156Y-46642D01*
X7678Y-47322D01*
X8358Y-47844D01*
X9150Y-48172D01*
X10000Y-48284D01*
X10850Y-48172D01*
X11642Y-47844D01*
X12322Y-47322D01*
X12844Y-46642D01*
X13172Y-45850D01*
X13284Y-45000D01*
X13172Y-44150D01*
X12844Y-43358D01*
X12322Y-42678D01*
X11642Y-42156D01*
X10850Y-41828D01*
X10000Y-41716D01*
X10000Y-41716D02*
G37*
G36*
X72569Y-49164D02*
X70106Y-49164D01*
X70106Y-51626D01*
X72569Y-51626D01*
X72569Y-49164D01*
X72569Y-49164D02*
G37*
G36*
X69106Y-49164D02*
X66644Y-49164D01*
X66644Y-51626D01*
X69106Y-51626D01*
X69106Y-49164D01*
X69106Y-49164D02*
G37*
G36*
X500Y-51482D02*
X500Y-54500D01*
X3518Y-54500D01*
X3461Y-54073D01*
X3103Y-53208D01*
X2534Y-52466D01*
X1792Y-51897D01*
X927Y-51539D01*
X500Y-51482D01*
X500Y-51482D02*
G37*
G36*
X72569Y-52626D02*
X70106Y-52626D01*
X70106Y-55088D01*
X72569Y-55088D01*
X72569Y-52626D01*
X72569Y-52626D02*
G37*
G36*
X69106Y-52626D02*
X66644Y-52626D01*
X66644Y-55088D01*
X69106Y-55088D01*
X69106Y-52626D01*
X69106Y-52626D02*
G37*
G36*
X3518Y-55500D02*
X500Y-55500D01*
X500Y-58518D01*
X927Y-58461D01*
X1792Y-58103D01*
X2534Y-57534D01*
X3103Y-56792D01*
X3461Y-55927D01*
X3518Y-55500D01*
X3518Y-55500D02*
G37*
G36*
X-117728Y-59342D02*
X-124240Y-59342D01*
X-124240Y-62455D01*
X-124740Y-62723D01*
X-124921Y-62602D01*
X-125500Y-62487D01*
X-126079Y-62602D01*
X-126570Y-62930D01*
X-126898Y-63421D01*
X-127013Y-64000D01*
X-126898Y-64579D01*
X-126570Y-65070D01*
X-126079Y-65398D01*
X-125500Y-65513D01*
X-124921Y-65398D01*
X-124740Y-65277D01*
X-124240Y-65545D01*
X-124240Y-67035D01*
X-117728Y-67035D01*
X-117728Y-59342D01*
X-117728Y-59342D02*
G37*
G36*
X69606Y-57113D02*
X68859Y-57212D01*
X68163Y-57500D01*
X67565Y-57959D01*
X67106Y-58557D01*
X66818Y-59253D01*
X66719Y-60000D01*
X66818Y-60747D01*
X67106Y-61444D01*
X67565Y-62041D01*
X68163Y-62500D01*
X68859Y-62788D01*
X69606Y-62887D01*
X70354Y-62788D01*
X71050Y-62500D01*
X71648Y-62041D01*
X72106Y-61444D01*
X72395Y-60747D01*
X72493Y-60000D01*
X72395Y-59253D01*
X72106Y-58557D01*
X71648Y-57959D01*
X71050Y-57500D01*
X70354Y-57212D01*
X69606Y-57113D01*
X69606Y-57113D02*
G37*
G36*
X36000Y-47487D02*
X35421Y-47602D01*
X34930Y-47930D01*
X34602Y-48421D01*
X34487Y-49000D01*
X34487Y-57603D01*
X34358Y-57656D01*
X33678Y-58178D01*
X33156Y-58858D01*
X32828Y-59650D01*
X32716Y-60500D01*
X32828Y-61350D01*
X33156Y-62142D01*
X33678Y-62822D01*
X34358Y-63344D01*
X35150Y-63672D01*
X36000Y-63784D01*
X36850Y-63672D01*
X37642Y-63344D01*
X38322Y-62822D01*
X38844Y-62142D01*
X39172Y-61350D01*
X39284Y-60500D01*
X39172Y-59650D01*
X38844Y-58858D01*
X38322Y-58178D01*
X37642Y-57656D01*
X37513Y-57603D01*
X37513Y-49000D01*
X37398Y-48421D01*
X37070Y-47930D01*
X36579Y-47602D01*
X36000Y-47487D01*
X36000Y-47487D02*
G37*
G36*
X-168909Y-59342D02*
X-175421Y-59342D01*
X-175421Y-67035D01*
X-168909Y-67035D01*
X-168909Y-64307D01*
X-167812Y-64307D01*
X-167384Y-64593D01*
X-166805Y-64709D01*
X-166226Y-64593D01*
X-165735Y-64265D01*
X-165407Y-63774D01*
X-165291Y-63195D01*
X-165407Y-62616D01*
X-165735Y-62125D01*
X-166226Y-61797D01*
X-166805Y-61682D01*
X-167384Y-61797D01*
X-167812Y-62083D01*
X-168909Y-62083D01*
X-168909Y-59342D01*
X-168909Y-59342D02*
G37*
G36*
X46500Y-64613D02*
X45753Y-64711D01*
X45057Y-65000D01*
X44459Y-65459D01*
X44000Y-66057D01*
X43712Y-66753D01*
X43613Y-67500D01*
X43712Y-68247D01*
X44000Y-68943D01*
X44459Y-69541D01*
X45057Y-70000D01*
X45753Y-70288D01*
X46500Y-70387D01*
X47247Y-70288D01*
X47943Y-70000D01*
X48541Y-69541D01*
X49000Y-68943D01*
X49288Y-68247D01*
X49387Y-67500D01*
X49288Y-66753D01*
X49000Y-66057D01*
X48541Y-65459D01*
X47943Y-65000D01*
X47247Y-64711D01*
X46500Y-64613D01*
X46500Y-64613D02*
G37*
G36*
X69606Y-64987D02*
X68859Y-65086D01*
X68163Y-65374D01*
X67565Y-65833D01*
X67106Y-66431D01*
X66818Y-67127D01*
X66719Y-67874D01*
X66818Y-68621D01*
X67106Y-69318D01*
X67565Y-69915D01*
X68163Y-70374D01*
X68859Y-70662D01*
X69606Y-70761D01*
X70354Y-70662D01*
X71050Y-70374D01*
X71648Y-69915D01*
X72106Y-69318D01*
X72395Y-68621D01*
X72493Y-67874D01*
X72395Y-67127D01*
X72106Y-66431D01*
X71648Y-65833D01*
X71050Y-65374D01*
X70354Y-65086D01*
X69606Y-64987D01*
X69606Y-64987D02*
G37*
G36*
X36849Y-67637D02*
X36270Y-67752D01*
X35779Y-68081D01*
X35451Y-68572D01*
X35336Y-69151D01*
X35451Y-69730D01*
X35779Y-70221D01*
X36270Y-70549D01*
X36849Y-70664D01*
X37429Y-70549D01*
X37857Y-70263D01*
X41190Y-70263D01*
X50501Y-79574D01*
X50602Y-80079D01*
X50930Y-80570D01*
X51421Y-80898D01*
X52000Y-81013D01*
X52579Y-80898D01*
X53070Y-80570D01*
X53398Y-80079D01*
X53513Y-79500D01*
X53398Y-78921D01*
X53070Y-78430D01*
X52579Y-78102D01*
X52074Y-78001D01*
X42437Y-68364D01*
X42076Y-68123D01*
X41651Y-68039D01*
X41651Y-68039D01*
X37857Y-68039D01*
X37429Y-67752D01*
X36849Y-67637D01*
X36849Y-67637D02*
G37*
G36*
X-28000Y-63487D02*
X-28579Y-63602D01*
X-29070Y-63930D01*
X-29398Y-64421D01*
X-29513Y-65000D01*
X-29398Y-65579D01*
X-29112Y-66008D01*
X-29112Y-78492D01*
X-29398Y-78921D01*
X-29513Y-79500D01*
X-29398Y-80079D01*
X-29070Y-80570D01*
X-28594Y-80888D01*
X-28585Y-80929D01*
X-28677Y-81388D01*
X-42539Y-81388D01*
X-45488Y-78439D01*
X-45849Y-78198D01*
X-46275Y-78114D01*
X-46275Y-78114D01*
X-47357Y-78114D01*
X-47430Y-78005D01*
X-47921Y-77677D01*
X-48500Y-77561D01*
X-49079Y-77677D01*
X-49570Y-78005D01*
X-49898Y-78496D01*
X-50013Y-79075D01*
X-49898Y-79654D01*
X-49570Y-80145D01*
X-49079Y-80473D01*
X-48500Y-80588D01*
X-47921Y-80473D01*
X-47718Y-80337D01*
X-46735Y-80337D01*
X-43786Y-83286D01*
X-43426Y-83527D01*
X-43000Y-83612D01*
X-43000Y-83612D01*
X-23000Y-83612D01*
X-23000Y-83612D01*
X-22575Y-83527D01*
X-22214Y-83286D01*
X-18539Y-79612D01*
X23539Y-79612D01*
X26388Y-82461D01*
X26388Y-90000D01*
X26388Y-90000D01*
X26473Y-90425D01*
X26714Y-90786D01*
X32214Y-96286D01*
X32214Y-96286D01*
X32574Y-96527D01*
X33000Y-96612D01*
X50169Y-96612D01*
X50169Y-96612D01*
X50595Y-96527D01*
X50955Y-96286D01*
X53334Y-93907D01*
X54055Y-94051D01*
X54988Y-93865D01*
X55778Y-93337D01*
X56297Y-92560D01*
X56381Y-92547D01*
X56729Y-92547D01*
X56813Y-92560D01*
X57332Y-93337D01*
X58123Y-93865D01*
X59055Y-94051D01*
X59988Y-93865D01*
X60778Y-93337D01*
X61306Y-92547D01*
X61492Y-91614D01*
X61306Y-90682D01*
X60778Y-89891D01*
X60198Y-89504D01*
X60350Y-89004D01*
X60975Y-89004D01*
X61460Y-89113D01*
X61512Y-89476D01*
X61553Y-89785D01*
X61812Y-90409D01*
X62223Y-90946D01*
X62760Y-91358D01*
X63385Y-91617D01*
X63555Y-91639D01*
X63555Y-89114D01*
X63555Y-86589D01*
X63385Y-86612D01*
X62760Y-86871D01*
X62223Y-87282D01*
X61945Y-87645D01*
X61445Y-87475D01*
X61445Y-84224D01*
X56665Y-84224D01*
X56665Y-85139D01*
X56165Y-85291D01*
X55850Y-84819D01*
X55027Y-84269D01*
X54555Y-84175D01*
X54555Y-86614D01*
X53555Y-86614D01*
X53555Y-84175D01*
X53084Y-84269D01*
X52260Y-84819D01*
X51834Y-85456D01*
X51276Y-85456D01*
X50850Y-84819D01*
X50027Y-84269D01*
X49555Y-84175D01*
X49555Y-86614D01*
X49055Y-86614D01*
X49055Y-87114D01*
X46616Y-87114D01*
X46710Y-87586D01*
X47260Y-88409D01*
X47989Y-88897D01*
X48018Y-88998D01*
X48029Y-89251D01*
X47991Y-89451D01*
X47332Y-89891D01*
X46813Y-90668D01*
X46729Y-90682D01*
X46381Y-90682D01*
X46297Y-90668D01*
X45778Y-89891D01*
X44988Y-89363D01*
X44055Y-89178D01*
X43123Y-89363D01*
X42332Y-89891D01*
X41813Y-90668D01*
X41729Y-90682D01*
X41381Y-90682D01*
X41297Y-90668D01*
X40778Y-89891D01*
X40119Y-89451D01*
X40081Y-89251D01*
X40092Y-88998D01*
X40121Y-88897D01*
X40850Y-88409D01*
X41400Y-87586D01*
X41494Y-87114D01*
X39055Y-87114D01*
X36616Y-87114D01*
X36647Y-87268D01*
X36710Y-87586D01*
X36281Y-87795D01*
X35887Y-87282D01*
X35350Y-86871D01*
X34726Y-86612D01*
X34555Y-86589D01*
X34555Y-88614D01*
X36580Y-88614D01*
X36557Y-88444D01*
X36355Y-87954D01*
X36798Y-87717D01*
X36975Y-87983D01*
X37260Y-88409D01*
X37989Y-88897D01*
X38018Y-88998D01*
X38029Y-89251D01*
X37991Y-89451D01*
X37332Y-89891D01*
X36804Y-90682D01*
X36619Y-91614D01*
X36804Y-92547D01*
X37332Y-93337D01*
X38123Y-93865D01*
X38237Y-93888D01*
X38188Y-94388D01*
X33461Y-94388D01*
X28612Y-89539D01*
X28612Y-82000D01*
X28612Y-82000D01*
X28527Y-81574D01*
X28286Y-81214D01*
X28286Y-81214D01*
X24786Y-77714D01*
X24426Y-77473D01*
X24000Y-77388D01*
X24000Y-77388D01*
X-19000Y-77388D01*
X-19425Y-77473D01*
X-19786Y-77714D01*
X-19786Y-77714D01*
X-23461Y-81388D01*
X-27323Y-81388D01*
X-27415Y-80929D01*
X-27406Y-80888D01*
X-26930Y-80570D01*
X-26602Y-80079D01*
X-26487Y-79500D01*
X-26602Y-78921D01*
X-26888Y-78492D01*
X-26888Y-66008D01*
X-26602Y-65579D01*
X-26487Y-65000D01*
X-26602Y-64421D01*
X-26930Y-63930D01*
X-27421Y-63602D01*
X-28000Y-63487D01*
X-28000Y-63487D02*
G37*
G36*
X39555Y-84175D02*
X39555Y-86114D01*
X41494Y-86114D01*
X41400Y-85643D01*
X40850Y-84819D01*
X40027Y-84269D01*
X39555Y-84175D01*
X39555Y-84175D02*
G37*
G36*
X48555Y-84175D02*
X48084Y-84269D01*
X47260Y-84819D01*
X46710Y-85643D01*
X46616Y-86114D01*
X48555Y-86114D01*
X48555Y-84175D01*
X48555Y-84175D02*
G37*
G36*
X38555Y-84175D02*
X38084Y-84269D01*
X37260Y-84819D01*
X36710Y-85643D01*
X36616Y-86114D01*
X38555Y-86114D01*
X38555Y-84175D01*
X38555Y-84175D02*
G37*
G36*
X64555Y-86589D02*
X64555Y-88614D01*
X66580Y-88614D01*
X66558Y-88444D01*
X66299Y-87819D01*
X65887Y-87282D01*
X65351Y-86871D01*
X64726Y-86612D01*
X64555Y-86589D01*
X64555Y-86589D02*
G37*
G36*
X33555Y-86589D02*
X33385Y-86612D01*
X32760Y-86871D01*
X32223Y-87282D01*
X31811Y-87819D01*
X31553Y-88444D01*
X31530Y-88614D01*
X33555Y-88614D01*
X33555Y-86589D01*
X33555Y-86589D02*
G37*
G36*
X36580Y-89614D02*
X34555Y-89614D01*
X34555Y-91639D01*
X34726Y-91617D01*
X35350Y-91358D01*
X35887Y-90946D01*
X36299Y-90409D01*
X36557Y-89785D01*
X36580Y-89614D01*
X36580Y-89614D02*
G37*
G36*
X66580Y-89614D02*
X64555Y-89614D01*
X64555Y-91639D01*
X64726Y-91617D01*
X65351Y-91358D01*
X65887Y-90946D01*
X66299Y-90409D01*
X66558Y-89785D01*
X66580Y-89614D01*
X66580Y-89614D02*
G37*
G36*
X33555Y-89614D02*
X31530Y-89614D01*
X31553Y-89785D01*
X31811Y-90409D01*
X32223Y-90946D01*
X32760Y-91358D01*
X33385Y-91617D01*
X33555Y-91639D01*
X33555Y-89614D01*
X33555Y-89614D02*
G37*
G36*
X-15366Y-90445D02*
X-21878Y-90445D01*
X-21878Y-98138D01*
X-15366Y-98138D01*
X-15366Y-90445D01*
X-15366Y-90445D02*
G37*
G36*
X-33240Y-90445D02*
X-39752Y-90445D01*
X-39752Y-98138D01*
X-33240Y-98138D01*
X-33240Y-90445D01*
X-33240Y-90445D02*
G37*
G36*
X-66547Y-90445D02*
X-73059Y-90445D01*
X-73059Y-98138D01*
X-66547Y-98138D01*
X-66547Y-90445D01*
X-66547Y-90445D02*
G37*
G36*
X-84421Y-90445D02*
X-90933Y-90445D01*
X-90933Y-98138D01*
X-84421Y-98138D01*
X-84421Y-90445D01*
X-84421Y-90445D02*
G37*
G36*
X-117728Y-90445D02*
X-124240Y-90445D01*
X-124240Y-98138D01*
X-117728Y-98138D01*
X-117728Y-90445D01*
X-117728Y-90445D02*
G37*
G36*
X-135602Y-90445D02*
X-142114Y-90445D01*
X-142114Y-98138D01*
X-135602Y-98138D01*
X-135602Y-90445D01*
X-135602Y-90445D02*
G37*
G36*
X-168909Y-90445D02*
X-175421Y-90445D01*
X-175421Y-98138D01*
X-168909Y-98138D01*
X-168909Y-90445D01*
X-168909Y-90445D02*
G37*
G36*
X-186784Y-90445D02*
X-193295Y-90445D01*
X-193295Y-98138D01*
X-186784Y-98138D01*
X-186784Y-90445D01*
X-186784Y-90445D02*
G37*
%LPD*%
D69*
X-30345Y-19526D02*
X-16000Y-19526D01*
X-93500Y72500D02*
X-84123Y72500D01*
X-84500Y70500D02*
X-79718Y65718D01*
X-79718Y52841D02*
X-79718Y65718D01*
X-92808Y70500D02*
X-84500Y70500D01*
X-84123Y72500D02*
X-77681Y66058D01*
X-77681Y53181D02*
X-77681Y66058D01*
X-93500Y40500D02*
X-93500Y69808D01*
X-92808Y70500D01*
X-97000Y69000D02*
X-93500Y72500D01*
X-97000Y46000D02*
X-97000Y69000D01*
X-82500Y-68500D02*
X-81500Y-67500D01*
X-83000Y-57378D02*
X-81500Y-58878D01*
X-81500Y-67500D02*
X-81500Y-58878D01*
X-91914Y-68500D02*
X-82500Y-68500D01*
X-85370Y-34291D02*
X-83000Y-36661D01*
X-83000Y-57378D02*
X-83000Y-36661D01*
X-21333Y-15562D02*
X-21297Y-15526D01*
X-22868Y-15562D02*
X-21333Y-15562D01*
X-24362Y-14068D02*
X-24362Y-1407D01*
X-24362Y-14068D02*
X-22868Y-15562D01*
X-98914Y-6500D02*
X-97914Y-5500D01*
X-90925Y-3500D02*
X-69058Y-3500D01*
X-99000Y-6500D02*
X-98914Y-6500D01*
X-74999Y-5500D02*
X-69803Y-10695D01*
X-91000Y-3425D02*
X-90925Y-3500D01*
X-97914Y-5500D02*
X-74999Y-5500D01*
X-69058Y-3500D02*
X-67420Y-1862D01*
X-94500Y5500D02*
X-86988Y5500D01*
X-97500Y32000D02*
X-97500Y36500D01*
X-93500Y40500D01*
X-49819Y47819D02*
X-43500Y41500D01*
X-43500Y12500D02*
X-43500Y41500D01*
X-74000Y49500D02*
X-48000Y49500D01*
X-40298Y41798D02*
X-36496Y41798D01*
X-48000Y49500D02*
X-40298Y41798D01*
X-74696Y47819D02*
X-49819Y47819D01*
X-79718Y52841D02*
X-74696Y47819D01*
X-77681Y53181D02*
X-74000Y49500D01*
X50575Y-44000D02*
X52000Y-42575D01*
X23500Y-44000D02*
X50575Y-44000D01*
X19000Y-39500D02*
X23500Y-44000D01*
X52000Y-42575D02*
X52000Y-36575D01*
X-2500Y-30000D02*
X15000Y-30000D01*
X19000Y-34000D01*
X19000Y-39500D02*
X19000Y-34000D01*
X-10000Y45000D02*
X0Y45000D01*
X-6982Y-25518D02*
X-2500Y-30000D01*
X-6893Y-20107D02*
X6893Y-20107D01*
X7000Y-20000D01*
X-26500Y39129D02*
X-26283Y38912D01*
X-26283Y35783D02*
X-26283Y38912D01*
X-26500Y39129D02*
X-26500Y67308D01*
X-92925Y-71575D02*
X-73575Y-71575D01*
X-69803Y-67803D01*
X-95500Y-69000D02*
X-92925Y-71575D01*
X-102000Y-68500D02*
X-96500Y-74000D01*
X-63500Y-74000D02*
X-58500Y-69000D01*
X-96500Y-74000D02*
X-63500Y-74000D01*
X-102000Y-68500D02*
X-102000Y-60500D01*
X-97316Y-181D02*
X-49681Y-181D01*
X-67420Y-1862D02*
X-45329Y-1862D01*
X-51500Y1500D02*
X-47000Y6000D01*
X-49681Y-181D02*
X-46000Y3500D01*
X-99000Y1500D02*
X-51500Y1500D01*
X-104670Y-7535D02*
X-97316Y-181D01*
X-45329Y-1862D02*
X-38858Y-8333D01*
X-104500Y-4000D02*
X-99000Y1500D01*
X-86988Y5500D02*
X-53000Y5500D01*
X-86921Y5567D02*
X-86921Y9940D01*
X-121795Y-64000D02*
X-120984Y-63189D01*
X-125500Y-64000D02*
X-121795Y-64000D01*
X-172165Y-63189D02*
X-172159Y-63195D01*
X-166805Y-63195D01*
X-58500Y-69000D02*
X-42307Y-69000D01*
X-38858Y-65551D01*
X-38268Y-65551D01*
X-36496Y-63779D01*
X-36496Y-63189D01*
X-176228Y-77000D02*
X-61000Y-77000D01*
X-55500Y-71500D01*
X-187677Y-65551D02*
X-176228Y-77000D01*
X-38858Y-8333D02*
X-38268Y-8333D01*
X-36496Y-10105D01*
X-36496Y-10695D02*
X-36496Y-10105D01*
X-89123Y-8659D02*
X-87677Y-10105D01*
X-94500Y-8659D02*
X-89123Y-8659D01*
X-138858Y-4000D02*
X-104500Y-4000D01*
X-86988Y5500D02*
X-86921Y5567D01*
X-85370Y-19692D02*
X-84678Y-19000D01*
X-60870Y-19000D01*
X-85370Y-34291D02*
X-85370Y-19692D01*
X-60870Y-19000D02*
X-54982Y-13112D01*
X-70815Y42809D02*
X-69803Y41798D01*
X-81589Y42809D02*
X-70815Y42809D01*
X-104670Y-20825D02*
X-104670Y-7535D01*
X-69803Y-67803D02*
X-69803Y-63189D01*
X-82500Y75886D02*
X-82500Y83500D01*
X-27192Y68000D02*
X-26500Y67308D01*
X-82500Y75886D02*
X-74614Y68000D01*
X-27192Y68000D01*
X-36509Y94305D02*
X-36496Y94291D01*
X-46695Y94305D02*
X-36509Y94305D01*
X-69816Y94305D02*
X-69803Y94291D01*
X-75195Y94305D02*
X-69816Y94305D01*
X-120984Y-10709D02*
X-114209Y-10709D01*
X-120484Y41791D02*
X-113709Y41791D01*
X-171984Y-10709D02*
X-165209Y-10709D01*
X-171984Y41791D02*
X-165209Y41791D01*
X-171984Y94291D02*
X-165209Y94291D01*
X-120984Y94291D02*
X-114209Y94291D01*
X-55500Y-71500D02*
X-40500Y-71500D01*
X-46275Y-79225D02*
X-43000Y-82500D01*
X-48500Y-79075D02*
X-48349Y-79225D01*
X-46275Y-79225D01*
X-43000Y-82500D02*
X-23000Y-82500D01*
X-9425Y-25452D02*
X-9425Y-21638D01*
X-9000Y-21213D01*
X-9000Y-21000D01*
X-38370Y-22000D02*
X-14500Y-22000D01*
X-13575Y-21075D02*
X-13575Y-12692D01*
X-14500Y-22000D02*
X-13575Y-21075D01*
X-9425Y-25452D02*
X-5000Y-29877D01*
X-18622Y-12000D02*
X-14267Y-12000D01*
X-13575Y-12692D01*
X-7000Y-24000D02*
X-6982Y-24018D01*
X-6982Y-25518D02*
X-6982Y-24018D01*
X-188268Y-65551D02*
X-187677Y-65551D01*
X-190039Y-63779D02*
X-188268Y-65551D01*
X-190039Y-63779D02*
X-190039Y-63189D01*
X-39370Y-26000D02*
X-38500Y-26870D01*
X-38370Y-22213D02*
X-38370Y-22000D01*
X-38500Y-26870D02*
X-26059Y-26870D01*
X-39370Y-26000D02*
X-39370Y-23213D01*
X-38370Y-22213D01*
X-36689Y-17819D02*
X-35870Y-17000D01*
X-42870Y-19500D02*
X-41189Y-17819D01*
X-36689Y-17819D01*
X-35870Y-17000D02*
X-32870Y-17000D01*
X-30345Y-19526D01*
X41651Y-69151D02*
X52000Y-79500D01*
X36849Y-69151D02*
X41651Y-69151D01*
X-5000Y-71925D02*
X-5000Y-29877D01*
X-9000Y-18000D02*
X-6893Y-20107D01*
X-18622Y-10695D02*
X-18622Y10695D01*
X-46000Y3500D02*
X-42000Y3500D01*
X-47000Y6000D02*
X-36000Y6000D01*
X-33287Y3287D01*
X-32027Y3287D02*
X-31890Y3150D01*
X-33287Y3287D02*
X-32027Y3287D01*
X-51870Y-8000D02*
X-49500Y-8000D01*
X-54982Y-11112D02*
X-51870Y-8000D01*
X-52370Y-19500D02*
X-42870Y-19500D01*
X-54982Y-13112D02*
X-54982Y-11112D01*
X-88000Y41798D02*
X-88000Y61682D01*
X-87677Y-41798D02*
X-87677Y-10695D01*
X-87677Y-63189D02*
X-87677Y-41798D01*
X-190039Y-10697D02*
X-190039Y10697D01*
X-190039Y-18118D02*
X-190039Y-10697D01*
X-189870Y-18500D02*
X-189870Y-18287D01*
X-189870Y-18713D02*
X-189870Y-18500D01*
X-190039Y-41799D02*
X-190039Y-18882D01*
X-190039Y-63189D02*
X-190039Y-41799D01*
X-26059Y-26870D02*
X-18622Y-34307D01*
X-190039Y-18118D02*
X-189870Y-18287D01*
X-190039Y-18882D02*
X-189870Y-18713D01*
X-138858Y-63189D02*
X-138858Y-41799D01*
X-138858Y-10697D02*
X-138858Y-4000D01*
X-138858Y-41799D02*
X-138858Y-10697D01*
X-190039Y10697D02*
X-190039Y41799D01*
X-190039Y63189D01*
X-23000Y-82500D02*
X-19000Y-78500D01*
X24000Y-78500D01*
X27500Y-82000D01*
X27500Y-90000D02*
X27500Y-82000D01*
X27500Y-90000D02*
X33000Y-95500D01*
X50169Y-95500D01*
X54055Y-91614D01*
X-28000Y-79500D02*
X-28000Y-65000D01*
X-87677Y10695D02*
X-86921Y9940D01*
X-138858Y-4000D02*
X-138858Y10697D01*
X-87677Y10695D02*
X-87677Y41798D01*
X82500Y6500D02*
X82500Y43500D01*
X60000Y45500D02*
X80500Y45500D01*
X82500Y43500D01*
X72000Y3500D02*
X79500Y3500D01*
X82500Y6500D01*
X54000Y35500D02*
X54000Y39500D01*
X60000Y45500D01*
X64874Y93374D02*
X66500Y95000D01*
X77862Y95000D01*
X52386Y93374D02*
X64874Y93374D01*
X-138858Y41799D02*
X-138858Y63189D01*
X-138858Y10697D02*
X-138858Y41799D01*
X48568Y89556D02*
X52386Y93374D01*
X48568Y87917D02*
X48568Y89556D01*
X48327Y87676D02*
X48568Y87917D01*
X-18622Y-63189D02*
X-18622Y-41798D01*
X-27559Y1790D02*
X-27559Y3543D01*
X-27559Y1790D02*
X-24362Y-1407D01*
X-18622Y-41798D02*
X-18622Y-34307D01*
X-19319Y42495D02*
X-19319Y62492D01*
X-19319Y42495D02*
X-18622Y41798D01*
X-19319Y62492D02*
X-18622Y63189D01*
X-19319Y11392D02*
X-19319Y41101D01*
X-19319Y11392D02*
X-18622Y10695D01*
X-19319Y41101D02*
X-18622Y41798D01*
D70*
X-11500Y-11500D02*
X-10000Y-10000D01*
X-34370Y-24500D02*
X-12653Y-24500D01*
X-11500Y-23347D02*
X-11500Y-11500D01*
X-12653Y-24500D02*
X-11500Y-23347D01*
X-36870Y-24500D02*
X-34370Y-24500D01*
X-10000Y-10000D02*
X13363Y-10000D01*
X36000Y-60500D02*
X36000Y-49000D01*
X13363Y-10000D02*
X15363Y-8000D01*
X15500Y-8000D01*
D71*
X13147Y68266D02*
X41025Y68266D01*
X-61036Y75000D02*
X9948Y75000D01*
X43979Y72830D02*
X47024Y75874D01*
X39931Y75282D02*
X40021Y75192D01*
X40021Y73734D02*
X40021Y75192D01*
X40021Y73734D02*
X40868Y72887D01*
X-60000Y72500D02*
X8913Y72500D01*
X39989Y70766D02*
X40868Y71644D01*
X43979Y71220D02*
X43979Y72830D01*
X40868Y71644D02*
X40868Y72887D01*
X-62425Y70075D02*
X-60000Y72500D01*
X41025Y68266D02*
X43979Y71220D01*
X-65518Y70518D02*
X-61036Y75000D01*
X9948Y75000D02*
X14182Y70766D01*
X8913Y72500D02*
X13147Y68266D01*
X14182Y70766D02*
X39989Y70766D01*
X41814Y80946D02*
X46886Y75874D01*
X41814Y80946D02*
X41814Y82182D01*
X41634Y82362D02*
X41814Y82182D01*
X41634Y82362D02*
X41634Y82864D01*
X44800Y86031D01*
X44800Y87496D01*
X44980Y87676D01*
D72*
X39000Y33000D02*
D03*
D73*
X39000Y23000D02*
D03*
X0Y-55000D02*
D03*
X0Y-45000D02*
D03*
X0Y-35000D02*
D03*
X0Y-25000D02*
D03*
X0Y-15000D02*
D03*
X0Y-5000D02*
D03*
X0Y5000D02*
D03*
X0Y15000D02*
D03*
X0Y25000D02*
D03*
X0Y35000D02*
D03*
X0Y45000D02*
D03*
X0Y55000D02*
D03*
X0Y65000D02*
D03*
D74*
X10000Y-35000D02*
D03*
X-10000Y5000D02*
D03*
X-10000Y65000D02*
D03*
X10000Y-25000D02*
D03*
X10000Y-45000D02*
D03*
X-10000Y25000D02*
D03*
X-10000Y35000D02*
D03*
X-10000Y55000D02*
D03*
X-10000Y45000D02*
D03*
X47000Y4000D02*
D03*
X36000Y-60500D02*
D03*
X-98943Y-34500D02*
D03*
X-53000Y23500D02*
D03*
X-62992Y55118D02*
D03*
X-43307Y55118D02*
D03*
D75*
X69606Y72874D02*
D03*
X70000Y-15000D02*
D03*
X69606Y-52126D02*
D03*
D76*
X69606Y65000D02*
D03*
X46500Y-67500D02*
D03*
X70000Y-22874D02*
D03*
X69606Y-67874D02*
D03*
X69606Y-60000D02*
D03*
X63800Y18600D02*
D03*
D77*
X31594Y82362D02*
D03*
X55020Y82362D02*
D03*
X55020Y87676D02*
D03*
X31594Y87676D02*
D03*
X38287Y82362D02*
D03*
X34941Y87676D02*
D03*
X38287Y87676D02*
D03*
X41634Y87676D02*
D03*
X44980Y87676D02*
D03*
X48327Y87676D02*
D03*
X51673Y87676D02*
D03*
X51673Y82362D02*
D03*
X48327Y82362D02*
D03*
X44980Y82362D02*
D03*
X41634Y82362D02*
D03*
X34941Y82362D02*
D03*
D78*
X26279Y86220D02*
D03*
X60335Y86220D02*
D03*
D79*
X26279Y99527D02*
D03*
X60335Y99527D02*
D03*
D80*
X59055Y-86614D02*
D03*
D81*
X54055Y-86614D02*
D03*
X49055Y-86614D02*
D03*
X39055Y-86614D02*
D03*
X39055Y-91614D02*
D03*
X44055Y-91614D02*
D03*
X49055Y-91614D02*
D03*
X54055Y-91614D02*
D03*
X59055Y-91614D02*
D03*
D82*
X34055Y-89114D02*
D03*
X64055Y-89114D02*
D03*
X15500Y-8000D02*
D03*
D83*
X0Y-65000D02*
D03*
D84*
X-16000Y-19526D02*
D03*
X-21297Y-15526D02*
D03*
X-66500Y-5500D02*
D03*
X-91000Y-3425D02*
D03*
X-94500Y5500D02*
D03*
X-97000Y46000D02*
D03*
X-99075Y57500D02*
D03*
X-97500Y32000D02*
D03*
X-36000Y32000D02*
D03*
X-81793Y56000D02*
D03*
X-48500Y42085D02*
D03*
X-35000Y50000D02*
D03*
X23000Y-49000D02*
D03*
X47000Y-49500D02*
D03*
X52000Y-36575D02*
D03*
X29000Y-37500D02*
D03*
X-10500Y12075D02*
D03*
X27500Y-18000D02*
D03*
X7000Y-20000D02*
D03*
X-30783Y19783D02*
D03*
X-26283Y35783D02*
D03*
X-29000Y40500D02*
D03*
X-5000Y30000D02*
D03*
X-92000Y-68500D02*
D03*
X-59000Y-3937D02*
D03*
X-53000Y5500D02*
D03*
X-82116Y8745D02*
D03*
X-125500Y-64000D02*
D03*
X-166805Y-63195D02*
D03*
X-102000Y-60500D02*
D03*
X-95500Y-69000D02*
D03*
X-99000Y-6500D02*
D03*
X-94500Y-8659D02*
D03*
X-79362Y-15500D02*
D03*
X-91000Y-16000D02*
D03*
X-81589Y42809D02*
D03*
X-104670Y-20825D02*
D03*
X-82500Y83500D02*
D03*
X-28575Y62902D02*
D03*
X-29500Y65925D02*
D03*
X-62425Y70075D02*
D03*
X-47500Y70075D02*
D03*
X-65518Y70518D02*
D03*
X-46695Y94305D02*
D03*
X-130000Y3000D02*
D03*
X-75195Y94305D02*
D03*
X-114209Y-10709D02*
D03*
X-113709Y41791D02*
D03*
X-165209Y-10709D02*
D03*
X-165209Y41791D02*
D03*
X-165209Y94291D02*
D03*
X-114209Y94291D02*
D03*
X-40500Y-71500D02*
D03*
X-48500Y-79075D02*
D03*
X-9000Y-21000D02*
D03*
X-7000Y-24000D02*
D03*
X-36870Y-24500D02*
D03*
X-38370Y-22000D02*
D03*
X36849Y-69151D02*
D03*
X-5000Y-71925D02*
D03*
X-9000Y-18000D02*
D03*
X-42000Y3500D02*
D03*
X-41500Y8500D02*
D03*
X-49500Y-8000D02*
D03*
X-52370Y-19500D02*
D03*
X-66370Y-28000D02*
D03*
X-81370Y37500D02*
D03*
X-81370Y49000D02*
D03*
X-81370Y19500D02*
D03*
X-81370Y29000D02*
D03*
X-110000Y3000D02*
D03*
X-34370Y-24500D02*
D03*
X-106693Y-24803D02*
D03*
X-79362Y-28000D02*
D03*
X-92000Y-26500D02*
D03*
X-163000Y78500D02*
D03*
X-169291Y55118D02*
D03*
X-165000Y38500D02*
D03*
X-165354Y19685D02*
D03*
X-180709Y-25197D02*
D03*
X-182370Y-52000D02*
D03*
X-166181Y-52500D02*
D03*
X-183071Y-80709D02*
D03*
X77862Y95000D02*
D03*
X55118Y21654D02*
D03*
X72835Y21654D02*
D03*
X76772Y23622D02*
D03*
X76772Y27559D02*
D03*
X76772Y31496D02*
D03*
X54000Y35500D02*
D03*
X71500Y35500D02*
D03*
X61500Y42000D02*
D03*
X62500Y51500D02*
D03*
X59500Y60000D02*
D03*
X69000Y80000D02*
D03*
X82000Y84000D02*
D03*
X47500Y-101500D02*
D03*
X23000Y-88000D02*
D03*
X8500Y-60500D02*
D03*
X36000Y-49000D02*
D03*
X-79862Y-38000D02*
D03*
X-75787Y-82677D02*
D03*
X-58000Y-82500D02*
D03*
X-98819Y-81102D02*
D03*
X-131890Y-80709D02*
D03*
X-76378Y-68504D02*
D03*
X-64500Y-67500D02*
D03*
X-92000Y-54000D02*
D03*
X-79134Y-53543D02*
D03*
X-115000Y-52500D02*
D03*
X-136500Y-52500D02*
D03*
X-65000Y-52500D02*
D03*
X-56500Y-49000D02*
D03*
X-64000Y-39500D02*
D03*
X-94882Y-39370D02*
D03*
X-59735Y-32885D02*
D03*
X-91339Y-30315D02*
D03*
X-129528Y-25197D02*
D03*
X-79362Y-22500D02*
D03*
X-98500Y-15500D02*
D03*
X-18110Y-86614D02*
D03*
X-28000Y-79500D02*
D03*
X-8000Y-65669D02*
D03*
X-28000Y-65000D02*
D03*
X-23862Y-61000D02*
D03*
X-30000Y-60500D02*
D03*
X-13362Y-60500D02*
D03*
X-38500Y-55500D02*
D03*
X-34362Y-55500D02*
D03*
X-11362Y-54000D02*
D03*
X-23862Y-41000D02*
D03*
X-10862Y-40500D02*
D03*
X-30500Y-32500D02*
D03*
X-24000Y-32500D02*
D03*
X-8500Y-5000D02*
D03*
X-30500Y-5000D02*
D03*
X-10862Y-1500D02*
D03*
X-65362Y10000D02*
D03*
X-43500Y12500D02*
D03*
X-65362Y16535D02*
D03*
X-93988Y19500D02*
D03*
X-129500Y24000D02*
D03*
X-65362Y24000D02*
D03*
X-93988Y28346D02*
D03*
X-65362Y36220D02*
D03*
X-108000Y24500D02*
D03*
X-131000Y53500D02*
D03*
X-90500Y56500D02*
D03*
X-130000Y76500D02*
D03*
X-22441Y-394D02*
D03*
X-15000Y20000D02*
D03*
X-31890Y3150D02*
D03*
X-27559Y3543D02*
D03*
X-27500Y11500D02*
D03*
X-7500Y17000D02*
D03*
X-21500Y20500D02*
D03*
X10000Y40000D02*
D03*
X-30000Y50000D02*
D03*
X-10000Y70000D02*
D03*
X10000Y45000D02*
D03*
X-18000Y84000D02*
D03*
X-30362Y84000D02*
D03*
X-42500Y84500D02*
D03*
X41000Y-24500D02*
D03*
X54000Y-47500D02*
D03*
X61500Y-32075D02*
D03*
X34000Y-24500D02*
D03*
X37500Y-24500D02*
D03*
X31000Y1000D02*
D03*
X51181Y9843D02*
D03*
X17000Y12000D02*
D03*
X45276Y13780D02*
D03*
X51181Y13780D02*
D03*
X82500Y-86500D02*
D03*
X52000Y-79500D02*
D03*
X56000Y-76500D02*
D03*
X70500Y-76500D02*
D03*
X55118Y-64961D02*
D03*
X61500Y-41075D02*
D03*
X69000Y-8000D02*
D03*
X72000Y3500D02*
D03*
X76772Y7874D02*
D03*
X76772Y11811D02*
D03*
X55118Y15748D02*
D03*
X72835Y15748D02*
D03*
X76772Y15748D02*
D03*
X59055Y17323D02*
D03*
X68504Y17323D02*
D03*
X76772Y19685D02*
D03*
X59055Y20079D02*
D03*
X68504Y20079D02*
D03*
X23500Y25500D02*
D03*
X7000Y33000D02*
D03*
X45276Y33465D02*
D03*
X49213Y33465D02*
D03*
X12000Y49000D02*
D03*
X36000Y49500D02*
D03*
X40000Y63000D02*
D03*
X47500Y63500D02*
D03*
X22000Y74000D02*
D03*
X39931Y75282D02*
D03*
X47024Y75874D02*
D03*
D85*
X-36496Y-41798D02*
D03*
X-18622Y-41798D02*
D03*
X-18622Y-10695D02*
D03*
X-36496Y-10695D02*
D03*
X-36496Y41798D02*
D03*
X-18622Y41798D02*
D03*
X-18622Y10695D02*
D03*
X-36496Y10695D02*
D03*
X-36496Y63189D02*
D03*
X-18622Y63189D02*
D03*
X-18622Y94291D02*
D03*
X-36496Y94291D02*
D03*
X-36496Y-63189D02*
D03*
X-18622Y-63189D02*
D03*
X-18622Y-94291D02*
D03*
X-36496Y-94291D02*
D03*
X-87677Y-94291D02*
D03*
X-69803Y-94291D02*
D03*
X-69803Y-63189D02*
D03*
X-87677Y-63189D02*
D03*
X-87677Y94291D02*
D03*
X-69803Y94291D02*
D03*
X-69803Y63189D02*
D03*
X-87677Y63189D02*
D03*
X-87677Y10695D02*
D03*
X-69803Y10695D02*
D03*
X-69803Y41798D02*
D03*
X-87677Y41798D02*
D03*
X-87677Y-10695D02*
D03*
X-69803Y-10695D02*
D03*
X-69803Y-41798D02*
D03*
X-87677Y-41798D02*
D03*
X-138858Y-41799D02*
D03*
X-120984Y-41799D02*
D03*
X-120984Y-10697D02*
D03*
X-138858Y-10697D02*
D03*
X-138858Y-63189D02*
D03*
X-120984Y-63189D02*
D03*
X-120984Y-94291D02*
D03*
X-138858Y-94291D02*
D03*
X-138858Y10697D02*
D03*
X-120984Y10697D02*
D03*
X-120984Y41799D02*
D03*
X-138858Y41799D02*
D03*
X-138858Y94291D02*
D03*
X-120984Y94291D02*
D03*
X-120984Y63189D02*
D03*
X-138858Y63189D02*
D03*
X-190039Y63189D02*
D03*
X-172165Y63189D02*
D03*
X-172165Y94291D02*
D03*
X-190039Y94291D02*
D03*
X-190039Y41799D02*
D03*
X-172165Y41799D02*
D03*
X-172165Y10697D02*
D03*
X-190039Y10697D02*
D03*
X-190039Y-94291D02*
D03*
X-172165Y-94291D02*
D03*
X-172165Y-63189D02*
D03*
X-190039Y-63189D02*
D03*
X-190039Y-10697D02*
D03*
X-172165Y-10697D02*
D03*
X-172165Y-41799D02*
D03*
X-190039Y-41799D02*
D03*
M02*
