G04*
G04 #@! TF.GenerationSoftware,Altium Limited,Altium Designer,25.8.1 (18)*
G04*
G04 Layer_Color=16711935*
%FSLAX25Y25*%
%MOIN*%
G70*
G04*
G04 #@! TF.SameCoordinates,938AAF5A-3C05-41E3-841C-15E9F8BEC9A4*
G04*
G04*
G04 #@! TF.FilePolarity,Negative*
G04*
G01*
G75*
%ADD57R,0.06706X0.06706*%
%ADD58C,0.06706*%
%ADD59C,0.06312*%
%ADD60R,0.05524X0.05524*%
%ADD61C,0.05524*%
%ADD62O,0.03241X0.03950*%
%ADD63O,0.04737X0.10642*%
%ADD64O,0.04737X0.07887*%
%ADD65R,0.04580X0.04580*%
%ADD66C,0.04580*%
%ADD67C,0.04737*%
%ADD68R,0.06706X0.06706*%
%ADD86R,0.06312X0.07493*%
D57*
X39000Y33000D02*
D03*
D58*
X39000Y23000D02*
D03*
X0Y-55000D02*
D03*
X0Y-45000D02*
D03*
X0Y-35000D02*
D03*
X0Y-25000D02*
D03*
X0Y-15000D02*
D03*
X0Y-5000D02*
D03*
X0Y5000D02*
D03*
X0Y15000D02*
D03*
X0Y25000D02*
D03*
X0Y35000D02*
D03*
X0Y45000D02*
D03*
X0Y55000D02*
D03*
X0Y65000D02*
D03*
D59*
X10000Y-35000D02*
D03*
X-10000Y5000D02*
D03*
X-10000Y65000D02*
D03*
X10000Y-25000D02*
D03*
X10000Y-45000D02*
D03*
X-10000Y25000D02*
D03*
X-10000Y35000D02*
D03*
X-10000Y55000D02*
D03*
X-10000Y45000D02*
D03*
X47000Y4000D02*
D03*
X36000Y-60500D02*
D03*
X-98943Y-34500D02*
D03*
X-53000Y23500D02*
D03*
X-62992Y55118D02*
D03*
X-43307Y55118D02*
D03*
D60*
X69606Y72874D02*
D03*
X70000Y-15000D02*
D03*
X69606Y-52126D02*
D03*
D61*
X69606Y65000D02*
D03*
X46500Y-67500D02*
D03*
X70000Y-22874D02*
D03*
X69606Y-67874D02*
D03*
X69606Y-60000D02*
D03*
D62*
X31594Y82362D02*
D03*
X55020Y82362D02*
D03*
X55020Y87676D02*
D03*
X31594Y87676D02*
D03*
X38287Y82362D02*
D03*
X34941Y87676D02*
D03*
X38287Y87676D02*
D03*
X41634Y87676D02*
D03*
X44980Y87676D02*
D03*
X48327Y87676D02*
D03*
X51673Y87676D02*
D03*
X51673Y82362D02*
D03*
X48327Y82362D02*
D03*
X44980Y82362D02*
D03*
X41634Y82362D02*
D03*
X34941Y82362D02*
D03*
D63*
X26279Y86220D02*
D03*
X60335Y86220D02*
D03*
D64*
X26279Y99527D02*
D03*
X60335Y99527D02*
D03*
D65*
X59055Y-86614D02*
D03*
D66*
X54055Y-86614D02*
D03*
X49055Y-86614D02*
D03*
X39055Y-86614D02*
D03*
X39055Y-91614D02*
D03*
X44055Y-91614D02*
D03*
X49055Y-91614D02*
D03*
X54055Y-91614D02*
D03*
X59055Y-91614D02*
D03*
D67*
X34055Y-89114D02*
D03*
X64055Y-89114D02*
D03*
D68*
X0Y-65000D02*
D03*
D86*
X-36496Y-41798D02*
D03*
X-18622Y-41798D02*
D03*
X-18622Y-10695D02*
D03*
X-36496Y-10695D02*
D03*
X-36496Y41798D02*
D03*
X-18622Y41798D02*
D03*
X-18622Y10695D02*
D03*
X-36496Y10695D02*
D03*
X-36496Y63189D02*
D03*
X-18622Y63189D02*
D03*
X-18622Y94291D02*
D03*
X-36496Y94291D02*
D03*
X-36496Y-63189D02*
D03*
X-18622Y-63189D02*
D03*
X-18622Y-94291D02*
D03*
X-36496Y-94291D02*
D03*
X-87677Y-94291D02*
D03*
X-69803Y-94291D02*
D03*
X-69803Y-63189D02*
D03*
X-87677Y-63189D02*
D03*
X-87677Y94291D02*
D03*
X-69803Y94291D02*
D03*
X-69803Y63189D02*
D03*
X-87677Y63189D02*
D03*
X-87677Y10695D02*
D03*
X-69803Y10695D02*
D03*
X-69803Y41798D02*
D03*
X-87677Y41798D02*
D03*
X-87677Y-10695D02*
D03*
X-69803Y-10695D02*
D03*
X-69803Y-41798D02*
D03*
X-87677Y-41798D02*
D03*
X-138858Y-41799D02*
D03*
X-120984Y-41799D02*
D03*
X-120984Y-10697D02*
D03*
X-138858Y-10697D02*
D03*
X-138858Y-63189D02*
D03*
X-120984Y-63189D02*
D03*
X-120984Y-94291D02*
D03*
X-138858Y-94291D02*
D03*
X-138858Y10697D02*
D03*
X-120984Y10697D02*
D03*
X-120984Y41799D02*
D03*
X-138858Y41799D02*
D03*
X-138858Y94291D02*
D03*
X-120984Y94291D02*
D03*
X-120984Y63189D02*
D03*
X-138858Y63189D02*
D03*
X-190039Y63189D02*
D03*
X-172165Y63189D02*
D03*
X-172165Y94291D02*
D03*
X-190039Y94291D02*
D03*
X-190039Y41799D02*
D03*
X-172165Y41799D02*
D03*
X-172165Y10697D02*
D03*
X-190039Y10697D02*
D03*
X-190039Y-94291D02*
D03*
X-172165Y-94291D02*
D03*
X-172165Y-63189D02*
D03*
X-190039Y-63189D02*
D03*
X-190039Y-10697D02*
D03*
X-172165Y-10697D02*
D03*
X-172165Y-41799D02*
D03*
X-190039Y-41799D02*
D03*
M02*
