G04*
G04 #@! TF.GenerationSoftware,Altium Limited,Altium Designer,25.8.1 (18)*
G04*
G04 Layer_Color=32896*
%FSLAX25Y25*%
%MOIN*%
G70*
G04*
G04 #@! TF.SameCoordinates,938AAF5A-3C05-41E3-841C-15E9F8BEC9A4*
G04*
G04*
G04 #@! TF.FilePolarity,Positive*
G04*
G01*
G75*
%ADD12C,0.01000*%
%ADD13C,0.00500*%
%ADD15C,0.00394*%
%ADD16C,0.00787*%
%ADD87C,0.00787*%
D12*
X-20866Y-26247D02*
X-20941Y-25249D01*
X-21163Y-24274D01*
X-21529Y-23343D01*
X-22029Y-22477D01*
X-22653Y-21694D01*
X-23386Y-21014D01*
X-24213Y-20450D01*
X-25114Y-20017D01*
X-26070Y-19722D01*
X-27059Y-19572D01*
X-28059Y-19572D01*
X-29048Y-19722D01*
X-30004Y-20017D01*
X-30906Y-20450D01*
X-31732Y-21014D01*
X-32465Y-21694D01*
X-33089Y-22477D01*
X-33589Y-23343D01*
X-33955Y-24274D01*
X-34177Y-25249D01*
X-34252Y-26247D01*
X-34177Y-27244D01*
X-33955Y-28220D01*
X-33589Y-29151D01*
X-33089Y-30017D01*
X-32465Y-30799D01*
X-31732Y-31479D01*
X-30906Y-32043D01*
X-30004Y-32477D01*
X-29048Y-32772D01*
X-28059Y-32921D01*
X-27059Y-32921D01*
X-26070Y-32772D01*
X-25114Y-32477D01*
X-24213Y-32043D01*
X-23386Y-31479D01*
X-22653Y-30799D01*
X-22029Y-30017D01*
X-21529Y-29151D01*
X-21163Y-28220D01*
X-20941Y-27244D01*
X-20866Y-26247D01*
X-20866Y26247D02*
X-20941Y27244D01*
X-21163Y28220D01*
X-21529Y29151D01*
X-22029Y30017D01*
X-22653Y30799D01*
X-23386Y31479D01*
X-24213Y32043D01*
X-25114Y32477D01*
X-26070Y32772D01*
X-27059Y32921D01*
X-28059Y32921D01*
X-29048Y32772D01*
X-30004Y32477D01*
X-30906Y32043D01*
X-31732Y31479D01*
X-32465Y30799D01*
X-33089Y30017D01*
X-33589Y29151D01*
X-33955Y28220D01*
X-34177Y27244D01*
X-34252Y26247D01*
X-34177Y25249D01*
X-33955Y24274D01*
X-33589Y23343D01*
X-33089Y22477D01*
X-32465Y21694D01*
X-31732Y21014D01*
X-30906Y20450D01*
X-30004Y20017D01*
X-29048Y19722D01*
X-28059Y19572D01*
X-27059Y19572D01*
X-26070Y19722D01*
X-25114Y20017D01*
X-24213Y20450D01*
X-23386Y21014D01*
X-22653Y21694D01*
X-22029Y22477D01*
X-21529Y23343D01*
X-21163Y24274D01*
X-20941Y25249D01*
X-20866Y26247D01*
X-20866Y78740D02*
X-20941Y79738D01*
X-21163Y80713D01*
X-21529Y81644D01*
X-22029Y82510D01*
X-22653Y83293D01*
X-23386Y83973D01*
X-24213Y84536D01*
X-25114Y84970D01*
X-26070Y85265D01*
X-27059Y85414D01*
X-28059Y85414D01*
X-29048Y85265D01*
X-30004Y84970D01*
X-30906Y84536D01*
X-31732Y83973D01*
X-32465Y83293D01*
X-33089Y82510D01*
X-33589Y81644D01*
X-33955Y80713D01*
X-34177Y79738D01*
X-34252Y78740D01*
X-34177Y77743D01*
X-33955Y76767D01*
X-33589Y75836D01*
X-33089Y74970D01*
X-32465Y74188D01*
X-31732Y73507D01*
X-30906Y72944D01*
X-30004Y72510D01*
X-29048Y72215D01*
X-28059Y72066D01*
X-27059Y72066D01*
X-26070Y72215D01*
X-25114Y72510D01*
X-24213Y72944D01*
X-23386Y73507D01*
X-22653Y74188D01*
X-22029Y74970D01*
X-21529Y75836D01*
X-21163Y76767D01*
X-20941Y77743D01*
X-20866Y78740D01*
X-20866Y-78740D02*
X-20941Y-77743D01*
X-21163Y-76767D01*
X-21529Y-75836D01*
X-22029Y-74970D01*
X-22653Y-74188D01*
X-23386Y-73507D01*
X-24213Y-72944D01*
X-25114Y-72510D01*
X-26070Y-72215D01*
X-27059Y-72066D01*
X-28059Y-72066D01*
X-29048Y-72215D01*
X-30004Y-72510D01*
X-30906Y-72944D01*
X-31732Y-73507D01*
X-32465Y-74188D01*
X-33089Y-74970D01*
X-33589Y-75836D01*
X-33955Y-76767D01*
X-34177Y-77743D01*
X-34252Y-78740D01*
X-34177Y-79738D01*
X-33955Y-80713D01*
X-33589Y-81644D01*
X-33089Y-82510D01*
X-32465Y-83293D01*
X-31732Y-83973D01*
X-30906Y-84536D01*
X-30004Y-84970D01*
X-29048Y-85265D01*
X-28059Y-85414D01*
X-27059Y-85414D01*
X-26070Y-85265D01*
X-25114Y-84970D01*
X-24213Y-84536D01*
X-23386Y-83973D01*
X-22653Y-83293D01*
X-22029Y-82510D01*
X-21529Y-81644D01*
X-21163Y-80713D01*
X-20941Y-79738D01*
X-20866Y-78740D01*
X-72047Y-78740D02*
X-72122Y-77743D01*
X-72345Y-76767D01*
X-72710Y-75836D01*
X-73210Y-74970D01*
X-73834Y-74188D01*
X-74567Y-73507D01*
X-75394Y-72944D01*
X-76295Y-72510D01*
X-77251Y-72215D01*
X-78240Y-72066D01*
X-79240Y-72066D01*
X-80230Y-72215D01*
X-81185Y-72510D01*
X-82087Y-72944D01*
X-82913Y-73507D01*
X-83646Y-74188D01*
X-84270Y-74970D01*
X-84770Y-75836D01*
X-85136Y-76767D01*
X-85358Y-77743D01*
X-85433Y-78740D01*
X-85358Y-79738D01*
X-85136Y-80713D01*
X-84770Y-81644D01*
X-84270Y-82510D01*
X-83646Y-83293D01*
X-82913Y-83973D01*
X-82087Y-84536D01*
X-81185Y-84970D01*
X-80230Y-85265D01*
X-79240Y-85414D01*
X-78240Y-85414D01*
X-77251Y-85265D01*
X-76295Y-84970D01*
X-75394Y-84536D01*
X-74567Y-83973D01*
X-73834Y-83293D01*
X-73210Y-82510D01*
X-72710Y-81644D01*
X-72345Y-80713D01*
X-72122Y-79738D01*
X-72047Y-78740D01*
X-72047Y78740D02*
X-72122Y79738D01*
X-72345Y80713D01*
X-72710Y81644D01*
X-73210Y82510D01*
X-73834Y83293D01*
X-74567Y83973D01*
X-75394Y84536D01*
X-76295Y84970D01*
X-77251Y85265D01*
X-78240Y85414D01*
X-79240Y85414D01*
X-80230Y85265D01*
X-81185Y84970D01*
X-82087Y84536D01*
X-82913Y83973D01*
X-83646Y83293D01*
X-84270Y82510D01*
X-84770Y81644D01*
X-85136Y80713D01*
X-85358Y79738D01*
X-85433Y78740D01*
X-85358Y77743D01*
X-85136Y76767D01*
X-84770Y75836D01*
X-84270Y74970D01*
X-83646Y74188D01*
X-82913Y73507D01*
X-82087Y72944D01*
X-81185Y72510D01*
X-80230Y72215D01*
X-79240Y72066D01*
X-78240Y72066D01*
X-77251Y72215D01*
X-76295Y72510D01*
X-75394Y72944D01*
X-74567Y73507D01*
X-73834Y74188D01*
X-73210Y74970D01*
X-72710Y75836D01*
X-72345Y76767D01*
X-72122Y77743D01*
X-72047Y78740D01*
X-72047Y26247D02*
X-72122Y27244D01*
X-72345Y28220D01*
X-72710Y29151D01*
X-73210Y30017D01*
X-73834Y30799D01*
X-74567Y31479D01*
X-75394Y32043D01*
X-76295Y32477D01*
X-77251Y32772D01*
X-78240Y32921D01*
X-79240Y32921D01*
X-80230Y32772D01*
X-81185Y32477D01*
X-82087Y32043D01*
X-82913Y31479D01*
X-83646Y30799D01*
X-84270Y30017D01*
X-84770Y29151D01*
X-85136Y28220D01*
X-85358Y27244D01*
X-85433Y26247D01*
X-85358Y25249D01*
X-85136Y24274D01*
X-84770Y23343D01*
X-84270Y22477D01*
X-83646Y21694D01*
X-82913Y21014D01*
X-82087Y20450D01*
X-81185Y20017D01*
X-80230Y19722D01*
X-79240Y19572D01*
X-78240Y19572D01*
X-77251Y19722D01*
X-76295Y20017D01*
X-75394Y20450D01*
X-74567Y21014D01*
X-73834Y21694D01*
X-73210Y22477D01*
X-72710Y23343D01*
X-72345Y24274D01*
X-72122Y25249D01*
X-72047Y26247D01*
X-72047Y-26247D02*
X-72122Y-25249D01*
X-72345Y-24274D01*
X-72710Y-23343D01*
X-73210Y-22477D01*
X-73834Y-21694D01*
X-74567Y-21014D01*
X-75394Y-20450D01*
X-76295Y-20017D01*
X-77251Y-19722D01*
X-78240Y-19572D01*
X-79240Y-19572D01*
X-80230Y-19722D01*
X-81185Y-20017D01*
X-82087Y-20450D01*
X-82913Y-21014D01*
X-83646Y-21694D01*
X-84270Y-22477D01*
X-84770Y-23343D01*
X-85136Y-24274D01*
X-85358Y-25249D01*
X-85433Y-26247D01*
X-85358Y-27244D01*
X-85136Y-28220D01*
X-84770Y-29151D01*
X-84270Y-30017D01*
X-83646Y-30799D01*
X-82913Y-31479D01*
X-82087Y-32043D01*
X-81185Y-32477D01*
X-80230Y-32772D01*
X-79240Y-32921D01*
X-78240Y-32921D01*
X-77251Y-32772D01*
X-76295Y-32477D01*
X-75394Y-32043D01*
X-74567Y-31479D01*
X-73834Y-30799D01*
X-73210Y-30017D01*
X-72710Y-29151D01*
X-72345Y-28220D01*
X-72122Y-27244D01*
X-72047Y-26247D01*
X-123228Y-26248D02*
X-123303Y-25251D01*
X-123526Y-24275D01*
X-123891Y-23344D01*
X-124391Y-22478D01*
X-125015Y-21696D01*
X-125748Y-21015D01*
X-126575Y-20452D01*
X-127476Y-20018D01*
X-128432Y-19723D01*
X-129421Y-19574D01*
X-130421Y-19574D01*
X-131411Y-19723D01*
X-132367Y-20018D01*
X-133268Y-20452D01*
X-134094Y-21015D01*
X-134827Y-21696D01*
X-135451Y-22478D01*
X-135951Y-23344D01*
X-136317Y-24275D01*
X-136539Y-25251D01*
X-136614Y-26248D01*
X-136539Y-27246D01*
X-136317Y-28221D01*
X-135951Y-29152D01*
X-135451Y-30018D01*
X-134827Y-30800D01*
X-134094Y-31481D01*
X-133268Y-32044D01*
X-132367Y-32478D01*
X-131411Y-32773D01*
X-130421Y-32922D01*
X-129421Y-32922D01*
X-128432Y-32773D01*
X-127476Y-32478D01*
X-126575Y-32044D01*
X-125748Y-31481D01*
X-125015Y-30800D01*
X-124391Y-30018D01*
X-123891Y-29152D01*
X-123526Y-28221D01*
X-123303Y-27246D01*
X-123228Y-26248D01*
X-123228Y-78740D02*
X-123303Y-77743D01*
X-123526Y-76767D01*
X-123891Y-75836D01*
X-124391Y-74970D01*
X-125015Y-74188D01*
X-125748Y-73507D01*
X-126575Y-72944D01*
X-127476Y-72510D01*
X-128432Y-72215D01*
X-129421Y-72066D01*
X-130421Y-72066D01*
X-131411Y-72215D01*
X-132367Y-72510D01*
X-133268Y-72944D01*
X-134094Y-73507D01*
X-134827Y-74188D01*
X-135451Y-74970D01*
X-135951Y-75836D01*
X-136317Y-76767D01*
X-136539Y-77743D01*
X-136614Y-78740D01*
X-136539Y-79738D01*
X-136317Y-80713D01*
X-135951Y-81644D01*
X-135451Y-82510D01*
X-134827Y-83293D01*
X-134094Y-83973D01*
X-133268Y-84536D01*
X-132367Y-84970D01*
X-131411Y-85265D01*
X-130421Y-85414D01*
X-129421Y-85414D01*
X-128432Y-85265D01*
X-127476Y-84970D01*
X-126575Y-84536D01*
X-125748Y-83973D01*
X-125015Y-83293D01*
X-124391Y-82510D01*
X-123891Y-81644D01*
X-123526Y-80713D01*
X-123303Y-79738D01*
X-123228Y-78740D01*
X-123228Y26248D02*
X-123303Y27246D01*
X-123526Y28221D01*
X-123891Y29152D01*
X-124391Y30018D01*
X-125015Y30800D01*
X-125748Y31481D01*
X-126575Y32044D01*
X-127476Y32478D01*
X-128432Y32773D01*
X-129421Y32922D01*
X-130421Y32922D01*
X-131411Y32773D01*
X-132367Y32478D01*
X-133268Y32044D01*
X-134094Y31481D01*
X-134827Y30800D01*
X-135451Y30018D01*
X-135951Y29152D01*
X-136317Y28221D01*
X-136539Y27246D01*
X-136614Y26248D01*
X-136539Y25251D01*
X-136317Y24275D01*
X-135951Y23344D01*
X-135451Y22478D01*
X-134827Y21696D01*
X-134094Y21015D01*
X-133268Y20452D01*
X-132367Y20018D01*
X-131411Y19723D01*
X-130421Y19574D01*
X-129421Y19574D01*
X-128432Y19723D01*
X-127476Y20018D01*
X-126575Y20452D01*
X-125748Y21015D01*
X-125015Y21696D01*
X-124391Y22478D01*
X-123891Y23344D01*
X-123526Y24275D01*
X-123303Y25251D01*
X-123228Y26248D01*
X-123228Y78740D02*
X-123303Y79738D01*
X-123526Y80713D01*
X-123891Y81644D01*
X-124391Y82510D01*
X-125015Y83293D01*
X-125748Y83973D01*
X-126575Y84536D01*
X-127476Y84970D01*
X-128432Y85265D01*
X-129421Y85414D01*
X-130421Y85414D01*
X-131411Y85265D01*
X-132367Y84970D01*
X-133268Y84536D01*
X-134094Y83973D01*
X-134827Y83293D01*
X-135451Y82510D01*
X-135951Y81644D01*
X-136317Y80713D01*
X-136539Y79738D01*
X-136614Y78740D01*
X-136539Y77743D01*
X-136317Y76767D01*
X-135951Y75836D01*
X-135451Y74970D01*
X-134827Y74188D01*
X-134094Y73507D01*
X-133268Y72944D01*
X-132367Y72510D01*
X-131411Y72215D01*
X-130421Y72066D01*
X-129421Y72066D01*
X-128432Y72215D01*
X-127476Y72510D01*
X-126575Y72944D01*
X-125748Y73507D01*
X-125015Y74188D01*
X-124391Y74970D01*
X-123891Y75836D01*
X-123526Y76767D01*
X-123303Y77743D01*
X-123228Y78740D01*
X-174409Y78740D02*
X-174484Y79738D01*
X-174707Y80713D01*
X-175072Y81644D01*
X-175572Y82510D01*
X-176196Y83293D01*
X-176929Y83973D01*
X-177756Y84536D01*
X-178657Y84970D01*
X-179613Y85265D01*
X-180602Y85414D01*
X-181603Y85414D01*
X-182592Y85265D01*
X-183548Y84970D01*
X-184449Y84536D01*
X-185275Y83973D01*
X-186009Y83293D01*
X-186632Y82510D01*
X-187133Y81644D01*
X-187498Y80713D01*
X-187721Y79738D01*
X-187795Y78740D01*
X-187721Y77743D01*
X-187498Y76767D01*
X-187133Y75836D01*
X-186632Y74970D01*
X-186009Y74188D01*
X-185275Y73507D01*
X-184449Y72944D01*
X-183548Y72510D01*
X-182592Y72215D01*
X-181603Y72066D01*
X-180602Y72066D01*
X-179613Y72215D01*
X-178657Y72510D01*
X-177756Y72944D01*
X-176929Y73507D01*
X-176196Y74188D01*
X-175572Y74970D01*
X-175072Y75836D01*
X-174707Y76767D01*
X-174484Y77743D01*
X-174409Y78740D01*
X-174409Y26248D02*
X-174484Y27246D01*
X-174707Y28221D01*
X-175072Y29152D01*
X-175572Y30018D01*
X-176196Y30800D01*
X-176929Y31481D01*
X-177756Y32044D01*
X-178657Y32478D01*
X-179613Y32773D01*
X-180602Y32922D01*
X-181603Y32922D01*
X-182592Y32773D01*
X-183548Y32478D01*
X-184449Y32044D01*
X-185275Y31481D01*
X-186009Y30800D01*
X-186632Y30018D01*
X-187133Y29152D01*
X-187498Y28221D01*
X-187721Y27246D01*
X-187795Y26248D01*
X-187721Y25251D01*
X-187498Y24275D01*
X-187133Y23344D01*
X-186632Y22478D01*
X-186009Y21696D01*
X-185275Y21015D01*
X-184449Y20452D01*
X-183548Y20018D01*
X-182592Y19723D01*
X-181603Y19574D01*
X-180602Y19574D01*
X-179613Y19723D01*
X-178657Y20018D01*
X-177756Y20452D01*
X-176929Y21015D01*
X-176196Y21696D01*
X-175572Y22478D01*
X-175072Y23344D01*
X-174707Y24275D01*
X-174484Y25251D01*
X-174409Y26248D01*
X-174409Y-78740D02*
X-174484Y-77743D01*
X-174707Y-76767D01*
X-175072Y-75836D01*
X-175572Y-74970D01*
X-176196Y-74188D01*
X-176929Y-73507D01*
X-177756Y-72944D01*
X-178657Y-72510D01*
X-179613Y-72215D01*
X-180602Y-72066D01*
X-181603Y-72066D01*
X-182592Y-72215D01*
X-183548Y-72510D01*
X-184449Y-72944D01*
X-185275Y-73507D01*
X-186009Y-74188D01*
X-186632Y-74970D01*
X-187133Y-75836D01*
X-187498Y-76767D01*
X-187721Y-77743D01*
X-187795Y-78740D01*
X-187721Y-79738D01*
X-187498Y-80713D01*
X-187133Y-81644D01*
X-186632Y-82510D01*
X-186009Y-83293D01*
X-185275Y-83973D01*
X-184449Y-84536D01*
X-183548Y-84970D01*
X-182592Y-85265D01*
X-181603Y-85414D01*
X-180602Y-85414D01*
X-179613Y-85265D01*
X-178657Y-84970D01*
X-177756Y-84536D01*
X-176929Y-83973D01*
X-176196Y-83293D01*
X-175572Y-82510D01*
X-175072Y-81644D01*
X-174707Y-80713D01*
X-174484Y-79738D01*
X-174409Y-78740D01*
X-174409Y-26248D02*
X-174484Y-25251D01*
X-174707Y-24275D01*
X-175072Y-23344D01*
X-175572Y-22478D01*
X-176196Y-21696D01*
X-176929Y-21015D01*
X-177756Y-20452D01*
X-178657Y-20018D01*
X-179613Y-19723D01*
X-180602Y-19574D01*
X-181603Y-19574D01*
X-182592Y-19723D01*
X-183548Y-20018D01*
X-184449Y-20452D01*
X-185275Y-21015D01*
X-186009Y-21696D01*
X-186632Y-22478D01*
X-187133Y-23344D01*
X-187498Y-24275D01*
X-187721Y-25251D01*
X-187795Y-26248D01*
X-187721Y-27246D01*
X-187498Y-28221D01*
X-187133Y-29152D01*
X-186632Y-30018D01*
X-186009Y-30800D01*
X-185275Y-31481D01*
X-184449Y-32044D01*
X-183548Y-32478D01*
X-182592Y-32773D01*
X-181603Y-32922D01*
X-180602Y-32922D01*
X-179613Y-32773D01*
X-178657Y-32478D01*
X-177756Y-32044D01*
X-176929Y-31481D01*
X-176196Y-30800D01*
X-175572Y-30018D01*
X-175072Y-29152D01*
X-174707Y-28221D01*
X-174484Y-27246D01*
X-174409Y-26248D01*
X12795Y-97835D02*
X12709Y-96843D01*
X12451Y-95882D01*
X12031Y-94980D01*
X11460Y-94165D01*
X10756Y-93462D01*
X9941Y-92891D01*
X9039Y-92470D01*
X8078Y-92213D01*
X7087Y-92126D01*
X6095Y-92213D01*
X5134Y-92470D01*
X4232Y-92891D01*
X3417Y-93462D01*
X2713Y-94165D01*
X2143Y-94980D01*
X1722Y-95882D01*
X1465Y-96843D01*
X1378Y-97835D01*
X1465Y-98826D01*
X1722Y-99787D01*
X2143Y-100689D01*
X2713Y-101504D01*
X3417Y-102208D01*
X4232Y-102778D01*
X5134Y-103199D01*
X6095Y-103457D01*
X7087Y-103543D01*
X8078Y-103457D01*
X9039Y-103199D01*
X9941Y-102778D01*
X10756Y-102208D01*
X11460Y-101504D01*
X12031Y-100689D01*
X12451Y-99787D01*
X12709Y-98826D01*
X12795Y-97835D01*
X12795Y97835D02*
X12709Y98826D01*
X12451Y99787D01*
X12031Y100689D01*
X11460Y101504D01*
X10756Y102208D01*
X9941Y102778D01*
X9039Y103199D01*
X8078Y103457D01*
X7087Y103543D01*
X6095Y103457D01*
X5134Y103199D01*
X4232Y102778D01*
X3417Y102208D01*
X2713Y101504D01*
X2143Y100689D01*
X1722Y99787D01*
X1465Y98826D01*
X1378Y97835D01*
X1465Y96843D01*
X1722Y95882D01*
X2143Y94980D01*
X2713Y94165D01*
X3417Y93462D01*
X4232Y92891D01*
X5134Y92470D01*
X6095Y92213D01*
X7087Y92126D01*
X8078Y92213D01*
X9039Y92470D01*
X9941Y92891D01*
X10756Y93462D01*
X11460Y94165D01*
X12031Y94980D01*
X12451Y95882D01*
X12709Y96843D01*
X12795Y97835D01*
X-27559Y-28747D02*
X-27559Y-23747D01*
X-30059Y-26247D02*
X-25059Y-26247D01*
X-30059Y26247D02*
X-25059Y26247D01*
X-27559Y23747D02*
X-27559Y28747D01*
X-27559Y76240D02*
X-27559Y81240D01*
X-30059Y78740D02*
X-25059Y78740D01*
X-30059Y-78740D02*
X-25059Y-78740D01*
X-27559Y-81240D02*
X-27559Y-76240D01*
X-78740Y-81240D02*
X-78740Y-76240D01*
X-81240Y-78740D02*
X-76240Y-78740D01*
X-81240Y78740D02*
X-76240Y78740D01*
X-78740Y76240D02*
X-78740Y81240D01*
X-78740Y23747D02*
X-78740Y28747D01*
X-81240Y26247D02*
X-76240Y26247D01*
X-81240Y-26247D02*
X-76240Y-26247D01*
X-78740Y-28747D02*
X-78740Y-23747D01*
X-129921Y-28748D02*
X-129921Y-23748D01*
X-132421Y-26248D02*
X-127421Y-26248D01*
X-132421Y-78740D02*
X-127421Y-78740D01*
X-129921Y-81240D02*
X-129921Y-76240D01*
X-129921Y23748D02*
X-129921Y28748D01*
X-132421Y26248D02*
X-127421Y26248D01*
X-132421Y78740D02*
X-127421Y78740D01*
X-129921Y76240D02*
X-129921Y81240D01*
X-181102Y76240D02*
X-181102Y81240D01*
X-183602Y78740D02*
X-178602Y78740D01*
X-183602Y26248D02*
X-178602Y26248D01*
X-181102Y23748D02*
X-181102Y28748D01*
X-181102Y-81240D02*
X-181102Y-76240D01*
X-183602Y-78740D02*
X-178602Y-78740D01*
X-183602Y-26248D02*
X-178602Y-26248D01*
X-181102Y-28748D02*
X-181102Y-23748D01*
X-7000Y0D02*
X8500Y0D01*
X12381Y-56983D02*
X11397Y-57967D01*
X9429Y-57967D01*
X8445Y-56983D01*
X8445Y-53047D01*
X9429Y-52063D01*
X11397Y-52063D01*
X12381Y-53047D01*
X12381Y-55015D01*
X10413Y-55015D01*
X14348Y-52063D02*
X14348Y-55999D01*
X17300Y-55999D01*
X18284Y-55015D01*
X18284Y-52063D01*
X24188Y-57967D02*
X24188Y-52063D01*
X21236Y-52063D01*
X20252Y-53047D01*
X20252Y-55015D01*
X21236Y-55999D01*
X24188Y-55999D01*
X8445Y31049D02*
X12381Y31049D01*
X10413Y31049D01*
X10413Y36953D01*
X14348Y37937D02*
X18284Y37937D01*
X24188Y32033D02*
X23204Y31049D01*
X21236Y31049D01*
X20252Y32033D01*
X20252Y35969D01*
X21236Y36953D01*
X23204Y36953D01*
X24188Y35969D01*
X30091Y32033D02*
X29107Y31049D01*
X27140Y31049D01*
X26156Y32033D01*
X26156Y33017D01*
X27140Y34001D01*
X29107Y34001D01*
X30091Y34985D01*
X30091Y35969D01*
X29107Y36953D01*
X27140Y36953D01*
X26156Y35969D01*
X8445Y-38951D02*
X8445Y-33047D01*
X11397Y-33047D01*
X12381Y-34031D01*
X12381Y-37967D01*
X11397Y-38951D01*
X8445Y-38951D01*
X14348Y-32063D02*
X18284Y-32063D01*
X20252Y-33047D02*
X20252Y-38951D01*
X23204Y-38951D01*
X24188Y-37967D01*
X24188Y-35999D01*
X23204Y-35015D01*
X20252Y-35015D01*
X22220Y-35015D02*
X24188Y-33047D01*
X30091Y-37967D02*
X29107Y-38951D01*
X27140Y-38951D01*
X26156Y-37967D01*
X26156Y-36983D01*
X27140Y-35999D01*
X29107Y-35999D01*
X30091Y-35015D01*
X30091Y-34031D01*
X29107Y-33047D01*
X27140Y-33047D01*
X26156Y-34031D01*
X32059Y-38951D02*
X35995Y-38951D01*
X34027Y-38951D01*
X34027Y-33047D01*
X8445Y1049D02*
X8445Y6953D01*
X11397Y6953D01*
X12381Y5969D01*
X12381Y2033D01*
X11397Y1049D01*
X8445Y1049D01*
X14348Y7937D02*
X18284Y7937D01*
X20252Y1049D02*
X20252Y6953D01*
X24188Y6953D01*
X30091Y1049D02*
X26156Y1049D01*
X26156Y6953D01*
X30091Y6953D01*
X26156Y4001D02*
X28124Y4001D01*
X32059Y1049D02*
X32059Y6953D01*
X35011Y6953D01*
X35995Y5969D01*
X35995Y2033D01*
X35011Y1049D01*
X32059Y1049D01*
X8445Y61049D02*
X12381Y61049D01*
X10413Y61049D01*
X10413Y66953D01*
X14348Y67937D02*
X18284Y67937D01*
X20252Y61049D02*
X22220Y61049D01*
X21236Y61049D01*
X21236Y66953D01*
X20252Y66953D01*
X22220Y66953D01*
X25172Y66953D02*
X25172Y61049D01*
X28124Y61049D01*
X29107Y62033D01*
X29107Y64001D01*
X28124Y64985D01*
X25172Y64985D01*
X27140Y64985D02*
X29107Y66953D01*
X35011Y65969D02*
X35011Y62033D01*
X34027Y61049D01*
X32059Y61049D01*
X31075Y62033D01*
X31075Y65969D01*
X32059Y66953D01*
X34027Y66953D01*
X33043Y64985D02*
X35011Y66953D01*
X34027Y66953D02*
X35011Y65969D01*
X8445Y-8951D02*
X8445Y-3047D01*
X11397Y-3047D01*
X12381Y-4031D01*
X12381Y-7967D01*
X11397Y-8951D01*
X8445Y-8951D01*
X14348Y-2063D02*
X18284Y-2063D01*
X24188Y-7967D02*
X23204Y-8951D01*
X21236Y-8951D01*
X20252Y-7967D01*
X20252Y-6983D01*
X21236Y-5999D01*
X23204Y-5999D01*
X24188Y-5015D01*
X24188Y-4031D01*
X23204Y-3047D01*
X21236Y-3047D01*
X20252Y-4031D01*
X30091Y-7967D02*
X29107Y-8951D01*
X27140Y-8951D01*
X26156Y-7967D01*
X26156Y-4031D01*
X27140Y-3047D01*
X29107Y-3047D01*
X30091Y-4031D01*
X32059Y-8951D02*
X32059Y-3047D01*
X32059Y-5015D01*
X35995Y-8951D01*
X33043Y-5999D01*
X35995Y-3047D01*
X8445Y-28951D02*
X8445Y-23047D01*
X11397Y-23047D01*
X12381Y-24031D01*
X12381Y-27967D01*
X11397Y-28951D01*
X8445Y-28951D01*
X14348Y-22063D02*
X18284Y-22063D01*
X20252Y-28951D02*
X20252Y-23047D01*
X23204Y-23047D01*
X24188Y-24031D01*
X24188Y-27967D01*
X23204Y-28951D01*
X20252Y-28951D01*
X30091Y-27967D02*
X29107Y-28951D01*
X27140Y-28951D01*
X26156Y-27967D01*
X26156Y-24031D01*
X27140Y-23047D01*
X29107Y-23047D01*
X30091Y-24031D01*
X8445Y-48950D02*
X8445Y-43047D01*
X11397Y-43047D01*
X12381Y-44031D01*
X12381Y-47967D01*
X11397Y-48950D01*
X8445Y-48950D01*
X14348Y-42063D02*
X18284Y-42063D01*
X24188Y-47967D02*
X23204Y-48950D01*
X21236Y-48950D01*
X20252Y-47967D01*
X20252Y-44031D01*
X21236Y-43047D01*
X23204Y-43047D01*
X24188Y-44031D01*
X30091Y-47967D02*
X29107Y-48950D01*
X27140Y-48950D01*
X26156Y-47967D01*
X26156Y-46983D01*
X27140Y-45999D01*
X29107Y-45999D01*
X30091Y-45015D01*
X30091Y-44031D01*
X29107Y-43047D01*
X27140Y-43047D01*
X26156Y-44031D01*
X8445Y41049D02*
X12381Y41049D01*
X10413Y41049D01*
X10413Y46953D01*
X14348Y47937D02*
X18284Y47937D01*
X24188Y42033D02*
X23204Y41049D01*
X21236Y41049D01*
X20252Y42033D01*
X20252Y43017D01*
X21236Y44001D01*
X23204Y44001D01*
X24188Y44985D01*
X24188Y45969D01*
X23204Y46953D01*
X21236Y46953D01*
X20252Y45969D01*
X26156Y41049D02*
X26156Y46953D01*
X29107Y46953D01*
X30091Y45969D01*
X30091Y42033D01*
X29107Y41049D01*
X26156Y41049D01*
X32059Y41049D02*
X34027Y41049D01*
X33043Y41049D01*
X33043Y46953D01*
X32059Y46953D01*
X34027Y46953D01*
X8000Y-67904D02*
X8000Y-63968D01*
X9968Y-62000D01*
X11936Y-63968D01*
X11936Y-67904D01*
X17839Y-65936D02*
X14887Y-65936D01*
X13904Y-64952D01*
X13904Y-62984D01*
X14887Y-62000D01*
X17839Y-62000D01*
X23743Y-65936D02*
X20791Y-65936D01*
X19807Y-64952D01*
X19807Y-62984D01*
X20791Y-62000D01*
X23743Y-62000D01*
X8445Y11049D02*
X8445Y16953D01*
X11397Y16953D01*
X12381Y15969D01*
X12381Y12033D01*
X11397Y11049D01*
X8445Y11049D01*
X14348Y17937D02*
X18284Y17937D01*
X24188Y12033D02*
X23204Y11049D01*
X21236Y11049D01*
X20252Y12033D01*
X20252Y13017D01*
X21236Y14001D01*
X23204Y14001D01*
X24188Y14985D01*
X24188Y15969D01*
X23204Y16953D01*
X21236Y16953D01*
X20252Y15969D01*
X26156Y11049D02*
X26156Y16953D01*
X29107Y16953D01*
X30091Y15969D01*
X30091Y12033D01*
X29107Y11049D01*
X26156Y11049D01*
X35011Y11049D02*
X33043Y11049D01*
X32059Y12033D01*
X32059Y15969D01*
X33043Y16953D01*
X35011Y16953D01*
X35995Y15969D01*
X35995Y12033D01*
X35011Y11049D01*
X8445Y51049D02*
X12381Y51049D01*
X10413Y51049D01*
X10413Y56953D01*
X14348Y57937D02*
X18284Y57937D01*
X24188Y52033D02*
X23204Y51049D01*
X21236Y51049D01*
X20252Y52033D01*
X20252Y53017D01*
X21236Y54001D01*
X23204Y54001D01*
X24188Y54985D01*
X24188Y55969D01*
X23204Y56953D01*
X21236Y56953D01*
X20252Y55969D01*
X26156Y51049D02*
X26156Y56953D01*
X29107Y56953D01*
X30091Y55969D01*
X30091Y52033D01*
X29107Y51049D01*
X26156Y51049D01*
X35011Y51049D02*
X33043Y51049D01*
X32059Y52033D01*
X32059Y55969D01*
X33043Y56953D01*
X35011Y56953D01*
X35995Y55969D01*
X35995Y52033D01*
X35011Y51049D01*
X8445Y-18951D02*
X8445Y-13047D01*
X11397Y-13047D01*
X12381Y-14031D01*
X12381Y-17967D01*
X11397Y-18951D01*
X8445Y-18951D01*
X14348Y-12063D02*
X18284Y-12063D01*
X24188Y-17967D02*
X23204Y-18951D01*
X21236Y-18951D01*
X20252Y-17967D01*
X20252Y-16983D01*
X21236Y-15999D01*
X23204Y-15999D01*
X24188Y-15015D01*
X24188Y-14031D01*
X23204Y-13047D01*
X21236Y-13047D01*
X20252Y-14031D01*
X26156Y-18951D02*
X26156Y-13047D01*
X29107Y-13047D01*
X30091Y-14031D01*
X30091Y-17967D01*
X29107Y-18951D01*
X26156Y-18951D01*
X32059Y-18951D02*
X34027Y-18951D01*
X33043Y-18951D01*
X33043Y-13047D01*
X32059Y-13047D01*
X34027Y-13047D01*
X8445Y21049D02*
X12381Y21049D01*
X10413Y21049D01*
X10413Y26953D01*
X14348Y27937D02*
X18284Y27937D01*
X24188Y22033D02*
X23204Y21049D01*
X21236Y21049D01*
X20252Y22033D01*
X20252Y23017D01*
X21236Y24001D01*
X23204Y24001D01*
X24188Y24985D01*
X24188Y25969D01*
X23204Y26953D01*
X21236Y26953D01*
X20252Y25969D01*
X30091Y22033D02*
X29107Y21049D01*
X27140Y21049D01*
X26156Y22033D01*
X26156Y25969D01*
X27140Y26953D01*
X29107Y26953D01*
X30091Y25969D01*
X32059Y21049D02*
X32059Y26953D01*
X32059Y24985D01*
X35995Y21049D01*
X33043Y24001D01*
X35995Y26953D01*
D13*
X25307Y79608D02*
X60543Y79608D01*
X-179432Y-9500D02*
X-178932Y-9001D01*
X-177932Y-9001D01*
X-177432Y-9500D01*
X-177432Y-10000D01*
X-177932Y-10500D01*
X-178932Y-10500D01*
X-179432Y-11000D01*
X-179432Y-11500D01*
X-178932Y-11999D01*
X-177932Y-11999D01*
X-177432Y-11500D01*
X-180431Y-11999D02*
X-181431Y-11999D01*
X-180931Y-11999D01*
X-180931Y-9001D01*
X-180431Y-9500D01*
X-184430Y-11999D02*
X-184430Y-9001D01*
X-182931Y-10500D01*
X-184930Y-10500D01*
X-178932Y-62000D02*
X-178432Y-61501D01*
X-177432Y-61501D01*
X-176932Y-62000D01*
X-176932Y-62500D01*
X-177432Y-63000D01*
X-178432Y-63000D01*
X-178932Y-63500D01*
X-178932Y-64000D01*
X-178432Y-64499D01*
X-177432Y-64499D01*
X-176932Y-64000D01*
X-179931Y-64499D02*
X-180931Y-64499D01*
X-180431Y-64499D01*
X-180431Y-61501D01*
X-179931Y-62000D01*
X-182431Y-62000D02*
X-182930Y-61501D01*
X-183930Y-61501D01*
X-184430Y-62000D01*
X-184430Y-62500D01*
X-183930Y-63000D01*
X-183430Y-63000D01*
X-183930Y-63000D01*
X-184430Y-63500D01*
X-184430Y-64000D01*
X-183930Y-64499D01*
X-182930Y-64499D01*
X-182431Y-64000D01*
X-175854Y-92989D02*
X-175854Y-95988D01*
X-177354Y-95988D01*
X-177853Y-95488D01*
X-177853Y-94988D01*
X-177354Y-94488D01*
X-175854Y-94488D01*
X-177354Y-94488D01*
X-177853Y-93988D01*
X-177853Y-93489D01*
X-177354Y-92989D01*
X-175854Y-92989D01*
X-180852Y-93489D02*
X-180353Y-92989D01*
X-179353Y-92989D01*
X-178853Y-93489D01*
X-178853Y-95488D01*
X-179353Y-95988D01*
X-180353Y-95988D01*
X-180852Y-95488D01*
X-181852Y-95988D02*
X-182852Y-95988D01*
X-182352Y-95988D01*
X-182352Y-92989D01*
X-181852Y-93489D01*
X-184351Y-93489D02*
X-184851Y-92989D01*
X-185851Y-92989D01*
X-186351Y-93489D01*
X-186351Y-93988D01*
X-185851Y-94488D01*
X-185351Y-94488D01*
X-185851Y-94488D01*
X-186351Y-94988D01*
X-186351Y-95488D01*
X-185851Y-95988D01*
X-184851Y-95988D01*
X-184351Y-95488D01*
X-174870Y-40823D02*
X-174870Y-43822D01*
X-176369Y-43822D01*
X-176869Y-43323D01*
X-176869Y-42823D01*
X-176369Y-42323D01*
X-174870Y-42323D01*
X-176369Y-42323D01*
X-176869Y-41823D01*
X-176869Y-41323D01*
X-176369Y-40823D01*
X-174870Y-40823D01*
X-179868Y-41323D02*
X-179368Y-40823D01*
X-178369Y-40823D01*
X-177869Y-41323D01*
X-177869Y-43323D01*
X-178369Y-43822D01*
X-179368Y-43822D01*
X-179868Y-43323D01*
X-180868Y-43822D02*
X-181868Y-43822D01*
X-181368Y-43822D01*
X-181368Y-40823D01*
X-180868Y-41323D01*
X-184867Y-43822D02*
X-184867Y-40823D01*
X-183367Y-42323D01*
X-185366Y-42323D01*
X-176838Y12326D02*
X-176838Y9327D01*
X-178338Y9327D01*
X-178838Y9827D01*
X-178838Y10327D01*
X-178338Y10827D01*
X-176838Y10827D01*
X-178338Y10827D01*
X-178838Y11327D01*
X-178838Y11826D01*
X-178338Y12326D01*
X-176838Y12326D01*
X-181837Y11826D02*
X-181337Y12326D01*
X-180337Y12326D01*
X-179837Y11826D01*
X-179837Y9827D01*
X-180337Y9327D01*
X-181337Y9327D01*
X-181837Y9827D01*
X-182836Y9327D02*
X-183836Y9327D01*
X-183336Y9327D01*
X-183336Y12326D01*
X-182836Y11826D01*
X-187335Y12326D02*
X-185336Y12326D01*
X-185336Y10827D01*
X-186335Y11327D01*
X-186835Y11327D01*
X-187335Y10827D01*
X-187335Y9827D01*
X-186835Y9327D01*
X-185835Y9327D01*
X-185336Y9827D01*
X-175854Y64492D02*
X-175854Y61493D01*
X-177354Y61493D01*
X-177853Y61993D01*
X-177853Y62492D01*
X-177354Y62992D01*
X-175854Y62992D01*
X-177354Y62992D01*
X-177853Y63492D01*
X-177853Y63992D01*
X-177354Y64492D01*
X-175854Y64492D01*
X-180852Y63992D02*
X-180353Y64492D01*
X-179353Y64492D01*
X-178853Y63992D01*
X-178853Y61993D01*
X-179353Y61493D01*
X-180353Y61493D01*
X-180852Y61993D01*
X-181852Y61493D02*
X-182852Y61493D01*
X-182352Y61493D01*
X-182352Y64492D01*
X-181852Y63992D01*
X-186351Y64492D02*
X-185351Y63992D01*
X-184351Y62992D01*
X-184351Y61993D01*
X-184851Y61493D01*
X-185851Y61493D01*
X-186351Y61993D01*
X-186351Y62492D01*
X-185851Y62992D01*
X-184351Y62992D01*
X-179432Y43000D02*
X-178932Y43499D01*
X-177932Y43499D01*
X-177432Y43000D01*
X-177432Y42500D01*
X-177932Y42000D01*
X-178932Y42000D01*
X-179432Y41500D01*
X-179432Y41000D01*
X-178932Y40501D01*
X-177932Y40501D01*
X-177432Y41000D01*
X-180431Y40501D02*
X-181431Y40501D01*
X-180931Y40501D01*
X-180931Y43499D01*
X-180431Y43000D01*
X-184930Y43499D02*
X-182931Y43499D01*
X-182931Y42000D01*
X-183930Y42500D01*
X-184430Y42500D01*
X-184930Y42000D01*
X-184930Y41000D01*
X-184430Y40501D01*
X-183430Y40501D01*
X-182931Y41000D01*
X-178932Y95500D02*
X-178432Y95999D01*
X-177432Y95999D01*
X-176932Y95500D01*
X-176932Y95000D01*
X-177432Y94500D01*
X-178432Y94500D01*
X-178932Y94000D01*
X-178932Y93500D01*
X-178432Y93001D01*
X-177432Y93001D01*
X-176932Y93500D01*
X-179931Y93001D02*
X-180931Y93001D01*
X-180431Y93001D01*
X-180431Y95999D01*
X-179931Y95500D01*
X-184430Y95999D02*
X-183430Y95500D01*
X-182431Y94500D01*
X-182431Y93500D01*
X-182930Y93001D01*
X-183930Y93001D01*
X-184430Y93500D01*
X-184430Y94000D01*
X-183930Y94500D01*
X-182431Y94500D01*
X-127751Y95500D02*
X-127251Y95999D01*
X-126251Y95999D01*
X-125751Y95500D01*
X-125751Y95000D01*
X-126251Y94500D01*
X-127251Y94500D01*
X-127751Y94000D01*
X-127751Y93500D01*
X-127251Y93001D01*
X-126251Y93001D01*
X-125751Y93500D01*
X-128750Y93001D02*
X-129750Y93001D01*
X-129250Y93001D01*
X-129250Y95999D01*
X-128750Y95500D01*
X-133249Y93001D02*
X-131249Y93001D01*
X-133249Y95000D01*
X-133249Y95500D01*
X-132749Y95999D01*
X-131749Y95999D01*
X-131249Y95500D01*
X-128750Y43000D02*
X-128251Y43499D01*
X-127251Y43499D01*
X-126751Y43000D01*
X-126751Y42500D01*
X-127251Y42000D01*
X-128251Y42000D01*
X-128750Y41500D01*
X-128750Y41000D01*
X-128251Y40501D01*
X-127251Y40501D01*
X-126751Y41000D01*
X-129750Y40501D02*
X-130750Y40501D01*
X-130250Y40501D01*
X-130250Y43499D01*
X-129750Y43000D01*
X-132249Y40501D02*
X-133249Y40501D01*
X-132749Y40501D01*
X-132749Y43499D01*
X-132249Y43000D01*
X-124673Y64492D02*
X-124673Y61493D01*
X-126172Y61493D01*
X-126672Y61993D01*
X-126672Y62492D01*
X-126172Y62992D01*
X-124673Y62992D01*
X-126172Y62992D01*
X-126672Y63492D01*
X-126672Y63992D01*
X-126172Y64492D01*
X-124673Y64492D01*
X-129671Y63992D02*
X-129172Y64492D01*
X-128172Y64492D01*
X-127672Y63992D01*
X-127672Y61993D01*
X-128172Y61493D01*
X-129172Y61493D01*
X-129671Y61993D01*
X-130671Y61493D02*
X-131671Y61493D01*
X-131171Y61493D01*
X-131171Y64492D01*
X-130671Y63992D01*
X-135170Y61493D02*
X-133170Y61493D01*
X-135170Y63492D01*
X-135170Y63992D01*
X-134670Y64492D01*
X-133670Y64492D01*
X-133170Y63992D01*
X-126157Y12326D02*
X-126157Y9327D01*
X-127657Y9327D01*
X-128156Y9827D01*
X-128156Y10327D01*
X-127657Y10827D01*
X-126157Y10827D01*
X-127657Y10827D01*
X-128156Y11327D01*
X-128156Y11826D01*
X-127657Y12326D01*
X-126157Y12326D01*
X-131155Y11826D02*
X-130656Y12326D01*
X-129656Y12326D01*
X-129156Y11826D01*
X-129156Y9827D01*
X-129656Y9327D01*
X-130656Y9327D01*
X-131155Y9827D01*
X-132155Y9327D02*
X-133155Y9327D01*
X-132655Y9327D01*
X-132655Y12326D01*
X-132155Y11826D01*
X-134654Y9327D02*
X-135654Y9327D01*
X-135154Y9327D01*
X-135154Y12326D01*
X-134654Y11826D01*
X18720Y95873D02*
X19553Y95873D01*
X19136Y95873D01*
X19136Y93791D01*
X19553Y93374D01*
X19969Y93374D01*
X20386Y93791D01*
X17887Y93374D02*
X17054Y93374D01*
X17470Y93374D01*
X17470Y95873D01*
X17887Y95457D01*
X-123689Y-40823D02*
X-123689Y-43822D01*
X-125188Y-43822D01*
X-125688Y-43323D01*
X-125688Y-42823D01*
X-125188Y-42323D01*
X-123689Y-42323D01*
X-125188Y-42323D01*
X-125688Y-41823D01*
X-125688Y-41323D01*
X-125188Y-40823D01*
X-123689Y-40823D01*
X-128687Y-41323D02*
X-128187Y-40823D01*
X-127188Y-40823D01*
X-126688Y-41323D01*
X-126688Y-43323D01*
X-127188Y-43822D01*
X-128187Y-43822D01*
X-128687Y-43323D01*
X-129687Y-43822D02*
X-130686Y-43822D01*
X-130187Y-43822D01*
X-130187Y-40823D01*
X-129687Y-41323D01*
X-132186Y-41323D02*
X-132686Y-40823D01*
X-133686Y-40823D01*
X-134185Y-41323D01*
X-134185Y-43323D01*
X-133686Y-43822D01*
X-132686Y-43822D01*
X-132186Y-43323D01*
X-132186Y-41323D01*
X-125923Y-92989D02*
X-125923Y-95988D01*
X-127422Y-95988D01*
X-127922Y-95488D01*
X-127922Y-94988D01*
X-127422Y-94488D01*
X-125923Y-94488D01*
X-127422Y-94488D01*
X-127922Y-93988D01*
X-127922Y-93489D01*
X-127422Y-92989D01*
X-125923Y-92989D01*
X-130921Y-93489D02*
X-130421Y-92989D01*
X-129421Y-92989D01*
X-128922Y-93489D01*
X-128922Y-95488D01*
X-129421Y-95988D01*
X-130421Y-95988D01*
X-130921Y-95488D01*
X-131921Y-95488D02*
X-132421Y-95988D01*
X-133420Y-95988D01*
X-133920Y-95488D01*
X-133920Y-93489D01*
X-133420Y-92989D01*
X-132421Y-92989D01*
X-131921Y-93489D01*
X-131921Y-93988D01*
X-132421Y-94488D01*
X-133920Y-94488D01*
X-74742Y64492D02*
X-74742Y61493D01*
X-76241Y61493D01*
X-76741Y61993D01*
X-76741Y62492D01*
X-76241Y62992D01*
X-74742Y62992D01*
X-76241Y62992D01*
X-76741Y63492D01*
X-76741Y63992D01*
X-76241Y64492D01*
X-74742Y64492D01*
X-79740Y63992D02*
X-79240Y64492D01*
X-78240Y64492D01*
X-77741Y63992D01*
X-77741Y61993D01*
X-78240Y61493D01*
X-79240Y61493D01*
X-79740Y61993D01*
X-80739Y63992D02*
X-81239Y64492D01*
X-82239Y64492D01*
X-82739Y63992D01*
X-82739Y63492D01*
X-82239Y62992D01*
X-82739Y62492D01*
X-82739Y61993D01*
X-82239Y61493D01*
X-81239Y61493D01*
X-80739Y61993D01*
X-80739Y62492D01*
X-81239Y62992D01*
X-80739Y63492D01*
X-80739Y63992D01*
X-81239Y62992D02*
X-82239Y62992D01*
X-74742Y12326D02*
X-74742Y9327D01*
X-76241Y9327D01*
X-76741Y9827D01*
X-76741Y10327D01*
X-76241Y10827D01*
X-74742Y10827D01*
X-76241Y10827D01*
X-76741Y11327D01*
X-76741Y11826D01*
X-76241Y12326D01*
X-74742Y12326D01*
X-79740Y11826D02*
X-79240Y12326D01*
X-78240Y12326D01*
X-77741Y11826D01*
X-77741Y9827D01*
X-78240Y9327D01*
X-79240Y9327D01*
X-79740Y9827D01*
X-80739Y12326D02*
X-82739Y12326D01*
X-82739Y11826D01*
X-80739Y9827D01*
X-80739Y9327D01*
X-74742Y-39839D02*
X-74742Y-42838D01*
X-76241Y-42838D01*
X-76741Y-42338D01*
X-76741Y-41838D01*
X-76241Y-41339D01*
X-74742Y-41339D01*
X-76241Y-41339D01*
X-76741Y-40839D01*
X-76741Y-40339D01*
X-76241Y-39839D01*
X-74742Y-39839D01*
X-79740Y-40339D02*
X-79240Y-39839D01*
X-78240Y-39839D01*
X-77741Y-40339D01*
X-77741Y-42338D01*
X-78240Y-42838D01*
X-79240Y-42838D01*
X-79740Y-42338D01*
X-82739Y-39839D02*
X-81739Y-40339D01*
X-80739Y-41339D01*
X-80739Y-42338D01*
X-81239Y-42838D01*
X-82239Y-42838D01*
X-82739Y-42338D01*
X-82739Y-41838D01*
X-82239Y-41339D01*
X-80739Y-41339D01*
X-74742Y-92989D02*
X-74742Y-95988D01*
X-76241Y-95988D01*
X-76741Y-95488D01*
X-76741Y-94988D01*
X-76241Y-94488D01*
X-74742Y-94488D01*
X-76241Y-94488D01*
X-76741Y-93988D01*
X-76741Y-93489D01*
X-76241Y-92989D01*
X-74742Y-92989D01*
X-79740Y-93489D02*
X-79240Y-92989D01*
X-78240Y-92989D01*
X-77741Y-93489D01*
X-77741Y-95488D01*
X-78240Y-95988D01*
X-79240Y-95988D01*
X-79740Y-95488D01*
X-82739Y-92989D02*
X-80739Y-92989D01*
X-80739Y-94488D01*
X-81739Y-93988D01*
X-82239Y-93988D01*
X-82739Y-94488D01*
X-82739Y-95488D01*
X-82239Y-95988D01*
X-81239Y-95988D01*
X-80739Y-95488D01*
X-23167Y64885D02*
X-23167Y61886D01*
X-24666Y61886D01*
X-25166Y62386D01*
X-25166Y62886D01*
X-24666Y63386D01*
X-23167Y63386D01*
X-24666Y63386D01*
X-25166Y63886D01*
X-25166Y64385D01*
X-24666Y64885D01*
X-23167Y64885D01*
X-28165Y64385D02*
X-27665Y64885D01*
X-26665Y64885D01*
X-26166Y64385D01*
X-26166Y62386D01*
X-26665Y61886D01*
X-27665Y61886D01*
X-28165Y62386D01*
X-30664Y61886D02*
X-30664Y64885D01*
X-29165Y63386D01*
X-31164Y63386D01*
X-23560Y12326D02*
X-23560Y9327D01*
X-25060Y9327D01*
X-25560Y9827D01*
X-25560Y10327D01*
X-25060Y10827D01*
X-23560Y10827D01*
X-25060Y10827D01*
X-25560Y11327D01*
X-25560Y11826D01*
X-25060Y12326D01*
X-23560Y12326D01*
X-28559Y11826D02*
X-28059Y12326D01*
X-27059Y12326D01*
X-26559Y11826D01*
X-26559Y9827D01*
X-27059Y9327D01*
X-28059Y9327D01*
X-28559Y9827D01*
X-29558Y11826D02*
X-30058Y12326D01*
X-31058Y12326D01*
X-31558Y11826D01*
X-31558Y11327D01*
X-31058Y10827D01*
X-30558Y10827D01*
X-31058Y10827D01*
X-31558Y10327D01*
X-31558Y9827D01*
X-31058Y9327D01*
X-30058Y9327D01*
X-29558Y9827D01*
X-23560Y-40823D02*
X-23560Y-43822D01*
X-25060Y-43822D01*
X-25560Y-43323D01*
X-25560Y-42823D01*
X-25060Y-42323D01*
X-23560Y-42323D01*
X-25060Y-42323D01*
X-25560Y-41823D01*
X-25560Y-41323D01*
X-25060Y-40823D01*
X-23560Y-40823D01*
X-28559Y-41323D02*
X-28059Y-40823D01*
X-27059Y-40823D01*
X-26559Y-41323D01*
X-26559Y-43323D01*
X-27059Y-43822D01*
X-28059Y-43822D01*
X-28559Y-43323D01*
X-31558Y-43822D02*
X-29558Y-43822D01*
X-31558Y-41823D01*
X-31558Y-41323D01*
X-31058Y-40823D01*
X-30058Y-40823D01*
X-29558Y-41323D01*
X-24060Y-92989D02*
X-24060Y-95988D01*
X-25560Y-95988D01*
X-26059Y-95488D01*
X-26059Y-94988D01*
X-25560Y-94488D01*
X-24060Y-94488D01*
X-25560Y-94488D01*
X-26059Y-93988D01*
X-26059Y-93489D01*
X-25560Y-92989D01*
X-24060Y-92989D01*
X-29059Y-93489D02*
X-28559Y-92989D01*
X-27559Y-92989D01*
X-27059Y-93489D01*
X-27059Y-95488D01*
X-27559Y-95988D01*
X-28559Y-95988D01*
X-29059Y-95488D01*
X-30058Y-95988D02*
X-31058Y-95988D01*
X-30558Y-95988D01*
X-30558Y-92989D01*
X-30058Y-93489D01*
X-129000Y-62000D02*
X-128500Y-61501D01*
X-127501Y-61501D01*
X-127001Y-62000D01*
X-127001Y-62500D01*
X-127501Y-63000D01*
X-128500Y-63000D01*
X-129000Y-63500D01*
X-129000Y-64000D01*
X-128500Y-64499D01*
X-127501Y-64499D01*
X-127001Y-64000D01*
X-130000Y-64000D02*
X-130500Y-64499D01*
X-131499Y-64499D01*
X-131999Y-64000D01*
X-131999Y-62000D01*
X-131499Y-61501D01*
X-130500Y-61501D01*
X-130000Y-62000D01*
X-130000Y-62500D01*
X-130500Y-63000D01*
X-131999Y-63000D01*
X-128251Y-9500D02*
X-127751Y-9001D01*
X-126751Y-9001D01*
X-126251Y-9500D01*
X-126251Y-10000D01*
X-126751Y-10500D01*
X-127751Y-10500D01*
X-128251Y-11000D01*
X-128251Y-11500D01*
X-127751Y-11999D01*
X-126751Y-11999D01*
X-126251Y-11500D01*
X-129250Y-11999D02*
X-130250Y-11999D01*
X-129750Y-11999D01*
X-129750Y-9001D01*
X-129250Y-9500D01*
X-131749Y-9500D02*
X-132249Y-9001D01*
X-133249Y-9001D01*
X-133749Y-9500D01*
X-133749Y-11500D01*
X-133249Y-11999D01*
X-132249Y-11999D01*
X-131749Y-11500D01*
X-131749Y-9500D01*
X-77740Y-10314D02*
X-77241Y-9814D01*
X-76241Y-9814D01*
X-75741Y-10314D01*
X-75741Y-10813D01*
X-76241Y-11313D01*
X-77241Y-11313D01*
X-77740Y-11813D01*
X-77740Y-12313D01*
X-77241Y-12813D01*
X-76241Y-12813D01*
X-75741Y-12313D01*
X-80739Y-9814D02*
X-79740Y-10314D01*
X-78740Y-11313D01*
X-78740Y-12313D01*
X-79240Y-12813D01*
X-80239Y-12813D01*
X-80739Y-12313D01*
X-80739Y-11813D01*
X-80239Y-11313D01*
X-78740Y-11313D01*
X-77940Y42913D02*
X-77441Y43413D01*
X-76441Y43413D01*
X-75941Y42913D01*
X-75941Y42413D01*
X-76441Y41913D01*
X-77441Y41913D01*
X-77940Y41414D01*
X-77940Y40914D01*
X-77441Y40414D01*
X-76441Y40414D01*
X-75941Y40914D01*
X-78940Y43413D02*
X-80939Y43413D01*
X-80939Y42913D01*
X-78940Y40914D01*
X-78940Y40414D01*
X-77740Y95140D02*
X-77241Y95640D01*
X-76241Y95640D01*
X-75741Y95140D01*
X-75741Y94640D01*
X-76241Y94140D01*
X-77241Y94140D01*
X-77740Y93640D01*
X-77740Y93141D01*
X-77241Y92641D01*
X-76241Y92641D01*
X-75741Y93141D01*
X-78740Y95140D02*
X-79240Y95640D01*
X-80239Y95640D01*
X-80739Y95140D01*
X-80739Y94640D01*
X-80239Y94140D01*
X-80739Y93640D01*
X-80739Y93141D01*
X-80239Y92641D01*
X-79240Y92641D01*
X-78740Y93141D01*
X-78740Y93640D01*
X-79240Y94140D01*
X-78740Y94640D01*
X-78740Y95140D01*
X-79240Y94140D02*
X-80239Y94140D01*
X-77940Y-61940D02*
X-77441Y-61441D01*
X-76441Y-61441D01*
X-75941Y-61940D01*
X-75941Y-62440D01*
X-76441Y-62940D01*
X-77441Y-62940D01*
X-77940Y-63440D01*
X-77940Y-63940D01*
X-77441Y-64440D01*
X-76441Y-64440D01*
X-75941Y-63940D01*
X-80939Y-61441D02*
X-78940Y-61441D01*
X-78940Y-62940D01*
X-79940Y-62440D01*
X-80440Y-62440D01*
X-80939Y-62940D01*
X-80939Y-63940D01*
X-80440Y-64440D01*
X-79440Y-64440D01*
X-78940Y-63940D01*
X-12999Y-80500D02*
X-12999Y-77500D01*
X-11499Y-77500D01*
X-11000Y-78000D01*
X-11000Y-80000D01*
X-11499Y-80500D01*
X-12999Y-80500D01*
X-10000Y-77500D02*
X-10000Y-80500D01*
X-8500Y-80500D01*
X-8000Y-80000D01*
X-8000Y-79000D01*
X-8500Y-78500D01*
X-10000Y-78500D01*
X-7001Y-77500D02*
X-6001Y-77500D01*
X-6501Y-77500D01*
X-6501Y-80500D01*
X-7001Y-80000D01*
X80000Y-1500D02*
X80999Y-1500D01*
X80500Y-1500D01*
X80500Y-4000D01*
X80999Y-4499D01*
X81499Y-4499D01*
X81999Y-4000D01*
X79000Y-2000D02*
X78500Y-1500D01*
X77501Y-1500D01*
X77001Y-2000D01*
X77001Y-2500D01*
X77501Y-3000D01*
X78000Y-3000D01*
X77501Y-3000D01*
X77001Y-3500D01*
X77001Y-4000D01*
X77501Y-4499D01*
X78500Y-4499D01*
X79000Y-4000D01*
X80000Y85500D02*
X80999Y85500D01*
X80500Y85500D01*
X80500Y83000D01*
X80999Y82500D01*
X81499Y82500D01*
X81999Y83000D01*
X77001Y82500D02*
X79000Y82500D01*
X77001Y84500D01*
X77001Y85000D01*
X77501Y85500D01*
X78500Y85500D01*
X79000Y85000D01*
X79000Y-39500D02*
X80000Y-39500D01*
X79500Y-39500D01*
X79500Y-42000D01*
X80000Y-42500D01*
X80499Y-42500D01*
X80999Y-42000D01*
X76501Y-42500D02*
X76501Y-39500D01*
X78000Y-41000D01*
X76001Y-41000D01*
X-27259Y-61940D02*
X-26759Y-61441D01*
X-25760Y-61441D01*
X-25260Y-61940D01*
X-25260Y-62440D01*
X-25760Y-62940D01*
X-26759Y-62940D01*
X-27259Y-63440D01*
X-27259Y-63940D01*
X-26759Y-64440D01*
X-25760Y-64440D01*
X-25260Y-63940D01*
X-28259Y-64440D02*
X-29258Y-64440D01*
X-28759Y-64440D01*
X-28759Y-61441D01*
X-28259Y-61940D01*
X-26362Y95000D02*
X-25863Y95499D01*
X-24863Y95499D01*
X-24363Y95000D01*
X-24363Y94500D01*
X-24863Y94000D01*
X-25863Y94000D01*
X-26362Y93500D01*
X-26362Y93000D01*
X-25863Y92501D01*
X-24863Y92501D01*
X-24363Y93000D01*
X-28862Y92501D02*
X-28862Y95499D01*
X-27362Y94000D01*
X-29361Y94000D01*
X-26759Y42913D02*
X-26259Y43413D01*
X-25260Y43413D01*
X-24760Y42913D01*
X-24760Y42413D01*
X-25260Y41913D01*
X-26259Y41913D01*
X-26759Y41414D01*
X-26759Y40914D01*
X-26259Y40414D01*
X-25260Y40414D01*
X-24760Y40914D01*
X-27759Y42913D02*
X-28259Y43413D01*
X-29258Y43413D01*
X-29758Y42913D01*
X-29758Y42413D01*
X-29258Y41913D01*
X-28759Y41913D01*
X-29258Y41913D01*
X-29758Y41414D01*
X-29758Y40914D01*
X-29258Y40414D01*
X-28259Y40414D01*
X-27759Y40914D01*
X-26559Y-10314D02*
X-26059Y-9814D01*
X-25060Y-9814D01*
X-24560Y-10314D01*
X-24560Y-10813D01*
X-25060Y-11313D01*
X-26059Y-11313D01*
X-26559Y-11813D01*
X-26559Y-12313D01*
X-26059Y-12813D01*
X-25060Y-12813D01*
X-24560Y-12313D01*
X-29558Y-12813D02*
X-27559Y-12813D01*
X-29558Y-10813D01*
X-29558Y-10314D01*
X-29058Y-9814D01*
X-28059Y-9814D01*
X-27559Y-10314D01*
D15*
X-117717Y26248D02*
X-117757Y27243D01*
X-117879Y28231D01*
X-118080Y29206D01*
X-118361Y30161D01*
X-118718Y31091D01*
X-119150Y31988D01*
X-119654Y32846D01*
X-120226Y33661D01*
X-120862Y34427D01*
X-121559Y35138D01*
X-122312Y35790D01*
X-123115Y36379D01*
X-123963Y36900D01*
X-124851Y37350D01*
X-125773Y37726D01*
X-126722Y38026D01*
X-127693Y38248D01*
X-128679Y38389D01*
X-129672Y38450D01*
X-130668Y38430D01*
X-131658Y38328D01*
X-132637Y38147D01*
X-133598Y37886D01*
X-134534Y37547D01*
X-135440Y37134D01*
X-136309Y36648D01*
X-137135Y36092D01*
X-137914Y35472D01*
X-138639Y34790D01*
X-139306Y34051D01*
X-139911Y33260D01*
X-140449Y32422D01*
X-140917Y31543D01*
X-141312Y30630D01*
X-141632Y29686D01*
X-141873Y28721D01*
X-142035Y27738D01*
X-142116Y26746D01*
X-142116Y25750D01*
X-142035Y24758D01*
X-141873Y23776D01*
X-141632Y22810D01*
X-141312Y21867D01*
X-140917Y20953D01*
X-140449Y20074D01*
X-139911Y19236D01*
X-139306Y18446D01*
X-138639Y17706D01*
X-137914Y17024D01*
X-137135Y16404D01*
X-136309Y15848D01*
X-135440Y15362D01*
X-134534Y14949D01*
X-133598Y14610D01*
X-132637Y14349D01*
X-131658Y14167D01*
X-130668Y14066D01*
X-129672Y14046D01*
X-128679Y14107D01*
X-127693Y14248D01*
X-126722Y14470D01*
X-125773Y14770D01*
X-124851Y15146D01*
X-123963Y15596D01*
X-123115Y16117D01*
X-122312Y16706D01*
X-121559Y17358D01*
X-120862Y18069D01*
X-120226Y18835D01*
X-119654Y19650D01*
X-119150Y20508D01*
X-118718Y21406D01*
X-118361Y22335D01*
X-118080Y23290D01*
X-117879Y24265D01*
X-117757Y25253D01*
X-117717Y26248D01*
X-117717Y-26248D02*
X-117757Y-25253D01*
X-117879Y-24265D01*
X-118080Y-23290D01*
X-118361Y-22335D01*
X-118718Y-21406D01*
X-119150Y-20508D01*
X-119654Y-19650D01*
X-120226Y-18835D01*
X-120862Y-18069D01*
X-121559Y-17358D01*
X-122312Y-16706D01*
X-123115Y-16117D01*
X-123963Y-15596D01*
X-124851Y-15146D01*
X-125773Y-14770D01*
X-126722Y-14470D01*
X-127693Y-14248D01*
X-128679Y-14107D01*
X-129672Y-14046D01*
X-130668Y-14066D01*
X-131658Y-14167D01*
X-132637Y-14349D01*
X-133598Y-14610D01*
X-134534Y-14949D01*
X-135440Y-15362D01*
X-136309Y-15848D01*
X-137135Y-16404D01*
X-137914Y-17024D01*
X-138639Y-17706D01*
X-139306Y-18445D01*
X-139911Y-19236D01*
X-140449Y-20074D01*
X-140917Y-20953D01*
X-141312Y-21867D01*
X-141632Y-22810D01*
X-141873Y-23776D01*
X-142035Y-24758D01*
X-142116Y-25750D01*
X-142116Y-26746D01*
X-142035Y-27738D01*
X-141873Y-28721D01*
X-141632Y-29686D01*
X-141312Y-30630D01*
X-140917Y-31543D01*
X-140449Y-32422D01*
X-139911Y-33260D01*
X-139306Y-34051D01*
X-138639Y-34790D01*
X-137914Y-35472D01*
X-137135Y-36092D01*
X-136309Y-36648D01*
X-135440Y-37134D01*
X-134534Y-37547D01*
X-133598Y-37886D01*
X-132637Y-38147D01*
X-131658Y-38328D01*
X-130668Y-38430D01*
X-129672Y-38450D01*
X-128679Y-38389D01*
X-127693Y-38248D01*
X-126722Y-38026D01*
X-125773Y-37726D01*
X-124851Y-37350D01*
X-123963Y-36900D01*
X-123115Y-36379D01*
X-122312Y-35790D01*
X-121559Y-35138D01*
X-120862Y-34427D01*
X-120226Y-33661D01*
X-119654Y-32846D01*
X-119150Y-31988D01*
X-118718Y-31091D01*
X-118361Y-30161D01*
X-118080Y-29206D01*
X-117879Y-28231D01*
X-117757Y-27243D01*
X-117717Y-26248D01*
X-117717Y-78740D02*
X-117757Y-77745D01*
X-117879Y-76757D01*
X-118080Y-75782D01*
X-118361Y-74827D01*
X-118718Y-73898D01*
X-119150Y-73001D01*
X-119654Y-72142D01*
X-120226Y-71327D01*
X-120862Y-70561D01*
X-121559Y-69850D01*
X-122312Y-69198D01*
X-123115Y-68610D01*
X-123963Y-68089D01*
X-124851Y-67638D01*
X-125773Y-67262D01*
X-126722Y-66962D01*
X-127693Y-66741D01*
X-128679Y-66599D01*
X-129672Y-66538D01*
X-130668Y-66558D01*
X-131658Y-66660D01*
X-132637Y-66841D01*
X-133598Y-67102D01*
X-134534Y-67441D01*
X-135440Y-67854D01*
X-136309Y-68340D01*
X-137135Y-68896D01*
X-137914Y-69516D01*
X-138639Y-70199D01*
X-139306Y-70938D01*
X-139911Y-71728D01*
X-140449Y-72566D01*
X-140917Y-73445D01*
X-141312Y-74359D01*
X-141632Y-75302D01*
X-141873Y-76268D01*
X-142035Y-77250D01*
X-142116Y-78242D01*
X-142116Y-79238D01*
X-142035Y-80230D01*
X-141873Y-81213D01*
X-141632Y-82179D01*
X-141312Y-83122D01*
X-140917Y-84036D01*
X-140449Y-84914D01*
X-139911Y-85752D01*
X-139306Y-86543D01*
X-138639Y-87282D01*
X-137914Y-87964D01*
X-137135Y-88585D01*
X-136309Y-89140D01*
X-135440Y-89626D01*
X-134534Y-90039D01*
X-133598Y-90378D01*
X-132637Y-90639D01*
X-131658Y-90821D01*
X-130668Y-90922D01*
X-129672Y-90942D01*
X-128679Y-90881D01*
X-127693Y-90740D01*
X-126722Y-90518D01*
X-125773Y-90218D01*
X-124851Y-89842D01*
X-123963Y-89392D01*
X-123115Y-88871D01*
X-122312Y-88282D01*
X-121559Y-87630D01*
X-120862Y-86919D01*
X-120226Y-86154D01*
X-119654Y-85338D01*
X-119150Y-84480D01*
X-118718Y-83583D01*
X-118361Y-82653D01*
X-118080Y-81698D01*
X-117879Y-80723D01*
X-117757Y-79735D01*
X-117717Y-78740D01*
X-66535Y78740D02*
X-66576Y79735D01*
X-66698Y80723D01*
X-66899Y81698D01*
X-67180Y82653D01*
X-67537Y83583D01*
X-67969Y84480D01*
X-68473Y85338D01*
X-69045Y86153D01*
X-69681Y86919D01*
X-70378Y87630D01*
X-71131Y88282D01*
X-71934Y88871D01*
X-72782Y89392D01*
X-73670Y89842D01*
X-74592Y90218D01*
X-75541Y90518D01*
X-76512Y90740D01*
X-77497Y90881D01*
X-78491Y90942D01*
X-79487Y90922D01*
X-80477Y90821D01*
X-81456Y90639D01*
X-82417Y90378D01*
X-83353Y90039D01*
X-84259Y89626D01*
X-85128Y89140D01*
X-85954Y88585D01*
X-86733Y87964D01*
X-87458Y87282D01*
X-88125Y86543D01*
X-88730Y85752D01*
X-89268Y84914D01*
X-89736Y84036D01*
X-90131Y83122D01*
X-90451Y82179D01*
X-90692Y81213D01*
X-90854Y80230D01*
X-90935Y79238D01*
X-90935Y78242D01*
X-90854Y77250D01*
X-90692Y76268D01*
X-90451Y75302D01*
X-90131Y74359D01*
X-89736Y73445D01*
X-89268Y72566D01*
X-88730Y71728D01*
X-88125Y70938D01*
X-87458Y70199D01*
X-86733Y69516D01*
X-85954Y68896D01*
X-85128Y68340D01*
X-84259Y67854D01*
X-83353Y67441D01*
X-82417Y67102D01*
X-81456Y66841D01*
X-80477Y66660D01*
X-79487Y66558D01*
X-78491Y66538D01*
X-77498Y66599D01*
X-76512Y66741D01*
X-75541Y66962D01*
X-74592Y67262D01*
X-73670Y67638D01*
X-72782Y68089D01*
X-71934Y68610D01*
X-71131Y69198D01*
X-70378Y69850D01*
X-69681Y70561D01*
X-69045Y71327D01*
X-68473Y72142D01*
X-67969Y73001D01*
X-67537Y73898D01*
X-67180Y74827D01*
X-66899Y75782D01*
X-66698Y76757D01*
X-66576Y77745D01*
X-66535Y78740D01*
X-66535Y26248D02*
X-66576Y27243D01*
X-66698Y28231D01*
X-66899Y29206D01*
X-67180Y30161D01*
X-67537Y31091D01*
X-67969Y31988D01*
X-68473Y32846D01*
X-69045Y33661D01*
X-69681Y34427D01*
X-70378Y35138D01*
X-71131Y35790D01*
X-71934Y36379D01*
X-72782Y36900D01*
X-73670Y37350D01*
X-74592Y37726D01*
X-75541Y38026D01*
X-76512Y38248D01*
X-77497Y38389D01*
X-78491Y38450D01*
X-79487Y38430D01*
X-80477Y38328D01*
X-81456Y38147D01*
X-82417Y37886D01*
X-83353Y37547D01*
X-84259Y37134D01*
X-85128Y36648D01*
X-85954Y36092D01*
X-86733Y35472D01*
X-87458Y34790D01*
X-88125Y34051D01*
X-88730Y33260D01*
X-89268Y32422D01*
X-89736Y31543D01*
X-90131Y30630D01*
X-90451Y29686D01*
X-90692Y28721D01*
X-90854Y27738D01*
X-90935Y26746D01*
X-90935Y25750D01*
X-90854Y24758D01*
X-90692Y23776D01*
X-90451Y22810D01*
X-90131Y21867D01*
X-89736Y20953D01*
X-89268Y20074D01*
X-88730Y19236D01*
X-88125Y18446D01*
X-87458Y17706D01*
X-86733Y17024D01*
X-85954Y16404D01*
X-85128Y15848D01*
X-84259Y15362D01*
X-83353Y14949D01*
X-82417Y14610D01*
X-81456Y14349D01*
X-80477Y14167D01*
X-79487Y14066D01*
X-78491Y14046D01*
X-77498Y14107D01*
X-76512Y14248D01*
X-75541Y14470D01*
X-74592Y14770D01*
X-73670Y15146D01*
X-72782Y15596D01*
X-71934Y16117D01*
X-71131Y16706D01*
X-70378Y17358D01*
X-69681Y18069D01*
X-69045Y18835D01*
X-68473Y19650D01*
X-67969Y20508D01*
X-67537Y21406D01*
X-67180Y22335D01*
X-66899Y23290D01*
X-66698Y24265D01*
X-66576Y25253D01*
X-66535Y26248D01*
X-66535Y-26248D02*
X-66576Y-25253D01*
X-66698Y-24265D01*
X-66899Y-23290D01*
X-67180Y-22335D01*
X-67537Y-21406D01*
X-67969Y-20508D01*
X-68473Y-19650D01*
X-69045Y-18835D01*
X-69681Y-18069D01*
X-70378Y-17358D01*
X-71131Y-16706D01*
X-71934Y-16117D01*
X-72782Y-15596D01*
X-73670Y-15146D01*
X-74592Y-14770D01*
X-75541Y-14470D01*
X-76512Y-14248D01*
X-77497Y-14107D01*
X-78491Y-14046D01*
X-79487Y-14066D01*
X-80477Y-14167D01*
X-81456Y-14349D01*
X-82417Y-14610D01*
X-83353Y-14949D01*
X-84259Y-15362D01*
X-85128Y-15848D01*
X-85954Y-16404D01*
X-86733Y-17024D01*
X-87458Y-17706D01*
X-88125Y-18445D01*
X-88730Y-19236D01*
X-89268Y-20074D01*
X-89736Y-20953D01*
X-90131Y-21867D01*
X-90451Y-22810D01*
X-90692Y-23776D01*
X-90854Y-24758D01*
X-90935Y-25750D01*
X-90935Y-26746D01*
X-90854Y-27738D01*
X-90692Y-28721D01*
X-90451Y-29686D01*
X-90131Y-30630D01*
X-89736Y-31543D01*
X-89268Y-32422D01*
X-88730Y-33260D01*
X-88125Y-34051D01*
X-87458Y-34790D01*
X-86733Y-35472D01*
X-85954Y-36092D01*
X-85128Y-36648D01*
X-84259Y-37134D01*
X-83353Y-37547D01*
X-82417Y-37886D01*
X-81456Y-38147D01*
X-80477Y-38328D01*
X-79487Y-38430D01*
X-78491Y-38450D01*
X-77498Y-38389D01*
X-76512Y-38248D01*
X-75541Y-38026D01*
X-74592Y-37726D01*
X-73670Y-37350D01*
X-72782Y-36900D01*
X-71934Y-36379D01*
X-71131Y-35790D01*
X-70378Y-35138D01*
X-69681Y-34427D01*
X-69045Y-33661D01*
X-68473Y-32846D01*
X-67969Y-31988D01*
X-67537Y-31091D01*
X-67180Y-30161D01*
X-66899Y-29206D01*
X-66698Y-28231D01*
X-66576Y-27243D01*
X-66535Y-26248D01*
X-66535Y-78740D02*
X-66576Y-77745D01*
X-66698Y-76757D01*
X-66899Y-75782D01*
X-67180Y-74827D01*
X-67537Y-73898D01*
X-67969Y-73001D01*
X-68473Y-72142D01*
X-69045Y-71327D01*
X-69681Y-70561D01*
X-70378Y-69850D01*
X-71131Y-69198D01*
X-71934Y-68610D01*
X-72782Y-68089D01*
X-73670Y-67638D01*
X-74592Y-67262D01*
X-75541Y-66962D01*
X-76512Y-66741D01*
X-77497Y-66599D01*
X-78491Y-66538D01*
X-79487Y-66558D01*
X-80477Y-66660D01*
X-81456Y-66841D01*
X-82417Y-67102D01*
X-83353Y-67441D01*
X-84259Y-67854D01*
X-85128Y-68340D01*
X-85954Y-68896D01*
X-86733Y-69516D01*
X-87458Y-70199D01*
X-88125Y-70938D01*
X-88730Y-71728D01*
X-89268Y-72566D01*
X-89736Y-73445D01*
X-90131Y-74359D01*
X-90451Y-75302D01*
X-90692Y-76268D01*
X-90854Y-77250D01*
X-90935Y-78242D01*
X-90935Y-79238D01*
X-90854Y-80230D01*
X-90692Y-81213D01*
X-90451Y-82179D01*
X-90131Y-83122D01*
X-89736Y-84036D01*
X-89268Y-84914D01*
X-88730Y-85752D01*
X-88125Y-86543D01*
X-87458Y-87282D01*
X-86733Y-87964D01*
X-85954Y-88585D01*
X-85128Y-89140D01*
X-84259Y-89626D01*
X-83353Y-90039D01*
X-82417Y-90378D01*
X-81456Y-90639D01*
X-80477Y-90821D01*
X-79487Y-90922D01*
X-78491Y-90942D01*
X-77498Y-90881D01*
X-76512Y-90740D01*
X-75541Y-90518D01*
X-74592Y-90218D01*
X-73670Y-89842D01*
X-72782Y-89392D01*
X-71934Y-88871D01*
X-71131Y-88282D01*
X-70378Y-87630D01*
X-69681Y-86919D01*
X-69045Y-86154D01*
X-68473Y-85338D01*
X-67969Y-84480D01*
X-67537Y-83583D01*
X-67180Y-82653D01*
X-66899Y-81698D01*
X-66698Y-80723D01*
X-66576Y-79735D01*
X-66535Y-78740D01*
X-15354Y78740D02*
X-15395Y79735D01*
X-15517Y80723D01*
X-15718Y81698D01*
X-15999Y82653D01*
X-16356Y83583D01*
X-16788Y84480D01*
X-17292Y85338D01*
X-17864Y86153D01*
X-18500Y86919D01*
X-19197Y87630D01*
X-19950Y88282D01*
X-20753Y88871D01*
X-21601Y89392D01*
X-22489Y89842D01*
X-23411Y90218D01*
X-24360Y90518D01*
X-25331Y90740D01*
X-26316Y90881D01*
X-27310Y90942D01*
X-28306Y90922D01*
X-29296Y90821D01*
X-30275Y90639D01*
X-31236Y90378D01*
X-32172Y90039D01*
X-33078Y89626D01*
X-33947Y89140D01*
X-34773Y88585D01*
X-35551Y87964D01*
X-36277Y87282D01*
X-36944Y86543D01*
X-37549Y85752D01*
X-38087Y84914D01*
X-38555Y84036D01*
X-38950Y83122D01*
X-39269Y82179D01*
X-39511Y81213D01*
X-39672Y80230D01*
X-39754Y79238D01*
X-39754Y78242D01*
X-39672Y77250D01*
X-39511Y76268D01*
X-39269Y75302D01*
X-38950Y74359D01*
X-38555Y73445D01*
X-38087Y72566D01*
X-37549Y71728D01*
X-36944Y70938D01*
X-36277Y70199D01*
X-35552Y69516D01*
X-34773Y68896D01*
X-33947Y68340D01*
X-33078Y67854D01*
X-32172Y67441D01*
X-31236Y67102D01*
X-30275Y66841D01*
X-29296Y66660D01*
X-28306Y66558D01*
X-27310Y66538D01*
X-26316Y66599D01*
X-25331Y66741D01*
X-24360Y66962D01*
X-23411Y67262D01*
X-22489Y67638D01*
X-21601Y68089D01*
X-20753Y68610D01*
X-19950Y69198D01*
X-19197Y69850D01*
X-18500Y70561D01*
X-17864Y71327D01*
X-17292Y72142D01*
X-16788Y73001D01*
X-16356Y73898D01*
X-15999Y74827D01*
X-15718Y75782D01*
X-15517Y76757D01*
X-15395Y77745D01*
X-15354Y78740D01*
X-15354Y26248D02*
X-15395Y27243D01*
X-15517Y28231D01*
X-15718Y29206D01*
X-15999Y30161D01*
X-16356Y31091D01*
X-16788Y31988D01*
X-17292Y32846D01*
X-17864Y33661D01*
X-18500Y34427D01*
X-19197Y35138D01*
X-19950Y35790D01*
X-20753Y36379D01*
X-21601Y36900D01*
X-22489Y37350D01*
X-23411Y37726D01*
X-24360Y38026D01*
X-25331Y38248D01*
X-26316Y38389D01*
X-27310Y38450D01*
X-28306Y38430D01*
X-29296Y38328D01*
X-30275Y38147D01*
X-31236Y37886D01*
X-32172Y37547D01*
X-33078Y37134D01*
X-33947Y36648D01*
X-34773Y36092D01*
X-35551Y35472D01*
X-36277Y34790D01*
X-36944Y34051D01*
X-37549Y33260D01*
X-38087Y32422D01*
X-38555Y31543D01*
X-38950Y30630D01*
X-39269Y29686D01*
X-39511Y28721D01*
X-39672Y27738D01*
X-39754Y26746D01*
X-39754Y25750D01*
X-39672Y24758D01*
X-39511Y23776D01*
X-39269Y22810D01*
X-38950Y21867D01*
X-38555Y20953D01*
X-38087Y20074D01*
X-37549Y19236D01*
X-36944Y18446D01*
X-36277Y17706D01*
X-35552Y17024D01*
X-34773Y16404D01*
X-33947Y15848D01*
X-33078Y15362D01*
X-32172Y14949D01*
X-31236Y14610D01*
X-30275Y14349D01*
X-29296Y14167D01*
X-28306Y14066D01*
X-27310Y14046D01*
X-26316Y14107D01*
X-25331Y14248D01*
X-24360Y14470D01*
X-23411Y14770D01*
X-22489Y15146D01*
X-21601Y15596D01*
X-20753Y16117D01*
X-19950Y16706D01*
X-19197Y17358D01*
X-18500Y18069D01*
X-17864Y18835D01*
X-17292Y19650D01*
X-16788Y20508D01*
X-16356Y21406D01*
X-15999Y22335D01*
X-15718Y23290D01*
X-15517Y24265D01*
X-15395Y25253D01*
X-15354Y26248D01*
X-15354Y-26248D02*
X-15395Y-25253D01*
X-15517Y-24265D01*
X-15718Y-23290D01*
X-15999Y-22335D01*
X-16356Y-21406D01*
X-16788Y-20508D01*
X-17292Y-19650D01*
X-17864Y-18835D01*
X-18500Y-18069D01*
X-19197Y-17358D01*
X-19950Y-16706D01*
X-20753Y-16117D01*
X-21601Y-15596D01*
X-22489Y-15146D01*
X-23411Y-14770D01*
X-24360Y-14470D01*
X-25331Y-14248D01*
X-26316Y-14107D01*
X-27310Y-14046D01*
X-28306Y-14066D01*
X-29296Y-14167D01*
X-30275Y-14349D01*
X-31236Y-14610D01*
X-32172Y-14949D01*
X-33078Y-15362D01*
X-33947Y-15848D01*
X-34773Y-16404D01*
X-35551Y-17024D01*
X-36277Y-17706D01*
X-36944Y-18445D01*
X-37549Y-19236D01*
X-38087Y-20074D01*
X-38555Y-20953D01*
X-38950Y-21867D01*
X-39269Y-22810D01*
X-39511Y-23776D01*
X-39672Y-24758D01*
X-39754Y-25750D01*
X-39754Y-26746D01*
X-39672Y-27738D01*
X-39511Y-28721D01*
X-39269Y-29686D01*
X-38950Y-30630D01*
X-38555Y-31543D01*
X-38087Y-32422D01*
X-37549Y-33260D01*
X-36944Y-34051D01*
X-36277Y-34790D01*
X-35552Y-35472D01*
X-34773Y-36092D01*
X-33947Y-36648D01*
X-33078Y-37134D01*
X-32172Y-37547D01*
X-31236Y-37886D01*
X-30275Y-38147D01*
X-29296Y-38328D01*
X-28306Y-38430D01*
X-27310Y-38450D01*
X-26316Y-38389D01*
X-25331Y-38248D01*
X-24360Y-38026D01*
X-23411Y-37726D01*
X-22489Y-37350D01*
X-21601Y-36900D01*
X-20753Y-36379D01*
X-19950Y-35790D01*
X-19197Y-35138D01*
X-18500Y-34427D01*
X-17864Y-33661D01*
X-17292Y-32846D01*
X-16788Y-31988D01*
X-16356Y-31091D01*
X-15999Y-30161D01*
X-15718Y-29206D01*
X-15517Y-28231D01*
X-15395Y-27243D01*
X-15354Y-26248D01*
X-15354Y-78740D02*
X-15395Y-77745D01*
X-15517Y-76757D01*
X-15718Y-75782D01*
X-15999Y-74827D01*
X-16356Y-73898D01*
X-16788Y-73001D01*
X-17292Y-72142D01*
X-17864Y-71327D01*
X-18500Y-70561D01*
X-19197Y-69850D01*
X-19950Y-69198D01*
X-20753Y-68610D01*
X-21601Y-68089D01*
X-22489Y-67638D01*
X-23411Y-67262D01*
X-24360Y-66962D01*
X-25331Y-66741D01*
X-26316Y-66599D01*
X-27310Y-66538D01*
X-28306Y-66558D01*
X-29296Y-66660D01*
X-30275Y-66841D01*
X-31236Y-67102D01*
X-32172Y-67441D01*
X-33078Y-67854D01*
X-33947Y-68340D01*
X-34773Y-68896D01*
X-35551Y-69516D01*
X-36277Y-70199D01*
X-36944Y-70938D01*
X-37549Y-71728D01*
X-38087Y-72566D01*
X-38555Y-73445D01*
X-38950Y-74359D01*
X-39269Y-75302D01*
X-39511Y-76268D01*
X-39672Y-77250D01*
X-39754Y-78242D01*
X-39754Y-79238D01*
X-39672Y-80230D01*
X-39511Y-81213D01*
X-39269Y-82179D01*
X-38950Y-83122D01*
X-38555Y-84036D01*
X-38087Y-84914D01*
X-37549Y-85752D01*
X-36944Y-86543D01*
X-36277Y-87282D01*
X-35552Y-87964D01*
X-34773Y-88585D01*
X-33947Y-89140D01*
X-33078Y-89626D01*
X-32172Y-90039D01*
X-31236Y-90378D01*
X-30275Y-90639D01*
X-29296Y-90821D01*
X-28306Y-90922D01*
X-27310Y-90942D01*
X-26316Y-90881D01*
X-25331Y-90740D01*
X-24360Y-90518D01*
X-23411Y-90218D01*
X-22489Y-89842D01*
X-21601Y-89392D01*
X-20753Y-88871D01*
X-19950Y-88282D01*
X-19197Y-87630D01*
X-18500Y-86919D01*
X-17864Y-86154D01*
X-17292Y-85338D01*
X-16788Y-84480D01*
X-16356Y-83583D01*
X-15999Y-82653D01*
X-15718Y-81698D01*
X-15517Y-80723D01*
X-15395Y-79735D01*
X-15354Y-78740D01*
X-168898Y-78740D02*
X-168938Y-77745D01*
X-169060Y-76757D01*
X-169262Y-75782D01*
X-169542Y-74827D01*
X-169899Y-73898D01*
X-170331Y-73001D01*
X-170835Y-72142D01*
X-171407Y-71327D01*
X-172044Y-70561D01*
X-172740Y-69850D01*
X-173493Y-69198D01*
X-174296Y-68610D01*
X-175144Y-68089D01*
X-176032Y-67638D01*
X-176954Y-67262D01*
X-177903Y-66962D01*
X-178874Y-66741D01*
X-179860Y-66599D01*
X-180853Y-66538D01*
X-181849Y-66558D01*
X-182839Y-66660D01*
X-183818Y-66841D01*
X-184779Y-67102D01*
X-185715Y-67441D01*
X-186621Y-67854D01*
X-187490Y-68340D01*
X-188316Y-68896D01*
X-189095Y-69516D01*
X-189820Y-70199D01*
X-190487Y-70938D01*
X-191092Y-71728D01*
X-191630Y-72566D01*
X-192098Y-73445D01*
X-192493Y-74359D01*
X-192813Y-75302D01*
X-193054Y-76268D01*
X-193216Y-77250D01*
X-193297Y-78242D01*
X-193297Y-79238D01*
X-193216Y-80230D01*
X-193054Y-81213D01*
X-192813Y-82179D01*
X-192493Y-83122D01*
X-192098Y-84036D01*
X-191630Y-84914D01*
X-191092Y-85752D01*
X-190487Y-86543D01*
X-189820Y-87282D01*
X-189095Y-87964D01*
X-188316Y-88585D01*
X-187490Y-89140D01*
X-186621Y-89626D01*
X-185715Y-90039D01*
X-184779Y-90378D01*
X-183818Y-90639D01*
X-182839Y-90821D01*
X-181849Y-90922D01*
X-180853Y-90942D01*
X-179860Y-90881D01*
X-178874Y-90740D01*
X-177903Y-90518D01*
X-176954Y-90218D01*
X-176032Y-89842D01*
X-175144Y-89392D01*
X-174296Y-88871D01*
X-173493Y-88282D01*
X-172740Y-87630D01*
X-172044Y-86919D01*
X-171407Y-86154D01*
X-170835Y-85338D01*
X-170331Y-84480D01*
X-169899Y-83583D01*
X-169542Y-82653D01*
X-169262Y-81698D01*
X-169060Y-80723D01*
X-168938Y-79735D01*
X-168898Y-78740D01*
X-168898Y-26248D02*
X-168938Y-25253D01*
X-169060Y-24265D01*
X-169262Y-23290D01*
X-169542Y-22335D01*
X-169899Y-21406D01*
X-170331Y-20508D01*
X-170835Y-19650D01*
X-171407Y-18835D01*
X-172044Y-18069D01*
X-172740Y-17358D01*
X-173493Y-16706D01*
X-174296Y-16117D01*
X-175144Y-15596D01*
X-176032Y-15146D01*
X-176954Y-14770D01*
X-177903Y-14470D01*
X-178874Y-14248D01*
X-179860Y-14107D01*
X-180853Y-14046D01*
X-181849Y-14066D01*
X-182839Y-14167D01*
X-183818Y-14349D01*
X-184779Y-14610D01*
X-185715Y-14949D01*
X-186621Y-15362D01*
X-187490Y-15848D01*
X-188316Y-16404D01*
X-189095Y-17024D01*
X-189820Y-17706D01*
X-190487Y-18445D01*
X-191092Y-19236D01*
X-191630Y-20074D01*
X-192098Y-20953D01*
X-192493Y-21867D01*
X-192813Y-22810D01*
X-193054Y-23776D01*
X-193216Y-24758D01*
X-193297Y-25750D01*
X-193297Y-26746D01*
X-193216Y-27738D01*
X-193054Y-28721D01*
X-192813Y-29686D01*
X-192493Y-30630D01*
X-192098Y-31543D01*
X-191630Y-32422D01*
X-191092Y-33260D01*
X-190487Y-34051D01*
X-189820Y-34790D01*
X-189095Y-35472D01*
X-188316Y-36092D01*
X-187490Y-36648D01*
X-186621Y-37134D01*
X-185715Y-37547D01*
X-184779Y-37886D01*
X-183818Y-38147D01*
X-182839Y-38328D01*
X-181849Y-38430D01*
X-180853Y-38450D01*
X-179860Y-38389D01*
X-178874Y-38248D01*
X-177903Y-38026D01*
X-176954Y-37726D01*
X-176032Y-37350D01*
X-175144Y-36900D01*
X-174296Y-36379D01*
X-173493Y-35790D01*
X-172740Y-35138D01*
X-172044Y-34427D01*
X-171407Y-33661D01*
X-170835Y-32846D01*
X-170331Y-31988D01*
X-169899Y-31091D01*
X-169542Y-30161D01*
X-169262Y-29206D01*
X-169060Y-28231D01*
X-168938Y-27243D01*
X-168898Y-26248D01*
X-168898Y26248D02*
X-168938Y27243D01*
X-169060Y28231D01*
X-169262Y29206D01*
X-169542Y30161D01*
X-169899Y31091D01*
X-170331Y31988D01*
X-170835Y32846D01*
X-171407Y33661D01*
X-172044Y34427D01*
X-172740Y35138D01*
X-173493Y35790D01*
X-174296Y36379D01*
X-175144Y36900D01*
X-176032Y37350D01*
X-176954Y37726D01*
X-177903Y38026D01*
X-178874Y38248D01*
X-179860Y38389D01*
X-180853Y38450D01*
X-181849Y38430D01*
X-182839Y38328D01*
X-183818Y38147D01*
X-184779Y37886D01*
X-185715Y37547D01*
X-186621Y37134D01*
X-187490Y36648D01*
X-188316Y36092D01*
X-189095Y35472D01*
X-189820Y34790D01*
X-190487Y34051D01*
X-191092Y33260D01*
X-191630Y32422D01*
X-192098Y31543D01*
X-192493Y30630D01*
X-192813Y29686D01*
X-193054Y28721D01*
X-193216Y27738D01*
X-193297Y26746D01*
X-193297Y25750D01*
X-193216Y24758D01*
X-193054Y23776D01*
X-192813Y22810D01*
X-192493Y21867D01*
X-192098Y20953D01*
X-191630Y20074D01*
X-191092Y19236D01*
X-190487Y18446D01*
X-189820Y17706D01*
X-189095Y17024D01*
X-188316Y16404D01*
X-187490Y15848D01*
X-186621Y15362D01*
X-185715Y14949D01*
X-184779Y14610D01*
X-183818Y14349D01*
X-182839Y14167D01*
X-181849Y14066D01*
X-180853Y14046D01*
X-179860Y14107D01*
X-178874Y14248D01*
X-177903Y14470D01*
X-176954Y14770D01*
X-176032Y15146D01*
X-175144Y15596D01*
X-174296Y16117D01*
X-173493Y16706D01*
X-172740Y17358D01*
X-172044Y18069D01*
X-171407Y18835D01*
X-170835Y19650D01*
X-170331Y20508D01*
X-169899Y21406D01*
X-169542Y22335D01*
X-169262Y23290D01*
X-169060Y24265D01*
X-168938Y25253D01*
X-168898Y26248D01*
X-168898Y78740D02*
X-168938Y79735D01*
X-169060Y80723D01*
X-169262Y81698D01*
X-169542Y82653D01*
X-169899Y83583D01*
X-170331Y84480D01*
X-170835Y85338D01*
X-171407Y86153D01*
X-172044Y86919D01*
X-172740Y87630D01*
X-173493Y88282D01*
X-174296Y88871D01*
X-175144Y89392D01*
X-176032Y89842D01*
X-176954Y90218D01*
X-177903Y90518D01*
X-178874Y90740D01*
X-179860Y90881D01*
X-180853Y90942D01*
X-181849Y90922D01*
X-182839Y90821D01*
X-183818Y90639D01*
X-184779Y90378D01*
X-185715Y90039D01*
X-186621Y89626D01*
X-187490Y89140D01*
X-188316Y88585D01*
X-189095Y87964D01*
X-189820Y87282D01*
X-190487Y86543D01*
X-191092Y85752D01*
X-191630Y84914D01*
X-192098Y84036D01*
X-192493Y83122D01*
X-192813Y82179D01*
X-193054Y81213D01*
X-193216Y80230D01*
X-193297Y79238D01*
X-193297Y78242D01*
X-193216Y77250D01*
X-193054Y76268D01*
X-192813Y75302D01*
X-192493Y74359D01*
X-192098Y73445D01*
X-191630Y72566D01*
X-191092Y71728D01*
X-190487Y70938D01*
X-189820Y70199D01*
X-189095Y69516D01*
X-188316Y68896D01*
X-187490Y68340D01*
X-186621Y67854D01*
X-185715Y67441D01*
X-184779Y67102D01*
X-183818Y66841D01*
X-182839Y66660D01*
X-181849Y66558D01*
X-180853Y66538D01*
X-179860Y66599D01*
X-178874Y66741D01*
X-177903Y66962D01*
X-176954Y67262D01*
X-176032Y67638D01*
X-175144Y68089D01*
X-174296Y68610D01*
X-173493Y69198D01*
X-172740Y69850D01*
X-172044Y70561D01*
X-171407Y71327D01*
X-170835Y72142D01*
X-170331Y73001D01*
X-169899Y73898D01*
X-169542Y74827D01*
X-169262Y75782D01*
X-169060Y76757D01*
X-168938Y77745D01*
X-168898Y78740D01*
X-117717Y78740D02*
X-117757Y79735D01*
X-117879Y80723D01*
X-118080Y81698D01*
X-118361Y82653D01*
X-118718Y83583D01*
X-119150Y84480D01*
X-119654Y85338D01*
X-120226Y86153D01*
X-120862Y86919D01*
X-121559Y87630D01*
X-122312Y88282D01*
X-123115Y88871D01*
X-123963Y89392D01*
X-124851Y89842D01*
X-125773Y90218D01*
X-126722Y90518D01*
X-127693Y90740D01*
X-128679Y90881D01*
X-129672Y90942D01*
X-130668Y90922D01*
X-131658Y90821D01*
X-132637Y90639D01*
X-133598Y90378D01*
X-134534Y90039D01*
X-135440Y89626D01*
X-136309Y89140D01*
X-137135Y88585D01*
X-137914Y87964D01*
X-138639Y87282D01*
X-139306Y86543D01*
X-139911Y85752D01*
X-140449Y84914D01*
X-140917Y84036D01*
X-141312Y83122D01*
X-141632Y82179D01*
X-141873Y81213D01*
X-142035Y80230D01*
X-142116Y79238D01*
X-142116Y78242D01*
X-142035Y77250D01*
X-141873Y76268D01*
X-141632Y75302D01*
X-141312Y74359D01*
X-140917Y73445D01*
X-140449Y72566D01*
X-139911Y71728D01*
X-139306Y70938D01*
X-138639Y70199D01*
X-137914Y69516D01*
X-137135Y68896D01*
X-136309Y68340D01*
X-135440Y67854D01*
X-134534Y67441D01*
X-133598Y67102D01*
X-132637Y66841D01*
X-131658Y66660D01*
X-130668Y66558D01*
X-129672Y66538D01*
X-128679Y66599D01*
X-127693Y66741D01*
X-126722Y66962D01*
X-125773Y67262D01*
X-124851Y67638D01*
X-123963Y68089D01*
X-123115Y68610D01*
X-122312Y69198D01*
X-121559Y69850D01*
X-120862Y70561D01*
X-120226Y71327D01*
X-119654Y72142D01*
X-119150Y73001D01*
X-118718Y73898D01*
X-118361Y74827D01*
X-118080Y75782D01*
X-117879Y76757D01*
X-117757Y77745D01*
X-117717Y78740D01*
X-39488Y-14318D02*
X-15630Y-14318D01*
X-15630Y-38176D02*
X-15630Y-14318D01*
X-39488Y-38176D02*
X-39488Y-14318D01*
X-39488Y-38176D02*
X-15630Y-38176D01*
X-39488Y14318D02*
X-15630Y14318D01*
X-39488Y14318D02*
X-39488Y38176D01*
X-15630Y14318D02*
X-15630Y38176D01*
X-39488Y38176D02*
X-15630Y38176D01*
X-39488Y90669D02*
X-15630Y90669D01*
X-15630Y66811D02*
X-15630Y90669D01*
X-39488Y66811D02*
X-39488Y90669D01*
X-39488Y66811D02*
X-15630Y66811D01*
X-39488Y-90669D02*
X-15630Y-90669D01*
X-39488Y-90669D02*
X-39488Y-66811D01*
X-15630Y-90669D02*
X-15630Y-66811D01*
X-39488Y-66811D02*
X-15630Y-66811D01*
X-90669Y-66811D02*
X-66811Y-66811D01*
X-66811Y-90669D02*
X-66811Y-66811D01*
X-90669Y-90669D02*
X-90669Y-66811D01*
X-90669Y-90669D02*
X-66811Y-90669D01*
X-90669Y66811D02*
X-66811Y66811D01*
X-90669Y66811D02*
X-90669Y90669D01*
X-66811Y66811D02*
X-66811Y90669D01*
X-90669Y90669D02*
X-66811Y90669D01*
X-90669Y38176D02*
X-66811Y38176D01*
X-66811Y14318D02*
X-66811Y38176D01*
X-90669Y14318D02*
X-90669Y38176D01*
X-90669Y14318D02*
X-66811Y14318D01*
X-90669Y-38176D02*
X-66811Y-38176D01*
X-90669Y-38176D02*
X-90669Y-14318D01*
X-66811Y-38176D02*
X-66811Y-14318D01*
X-90669Y-14318D02*
X-66811Y-14318D01*
X-141850Y-14319D02*
X-117992Y-14319D01*
X-117992Y-38177D02*
X-117992Y-14319D01*
X-141850Y-38177D02*
X-141850Y-14319D01*
X-141850Y-38177D02*
X-117992Y-38177D01*
X-141850Y-90669D02*
X-117992Y-90669D01*
X-141850Y-90669D02*
X-141850Y-66811D01*
X-117992Y-90669D02*
X-117992Y-66811D01*
X-141850Y-66811D02*
X-117992Y-66811D01*
X-141850Y38177D02*
X-117992Y38177D01*
X-117992Y14319D02*
X-117992Y38177D01*
X-141850Y14319D02*
X-141850Y38177D01*
X-141850Y14319D02*
X-117992Y14319D01*
X-141850Y66811D02*
X-117992Y66811D01*
X-141850Y66811D02*
X-141850Y90669D01*
X-117992Y66811D02*
X-117992Y90669D01*
X-141850Y90669D02*
X-117992Y90669D01*
X-193032Y90669D02*
X-169173Y90669D01*
X-169173Y66811D02*
X-169173Y90669D01*
X-193032Y66811D02*
X-193032Y90669D01*
X-193032Y66811D02*
X-169173Y66811D01*
X-193032Y14319D02*
X-169173Y14319D01*
X-193032Y14319D02*
X-193032Y38177D01*
X-169173Y14319D02*
X-169173Y38177D01*
X-193032Y38177D02*
X-169173Y38177D01*
X-193032Y-66811D02*
X-169173Y-66811D01*
X-169173Y-90669D02*
X-169173Y-66811D01*
X-193032Y-90669D02*
X-193032Y-66811D01*
X-193032Y-90669D02*
X-169173Y-90669D01*
X-193032Y-38177D02*
X-169173Y-38177D01*
X-193032Y-38177D02*
X-193032Y-14319D01*
X-169173Y-38177D02*
X-169173Y-14319D01*
X-193032Y-14319D02*
X-169173Y-14319D01*
D16*
X64095Y57126D02*
X94410Y57126D01*
X64095Y57126D02*
X64095Y80748D01*
X94410Y80748D01*
X94410Y57126D02*
X94410Y80748D01*
X22638Y106299D02*
X46000Y106299D01*
X22638Y-106299D02*
X46000Y-106299D01*
X-5906Y-110236D02*
X46000Y-110236D01*
X46000Y110236D01*
X-5906Y110236D02*
X46000Y110236D01*
X-5906Y-110236D02*
X-5906Y110236D01*
X22638Y-106299D02*
X22638Y-72000D01*
X22638Y72244D02*
X22638Y106299D01*
X64488Y-30748D02*
X94803Y-30748D01*
X64488Y-30748D02*
X64488Y-7126D01*
X94803Y-7126D01*
X94803Y-30748D02*
X94803Y-7126D01*
X94410Y-75748D02*
X94410Y-44252D01*
X64488Y-44252D02*
X94410Y-44252D01*
X64488Y-75748D02*
X64488Y-44252D01*
X64488Y-75748D02*
X94410Y-75748D01*
X55787Y-23089D02*
X61035Y-23089D01*
X58411Y-20465D02*
X58411Y-25713D01*
D87*
X25689Y104999D02*
X25689Y106378D01*
X60925Y106378D01*
X60925Y105000D02*
X60925Y106378D01*
M02*
