G04*
G04 #@! TF.GenerationSoftware,Altium Limited,Altium Designer,25.8.1 (18)*
G04*
G04 Layer_Physical_Order=1*
G04 Layer_Color=255*
%FSLAX25Y25*%
%MOIN*%
G70*
G04*
G04 #@! TF.SameCoordinates,938AAF5A-3C05-41E3-841C-15E9F8BEC9A4*
G04*
G04*
G04 #@! TF.FilePolarity,Positive*
G04*
G01*
G75*
%ADD19R,0.04803X0.03583*%
%ADD20R,0.03543X0.03543*%
%ADD21R,0.02756X0.03543*%
%ADD22R,0.02362X0.04528*%
%ADD23R,0.04724X0.03000*%
%ADD24R,0.03150X0.02362*%
%ADD25R,0.03543X0.03150*%
%ADD26O,0.02362X0.08661*%
%ADD27R,0.12992X0.07087*%
%ADD28R,0.02559X0.04331*%
%ADD29R,0.05118X0.05906*%
%ADD30R,0.03543X0.02756*%
%ADD31R,0.03150X0.03543*%
%ADD32R,0.04724X0.05512*%
%ADD33O,0.08268X0.01181*%
%ADD34O,0.01181X0.08268*%
%ADD35R,0.05709X0.02362*%
%ADD36R,0.05906X0.05118*%
%ADD37R,0.04528X0.02362*%
%ADD69C,0.01181*%
%ADD70C,0.01968*%
%ADD71C,0.01500*%
%ADD72R,0.05906X0.05906*%
%ADD73C,0.05906*%
%ADD74C,0.05512*%
%ADD75R,0.04724X0.04724*%
%ADD76C,0.04724*%
%ADD77O,0.02441X0.03150*%
%ADD78O,0.03937X0.09843*%
%ADD79O,0.03937X0.07087*%
%ADD80R,0.03780X0.03780*%
%ADD81C,0.03780*%
%ADD82C,0.03937*%
%ADD83R,0.05906X0.05906*%
%ADD84C,0.01968*%
G36*
X85101Y-104786D02*
X21198Y-104786D01*
X21198Y-82677D01*
X21083Y-82098D01*
X20755Y-81607D01*
X20264Y-81279D01*
X19685Y-81164D01*
X-11811Y-81164D01*
X-12390Y-81279D01*
X-12881Y-81607D01*
X-13209Y-82098D01*
X-13324Y-82677D01*
X-13324Y-104786D01*
X-199274Y-104786D01*
X-199274Y104786D01*
X-13324Y104786D01*
X-13324Y82677D01*
X-13209Y82098D01*
X-12881Y81607D01*
X-12390Y81279D01*
X-11811Y81164D01*
X19685Y81164D01*
X20264Y81279D01*
X20755Y81607D01*
X21083Y82098D01*
X21198Y82677D01*
X21151Y82915D01*
X21151Y104786D01*
X85101Y104786D01*
X85101Y-104786D01*
X85101Y-104786D02*
G37*
%LPC*%
G36*
X60835Y103627D02*
X60835Y100027D01*
X62926Y100027D01*
X62926Y101102D01*
X62837Y101773D01*
X62579Y102398D01*
X62167Y102934D01*
X61630Y103346D01*
X61006Y103605D01*
X60835Y103627D01*
X60835Y103627D02*
G37*
G36*
X26779Y103627D02*
X26779Y100027D01*
X28870Y100027D01*
X28870Y101102D01*
X28782Y101773D01*
X28523Y102398D01*
X28111Y102934D01*
X27574Y103346D01*
X26950Y103605D01*
X26779Y103627D01*
X26779Y103627D02*
G37*
G36*
X59835Y103627D02*
X59665Y103605D01*
X59040Y103346D01*
X58503Y102934D01*
X58091Y102398D01*
X57833Y101773D01*
X57744Y101102D01*
X57744Y100027D01*
X59835Y100027D01*
X59835Y103627D01*
X59835Y103627D02*
G37*
G36*
X25779Y103627D02*
X25609Y103605D01*
X24984Y103346D01*
X24447Y102934D01*
X24035Y102398D01*
X23777Y101773D01*
X23688Y101102D01*
X23688Y100027D01*
X25779Y100027D01*
X25779Y103627D01*
X25779Y103627D02*
G37*
G36*
X28870Y99027D02*
X26779Y99027D01*
X26779Y95428D01*
X26950Y95450D01*
X27574Y95709D01*
X28111Y96121D01*
X28523Y96657D01*
X28782Y97282D01*
X28870Y97953D01*
X28870Y99027D01*
X28870Y99027D02*
G37*
G36*
X25779Y99027D02*
X23688Y99027D01*
X23688Y97953D01*
X23777Y97282D01*
X24035Y96657D01*
X24447Y96121D01*
X24984Y95709D01*
X25609Y95450D01*
X25779Y95428D01*
X25779Y99027D01*
X25779Y99027D02*
G37*
G36*
X-107244Y96576D02*
X-111787Y96576D01*
X-111787Y95403D01*
X-113201Y95403D01*
X-113629Y95689D01*
X-114209Y95805D01*
X-114788Y95689D01*
X-115279Y95361D01*
X-115607Y94871D01*
X-115722Y94291D01*
X-115607Y93712D01*
X-115279Y93221D01*
X-114788Y92893D01*
X-114209Y92778D01*
X-113629Y92893D01*
X-113201Y93179D01*
X-111787Y93179D01*
X-111787Y92033D01*
X-107244Y92033D01*
X-107244Y96576D01*
X-107244Y96576D02*
G37*
G36*
X-158744Y97076D02*
X-163287Y97076D01*
X-163287Y95403D01*
X-164201Y95403D01*
X-164629Y95689D01*
X-165209Y95805D01*
X-165788Y95689D01*
X-166279Y95361D01*
X-166607Y94871D01*
X-166722Y94291D01*
X-166607Y93712D01*
X-166279Y93221D01*
X-165788Y92893D01*
X-165209Y92778D01*
X-164629Y92893D01*
X-164201Y93179D01*
X-163287Y93179D01*
X-163287Y92533D01*
X-158744Y92533D01*
X-158744Y97076D01*
X-158744Y97076D02*
G37*
G36*
X62926Y99027D02*
X60335Y99027D01*
X57744Y99027D01*
X57744Y97953D01*
X57833Y97282D01*
X58091Y96657D01*
X58503Y96121D01*
X59040Y95709D01*
X59665Y95450D01*
X60045Y95400D01*
X60142Y95387D01*
X60109Y94887D01*
X51886Y94887D01*
X51886Y94887D01*
X51886Y94887D01*
X36386Y94887D01*
X36386Y94887D01*
X35807Y94772D01*
X35316Y94444D01*
X33816Y92944D01*
X33488Y92453D01*
X33373Y91874D01*
X33373Y91874D01*
X33373Y89546D01*
X33050Y89405D01*
X32873Y89366D01*
X32304Y89746D01*
X32094Y89787D01*
X32094Y87676D01*
X32094Y85565D01*
X32304Y85607D01*
X32873Y85987D01*
X33050Y85947D01*
X33373Y85807D01*
X33373Y84232D01*
X33050Y84091D01*
X32873Y84052D01*
X32304Y84432D01*
X32094Y84473D01*
X32094Y82362D01*
X31594Y82362D01*
X31594Y81862D01*
X29767Y81862D01*
X29879Y81298D01*
X30069Y81013D01*
X29802Y80513D01*
X27648Y80513D01*
X27549Y81013D01*
X27574Y81024D01*
X28111Y81436D01*
X28523Y81972D01*
X28782Y82597D01*
X28870Y83267D01*
X28870Y85720D01*
X26279Y85720D01*
X23688Y85720D01*
X23688Y83267D01*
X23777Y82597D01*
X24035Y81972D01*
X24447Y81436D01*
X24984Y81024D01*
X25009Y81013D01*
X24910Y80513D01*
X16787Y80513D01*
X16787Y80513D01*
X16787Y80513D01*
X-62500Y80513D01*
X-62500Y80513D01*
X-63079Y80398D01*
X-63570Y80070D01*
X-79070Y64570D01*
X-79398Y64079D01*
X-79513Y63500D01*
X-79513Y63500D01*
X-79513Y9997D01*
X-84070Y5440D01*
X-84398Y4949D01*
X-84513Y4370D01*
X-84513Y4370D01*
X-84513Y-16329D01*
X-84513Y-16329D01*
X-84398Y-16908D01*
X-84070Y-17399D01*
X-81570Y-19899D01*
X-81079Y-20227D01*
X-80500Y-20343D01*
X-79921Y-20227D01*
X-79492Y-19941D01*
X-78353Y-19941D01*
X-77931Y-20128D01*
X-77931Y-20441D01*
X-77931Y-22000D01*
X-75756Y-22000D01*
X-73581Y-22000D01*
X-73581Y-20128D01*
X-73159Y-19941D01*
X-72700Y-19941D01*
X-72319Y-20228D01*
X-72319Y-24772D01*
X-69047Y-24772D01*
X-68856Y-25234D01*
X-69351Y-25728D01*
X-72319Y-25728D01*
X-72319Y-30272D01*
X-71474Y-30272D01*
X-71474Y-31039D01*
X-73823Y-33388D01*
X-95880Y-33388D01*
X-96099Y-32858D01*
X-96621Y-32178D01*
X-97301Y-31656D01*
X-98093Y-31328D01*
X-98943Y-31216D01*
X-99793Y-31328D01*
X-100585Y-31656D01*
X-101266Y-32178D01*
X-101787Y-32858D01*
X-102115Y-33650D01*
X-102227Y-34500D01*
X-102115Y-35350D01*
X-101787Y-36142D01*
X-101266Y-36822D01*
X-100585Y-37344D01*
X-99793Y-37672D01*
X-98943Y-37784D01*
X-98093Y-37672D01*
X-97301Y-37344D01*
X-96621Y-36822D01*
X-96099Y-36142D01*
X-95880Y-35612D01*
X-73362Y-35612D01*
X-73362Y-35612D01*
X-72937Y-35527D01*
X-72576Y-35286D01*
X-69576Y-32286D01*
X-69335Y-31925D01*
X-69250Y-31500D01*
X-69250Y-30272D01*
X-68169Y-30272D01*
X-68169Y-27692D01*
X-65238Y-24761D01*
X-65100Y-24782D01*
X-64726Y-25297D01*
X-64732Y-25325D01*
X-64647Y-25750D01*
X-64406Y-26111D01*
X-64584Y-26594D01*
X-64718Y-26793D01*
X-60077Y-26793D01*
X-60077Y-27793D01*
X-64718Y-27793D01*
X-64478Y-28152D01*
X-64478Y-28403D01*
X-64718Y-28762D01*
X-60077Y-28762D01*
X-60077Y-29262D01*
X-59577Y-29262D01*
X-59577Y-30476D01*
X-56533Y-30476D01*
X-56221Y-30414D01*
X-56203Y-30422D01*
X-55875Y-30725D01*
X-55828Y-30806D01*
X-55874Y-31034D01*
X-55874Y-38120D01*
X-55789Y-38546D01*
X-55548Y-38906D01*
X-55187Y-39147D01*
X-54762Y-39232D01*
X-54336Y-39147D01*
X-53975Y-38906D01*
X-53579Y-38906D01*
X-53219Y-39147D01*
X-52793Y-39232D01*
X-52368Y-39147D01*
X-52149Y-39001D01*
X-51611Y-38906D01*
X-51250Y-39147D01*
X-50825Y-39232D01*
X-50399Y-39147D01*
X-50180Y-39001D01*
X-49840Y-38941D01*
X-49500Y-39001D01*
X-49282Y-39147D01*
X-48994Y-39205D01*
X-48812Y-39591D01*
X-48797Y-39715D01*
X-52511Y-43428D01*
X-52530Y-43458D01*
X-53786Y-44714D01*
X-54027Y-45074D01*
X-54112Y-45500D01*
X-54112Y-45500D01*
X-54112Y-72500D01*
X-54112Y-72500D01*
X-54027Y-72926D01*
X-53786Y-73286D01*
X-49763Y-77310D01*
X-49763Y-78293D01*
X-49898Y-78496D01*
X-50013Y-79075D01*
X-49898Y-79654D01*
X-49570Y-80145D01*
X-49206Y-80388D01*
X-49358Y-80888D01*
X-50539Y-80888D01*
X-57903Y-73525D01*
X-58263Y-73284D01*
X-58689Y-73199D01*
X-58689Y-73199D01*
X-59736Y-73199D01*
X-59736Y-72311D01*
X-65461Y-72311D01*
X-65461Y-73199D01*
X-84146Y-73199D01*
X-84146Y-72311D01*
X-89870Y-72311D01*
X-89870Y-76311D01*
X-84146Y-76311D01*
X-84146Y-75423D01*
X-65461Y-75423D01*
X-65461Y-76311D01*
X-59736Y-76311D01*
X-59736Y-75423D01*
X-59149Y-75423D01*
X-51786Y-82786D01*
X-51425Y-83027D01*
X-51000Y-83112D01*
X-51000Y-83112D01*
X-40462Y-83112D01*
X-40462Y-83112D01*
X-40036Y-83027D01*
X-39675Y-82786D01*
X-37501Y-80612D01*
X-29008Y-80612D01*
X-28579Y-80898D01*
X-28000Y-81013D01*
X-27421Y-80898D01*
X-26992Y-80612D01*
X40883Y-80612D01*
X40924Y-80652D01*
X40924Y-84267D01*
X40424Y-84534D01*
X40027Y-84269D01*
X39555Y-84175D01*
X39555Y-86614D01*
X39055Y-86614D01*
X39055Y-87114D01*
X36616Y-87114D01*
X36647Y-87268D01*
X36710Y-87586D01*
X36281Y-87795D01*
X35887Y-87282D01*
X35350Y-86871D01*
X34726Y-86612D01*
X34555Y-86589D01*
X34555Y-88614D01*
X36580Y-88614D01*
X36557Y-88444D01*
X36355Y-87954D01*
X36798Y-87717D01*
X36975Y-87983D01*
X37260Y-88409D01*
X37989Y-88897D01*
X38018Y-88998D01*
X38029Y-89251D01*
X37991Y-89451D01*
X37332Y-89891D01*
X36804Y-90682D01*
X36619Y-91614D01*
X36804Y-92547D01*
X37332Y-93337D01*
X38123Y-93865D01*
X39055Y-94051D01*
X39988Y-93865D01*
X40778Y-93337D01*
X41297Y-92560D01*
X41381Y-92547D01*
X41729Y-92547D01*
X41813Y-92560D01*
X42332Y-93337D01*
X43123Y-93865D01*
X44055Y-94051D01*
X44988Y-93865D01*
X45778Y-93337D01*
X46297Y-92560D01*
X46381Y-92547D01*
X46729Y-92547D01*
X46813Y-92560D01*
X47332Y-93337D01*
X48123Y-93865D01*
X49055Y-94051D01*
X49988Y-93865D01*
X50778Y-93337D01*
X51297Y-92560D01*
X51381Y-92547D01*
X51729Y-92547D01*
X51813Y-92560D01*
X52332Y-93337D01*
X53123Y-93865D01*
X54055Y-94051D01*
X54988Y-93865D01*
X55778Y-93337D01*
X56297Y-92560D01*
X56381Y-92547D01*
X56729Y-92547D01*
X56813Y-92560D01*
X57332Y-93337D01*
X57943Y-93745D01*
X57943Y-94555D01*
X57943Y-94555D01*
X58028Y-94981D01*
X58269Y-95341D01*
X60214Y-97286D01*
X60214Y-97286D01*
X60575Y-97527D01*
X61000Y-97612D01*
X61000Y-97612D01*
X65500Y-97612D01*
X65500Y-97612D01*
X65926Y-97527D01*
X66286Y-97286D01*
X70286Y-93286D01*
X70286Y-93286D01*
X70527Y-92926D01*
X70612Y-92500D01*
X70612Y-83000D01*
X70612Y-83000D01*
X70527Y-82574D01*
X70286Y-82214D01*
X70286Y-82214D01*
X61286Y-73214D01*
X60926Y-72973D01*
X60500Y-72888D01*
X60500Y-72888D01*
X43391Y-72888D01*
X43184Y-72388D01*
X45421Y-70151D01*
X45753Y-70288D01*
X46500Y-70387D01*
X47247Y-70288D01*
X47943Y-70000D01*
X48541Y-69541D01*
X49000Y-68943D01*
X49036Y-68856D01*
X66915Y-68856D01*
X67106Y-69318D01*
X67565Y-69915D01*
X68163Y-70374D01*
X68859Y-70662D01*
X69606Y-70761D01*
X70354Y-70662D01*
X71050Y-70374D01*
X71648Y-69915D01*
X72106Y-69318D01*
X72395Y-68621D01*
X72493Y-67874D01*
X72395Y-67127D01*
X72106Y-66431D01*
X71648Y-65833D01*
X71050Y-65374D01*
X70354Y-65086D01*
X69606Y-64987D01*
X68859Y-65086D01*
X68163Y-65374D01*
X67565Y-65833D01*
X67106Y-66431D01*
X67023Y-66632D01*
X49239Y-66632D01*
X49000Y-66057D01*
X48541Y-65459D01*
X47943Y-65000D01*
X47247Y-64711D01*
X46500Y-64613D01*
X45753Y-64711D01*
X45057Y-65000D01*
X44459Y-65459D01*
X44000Y-66057D01*
X43712Y-66753D01*
X43613Y-67500D01*
X43712Y-68247D01*
X43849Y-68579D01*
X41614Y-70813D01*
X37933Y-70813D01*
X37781Y-70313D01*
X37919Y-70221D01*
X38247Y-69730D01*
X38363Y-69151D01*
X38247Y-68572D01*
X37919Y-68081D01*
X37429Y-67752D01*
X36849Y-67637D01*
X36270Y-67752D01*
X35779Y-68081D01*
X35703Y-68195D01*
X3453Y-68195D01*
X3453Y-66513D01*
X13500Y-66513D01*
X13500Y-66513D01*
X14079Y-66398D01*
X14570Y-66070D01*
X19127Y-61513D01*
X32896Y-61513D01*
X33156Y-62142D01*
X33678Y-62822D01*
X34358Y-63344D01*
X35150Y-63672D01*
X36000Y-63784D01*
X36850Y-63672D01*
X37642Y-63344D01*
X38322Y-62822D01*
X38844Y-62142D01*
X39104Y-61513D01*
X67160Y-61513D01*
X67565Y-62041D01*
X68163Y-62500D01*
X68859Y-62788D01*
X69606Y-62887D01*
X70354Y-62788D01*
X71050Y-62500D01*
X71648Y-62041D01*
X72106Y-61444D01*
X72395Y-60747D01*
X72493Y-60000D01*
X72395Y-59253D01*
X72106Y-58557D01*
X71648Y-57959D01*
X71050Y-57500D01*
X70354Y-57212D01*
X69606Y-57113D01*
X68859Y-57212D01*
X68163Y-57500D01*
X67565Y-57959D01*
X67160Y-58487D01*
X38559Y-58487D01*
X38322Y-58178D01*
X37642Y-57656D01*
X36850Y-57328D01*
X36000Y-57216D01*
X35150Y-57328D01*
X34358Y-57656D01*
X33678Y-58178D01*
X33441Y-58487D01*
X18500Y-58487D01*
X18500Y-58487D01*
X17921Y-58602D01*
X17430Y-58930D01*
X17430Y-58930D01*
X12873Y-63487D01*
X3453Y-63487D01*
X3453Y-61547D01*
X-3453Y-61547D01*
X-3453Y-68195D01*
X-38540Y-68195D01*
X-40388Y-66347D01*
X-40388Y-54924D01*
X-40372Y-54431D01*
X-39888Y-54431D01*
X-38500Y-54431D01*
X-38500Y-52256D01*
X-38500Y-50081D01*
X-40372Y-50081D01*
X-40388Y-49588D01*
X-40388Y-49271D01*
X-40272Y-48819D01*
X-35728Y-48819D01*
X-35728Y-44669D01*
X-36390Y-44669D01*
X-36597Y-44169D01*
X-36259Y-43831D01*
X-36259Y-43831D01*
X-36018Y-43471D01*
X-35933Y-43045D01*
X-35933Y-39535D01*
X-35577Y-39341D01*
X-35577Y-34577D01*
X-34577Y-34577D01*
X-34577Y-39218D01*
X-34218Y-38978D01*
X-33811Y-39262D01*
X-32476Y-40596D01*
X-32476Y-42913D01*
X-32874Y-42913D01*
X-32874Y-49425D01*
X-27175Y-49425D01*
X-27150Y-49425D01*
X-26675Y-49486D01*
X-26675Y-49525D01*
X-24213Y-49525D01*
X-24213Y-46169D01*
X-24213Y-42813D01*
X-26675Y-42813D01*
X-26675Y-42853D01*
X-27150Y-42913D01*
X-27175Y-42913D01*
X-30253Y-42913D01*
X-30253Y-40135D01*
X-30253Y-40135D01*
X-30337Y-39710D01*
X-30578Y-39349D01*
X-31996Y-37931D01*
X-31996Y-34577D01*
X-31996Y-31034D01*
X-32065Y-30688D01*
X-31900Y-30470D01*
X-31682Y-30305D01*
X-31337Y-30374D01*
X-28898Y-30374D01*
X-28898Y-33693D01*
X-28898Y-33693D01*
X-28813Y-34118D01*
X-28572Y-34479D01*
X-26786Y-36264D01*
X-26786Y-36265D01*
X-26425Y-36505D01*
X-26000Y-36590D01*
X-26000Y-36590D01*
X-20888Y-36590D01*
X-16860Y-40618D01*
X-16860Y-47965D01*
X-20385Y-51490D01*
X-20850Y-51575D01*
X-20850Y-51575D01*
X-26550Y-51575D01*
X-26575Y-51575D01*
X-27050Y-51514D01*
X-27050Y-51475D01*
X-29512Y-51475D01*
X-29512Y-54831D01*
X-29512Y-58187D01*
X-27050Y-58187D01*
X-27050Y-58147D01*
X-26575Y-58087D01*
X-26550Y-58087D01*
X-20850Y-58087D01*
X-20850Y-54091D01*
X-20302Y-54091D01*
X-20302Y-54091D01*
X-19877Y-54007D01*
X-19516Y-53766D01*
X-14962Y-49211D01*
X-14962Y-49211D01*
X-14721Y-48851D01*
X-14636Y-48425D01*
X-14636Y-48425D01*
X-14636Y-40157D01*
X-14721Y-39732D01*
X-14962Y-39371D01*
X-14962Y-39371D01*
X-19641Y-34692D01*
X-20002Y-34451D01*
X-20427Y-34366D01*
X-20427Y-34366D01*
X-25539Y-34366D01*
X-26674Y-33232D01*
X-26674Y-30374D01*
X-24250Y-30374D01*
X-23824Y-30289D01*
X-23464Y-30048D01*
X-23223Y-29687D01*
X-23138Y-29262D01*
X-23209Y-28905D01*
X-23141Y-28724D01*
X-22909Y-28405D01*
X-17667Y-28405D01*
X-9112Y-36961D01*
X-9112Y-60677D01*
X-12323Y-63888D01*
X-26992Y-63888D01*
X-27421Y-63602D01*
X-28000Y-63487D01*
X-28579Y-63602D01*
X-29070Y-63930D01*
X-29398Y-64421D01*
X-29513Y-65000D01*
X-29398Y-65579D01*
X-29070Y-66070D01*
X-28579Y-66398D01*
X-28000Y-66513D01*
X-27421Y-66398D01*
X-26992Y-66112D01*
X-11862Y-66112D01*
X-11862Y-66112D01*
X-11437Y-66027D01*
X-11076Y-65786D01*
X-7214Y-61924D01*
X-7214Y-61924D01*
X-6973Y-61563D01*
X-6888Y-61138D01*
X-6888Y-61138D01*
X-6888Y-57754D01*
X-6388Y-57547D01*
X-3574Y-60361D01*
X-3574Y-60361D01*
X-3213Y-60602D01*
X-2787Y-60687D01*
X3063Y-60687D01*
X3063Y-60687D01*
X3489Y-60602D01*
X3849Y-60361D01*
X7598Y-56612D01*
X57000Y-56612D01*
X57000Y-56612D01*
X57425Y-56527D01*
X57786Y-56286D01*
X77786Y-36286D01*
X78027Y-35925D01*
X78112Y-35500D01*
X78112Y-6134D01*
X78027Y-5708D01*
X77786Y-5348D01*
X71152Y1286D01*
X70792Y1527D01*
X70366Y1612D01*
X70366Y1612D01*
X68961Y1612D01*
X67806Y2767D01*
X67806Y4723D01*
X67906Y4790D01*
X68277Y5346D01*
X68408Y6002D01*
X68408Y12301D01*
X68277Y12957D01*
X67906Y13513D01*
X67350Y13884D01*
X66986Y13957D01*
X67035Y14457D01*
X70896Y14457D01*
X70896Y18100D01*
X63800Y18100D01*
X56704Y18100D01*
X56704Y14488D01*
X56703Y14453D01*
X56606Y13997D01*
X56497Y13976D01*
X56038Y13884D01*
X55482Y13513D01*
X55110Y12957D01*
X54980Y12301D01*
X54980Y6002D01*
X55110Y5346D01*
X55180Y5240D01*
X55180Y61D01*
X54633Y-487D01*
X48513Y-487D01*
X48513Y1103D01*
X48642Y1156D01*
X49322Y1678D01*
X49844Y2358D01*
X50172Y3150D01*
X50284Y4000D01*
X50172Y4850D01*
X49844Y5642D01*
X49322Y6322D01*
X48642Y6844D01*
X47850Y7172D01*
X47000Y7284D01*
X46150Y7172D01*
X46021Y7119D01*
X40513Y12627D01*
X40513Y19890D01*
X40741Y19984D01*
X41462Y20538D01*
X42016Y21259D01*
X42364Y22099D01*
X42483Y23000D01*
X42364Y23901D01*
X42016Y24741D01*
X41462Y25462D01*
X40741Y26016D01*
X39901Y26364D01*
X39000Y26482D01*
X38099Y26364D01*
X37259Y26016D01*
X36538Y25462D01*
X35984Y24741D01*
X35636Y23901D01*
X35517Y23000D01*
X35636Y22099D01*
X35984Y21259D01*
X36538Y20538D01*
X37259Y19984D01*
X37487Y19890D01*
X37487Y12000D01*
X37487Y12000D01*
X37602Y11421D01*
X37930Y10930D01*
X43881Y4979D01*
X43828Y4850D01*
X43716Y4000D01*
X43828Y3150D01*
X44156Y2358D01*
X44678Y1678D01*
X45358Y1156D01*
X45487Y1103D01*
X45487Y-3000D01*
X45602Y-3579D01*
X45888Y-4008D01*
X45888Y-5000D01*
X45888Y-5000D01*
X45973Y-5426D01*
X46214Y-5786D01*
X47388Y-6961D01*
X47388Y-10500D01*
X47388Y-10500D01*
X47473Y-10926D01*
X47714Y-11286D01*
X56731Y-20303D01*
X56575Y-20803D01*
X56075Y-20803D01*
X56075Y-25346D01*
X59831Y-25346D01*
X59831Y-20803D01*
X59065Y-20803D01*
X59065Y-19953D01*
X58980Y-19527D01*
X58739Y-19166D01*
X49612Y-10039D01*
X49612Y-6500D01*
X49612Y-6500D01*
X49527Y-6075D01*
X49286Y-5714D01*
X48112Y-4539D01*
X48112Y-4008D01*
X48398Y-3579D01*
X48411Y-3513D01*
X53746Y-3513D01*
X53746Y-4421D01*
X52256Y-4421D01*
X52256Y-11327D01*
X53307Y-11327D01*
X53746Y-11500D01*
X53862Y-12079D01*
X54190Y-12570D01*
X57690Y-16070D01*
X57690Y-16070D01*
X58181Y-16398D01*
X58760Y-16513D01*
X58760Y-16513D01*
X67138Y-16513D01*
X67138Y-17862D01*
X72862Y-17862D01*
X72862Y-12138D01*
X67138Y-12138D01*
X67138Y-13487D01*
X59387Y-13487D01*
X57689Y-11789D01*
X57880Y-11327D01*
X58374Y-11327D01*
X58374Y-4421D01*
X56773Y-4421D01*
X56773Y-2627D01*
X57764Y-1636D01*
X57764Y-1636D01*
X58092Y-1145D01*
X58207Y-566D01*
X58207Y5240D01*
X58277Y5346D01*
X58408Y6002D01*
X58408Y12301D01*
X58277Y12957D01*
X57906Y13513D01*
X57350Y13884D01*
X56986Y13957D01*
X57034Y14442D01*
X57172Y14457D01*
X57203Y14457D01*
X61352Y14457D01*
X61401Y13957D01*
X61038Y13884D01*
X60482Y13513D01*
X60110Y12957D01*
X59980Y12301D01*
X59980Y6002D01*
X60110Y5346D01*
X60482Y4790D01*
X60641Y4683D01*
X60641Y4247D01*
X60641Y4247D01*
X60726Y3822D01*
X60967Y3461D01*
X66714Y-2286D01*
X67075Y-2527D01*
X67500Y-2612D01*
X67500Y-2612D01*
X69528Y-2612D01*
X73888Y-6972D01*
X73888Y-32539D01*
X53965Y-52463D01*
X7173Y-52463D01*
X3924Y-49214D01*
X3563Y-48973D01*
X3138Y-48888D01*
X3138Y-48888D01*
X750Y-48888D01*
X717Y-48388D01*
X901Y-48364D01*
X1741Y-48016D01*
X2462Y-47462D01*
X3016Y-46741D01*
X3277Y-46112D01*
X6936Y-46112D01*
X7156Y-46642D01*
X7678Y-47322D01*
X8358Y-47844D01*
X9150Y-48172D01*
X10000Y-48284D01*
X10850Y-48172D01*
X11642Y-47844D01*
X12322Y-47322D01*
X12844Y-46642D01*
X13064Y-46112D01*
X14500Y-46112D01*
X14500Y-46112D01*
X14925Y-46027D01*
X15286Y-45786D01*
X17286Y-43786D01*
X17286Y-43786D01*
X17527Y-43426D01*
X17612Y-43000D01*
X17612Y-43000D01*
X17612Y-32500D01*
X17527Y-32074D01*
X17286Y-31714D01*
X17286Y-31714D01*
X14786Y-29214D01*
X14425Y-28973D01*
X14000Y-28888D01*
X14000Y-28888D01*
X750Y-28888D01*
X717Y-28388D01*
X901Y-28364D01*
X1741Y-28016D01*
X2462Y-27463D01*
X3016Y-26741D01*
X3277Y-26112D01*
X6936Y-26112D01*
X7156Y-26642D01*
X7678Y-27322D01*
X8358Y-27844D01*
X9150Y-28172D01*
X10000Y-28284D01*
X10850Y-28172D01*
X11642Y-27844D01*
X12322Y-27322D01*
X12844Y-26642D01*
X13172Y-25850D01*
X13284Y-25000D01*
X13172Y-24150D01*
X12844Y-23358D01*
X12322Y-22678D01*
X11642Y-22156D01*
X10850Y-21828D01*
X10000Y-21716D01*
X9150Y-21828D01*
X8358Y-22156D01*
X7678Y-22678D01*
X7156Y-23358D01*
X6936Y-23888D01*
X3277Y-23888D01*
X3016Y-23259D01*
X2462Y-22537D01*
X1741Y-21984D01*
X901Y-21636D01*
X0Y-21518D01*
X-766Y-21618D01*
X-1707Y-20677D01*
X-1707Y-18732D01*
X-1742Y-18557D01*
X-1311Y-18194D01*
X-901Y-18364D01*
X0Y-18483D01*
X901Y-18364D01*
X1741Y-18016D01*
X2462Y-17462D01*
X3016Y-16741D01*
X3364Y-15901D01*
X3483Y-15000D01*
X3364Y-14099D01*
X3103Y-13469D01*
X7786Y-8786D01*
X7786Y-8786D01*
X8027Y-8426D01*
X8112Y-8000D01*
X8112Y-4961D01*
X10286Y-2786D01*
X10286Y-2786D01*
X10527Y-2426D01*
X10612Y-2000D01*
X10612Y35500D01*
X10612Y35500D01*
X10527Y35925D01*
X10286Y36286D01*
X3103Y43469D01*
X3364Y44099D01*
X3483Y45000D01*
X3364Y45901D01*
X3016Y46741D01*
X2462Y47462D01*
X1741Y48016D01*
X901Y48364D01*
X0Y48482D01*
X-901Y48364D01*
X-1741Y48016D01*
X-2462Y47462D01*
X-3016Y46741D01*
X-3364Y45901D01*
X-3483Y45000D01*
X-3364Y44099D01*
X-3016Y43259D01*
X-2462Y42538D01*
X-1741Y41984D01*
X-901Y41636D01*
X0Y41517D01*
X901Y41636D01*
X1531Y41897D01*
X8388Y35039D01*
X8388Y28838D01*
X7926Y28646D01*
X3103Y33469D01*
X3364Y34099D01*
X3483Y35000D01*
X3364Y35901D01*
X3016Y36741D01*
X2462Y37462D01*
X1741Y38016D01*
X901Y38364D01*
X0Y38482D01*
X-901Y38364D01*
X-1741Y38016D01*
X-2462Y37462D01*
X-3016Y36741D01*
X-3277Y36112D01*
X-6936Y36112D01*
X-7156Y36642D01*
X-7678Y37322D01*
X-8358Y37844D01*
X-9150Y38172D01*
X-10000Y38284D01*
X-10850Y38172D01*
X-11642Y37844D01*
X-12322Y37322D01*
X-12844Y36642D01*
X-13172Y35850D01*
X-13284Y35000D01*
X-13172Y34150D01*
X-12844Y33358D01*
X-12322Y32678D01*
X-11642Y32156D01*
X-10850Y31828D01*
X-10000Y31716D01*
X-9150Y31828D01*
X-8358Y32156D01*
X-7678Y32678D01*
X-7156Y33358D01*
X-6936Y33888D01*
X-3277Y33888D01*
X-3016Y33259D01*
X-2462Y32537D01*
X-1741Y31984D01*
X-901Y31636D01*
X0Y31517D01*
X901Y31636D01*
X1531Y31897D01*
X6707Y26720D01*
X6707Y20519D01*
X6245Y20327D01*
X3103Y23469D01*
X3364Y24099D01*
X3483Y25000D01*
X3364Y25901D01*
X3016Y26741D01*
X2462Y27463D01*
X1741Y28016D01*
X901Y28364D01*
X0Y28482D01*
X-901Y28364D01*
X-1741Y28016D01*
X-2462Y27463D01*
X-3016Y26741D01*
X-3277Y26112D01*
X-6936Y26112D01*
X-7156Y26642D01*
X-7678Y27322D01*
X-8358Y27844D01*
X-9150Y28172D01*
X-10000Y28284D01*
X-10850Y28172D01*
X-11642Y27844D01*
X-12322Y27322D01*
X-12844Y26642D01*
X-13172Y25850D01*
X-13284Y25000D01*
X-13172Y24150D01*
X-12844Y23358D01*
X-12322Y22678D01*
X-11642Y22156D01*
X-10850Y21828D01*
X-10000Y21716D01*
X-9150Y21828D01*
X-8358Y22156D01*
X-7678Y22678D01*
X-7156Y23358D01*
X-6936Y23888D01*
X-3277Y23888D01*
X-3016Y23259D01*
X-2462Y22537D01*
X-1741Y21984D01*
X-901Y21636D01*
X0Y21518D01*
X901Y21636D01*
X1531Y21897D01*
X4888Y18539D01*
X4888Y11112D01*
X750Y11112D01*
X717Y11612D01*
X901Y11636D01*
X1741Y11984D01*
X2462Y12538D01*
X3016Y13259D01*
X3364Y14099D01*
X3483Y15000D01*
X3364Y15901D01*
X3016Y16741D01*
X2462Y17462D01*
X1741Y18016D01*
X901Y18364D01*
X0Y18483D01*
X-901Y18364D01*
X-1741Y18016D01*
X-2462Y17462D01*
X-3016Y16741D01*
X-3364Y15901D01*
X-3483Y15000D01*
X-3364Y14099D01*
X-3016Y13259D01*
X-2462Y12538D01*
X-1741Y11984D01*
X-901Y11636D01*
X-717Y11612D01*
X-750Y11112D01*
X-20000Y11112D01*
X-20425Y11027D01*
X-20786Y10786D01*
X-23461Y8112D01*
X-33500Y8112D01*
X-33926Y8027D01*
X-34286Y7786D01*
X-35433Y6639D01*
X-35933Y6846D01*
X-35933Y15994D01*
X-17214Y34714D01*
X-16973Y35074D01*
X-16888Y35500D01*
X-16888Y41039D01*
X-14039Y43888D01*
X-13064Y43888D01*
X-12844Y43358D01*
X-12322Y42678D01*
X-11642Y42156D01*
X-10850Y41828D01*
X-10000Y41716D01*
X-9150Y41828D01*
X-8358Y42156D01*
X-7678Y42678D01*
X-7156Y43358D01*
X-6828Y44150D01*
X-6716Y45000D01*
X-6828Y45850D01*
X-7156Y46642D01*
X-7678Y47322D01*
X-8358Y47844D01*
X-9150Y48172D01*
X-10000Y48284D01*
X-10850Y48172D01*
X-11642Y47844D01*
X-12322Y47322D01*
X-12844Y46642D01*
X-13064Y46112D01*
X-14500Y46112D01*
X-14500Y46112D01*
X-14925Y46027D01*
X-15286Y45786D01*
X-15286Y45786D01*
X-18786Y42286D01*
X-19027Y41925D01*
X-19112Y41500D01*
X-19112Y41500D01*
X-19112Y35961D01*
X-37056Y18016D01*
X-37599Y18180D01*
X-37624Y18304D01*
X-21214Y34714D01*
X-20973Y35074D01*
X-20888Y35500D01*
X-20888Y35500D01*
X-20888Y42539D01*
X-11380Y52047D01*
X-10850Y51828D01*
X-10000Y51716D01*
X-9150Y51828D01*
X-8358Y52156D01*
X-7678Y52678D01*
X-7156Y53358D01*
X-6936Y53888D01*
X-3277Y53888D01*
X-3016Y53259D01*
X-2462Y52538D01*
X-1741Y51984D01*
X-901Y51636D01*
X0Y51517D01*
X901Y51636D01*
X1741Y51984D01*
X2462Y52538D01*
X3016Y53259D01*
X3364Y54099D01*
X3483Y55000D01*
X3364Y55901D01*
X3016Y56741D01*
X2462Y57463D01*
X1741Y58016D01*
X901Y58364D01*
X0Y58482D01*
X-901Y58364D01*
X-1741Y58016D01*
X-2462Y57463D01*
X-3016Y56741D01*
X-3277Y56112D01*
X-6936Y56112D01*
X-7156Y56642D01*
X-7678Y57322D01*
X-8358Y57844D01*
X-9150Y58172D01*
X-10000Y58284D01*
X-10850Y58172D01*
X-11642Y57844D01*
X-12322Y57322D01*
X-12844Y56642D01*
X-13172Y55850D01*
X-13284Y55000D01*
X-13172Y54150D01*
X-12953Y53620D01*
X-22786Y43786D01*
X-23027Y43426D01*
X-23112Y43000D01*
X-23112Y43000D01*
X-23112Y35961D01*
X-39800Y19273D01*
X-40041Y18912D01*
X-40126Y18486D01*
X-40126Y18486D01*
X-40126Y4411D01*
X-40589Y4110D01*
X-40626Y4115D01*
X-40930Y4570D01*
X-41421Y4898D01*
X-42000Y5013D01*
X-42579Y4898D01*
X-43070Y4570D01*
X-43307Y4215D01*
X-43807Y4367D01*
X-43807Y10620D01*
X-43426Y11001D01*
X-42921Y11102D01*
X-42430Y11430D01*
X-42102Y11921D01*
X-41987Y12500D01*
X-42102Y13079D01*
X-42430Y13570D01*
X-42921Y13898D01*
X-43500Y14013D01*
X-44079Y13898D01*
X-44570Y13570D01*
X-44898Y13079D01*
X-44982Y12656D01*
X-45301Y12444D01*
X-45776Y12669D01*
X-45776Y14718D01*
X-26209Y34284D01*
X-25704Y34385D01*
X-25213Y34713D01*
X-24885Y35204D01*
X-24770Y35783D01*
X-24885Y36362D01*
X-25213Y36853D01*
X-25704Y37181D01*
X-26283Y37296D01*
X-26862Y37181D01*
X-27353Y36853D01*
X-27681Y36362D01*
X-27782Y35857D01*
X-47244Y16394D01*
X-47744Y16601D01*
X-47744Y20683D01*
X-40714Y27714D01*
X-40473Y28074D01*
X-40388Y28500D01*
X-40388Y33039D01*
X-11380Y62047D01*
X-10850Y61828D01*
X-10000Y61716D01*
X-9150Y61828D01*
X-8358Y62156D01*
X-7678Y62678D01*
X-7156Y63358D01*
X-6936Y63888D01*
X-3277Y63888D01*
X-3016Y63259D01*
X-2462Y62537D01*
X-1741Y61984D01*
X-901Y61636D01*
X0Y61518D01*
X901Y61636D01*
X1741Y61984D01*
X2462Y62537D01*
X3016Y63259D01*
X3364Y64099D01*
X3483Y65000D01*
X3364Y65901D01*
X3016Y66741D01*
X2462Y67462D01*
X1741Y68016D01*
X901Y68364D01*
X0Y68483D01*
X-901Y68364D01*
X-1741Y68016D01*
X-2462Y67462D01*
X-3016Y66741D01*
X-3277Y66112D01*
X-6936Y66112D01*
X-7156Y66642D01*
X-7678Y67322D01*
X-8358Y67844D01*
X-9150Y68172D01*
X-10000Y68284D01*
X-10850Y68172D01*
X-11642Y67844D01*
X-12322Y67322D01*
X-12844Y66642D01*
X-13172Y65850D01*
X-13284Y65000D01*
X-13172Y64150D01*
X-12953Y63620D01*
X-42286Y34286D01*
X-42527Y33926D01*
X-42612Y33500D01*
X-42612Y33500D01*
X-42612Y28961D01*
X-49544Y22028D01*
X-49968Y22311D01*
X-49828Y22650D01*
X-49716Y23500D01*
X-49828Y24350D01*
X-50156Y25142D01*
X-50678Y25822D01*
X-51358Y26344D01*
X-52069Y26639D01*
X-52069Y28965D01*
X-51287Y28965D01*
X-51287Y32327D01*
X-55437Y32327D01*
X-55437Y28965D01*
X-54293Y28965D01*
X-54293Y26489D01*
X-54642Y26344D01*
X-55322Y25822D01*
X-55844Y25142D01*
X-56172Y24350D01*
X-56284Y23500D01*
X-56172Y22650D01*
X-55844Y21858D01*
X-55322Y21178D01*
X-54642Y20656D01*
X-53974Y20379D01*
X-53974Y15500D01*
X-53974Y15500D01*
X-53890Y15075D01*
X-53649Y14714D01*
X-51937Y13002D01*
X-51937Y7164D01*
X-52347Y6889D01*
X-52437Y6901D01*
X-53000Y7013D01*
X-53579Y6898D01*
X-54070Y6570D01*
X-54398Y6079D01*
X-54513Y5500D01*
X-54398Y4921D01*
X-54070Y4430D01*
X-53905Y4320D01*
X-53905Y3822D01*
X-54405Y3615D01*
X-57750Y6961D01*
X-57750Y43039D01*
X-46833Y53957D01*
X-46327Y53901D01*
X-46151Y53476D01*
X-45629Y52796D01*
X-44949Y52274D01*
X-44157Y51946D01*
X-43307Y51834D01*
X-42457Y51946D01*
X-41665Y52274D01*
X-40985Y52796D01*
X-40463Y53476D01*
X-40244Y54006D01*
X-29882Y54006D01*
X-29882Y54006D01*
X-29456Y54091D01*
X-29096Y54332D01*
X-11539Y71888D01*
X2669Y71888D01*
X2669Y71228D01*
X6425Y71228D01*
X6425Y75772D01*
X2669Y75772D01*
X2669Y74112D01*
X-12000Y74112D01*
X-12426Y74027D01*
X-12786Y73786D01*
X-30343Y56230D01*
X-40244Y56230D01*
X-40463Y56760D01*
X-40985Y57440D01*
X-41665Y57962D01*
X-42457Y58290D01*
X-43307Y58402D01*
X-44157Y58290D01*
X-44949Y57962D01*
X-45629Y57440D01*
X-46151Y56760D01*
X-46371Y56230D01*
X-47244Y56230D01*
X-47244Y56230D01*
X-47670Y56145D01*
X-48030Y55904D01*
X-59649Y44286D01*
X-59890Y43925D01*
X-59974Y43500D01*
X-59974Y43500D01*
X-59974Y6500D01*
X-59974Y6500D01*
X-59890Y6075D01*
X-59649Y5714D01*
X-55874Y1939D01*
X-55874Y-2293D01*
X-55874Y-5837D01*
X-55842Y-5996D01*
X-56188Y-6496D01*
X-61872Y-6496D01*
X-61872Y-4831D01*
X-60728Y-4831D01*
X-60728Y-681D01*
X-65272Y-681D01*
X-65272Y-4831D01*
X-64096Y-4831D01*
X-64096Y-6615D01*
X-64406Y-6822D01*
X-64647Y-7183D01*
X-64732Y-7608D01*
X-64647Y-8034D01*
X-64406Y-8394D01*
X-64584Y-8877D01*
X-64741Y-9112D01*
X-64802Y-9418D01*
X-65236Y-9609D01*
X-65312Y-9615D01*
X-66464Y-8464D01*
X-66464Y-8464D01*
X-68401Y-6526D01*
X-68401Y-6396D01*
X-68486Y-5970D01*
X-68513Y-5929D01*
X-68513Y-3640D01*
X-77457Y-3640D01*
X-77457Y-7396D01*
X-76558Y-7396D01*
X-76297Y-7815D01*
X-76212Y-8241D01*
X-75971Y-8601D01*
X-74786Y-9786D01*
X-74426Y-10027D01*
X-74000Y-10112D01*
X-74000Y-10112D01*
X-71064Y-10112D01*
X-68448Y-12728D01*
X-68655Y-13228D01*
X-72319Y-13228D01*
X-72319Y-17717D01*
X-73581Y-17717D01*
X-73581Y-16000D01*
X-75756Y-16000D01*
X-77931Y-16000D01*
X-77931Y-17717D01*
X-79472Y-17717D01*
X-81487Y-15702D01*
X-81487Y3743D01*
X-76930Y8300D01*
X-76930Y8300D01*
X-76602Y8791D01*
X-76487Y9370D01*
X-76487Y9370D01*
X-76487Y62873D01*
X-61873Y77487D01*
X15274Y77487D01*
X15274Y65902D01*
X15228Y65421D01*
X14774Y65421D01*
X11565Y65421D01*
X11565Y71228D01*
X12331Y71228D01*
X12331Y75772D01*
X8575Y75772D01*
X8575Y71228D01*
X9341Y71228D01*
X9341Y65421D01*
X8520Y65421D01*
X8520Y62059D01*
X15228Y62059D01*
X15274Y61578D01*
X15274Y58041D01*
X12374Y58041D01*
X12374Y56260D01*
X12374Y54479D01*
X15274Y54479D01*
X15274Y33791D01*
X14642Y33791D01*
X14642Y29209D01*
X20445Y29209D01*
X20445Y33791D01*
X18301Y33791D01*
X18301Y45727D01*
X19807Y45727D01*
X19807Y45559D01*
X25335Y45559D01*
X25335Y48921D01*
X19807Y48921D01*
X19807Y48753D01*
X18301Y48753D01*
X18301Y53388D01*
X21669Y53388D01*
X21669Y52228D01*
X25425Y52228D01*
X25425Y56772D01*
X21669Y56772D01*
X21669Y55612D01*
X18301Y55612D01*
X18301Y58319D01*
X24480Y58319D01*
X24480Y58888D01*
X28260Y58888D01*
X28260Y58888D01*
X28260Y58888D01*
X37039Y58888D01*
X37946Y57981D01*
X38307Y57740D01*
X38732Y57656D01*
X48268Y57656D01*
X48268Y57656D01*
X48693Y57740D01*
X49054Y57981D01*
X53801Y62728D01*
X55925Y62728D01*
X55925Y67272D01*
X52169Y67272D01*
X52169Y64242D01*
X47807Y59880D01*
X45721Y59880D01*
X45305Y60081D01*
X45305Y60380D01*
X45305Y62445D01*
X41743Y62445D01*
X41743Y60380D01*
X41743Y60081D01*
X41326Y59880D01*
X39193Y59880D01*
X38286Y60786D01*
X37925Y61027D01*
X37500Y61112D01*
X37500Y61112D01*
X28260Y61112D01*
X28260Y61112D01*
X24480Y61112D01*
X24480Y61681D01*
X18301Y61681D01*
X18301Y77487D01*
X34512Y77487D01*
X34512Y77487D01*
X35091Y77602D01*
X35582Y77930D01*
X35956Y78304D01*
X36284Y78795D01*
X36399Y79374D01*
X36399Y79374D01*
X36399Y80703D01*
X36882Y80877D01*
X37175Y80636D01*
X37175Y77748D01*
X34699Y75272D01*
X31075Y75272D01*
X31075Y70728D01*
X34831Y70728D01*
X34831Y72650D01*
X35123Y73011D01*
X35548Y73096D01*
X35909Y73337D01*
X37635Y75063D01*
X37646Y75067D01*
X38179Y74899D01*
X38211Y74719D01*
X38102Y74567D01*
X38102Y74567D01*
X38102Y69039D01*
X41465Y69039D01*
X41465Y74567D01*
X41465Y74567D01*
X41503Y75051D01*
X45766Y79314D01*
X46042Y79728D01*
X46139Y80215D01*
X46139Y80713D01*
X46220Y80768D01*
X46353Y80966D01*
X46954Y80966D01*
X47087Y80768D01*
X47656Y80387D01*
X48327Y80254D01*
X48998Y80387D01*
X49567Y80768D01*
X49699Y80965D01*
X50301Y80965D01*
X50433Y80768D01*
X51002Y80387D01*
X51673Y80254D01*
X52344Y80387D01*
X52913Y80768D01*
X52986Y80876D01*
X53587Y80876D01*
X53708Y80696D01*
X54310Y80293D01*
X54520Y80251D01*
X54520Y82362D01*
X54520Y84473D01*
X54310Y84432D01*
X53708Y84029D01*
X53686Y83997D01*
X53186Y84149D01*
X53186Y85890D01*
X53686Y86041D01*
X53708Y86010D01*
X54310Y85607D01*
X54520Y85565D01*
X54520Y87676D01*
X54520Y89787D01*
X54310Y89746D01*
X53708Y89343D01*
X53686Y89311D01*
X53186Y89463D01*
X53186Y91861D01*
X58831Y91861D01*
X58937Y91634D01*
X58967Y91361D01*
X58503Y91005D01*
X58091Y90468D01*
X57833Y89843D01*
X57744Y89173D01*
X57744Y86720D01*
X60335Y86720D01*
X62926Y86720D01*
X62926Y89173D01*
X62837Y89843D01*
X62579Y90468D01*
X62167Y91005D01*
X61703Y91361D01*
X61733Y91634D01*
X61839Y91861D01*
X64755Y91861D01*
X66728Y89887D01*
X66728Y87681D01*
X71272Y87681D01*
X71487Y87270D01*
X71487Y86871D01*
X71372Y86419D01*
X70987Y86419D01*
X69500Y86419D01*
X69500Y84244D01*
X69500Y82069D01*
X71372Y82069D01*
X71487Y81617D01*
X71487Y81500D01*
X71487Y81500D01*
X71602Y80921D01*
X71930Y80430D01*
X77987Y74373D01*
X77987Y57127D01*
X69113Y48254D01*
X57153Y48254D01*
X57153Y49799D01*
X50247Y49799D01*
X50247Y43681D01*
X57153Y43681D01*
X57153Y45227D01*
X69740Y45227D01*
X69740Y45227D01*
X70319Y45342D01*
X70810Y45670D01*
X80570Y55430D01*
X80570Y55430D01*
X80898Y55921D01*
X81013Y56500D01*
X81013Y56500D01*
X81013Y75000D01*
X81013Y75000D01*
X80898Y75579D01*
X80570Y76070D01*
X80570Y76070D01*
X74513Y82127D01*
X74513Y88432D01*
X74398Y89011D01*
X74070Y89502D01*
X74070Y89502D01*
X72917Y90655D01*
X72426Y90983D01*
X71847Y91099D01*
X71847Y91099D01*
X71272Y91099D01*
X71272Y91831D01*
X69065Y91831D01*
X66452Y94444D01*
X65961Y94772D01*
X65382Y94887D01*
X65382Y94887D01*
X60561Y94887D01*
X60528Y95387D01*
X60625Y95400D01*
X61006Y95450D01*
X61630Y95709D01*
X62167Y96121D01*
X62579Y96657D01*
X62837Y97282D01*
X62926Y97953D01*
X62926Y99027D01*
X62926Y99027D02*
G37*
G36*
X-51744Y96576D02*
X-56287Y96576D01*
X-56287Y92033D01*
X-51744Y92033D01*
X-51744Y93193D01*
X-47703Y93193D01*
X-47274Y92907D01*
X-46695Y92791D01*
X-46116Y92907D01*
X-45625Y93235D01*
X-45297Y93726D01*
X-45182Y94305D01*
X-45297Y94884D01*
X-45625Y95375D01*
X-46116Y95703D01*
X-46695Y95818D01*
X-47274Y95703D01*
X-47703Y95417D01*
X-51744Y95417D01*
X-51744Y96576D01*
X-51744Y96576D02*
G37*
G36*
X-95244Y96576D02*
X-99787Y96576D01*
X-99787Y92033D01*
X-95244Y92033D01*
X-95244Y93193D01*
X-76203Y93193D01*
X-75774Y92907D01*
X-75195Y92791D01*
X-74616Y92907D01*
X-74125Y93235D01*
X-73797Y93726D01*
X-73682Y94305D01*
X-73797Y94884D01*
X-74125Y95375D01*
X-74616Y95703D01*
X-75195Y95818D01*
X-75774Y95703D01*
X-76203Y95417D01*
X-95244Y95417D01*
X-95244Y96576D01*
X-95244Y96576D02*
G37*
G36*
X55520Y89787D02*
X55520Y88176D01*
X56847Y88176D01*
X56735Y88741D01*
X56333Y89343D01*
X55730Y89746D01*
X55520Y89787D01*
X55520Y89787D02*
G37*
G36*
X31094Y89787D02*
X30884Y89746D01*
X30282Y89343D01*
X29879Y88741D01*
X29767Y88176D01*
X31094Y88176D01*
X31094Y89787D01*
X31094Y89787D02*
G37*
G36*
X77862Y96513D02*
X77283Y96398D01*
X76792Y96070D01*
X76464Y95579D01*
X76349Y95000D01*
X76464Y94421D01*
X76792Y93930D01*
X76888Y93866D01*
X76888Y91831D01*
X75728Y91831D01*
X75728Y88075D01*
X80272Y88075D01*
X80272Y91831D01*
X79112Y91831D01*
X79112Y94199D01*
X79260Y94421D01*
X79375Y95000D01*
X79260Y95579D01*
X78932Y96070D01*
X78441Y96398D01*
X77862Y96513D01*
X77862Y96513D02*
G37*
G36*
X26779Y91698D02*
X26779Y86720D01*
X28870Y86720D01*
X28870Y89173D01*
X28782Y89843D01*
X28523Y90468D01*
X28111Y91005D01*
X27574Y91417D01*
X26950Y91675D01*
X26779Y91698D01*
X26779Y91698D02*
G37*
G36*
X25779Y91698D02*
X25609Y91675D01*
X24984Y91417D01*
X24447Y91005D01*
X24035Y90468D01*
X23777Y89843D01*
X23688Y89173D01*
X23688Y86720D01*
X25779Y86720D01*
X25779Y91698D01*
X25779Y91698D02*
G37*
G36*
X56847Y87176D02*
X55520Y87176D01*
X55520Y85565D01*
X55730Y85607D01*
X56333Y86010D01*
X56735Y86612D01*
X56847Y87176D01*
X56847Y87176D02*
G37*
G36*
X31094Y87176D02*
X29767Y87176D01*
X29879Y86612D01*
X30282Y86010D01*
X30884Y85607D01*
X31094Y85565D01*
X31094Y87176D01*
X31094Y87176D02*
G37*
G36*
X68500Y86419D02*
X66628Y86419D01*
X66628Y84744D01*
X68500Y84744D01*
X68500Y86419D01*
X68500Y86419D02*
G37*
G36*
X80372Y86025D02*
X78500Y86025D01*
X78500Y84547D01*
X80372Y84547D01*
X80372Y86025D01*
X80372Y86025D02*
G37*
G36*
X77500Y86025D02*
X75628Y86025D01*
X75628Y84547D01*
X77500Y84547D01*
X77500Y86025D01*
X77500Y86025D02*
G37*
G36*
X55520Y84473D02*
X55520Y82862D01*
X56847Y82862D01*
X56735Y83427D01*
X56333Y84029D01*
X55730Y84432D01*
X55520Y84473D01*
X55520Y84473D02*
G37*
G36*
X31094Y84473D02*
X30884Y84432D01*
X30282Y84029D01*
X29879Y83427D01*
X29767Y82862D01*
X31094Y82862D01*
X31094Y84473D01*
X31094Y84473D02*
G37*
G36*
X68500Y83744D02*
X66628Y83744D01*
X66628Y82069D01*
X68500Y82069D01*
X68500Y83744D01*
X68500Y83744D02*
G37*
G36*
X80372Y83547D02*
X78500Y83547D01*
X78500Y82069D01*
X80372Y82069D01*
X80372Y83547D01*
X80372Y83547D02*
G37*
G36*
X77500Y83547D02*
X75628Y83547D01*
X75628Y82069D01*
X77500Y82069D01*
X77500Y83547D01*
X77500Y83547D02*
G37*
G36*
X-158744Y86446D02*
X-163287Y86446D01*
X-163287Y81903D01*
X-158744Y81903D01*
X-158744Y83063D01*
X-111787Y83063D01*
X-111787Y81403D01*
X-107244Y81403D01*
X-107244Y83063D01*
X-99787Y83063D01*
X-99787Y81403D01*
X-95244Y81403D01*
X-95244Y82563D01*
X-83659Y82563D01*
X-83570Y82430D01*
X-83079Y82102D01*
X-82500Y81987D01*
X-81921Y82102D01*
X-81430Y82430D01*
X-81341Y82563D01*
X-56287Y82563D01*
X-56287Y81403D01*
X-51744Y81403D01*
X-51744Y85947D01*
X-56287Y85947D01*
X-56287Y84787D01*
X-81754Y84787D01*
X-81921Y84898D01*
X-82500Y85013D01*
X-83079Y84898D01*
X-83246Y84787D01*
X-95244Y84787D01*
X-95244Y85947D01*
X-99787Y85947D01*
X-99787Y85287D01*
X-107244Y85287D01*
X-107244Y85947D01*
X-111787Y85947D01*
X-111787Y85287D01*
X-158744Y85287D01*
X-158744Y86446D01*
X-158744Y86446D02*
G37*
G36*
X59835Y85720D02*
X57744Y85720D01*
X57744Y83267D01*
X57833Y82597D01*
X58091Y81972D01*
X58503Y81436D01*
X59040Y81024D01*
X59665Y80765D01*
X59835Y80743D01*
X59835Y85720D01*
X59835Y85720D02*
G37*
G36*
X62926Y85720D02*
X60835Y85720D01*
X60835Y80743D01*
X61006Y80765D01*
X61630Y81024D01*
X62167Y81436D01*
X62579Y81972D01*
X62837Y82597D01*
X62926Y83267D01*
X62926Y85720D01*
X62926Y85720D02*
G37*
G36*
X56847Y81862D02*
X55520Y81862D01*
X55520Y80251D01*
X55730Y80293D01*
X56333Y80696D01*
X56735Y81298D01*
X56847Y81862D01*
X56847Y81862D02*
G37*
G36*
X29025Y75372D02*
X27547Y75372D01*
X27547Y73500D01*
X29025Y73500D01*
X29025Y75372D01*
X29025Y75372D02*
G37*
G36*
X26547Y75372D02*
X25069Y75372D01*
X25069Y73500D01*
X26547Y73500D01*
X26547Y75372D01*
X26547Y75372D02*
G37*
G36*
X29025Y72500D02*
X27547Y72500D01*
X27547Y70628D01*
X29025Y70628D01*
X29025Y72500D01*
X29025Y72500D02*
G37*
G36*
X26547Y72500D02*
X25069Y72500D01*
X25069Y70628D01*
X26547Y70628D01*
X26547Y72500D01*
X26547Y72500D02*
G37*
G36*
X47024Y77387D02*
X46444Y77272D01*
X45954Y76944D01*
X45625Y76453D01*
X45510Y75874D01*
X45625Y75295D01*
X45749Y75110D01*
X45749Y74567D01*
X45583Y74567D01*
X45583Y69039D01*
X48945Y69039D01*
X48945Y74567D01*
X48298Y74567D01*
X48298Y75110D01*
X48422Y75295D01*
X48537Y75874D01*
X48422Y76453D01*
X48094Y76944D01*
X47603Y77272D01*
X47024Y77387D01*
X47024Y77387D02*
G37*
G36*
X69606Y67887D02*
X68859Y67788D01*
X68163Y67500D01*
X67565Y67041D01*
X67106Y66443D01*
X66969Y66112D01*
X61831Y66112D01*
X61831Y67272D01*
X58075Y67272D01*
X58075Y62728D01*
X61831Y62728D01*
X61831Y63888D01*
X66969Y63888D01*
X67106Y63557D01*
X67565Y62959D01*
X68163Y62500D01*
X68859Y62212D01*
X69606Y62113D01*
X70354Y62212D01*
X71050Y62500D01*
X71648Y62959D01*
X72106Y63557D01*
X72395Y64253D01*
X72493Y65000D01*
X72395Y65747D01*
X72106Y66443D01*
X71648Y67041D01*
X71050Y67500D01*
X70354Y67788D01*
X69606Y67887D01*
X69606Y67887D02*
G37*
G36*
X45305Y65809D02*
X44024Y65809D01*
X44024Y63445D01*
X45305Y63445D01*
X45305Y65809D01*
X45305Y65809D02*
G37*
G36*
X43024Y65809D02*
X41743Y65809D01*
X41743Y63445D01*
X43024Y63445D01*
X43024Y65809D01*
X43024Y65809D02*
G37*
G36*
X11374Y58041D02*
X8420Y58041D01*
X8420Y56760D01*
X11374Y56760D01*
X11374Y58041D01*
X11374Y58041D02*
G37*
G36*
X-62492Y58437D02*
X-62492Y55618D01*
X-59673Y55618D01*
X-59723Y55994D01*
X-60061Y56810D01*
X-60599Y57512D01*
X-61300Y58049D01*
X-62116Y58388D01*
X-62492Y58437D01*
X-62492Y58437D02*
G37*
G36*
X-63492Y58437D02*
X-63868Y58388D01*
X-64685Y58049D01*
X-65386Y57512D01*
X-65924Y56810D01*
X-66262Y55994D01*
X-66311Y55618D01*
X-63492Y55618D01*
X-63492Y58437D01*
X-63492Y58437D02*
G37*
G36*
X72469Y75736D02*
X66744Y75736D01*
X66744Y70012D01*
X72469Y70012D01*
X72469Y71252D01*
X72969Y71459D01*
X73888Y70539D01*
X73888Y60461D01*
X68539Y55112D01*
X46126Y55112D01*
X46126Y55112D01*
X45700Y55027D01*
X45340Y54786D01*
X45340Y54786D01*
X40414Y49860D01*
X40173Y49499D01*
X40088Y49074D01*
X40088Y49074D01*
X40088Y42661D01*
X39284Y41856D01*
X36570Y44570D01*
X36079Y44898D01*
X35500Y45013D01*
X35500Y45013D01*
X34193Y45013D01*
X34193Y45181D01*
X28665Y45181D01*
X28665Y41819D01*
X34193Y41819D01*
X34193Y41987D01*
X34873Y41987D01*
X37487Y39373D01*
X37487Y36453D01*
X35547Y36453D01*
X35547Y29547D01*
X42453Y29547D01*
X42453Y36453D01*
X40513Y36453D01*
X40513Y39941D01*
X41986Y41414D01*
X41986Y41414D01*
X42227Y41774D01*
X42312Y42200D01*
X42312Y48613D01*
X46586Y52888D01*
X69000Y52888D01*
X69000Y52888D01*
X69425Y52973D01*
X69786Y53214D01*
X75786Y59214D01*
X76027Y59575D01*
X76112Y60000D01*
X76112Y71000D01*
X76027Y71425D01*
X75786Y71786D01*
X75786Y71786D01*
X73912Y73660D01*
X73551Y73901D01*
X73126Y73986D01*
X73126Y73986D01*
X72469Y73986D01*
X72469Y75736D01*
X72469Y75736D02*
G37*
G36*
X31431Y56872D02*
X29953Y56872D01*
X29953Y55000D01*
X31431Y55000D01*
X31431Y56872D01*
X31431Y56872D02*
G37*
G36*
X28953Y56872D02*
X27475Y56872D01*
X27475Y55000D01*
X28953Y55000D01*
X28953Y56872D01*
X28953Y56872D02*
G37*
G36*
X11374Y55760D02*
X8420Y55760D01*
X8420Y54479D01*
X11374Y54479D01*
X11374Y55760D01*
X11374Y55760D02*
G37*
G36*
X31431Y54000D02*
X29953Y54000D01*
X29953Y52128D01*
X31431Y52128D01*
X31431Y54000D01*
X31431Y54000D02*
G37*
G36*
X28953Y54000D02*
X27475Y54000D01*
X27475Y52128D01*
X28953Y52128D01*
X28953Y54000D01*
X28953Y54000D02*
G37*
G36*
X-59673Y54618D02*
X-62492Y54618D01*
X-62492Y51799D01*
X-62116Y51849D01*
X-61300Y52187D01*
X-60599Y52725D01*
X-60061Y53426D01*
X-59723Y54242D01*
X-59673Y54618D01*
X-59673Y54618D02*
G37*
G36*
X-63492Y54618D02*
X-66311Y54618D01*
X-66262Y54242D01*
X-65924Y53426D01*
X-65386Y52725D01*
X-64685Y52187D01*
X-63868Y51849D01*
X-63492Y51799D01*
X-63492Y54618D01*
X-63492Y54618D02*
G37*
G36*
X-107744Y45076D02*
X-112287Y45076D01*
X-112287Y43115D01*
X-112787Y42961D01*
X-113129Y43189D01*
X-113709Y43305D01*
X-114288Y43189D01*
X-114779Y42861D01*
X-115107Y42371D01*
X-115222Y41791D01*
X-115107Y41212D01*
X-114779Y40721D01*
X-114288Y40393D01*
X-113709Y40278D01*
X-113129Y40393D01*
X-112787Y40622D01*
X-112287Y40533D01*
X-112287Y40533D01*
X-107744Y40533D01*
X-107744Y45076D01*
X-107744Y45076D02*
G37*
G36*
X-158744Y44576D02*
X-163287Y44576D01*
X-163287Y42903D01*
X-164201Y42903D01*
X-164629Y43189D01*
X-165209Y43305D01*
X-165788Y43189D01*
X-166279Y42861D01*
X-166607Y42371D01*
X-166722Y41791D01*
X-166607Y41212D01*
X-166279Y40721D01*
X-165788Y40393D01*
X-165209Y40278D01*
X-164629Y40393D01*
X-164201Y40679D01*
X-163287Y40679D01*
X-163287Y40033D01*
X-158744Y40033D01*
X-158744Y44576D01*
X-158744Y44576D02*
G37*
G36*
X-97000Y47513D02*
X-97579Y47398D01*
X-98070Y47070D01*
X-98398Y46579D01*
X-98513Y46000D01*
X-98429Y45576D01*
X-98668Y45170D01*
X-98769Y45076D01*
X-102787Y45076D01*
X-102787Y40533D01*
X-100702Y40533D01*
X-100679Y40067D01*
X-100594Y39641D01*
X-100353Y39281D01*
X-97786Y36714D01*
X-97426Y36473D01*
X-97000Y36388D01*
X-97000Y36388D01*
X-86898Y36388D01*
X-86898Y36388D01*
X-86473Y36473D01*
X-86112Y36714D01*
X-81515Y41311D01*
X-81010Y41411D01*
X-80519Y41739D01*
X-80190Y42230D01*
X-80075Y42809D01*
X-80190Y43389D01*
X-80519Y43880D01*
X-81010Y44208D01*
X-81589Y44323D01*
X-82168Y44208D01*
X-82659Y43880D01*
X-82987Y43389D01*
X-83087Y42883D01*
X-87359Y38612D01*
X-96539Y38612D01*
X-98044Y40116D01*
X-98244Y40533D01*
X-98244Y44445D01*
X-97744Y44712D01*
X-97579Y44602D01*
X-97074Y44501D01*
X-96287Y43714D01*
X-96287Y40533D01*
X-91744Y40533D01*
X-91744Y45076D01*
X-94504Y45076D01*
X-95501Y46074D01*
X-95602Y46579D01*
X-95930Y47070D01*
X-96421Y47398D01*
X-97000Y47513D01*
X-97000Y47513D02*
G37*
G36*
X63225Y40272D02*
X61747Y40272D01*
X61747Y38400D01*
X63225Y38400D01*
X63225Y40272D01*
X63225Y40272D02*
G37*
G36*
X60747Y40272D02*
X59269Y40272D01*
X59269Y38400D01*
X60747Y38400D01*
X60747Y40272D01*
X60747Y40272D02*
G37*
G36*
X-46090Y38331D02*
X-50634Y38331D01*
X-50634Y37466D01*
X-51287Y37466D01*
X-51287Y38035D01*
X-55437Y38035D01*
X-55437Y34673D01*
X-51287Y34673D01*
X-51287Y35242D01*
X-50634Y35242D01*
X-50634Y34575D01*
X-46090Y34575D01*
X-46090Y38331D01*
X-46090Y38331D02*
G37*
G36*
X63225Y37400D02*
X61747Y37400D01*
X61747Y35528D01*
X63225Y35528D01*
X63225Y37400D01*
X63225Y37400D02*
G37*
G36*
X60747Y37400D02*
X59269Y37400D01*
X59269Y35528D01*
X60747Y35528D01*
X60747Y37400D01*
X60747Y37400D02*
G37*
G36*
X-91744Y34446D02*
X-96287Y34446D01*
X-96287Y33419D01*
X-96787Y33309D01*
X-96921Y33398D01*
X-97500Y33513D01*
X-97744Y33465D01*
X-98244Y33844D01*
X-98244Y34446D01*
X-102787Y34446D01*
X-102787Y33112D01*
X-107744Y33112D01*
X-107744Y34446D01*
X-112287Y34446D01*
X-112287Y32787D01*
X-158744Y32787D01*
X-158744Y33946D01*
X-163287Y33946D01*
X-163287Y29403D01*
X-158744Y29403D01*
X-158744Y30563D01*
X-112287Y30563D01*
X-112287Y29903D01*
X-107744Y29903D01*
X-107744Y30888D01*
X-102787Y30888D01*
X-102787Y29903D01*
X-98244Y29903D01*
X-98244Y30156D01*
X-97744Y30535D01*
X-97500Y30487D01*
X-96921Y30602D01*
X-96787Y30691D01*
X-96287Y30424D01*
X-96287Y29903D01*
X-91744Y29903D01*
X-91744Y34446D01*
X-91744Y34446D02*
G37*
G36*
X-45990Y32525D02*
X-47862Y32525D01*
X-47862Y31047D01*
X-45990Y31047D01*
X-45990Y32525D01*
X-45990Y32525D02*
G37*
G36*
X-48862Y32525D02*
X-50734Y32525D01*
X-50734Y31047D01*
X-48862Y31047D01*
X-48862Y32525D01*
X-48862Y32525D02*
G37*
G36*
X57153Y42319D02*
X50247Y42319D01*
X50247Y36201D01*
X52487Y36201D01*
X52487Y35500D01*
X52487Y35500D01*
X52602Y34921D01*
X52930Y34430D01*
X55105Y32255D01*
X55105Y31829D01*
X54980Y31198D01*
X54980Y28754D01*
X51653Y28754D01*
X51653Y30299D01*
X44747Y30299D01*
X44747Y24181D01*
X51653Y24181D01*
X51653Y25727D01*
X54980Y25727D01*
X54980Y24899D01*
X55110Y24243D01*
X55482Y23687D01*
X56038Y23316D01*
X56497Y23224D01*
X56606Y23203D01*
X56703Y22747D01*
X56704Y22712D01*
X56704Y22383D01*
X56704Y19100D01*
X63300Y19100D01*
X63300Y22743D01*
X62704Y22743D01*
X62416Y23207D01*
X62421Y23243D01*
X62978Y23615D01*
X63371Y24204D01*
X63510Y24899D01*
X63510Y27549D01*
X59878Y27549D01*
X59878Y24899D01*
X60016Y24204D01*
X60410Y23615D01*
X60966Y23243D01*
X60971Y23207D01*
X60684Y22743D01*
X57203Y22743D01*
X57172Y22743D01*
X57034Y22758D01*
X56986Y23243D01*
X57350Y23316D01*
X57906Y23687D01*
X58277Y24243D01*
X58408Y24899D01*
X58408Y31198D01*
X58277Y31854D01*
X58132Y32072D01*
X58132Y32882D01*
X58132Y32882D01*
X58017Y33461D01*
X57688Y33952D01*
X57688Y33952D01*
X55939Y35701D01*
X56147Y36201D01*
X57153Y36201D01*
X57153Y42319D01*
X57153Y42319D02*
G37*
G36*
X-45990Y30047D02*
X-47862Y30047D01*
X-47862Y28569D01*
X-45990Y28569D01*
X-45990Y30047D01*
X-45990Y30047D02*
G37*
G36*
X-48862Y30047D02*
X-50734Y30047D01*
X-50734Y28569D01*
X-48862Y28569D01*
X-48862Y30047D01*
X-48862Y30047D02*
G37*
G36*
X72194Y32915D02*
X72194Y28549D01*
X73510Y28549D01*
X73510Y31198D01*
X73371Y31893D01*
X72978Y32482D01*
X72389Y32876D01*
X72194Y32915D01*
X72194Y32915D02*
G37*
G36*
X71194Y32915D02*
X70999Y32876D01*
X70410Y32482D01*
X70016Y31893D01*
X69878Y31198D01*
X69878Y28549D01*
X71194Y28549D01*
X71194Y32915D01*
X71194Y32915D02*
G37*
G36*
X62194Y32915D02*
X62194Y28549D01*
X63510Y28549D01*
X63510Y31198D01*
X63371Y31893D01*
X62978Y32482D01*
X62389Y32876D01*
X62194Y32915D01*
X62194Y32915D02*
G37*
G36*
X61194Y32915D02*
X60999Y32876D01*
X60410Y32482D01*
X60016Y31893D01*
X59878Y31198D01*
X59878Y28549D01*
X61194Y28549D01*
X61194Y32915D01*
X61194Y32915D02*
G37*
G36*
X73510Y27549D02*
X72194Y27549D01*
X72194Y23183D01*
X72389Y23221D01*
X72978Y23615D01*
X73371Y24204D01*
X73510Y24899D01*
X73510Y27549D01*
X73510Y27549D02*
G37*
G36*
X71194Y27549D02*
X69878Y27549D01*
X69878Y24899D01*
X70016Y24204D01*
X70410Y23615D01*
X70999Y23221D01*
X71194Y23183D01*
X71194Y27549D01*
X71194Y27549D02*
G37*
G36*
X25850Y23550D02*
X23191Y23550D01*
X23191Y20498D01*
X25850Y20498D01*
X25850Y23550D01*
X25850Y23550D02*
G37*
G36*
X22191Y23550D02*
X19532Y23550D01*
X19532Y20498D01*
X22191Y20498D01*
X22191Y23550D01*
X22191Y23550D02*
G37*
G36*
X51753Y22919D02*
X48700Y22919D01*
X48700Y20260D01*
X51753Y20260D01*
X51753Y22919D01*
X51753Y22919D02*
G37*
G36*
X47700Y22919D02*
X44647Y22919D01*
X44647Y20260D01*
X47700Y20260D01*
X47700Y22919D01*
X47700Y22919D02*
G37*
G36*
X69031Y40172D02*
X65275Y40172D01*
X65275Y37097D01*
X65187Y36654D01*
X65187Y36654D01*
X65187Y31969D01*
X65110Y31854D01*
X64980Y31198D01*
X64980Y24899D01*
X65110Y24243D01*
X65482Y23687D01*
X66038Y23316D01*
X66401Y23243D01*
X66352Y22743D01*
X64300Y22743D01*
X64300Y19100D01*
X70896Y19100D01*
X70896Y22743D01*
X67035Y22743D01*
X66986Y23243D01*
X67350Y23316D01*
X67906Y23687D01*
X68277Y24243D01*
X68408Y24899D01*
X68408Y31198D01*
X68277Y31854D01*
X68213Y31950D01*
X68213Y35628D01*
X69031Y35628D01*
X69031Y40172D01*
X69031Y40172D02*
G37*
G36*
X51753Y19260D02*
X48700Y19260D01*
X48700Y16601D01*
X51753Y16601D01*
X51753Y19260D01*
X51753Y19260D02*
G37*
G36*
X47700Y19260D02*
X44647Y19260D01*
X44647Y16601D01*
X47700Y16601D01*
X47700Y19260D01*
X47700Y19260D02*
G37*
G36*
X25850Y19498D02*
X23191Y19498D01*
X23191Y16445D01*
X25850Y16445D01*
X25850Y19498D01*
X25850Y19498D02*
G37*
G36*
X22191Y19498D02*
X19532Y19498D01*
X19532Y16445D01*
X22191Y16445D01*
X22191Y19498D01*
X22191Y19498D02*
G37*
G36*
X25828Y13521D02*
X22874Y13521D01*
X22874Y12240D01*
X25828Y12240D01*
X25828Y13521D01*
X25828Y13521D02*
G37*
G36*
X21874Y13521D02*
X18920Y13521D01*
X18920Y12240D01*
X21874Y12240D01*
X21874Y13521D01*
X21874Y13521D02*
G37*
G36*
X25828Y11240D02*
X22874Y11240D01*
X22874Y9959D01*
X25828Y9959D01*
X25828Y11240D01*
X25828Y11240D02*
G37*
G36*
X21874Y11240D02*
X18920Y11240D01*
X18920Y9959D01*
X21874Y9959D01*
X21874Y11240D01*
X21874Y11240D02*
G37*
G36*
X-60628Y4931D02*
X-62500Y4931D01*
X-62500Y3256D01*
X-60628Y3256D01*
X-60628Y4931D01*
X-60628Y4931D02*
G37*
G36*
X-63500Y4931D02*
X-65372Y4931D01*
X-65372Y3256D01*
X-63500Y3256D01*
X-63500Y4931D01*
X-63500Y4931D02*
G37*
G36*
X71694Y14015D02*
X71038Y13884D01*
X70482Y13513D01*
X70110Y12957D01*
X69980Y12301D01*
X69980Y6002D01*
X70110Y5346D01*
X70482Y4790D01*
X70801Y4577D01*
X70801Y4376D01*
X70602Y4079D01*
X70487Y3500D01*
X70602Y2921D01*
X70930Y2430D01*
X71421Y2102D01*
X72000Y1987D01*
X72579Y2102D01*
X73070Y2430D01*
X73398Y2921D01*
X73513Y3500D01*
X73398Y4079D01*
X73070Y4570D01*
X73086Y5059D01*
X73277Y5346D01*
X73408Y6002D01*
X73408Y12301D01*
X73277Y12957D01*
X72906Y13513D01*
X72350Y13884D01*
X71694Y14015D01*
X71694Y14015D02*
G37*
G36*
X-60628Y2256D02*
X-62500Y2256D01*
X-62500Y581D01*
X-60628Y581D01*
X-60628Y2256D01*
X-60628Y2256D02*
G37*
G36*
X-63500Y2256D02*
X-65372Y2256D01*
X-65372Y581D01*
X-63500Y581D01*
X-63500Y2256D01*
X-63500Y2256D02*
G37*
G36*
X-65518Y72031D02*
X-66097Y71916D01*
X-66588Y71588D01*
X-66916Y71097D01*
X-66959Y70879D01*
X-67151Y70687D01*
X-67151Y70687D01*
X-71011Y66827D01*
X-71011Y66827D01*
X-75136Y62702D01*
X-75412Y62288D01*
X-75510Y61800D01*
X-75510Y2266D01*
X-77457Y2266D01*
X-77457Y-1490D01*
X-68513Y-1490D01*
X-68513Y2266D01*
X-70461Y2266D01*
X-70461Y60237D01*
X-68173Y62525D01*
X-68173Y62525D01*
X-62849Y67849D01*
X-62849Y67849D01*
X-62064Y68633D01*
X-61846Y68677D01*
X-61355Y69005D01*
X-61027Y69496D01*
X-60912Y70075D01*
X-61027Y70654D01*
X-61355Y71145D01*
X-61846Y71473D01*
X-62425Y71588D01*
X-63004Y71473D01*
X-63495Y71145D01*
X-63591Y71002D01*
X-64120Y71097D01*
X-64448Y71588D01*
X-64939Y71916D01*
X-65518Y72031D01*
X-65518Y72031D02*
G37*
G36*
X25728Y5941D02*
X19020Y5941D01*
X19020Y2579D01*
X21746Y2579D01*
X21746Y-547D01*
X20201Y-547D01*
X20201Y-3086D01*
X18901Y-3086D01*
X18901Y-3086D01*
X18322Y-3201D01*
X17831Y-3529D01*
X17831Y-3529D01*
X15814Y-5546D01*
X15500Y-5483D01*
X14537Y-5675D01*
X13720Y-6220D01*
X13175Y-7037D01*
X12983Y-8000D01*
X13175Y-8963D01*
X13720Y-9780D01*
X14537Y-10325D01*
X15500Y-10517D01*
X16463Y-10325D01*
X17280Y-9780D01*
X17825Y-8963D01*
X18017Y-8000D01*
X17954Y-7686D01*
X19528Y-6112D01*
X20201Y-6112D01*
X20201Y-7453D01*
X26319Y-7453D01*
X26319Y-547D01*
X24773Y-547D01*
X24773Y2579D01*
X25728Y2579D01*
X25728Y5941D01*
X25728Y5941D02*
G37*
G36*
X33899Y-447D02*
X31240Y-447D01*
X31240Y-3500D01*
X33899Y-3500D01*
X33899Y-447D01*
X33899Y-447D02*
G37*
G36*
X30240Y-447D02*
X27581Y-447D01*
X27581Y-3500D01*
X30240Y-3500D01*
X30240Y-447D01*
X30240Y-447D02*
G37*
G36*
X65954Y-4321D02*
X63295Y-4321D01*
X63295Y-7374D01*
X65954Y-7374D01*
X65954Y-4321D01*
X65954Y-4321D02*
G37*
G36*
X62295Y-4321D02*
X59636Y-4321D01*
X59636Y-7374D01*
X62295Y-7374D01*
X62295Y-4321D01*
X62295Y-4321D02*
G37*
G36*
X33899Y-4500D02*
X31240Y-4500D01*
X31240Y-7553D01*
X33899Y-7553D01*
X33899Y-4500D01*
X33899Y-4500D02*
G37*
G36*
X30240Y-4500D02*
X27581Y-4500D01*
X27581Y-7553D01*
X30240Y-7553D01*
X30240Y-4500D01*
X30240Y-4500D02*
G37*
G36*
X-159744Y-7924D02*
X-164287Y-7924D01*
X-164287Y-8984D01*
X-164787Y-9279D01*
X-165209Y-9195D01*
X-165788Y-9311D01*
X-166279Y-9639D01*
X-166607Y-10130D01*
X-166722Y-10709D01*
X-166607Y-11288D01*
X-166279Y-11779D01*
X-165788Y-12107D01*
X-165209Y-12222D01*
X-164787Y-12138D01*
X-164287Y-12433D01*
X-164287Y-12467D01*
X-159744Y-12467D01*
X-159744Y-11496D01*
X-159742Y-11495D01*
X-159502Y-11134D01*
X-159417Y-10709D01*
X-159502Y-10283D01*
X-159742Y-9922D01*
X-159744Y-9922D01*
X-159744Y-7924D01*
X-159744Y-7924D02*
G37*
G36*
X-108244Y-8424D02*
X-112787Y-8424D01*
X-112787Y-9385D01*
X-113287Y-9539D01*
X-113629Y-9311D01*
X-114209Y-9195D01*
X-114788Y-9311D01*
X-115279Y-9639D01*
X-115607Y-10130D01*
X-115722Y-10709D01*
X-115607Y-11288D01*
X-115279Y-11779D01*
X-114788Y-12107D01*
X-114209Y-12222D01*
X-113629Y-12107D01*
X-113287Y-11878D01*
X-112787Y-12032D01*
X-112787Y-12967D01*
X-108244Y-12967D01*
X-108244Y-8424D01*
X-108244Y-8424D02*
G37*
G36*
X-94500Y7013D02*
X-95079Y6898D01*
X-95570Y6570D01*
X-95898Y6079D01*
X-96013Y5500D01*
X-95898Y4921D01*
X-95612Y4493D01*
X-95612Y-7651D01*
X-95898Y-8080D01*
X-96013Y-8659D01*
X-95898Y-9238D01*
X-95570Y-9729D01*
X-95079Y-10057D01*
X-94500Y-10172D01*
X-93921Y-10057D01*
X-93430Y-9729D01*
X-93102Y-9238D01*
X-92987Y-8659D01*
X-93102Y-8080D01*
X-93388Y-7651D01*
X-93388Y4493D01*
X-93102Y4921D01*
X-92987Y5500D01*
X-93102Y6079D01*
X-93430Y6570D01*
X-93921Y6898D01*
X-94500Y7013D01*
X-94500Y7013D02*
G37*
G36*
X65954Y-8374D02*
X63295Y-8374D01*
X63295Y-11427D01*
X65954Y-11427D01*
X65954Y-8374D01*
X65954Y-8374D02*
G37*
G36*
X62295Y-8374D02*
X59636Y-8374D01*
X59636Y-11427D01*
X62295Y-11427D01*
X62295Y-8374D01*
X62295Y-8374D02*
G37*
G36*
X-91000Y-1912D02*
X-91579Y-2027D01*
X-92070Y-2355D01*
X-92398Y-2846D01*
X-92513Y-3425D01*
X-92398Y-4004D01*
X-92112Y-4433D01*
X-92112Y-8424D01*
X-92287Y-8424D01*
X-92287Y-12967D01*
X-87744Y-12967D01*
X-87744Y-8424D01*
X-89888Y-8424D01*
X-89888Y-4433D01*
X-89602Y-4004D01*
X-89487Y-3425D01*
X-89602Y-2846D01*
X-89930Y-2355D01*
X-90421Y-2027D01*
X-91000Y-1912D01*
X-91000Y-1912D02*
G37*
G36*
X-99000Y-4987D02*
X-99579Y-5102D01*
X-100070Y-5430D01*
X-100398Y-5921D01*
X-100513Y-6500D01*
X-100398Y-7079D01*
X-100112Y-7508D01*
X-100112Y-8424D01*
X-101787Y-8424D01*
X-101787Y-12967D01*
X-97244Y-12967D01*
X-97244Y-8424D01*
X-97888Y-8424D01*
X-97888Y-7508D01*
X-97602Y-7079D01*
X-97487Y-6500D01*
X-97602Y-5921D01*
X-97930Y-5430D01*
X-98421Y-5102D01*
X-99000Y-4987D01*
X-99000Y-4987D02*
G37*
G36*
X-73581Y-13128D02*
X-75256Y-13128D01*
X-75256Y-15000D01*
X-73581Y-15000D01*
X-73581Y-13128D01*
X-73581Y-13128D02*
G37*
G36*
X-76256Y-13128D02*
X-77931Y-13128D01*
X-77931Y-15000D01*
X-76256Y-15000D01*
X-76256Y-13128D01*
X-76256Y-13128D02*
G37*
G36*
X25335Y41441D02*
X19807Y41441D01*
X19807Y38079D01*
X21057Y38079D01*
X21057Y34929D01*
X21057Y34929D01*
X21173Y34350D01*
X21501Y33859D01*
X24930Y30430D01*
X24930Y30430D01*
X25421Y30102D01*
X26000Y29987D01*
X26000Y29987D01*
X27555Y29987D01*
X27555Y29209D01*
X29727Y29209D01*
X29727Y23450D01*
X27112Y23450D01*
X27112Y16545D01*
X29727Y16545D01*
X29727Y9681D01*
X28272Y9681D01*
X28272Y6319D01*
X32840Y6319D01*
X37487Y1672D01*
X37487Y-12500D01*
X37487Y-12500D01*
X37602Y-13079D01*
X37930Y-13570D01*
X39727Y-15367D01*
X39727Y-16654D01*
X39380Y-17010D01*
X39002Y-17010D01*
X38000Y-17010D01*
X38000Y-19776D01*
X38000Y-22541D01*
X39002Y-22541D01*
X39380Y-22541D01*
X39838Y-22441D01*
X43020Y-22441D01*
X43020Y-17110D01*
X42753Y-17110D01*
X42753Y-14740D01*
X42753Y-14740D01*
X42638Y-14161D01*
X42310Y-13670D01*
X40513Y-11873D01*
X40513Y2299D01*
X40513Y2299D01*
X40398Y2878D01*
X40070Y3369D01*
X40070Y3369D01*
X34980Y8459D01*
X34980Y9681D01*
X32754Y9681D01*
X32754Y16545D01*
X33231Y16545D01*
X33231Y23450D01*
X32754Y23450D01*
X32754Y29209D01*
X33358Y29209D01*
X33358Y33791D01*
X27555Y33791D01*
X27555Y33013D01*
X26627Y33013D01*
X24084Y35556D01*
X24084Y38079D01*
X25335Y38079D01*
X25335Y41441D01*
X25335Y41441D02*
G37*
G36*
X29872Y-19569D02*
X28000Y-19569D01*
X28000Y-21244D01*
X29872Y-21244D01*
X29872Y-19569D01*
X29872Y-19569D02*
G37*
G36*
X27000Y-19569D02*
X25128Y-19569D01*
X25128Y-21244D01*
X27000Y-21244D01*
X27000Y-19569D01*
X27000Y-19569D02*
G37*
G36*
X70500Y-19952D02*
X70500Y-22374D01*
X72922Y-22374D01*
X72886Y-22101D01*
X72588Y-21380D01*
X72113Y-20761D01*
X71494Y-20287D01*
X70773Y-19988D01*
X70500Y-19952D01*
X70500Y-19952D02*
G37*
G36*
X69500Y-19952D02*
X69227Y-19988D01*
X68506Y-20287D01*
X67887Y-20761D01*
X67413Y-21380D01*
X67114Y-22101D01*
X67078Y-22374D01*
X69500Y-22374D01*
X69500Y-19952D01*
X69500Y-19952D02*
G37*
G36*
X31500Y-12388D02*
X31500Y-12388D01*
X9500Y-12388D01*
X9075Y-12473D01*
X8714Y-12714D01*
X8714Y-12714D01*
X6214Y-15214D01*
X5973Y-15574D01*
X5888Y-16000D01*
X5888Y-16000D01*
X5888Y-18993D01*
X5602Y-19421D01*
X5487Y-20000D01*
X5602Y-20579D01*
X5930Y-21070D01*
X6421Y-21398D01*
X7000Y-21513D01*
X7579Y-21398D01*
X8070Y-21070D01*
X8398Y-20579D01*
X8513Y-20000D01*
X8398Y-19421D01*
X8112Y-18993D01*
X8112Y-16461D01*
X9961Y-14612D01*
X31039Y-14612D01*
X32648Y-16220D01*
X32648Y-17110D01*
X31980Y-17110D01*
X31980Y-22441D01*
X35162Y-22441D01*
X35620Y-22541D01*
X35998Y-22541D01*
X37000Y-22541D01*
X37000Y-19776D01*
X37000Y-17010D01*
X35998Y-17010D01*
X35620Y-17010D01*
X35372Y-17064D01*
X34872Y-16749D01*
X34872Y-15760D01*
X34787Y-15334D01*
X34546Y-14974D01*
X34546Y-14974D01*
X32286Y-12714D01*
X31925Y-12473D01*
X31500Y-12388D01*
X31500Y-12388D02*
G37*
G36*
X-159744Y-18554D02*
X-164287Y-18554D01*
X-164287Y-23097D01*
X-159744Y-23097D01*
X-159744Y-21937D01*
X-112787Y-21937D01*
X-112787Y-23597D01*
X-108244Y-23597D01*
X-108244Y-21937D01*
X-105678Y-21937D01*
X-105249Y-22223D01*
X-104670Y-22339D01*
X-104091Y-22223D01*
X-103663Y-21937D01*
X-101787Y-21937D01*
X-101787Y-23597D01*
X-97244Y-23597D01*
X-97244Y-21937D01*
X-92287Y-21937D01*
X-92287Y-23597D01*
X-87744Y-23597D01*
X-87744Y-19054D01*
X-92287Y-19054D01*
X-92287Y-19713D01*
X-97244Y-19713D01*
X-97244Y-19054D01*
X-101787Y-19054D01*
X-101787Y-19713D01*
X-103663Y-19713D01*
X-104091Y-19427D01*
X-104670Y-19312D01*
X-105249Y-19427D01*
X-105678Y-19713D01*
X-108244Y-19713D01*
X-108244Y-19054D01*
X-112787Y-19054D01*
X-112787Y-19713D01*
X-159744Y-19713D01*
X-159744Y-18554D01*
X-159744Y-18554D02*
G37*
G36*
X29872Y-22244D02*
X28000Y-22244D01*
X28000Y-23919D01*
X29872Y-23919D01*
X29872Y-22244D01*
X29872Y-22244D02*
G37*
G36*
X27000Y-22244D02*
X25128Y-22244D01*
X25128Y-23919D01*
X27000Y-23919D01*
X27000Y-22244D01*
X27000Y-22244D02*
G37*
G36*
X-73581Y-23000D02*
X-75256Y-23000D01*
X-75256Y-24872D01*
X-73581Y-24872D01*
X-73581Y-23000D01*
X-73581Y-23000D02*
G37*
G36*
X-76256Y-23000D02*
X-77931Y-23000D01*
X-77931Y-24872D01*
X-76256Y-24872D01*
X-76256Y-23000D01*
X-76256Y-23000D02*
G37*
G36*
X72922Y-23374D02*
X70500Y-23374D01*
X70500Y-25796D01*
X70773Y-25760D01*
X71494Y-25462D01*
X72113Y-24987D01*
X72588Y-24368D01*
X72886Y-23647D01*
X72922Y-23374D01*
X72922Y-23374D02*
G37*
G36*
X69500Y-23374D02*
X67078Y-23374D01*
X67114Y-23647D01*
X67413Y-24368D01*
X67887Y-24987D01*
X68506Y-25462D01*
X69227Y-25760D01*
X69500Y-25796D01*
X69500Y-23374D01*
X69500Y-23374D02*
G37*
G36*
X-73581Y-25628D02*
X-75256Y-25628D01*
X-75256Y-27500D01*
X-73581Y-27500D01*
X-73581Y-25628D01*
X-73581Y-25628D02*
G37*
G36*
X-76256Y-25628D02*
X-77931Y-25628D01*
X-77931Y-27500D01*
X-76256Y-27500D01*
X-76256Y-25628D01*
X-76256Y-25628D02*
G37*
G36*
X-73581Y-28500D02*
X-75256Y-28500D01*
X-75256Y-30372D01*
X-73581Y-30372D01*
X-73581Y-28500D01*
X-73581Y-28500D02*
G37*
G36*
X-76256Y-28500D02*
X-77931Y-28500D01*
X-77931Y-30372D01*
X-76256Y-30372D01*
X-76256Y-28500D01*
X-76256Y-28500D02*
G37*
G36*
X-60577Y-29762D02*
X-64718Y-29762D01*
X-64478Y-30120D01*
X-64085Y-30383D01*
X-63620Y-30476D01*
X-60577Y-30476D01*
X-60577Y-29762D01*
X-60577Y-29762D02*
G37*
G36*
X59931Y-29703D02*
X58256Y-29703D01*
X58256Y-31575D01*
X59931Y-31575D01*
X59931Y-29703D01*
X59931Y-29703D02*
G37*
G36*
X57256Y-29703D02*
X55581Y-29703D01*
X55581Y-31575D01*
X57256Y-31575D01*
X57256Y-29703D01*
X57256Y-29703D02*
G37*
G36*
X29772Y-25181D02*
X25228Y-25181D01*
X25228Y-29331D01*
X29772Y-29331D01*
X29772Y-28958D01*
X31980Y-28958D01*
X31980Y-31890D01*
X35539Y-31890D01*
X35539Y-26559D01*
X31980Y-26559D01*
X31980Y-26735D01*
X29772Y-26735D01*
X29772Y-25181D01*
X29772Y-25181D02*
G37*
G36*
X59931Y-32575D02*
X58256Y-32575D01*
X58256Y-34446D01*
X59931Y-34446D01*
X59931Y-32575D01*
X59931Y-32575D02*
G37*
G36*
X57256Y-32575D02*
X55581Y-32575D01*
X55581Y-34446D01*
X57256Y-34446D01*
X57256Y-32575D01*
X57256Y-32575D02*
G37*
G36*
X37419Y-33447D02*
X34760Y-33447D01*
X34760Y-36500D01*
X37419Y-36500D01*
X37419Y-33447D01*
X37419Y-33447D02*
G37*
G36*
X33760Y-33447D02*
X31101Y-33447D01*
X31101Y-36500D01*
X33760Y-36500D01*
X33760Y-33447D01*
X33760Y-33447D02*
G37*
G36*
X37419Y-37500D02*
X34760Y-37500D01*
X34760Y-40553D01*
X37419Y-40553D01*
X37419Y-37500D01*
X37419Y-37500D02*
G37*
G36*
X33760Y-37500D02*
X31101Y-37500D01*
X31101Y-40553D01*
X33760Y-40553D01*
X33760Y-37500D01*
X33760Y-37500D02*
G37*
G36*
X59931Y-38703D02*
X58453Y-38703D01*
X58453Y-40575D01*
X59931Y-40575D01*
X59931Y-38703D01*
X59931Y-38703D02*
G37*
G36*
X57453Y-38703D02*
X55975Y-38703D01*
X55975Y-40575D01*
X57453Y-40575D01*
X57453Y-38703D01*
X57453Y-38703D02*
G37*
G36*
X53925Y-20803D02*
X50169Y-20803D01*
X50169Y-25346D01*
X50935Y-25346D01*
X50935Y-29803D01*
X50169Y-29803D01*
X50169Y-34347D01*
X50935Y-34347D01*
X50935Y-35501D01*
X50930Y-35505D01*
X50602Y-35996D01*
X50487Y-36575D01*
X50602Y-37154D01*
X50930Y-37645D01*
X50935Y-37648D01*
X50935Y-38803D01*
X50169Y-38803D01*
X50169Y-43347D01*
X53925Y-43347D01*
X53925Y-38803D01*
X53159Y-38803D01*
X53159Y-37512D01*
X53398Y-37154D01*
X53513Y-36575D01*
X53398Y-35996D01*
X53159Y-35638D01*
X53159Y-34347D01*
X54319Y-34347D01*
X54319Y-29803D01*
X53159Y-29803D01*
X53159Y-25346D01*
X53925Y-25346D01*
X53925Y-20803D01*
X53925Y-20803D02*
G37*
G36*
X59931Y-41575D02*
X58453Y-41575D01*
X58453Y-43446D01*
X59931Y-43446D01*
X59931Y-41575D01*
X59931Y-41575D02*
G37*
G36*
X57453Y-41575D02*
X55975Y-41575D01*
X55975Y-43446D01*
X57453Y-43446D01*
X57453Y-41575D01*
X57453Y-41575D02*
G37*
G36*
X-20750Y-42813D02*
X-23213Y-42813D01*
X-23213Y-45669D01*
X-20750Y-45669D01*
X-20750Y-42813D01*
X-20750Y-42813D02*
G37*
G36*
X-20750Y-46669D02*
X-23213Y-46669D01*
X-23213Y-49525D01*
X-20750Y-49525D01*
X-20750Y-46669D01*
X-20750Y-46669D02*
G37*
G36*
X43020Y-26559D02*
X39461Y-26559D01*
X39461Y-31890D01*
X39727Y-31890D01*
X39727Y-33547D01*
X38681Y-33547D01*
X38681Y-40453D01*
X39987Y-40453D01*
X39987Y-42873D01*
X34930Y-47930D01*
X34602Y-48421D01*
X34487Y-49000D01*
X34602Y-49579D01*
X34930Y-50070D01*
X35421Y-50398D01*
X36000Y-50513D01*
X36579Y-50398D01*
X37070Y-50070D01*
X42570Y-44570D01*
X42570Y-44570D01*
X42898Y-44079D01*
X43013Y-43500D01*
X43013Y-40453D01*
X44799Y-40453D01*
X44799Y-33547D01*
X42753Y-33547D01*
X42753Y-31890D01*
X43020Y-31890D01*
X43020Y-26559D01*
X43020Y-26559D02*
G37*
G36*
X72569Y-49164D02*
X70106Y-49164D01*
X70106Y-51626D01*
X72569Y-51626D01*
X72569Y-49164D01*
X72569Y-49164D02*
G37*
G36*
X69106Y-49164D02*
X66644Y-49164D01*
X66644Y-51626D01*
X69106Y-51626D01*
X69106Y-49164D01*
X69106Y-49164D02*
G37*
G36*
X-37500Y-50081D02*
X-37500Y-51756D01*
X-35628Y-51756D01*
X-35628Y-50081D01*
X-37500Y-50081D01*
X-37500Y-50081D02*
G37*
G36*
X-30512Y-51475D02*
X-32974Y-51475D01*
X-32974Y-54331D01*
X-30512Y-54331D01*
X-30512Y-51475D01*
X-30512Y-51475D02*
G37*
G36*
X-35628Y-52756D02*
X-37500Y-52756D01*
X-37500Y-54431D01*
X-35628Y-54431D01*
X-35628Y-52756D01*
X-35628Y-52756D02*
G37*
G36*
X72569Y-52626D02*
X70106Y-52626D01*
X70106Y-55088D01*
X72569Y-55088D01*
X72569Y-52626D01*
X72569Y-52626D02*
G37*
G36*
X69106Y-52626D02*
X66644Y-52626D01*
X66644Y-55088D01*
X69106Y-55088D01*
X69106Y-52626D01*
X69106Y-52626D02*
G37*
G36*
X-30512Y-55331D02*
X-32974Y-55331D01*
X-32974Y-58187D01*
X-30512Y-58187D01*
X-30512Y-55331D01*
X-30512Y-55331D02*
G37*
G36*
X-59636Y-57447D02*
X-62098Y-57447D01*
X-62098Y-59047D01*
X-59636Y-59047D01*
X-59636Y-57447D01*
X-59636Y-57447D02*
G37*
G36*
X-63098Y-57447D02*
X-65561Y-57447D01*
X-65561Y-59047D01*
X-63098Y-59047D01*
X-63098Y-57447D01*
X-63098Y-57447D02*
G37*
G36*
X-84046Y-57447D02*
X-86508Y-57447D01*
X-86508Y-59047D01*
X-84046Y-59047D01*
X-84046Y-57447D01*
X-84046Y-57447D02*
G37*
G36*
X-87508Y-57447D02*
X-89970Y-57447D01*
X-89970Y-59047D01*
X-87508Y-59047D01*
X-87508Y-57447D01*
X-87508Y-57447D02*
G37*
G36*
X-59636Y-60047D02*
X-62098Y-60047D01*
X-62098Y-61647D01*
X-59636Y-61647D01*
X-59636Y-60047D01*
X-59636Y-60047D02*
G37*
G36*
X-63098Y-60047D02*
X-65561Y-60047D01*
X-65561Y-61647D01*
X-63098Y-61647D01*
X-63098Y-60047D01*
X-63098Y-60047D02*
G37*
G36*
X-84046Y-60047D02*
X-86508Y-60047D01*
X-86508Y-61647D01*
X-84046Y-61647D01*
X-84046Y-60047D01*
X-84046Y-60047D02*
G37*
G36*
X-87508Y-60047D02*
X-89970Y-60047D01*
X-89970Y-61647D01*
X-87508Y-61647D01*
X-87508Y-60047D01*
X-87508Y-60047D02*
G37*
G36*
X-161244Y-60924D02*
X-165787Y-60924D01*
X-165787Y-61489D01*
X-166149Y-61743D01*
X-166287Y-61785D01*
X-166805Y-61682D01*
X-167384Y-61797D01*
X-167875Y-62125D01*
X-168203Y-62616D01*
X-168318Y-63195D01*
X-168203Y-63774D01*
X-167875Y-64265D01*
X-167384Y-64593D01*
X-166805Y-64709D01*
X-166287Y-64606D01*
X-166149Y-64647D01*
X-165787Y-64902D01*
X-165787Y-65467D01*
X-161244Y-65467D01*
X-161244Y-60924D01*
X-161244Y-60924D02*
G37*
G36*
X-116244Y-61424D02*
X-120787Y-61424D01*
X-120787Y-62888D01*
X-124493Y-62888D01*
X-124921Y-62602D01*
X-125500Y-62487D01*
X-126079Y-62602D01*
X-126570Y-62930D01*
X-126898Y-63421D01*
X-127013Y-64000D01*
X-126898Y-64579D01*
X-126570Y-65070D01*
X-126079Y-65398D01*
X-125500Y-65513D01*
X-124921Y-65398D01*
X-124493Y-65112D01*
X-120787Y-65112D01*
X-120787Y-65967D01*
X-116244Y-65967D01*
X-116244Y-61424D01*
X-116244Y-61424D02*
G37*
G36*
X-102000Y-58987D02*
X-102579Y-59102D01*
X-103070Y-59430D01*
X-103398Y-59921D01*
X-103513Y-60500D01*
X-103429Y-60924D01*
X-103724Y-61424D01*
X-104287Y-61424D01*
X-104287Y-65967D01*
X-99744Y-65967D01*
X-99744Y-61424D01*
X-100277Y-61424D01*
X-100571Y-60924D01*
X-100487Y-60500D01*
X-100602Y-59921D01*
X-100930Y-59430D01*
X-101421Y-59102D01*
X-102000Y-58987D01*
X-102000Y-58987D02*
G37*
G36*
X-107744Y-61424D02*
X-112287Y-61424D01*
X-112287Y-65967D01*
X-109316Y-65967D01*
X-105497Y-69786D01*
X-105497Y-69786D01*
X-105136Y-70027D01*
X-104711Y-70112D01*
X-104711Y-70112D01*
X-96508Y-70112D01*
X-96079Y-70398D01*
X-95500Y-70513D01*
X-94921Y-70398D01*
X-94430Y-70070D01*
X-94102Y-69579D01*
X-93987Y-69000D01*
X-94102Y-68421D01*
X-94430Y-67930D01*
X-94921Y-67602D01*
X-95500Y-67487D01*
X-96079Y-67602D01*
X-96508Y-67888D01*
X-104250Y-67888D01*
X-107744Y-64394D01*
X-107744Y-61424D01*
X-107744Y-61424D02*
G37*
G36*
X-92000Y-66987D02*
X-92579Y-67102D01*
X-93070Y-67430D01*
X-93398Y-67921D01*
X-93513Y-68500D01*
X-93398Y-69079D01*
X-93070Y-69570D01*
X-92638Y-69859D01*
X-92557Y-70040D01*
X-92497Y-70423D01*
X-92498Y-70425D01*
X-94961Y-72888D01*
X-99744Y-72888D01*
X-99744Y-72053D01*
X-104287Y-72053D01*
X-104287Y-72713D01*
X-107744Y-72713D01*
X-107744Y-72053D01*
X-112287Y-72053D01*
X-112287Y-72713D01*
X-116244Y-72713D01*
X-116244Y-72053D01*
X-120787Y-72053D01*
X-120787Y-72713D01*
X-161244Y-72713D01*
X-161244Y-71553D01*
X-165787Y-71553D01*
X-165787Y-76097D01*
X-161244Y-76097D01*
X-161244Y-74937D01*
X-120787Y-74937D01*
X-120787Y-76597D01*
X-116244Y-76597D01*
X-116244Y-74937D01*
X-112287Y-74937D01*
X-112287Y-76597D01*
X-107744Y-76597D01*
X-107744Y-74937D01*
X-104287Y-74937D01*
X-104287Y-76597D01*
X-99744Y-76597D01*
X-99744Y-75112D01*
X-94500Y-75112D01*
X-94500Y-75112D01*
X-94074Y-75027D01*
X-93714Y-74786D01*
X-90364Y-71437D01*
X-90364Y-71437D01*
X-90123Y-71076D01*
X-90039Y-70651D01*
X-90039Y-69563D01*
X-90039Y-69562D01*
X-90123Y-69137D01*
X-90364Y-68776D01*
X-90364Y-68776D01*
X-90512Y-68628D01*
X-90487Y-68500D01*
X-90602Y-67921D01*
X-90930Y-67430D01*
X-91421Y-67102D01*
X-92000Y-66987D01*
X-92000Y-66987D02*
G37*
G36*
X38555Y-84175D02*
X38084Y-84269D01*
X37260Y-84819D01*
X36710Y-85643D01*
X36616Y-86114D01*
X38555Y-86114D01*
X38555Y-84175D01*
X38555Y-84175D02*
G37*
G36*
X33555Y-86589D02*
X33385Y-86612D01*
X32760Y-86871D01*
X32223Y-87282D01*
X31811Y-87819D01*
X31553Y-88444D01*
X31530Y-88614D01*
X33555Y-88614D01*
X33555Y-86589D01*
X33555Y-86589D02*
G37*
G36*
X36580Y-89614D02*
X34555Y-89614D01*
X34555Y-91639D01*
X34726Y-91617D01*
X35350Y-91358D01*
X35887Y-90946D01*
X36299Y-90409D01*
X36557Y-89785D01*
X36580Y-89614D01*
X36580Y-89614D02*
G37*
G36*
X33555Y-89614D02*
X31530Y-89614D01*
X31553Y-89785D01*
X31811Y-90409D01*
X32223Y-90946D01*
X32760Y-91358D01*
X33385Y-91617D01*
X33555Y-91639D01*
X33555Y-89614D01*
X33555Y-89614D02*
G37*
%LPD*%
G36*
X4888Y1461D02*
X1531Y-1897D01*
X901Y-1636D01*
X0Y-1517D01*
X-901Y-1636D01*
X-1741Y-1984D01*
X-2462Y-2537D01*
X-3016Y-3259D01*
X-3364Y-4099D01*
X-3483Y-5000D01*
X-3364Y-5901D01*
X-3016Y-6741D01*
X-2462Y-7463D01*
X-2380Y-7526D01*
X-2550Y-8026D01*
X-17567Y-8026D01*
X-18771Y-6822D01*
X-19131Y-6581D01*
X-19557Y-6496D01*
X-19557Y-6496D01*
X-31337Y-6496D01*
X-31682Y-6565D01*
X-31900Y-6400D01*
X-32065Y-6182D01*
X-31996Y-5837D01*
X-31996Y1471D01*
X-31816Y1651D01*
X-31311Y1751D01*
X-30820Y2080D01*
X-30492Y2571D01*
X-30376Y3150D01*
X-30492Y3729D01*
X-30820Y4220D01*
X-31311Y4548D01*
X-31890Y4663D01*
X-32469Y4548D01*
X-32960Y4220D01*
X-33288Y3729D01*
X-33309Y3624D01*
X-33465Y3540D01*
X-33965Y3839D01*
X-33965Y4963D01*
X-33039Y5888D01*
X-27494Y5888D01*
X-27287Y5388D01*
X-27633Y5042D01*
X-28138Y4941D01*
X-28629Y4613D01*
X-28957Y4122D01*
X-29072Y3543D01*
X-28957Y2964D01*
X-28629Y2473D01*
X-28138Y2145D01*
X-27559Y2030D01*
X-26980Y2145D01*
X-26489Y2473D01*
X-26161Y2964D01*
X-26060Y3469D01*
X-25642Y3888D01*
X-13064Y3888D01*
X-12844Y3358D01*
X-12322Y2678D01*
X-11642Y2156D01*
X-10850Y1828D01*
X-10000Y1716D01*
X-9150Y1828D01*
X-8358Y2156D01*
X-7678Y2678D01*
X-7156Y3358D01*
X-6936Y3888D01*
X-3277Y3888D01*
X-3016Y3259D01*
X-2462Y2537D01*
X-1741Y1984D01*
X-901Y1636D01*
X0Y1517D01*
X901Y1636D01*
X1741Y1984D01*
X2462Y2537D01*
X3016Y3259D01*
X3364Y4099D01*
X3483Y5000D01*
X3364Y5901D01*
X3016Y6741D01*
X2462Y7463D01*
X1741Y8016D01*
X901Y8364D01*
X717Y8388D01*
X750Y8888D01*
X4888Y8888D01*
X4888Y1461D01*
X4888Y1461D02*
G37*
G36*
X-32914Y-10569D02*
X-33198Y-10759D01*
X-39156Y-16718D01*
X-39397Y-17078D01*
X-39482Y-17504D01*
X-39482Y-17504D01*
X-39482Y-20992D01*
X-39768Y-21421D01*
X-39883Y-22000D01*
X-39768Y-22579D01*
X-39440Y-23070D01*
X-38949Y-23398D01*
X-38370Y-23513D01*
X-37791Y-23398D01*
X-37300Y-23070D01*
X-36972Y-22579D01*
X-36857Y-22000D01*
X-36972Y-21421D01*
X-37258Y-20992D01*
X-37258Y-17965D01*
X-33376Y-14082D01*
X-32914Y-14273D01*
X-32914Y-29612D01*
X-54548Y-29612D01*
X-54548Y-20531D01*
X-53466Y-20531D01*
X-53440Y-20570D01*
X-52949Y-20898D01*
X-52370Y-21013D01*
X-51791Y-20898D01*
X-51300Y-20570D01*
X-50972Y-20079D01*
X-50857Y-19500D01*
X-50972Y-18921D01*
X-51300Y-18430D01*
X-51791Y-18102D01*
X-52370Y-17987D01*
X-52949Y-18102D01*
X-53257Y-18307D01*
X-54548Y-18307D01*
X-54548Y-7612D01*
X-51330Y-7612D01*
X-51013Y-7999D01*
X-51013Y-8000D01*
X-50898Y-8579D01*
X-50570Y-9070D01*
X-50079Y-9398D01*
X-49500Y-9513D01*
X-48921Y-9398D01*
X-48493Y-9112D01*
X-41674Y-9112D01*
X-41674Y-9112D01*
X-41249Y-9027D01*
X-40888Y-8786D01*
X-40196Y-8094D01*
X-40196Y-8094D01*
X-39955Y-7734D01*
X-39931Y-7612D01*
X-32914Y-7612D01*
X-32914Y-10569D01*
X-32914Y-10569D02*
G37*
G36*
X68388Y-83461D02*
X68388Y-92039D01*
X65039Y-95388D01*
X61461Y-95388D01*
X60269Y-94196D01*
X60306Y-93652D01*
X60778Y-93337D01*
X61306Y-92547D01*
X61492Y-91614D01*
X61306Y-90682D01*
X60778Y-89891D01*
X60198Y-89504D01*
X60350Y-89004D01*
X60975Y-89004D01*
X61460Y-89113D01*
X61512Y-89476D01*
X61553Y-89785D01*
X61812Y-90409D01*
X62223Y-90946D01*
X62760Y-91358D01*
X63385Y-91617D01*
X63555Y-91639D01*
X63555Y-89114D01*
X63555Y-86589D01*
X63385Y-86612D01*
X62760Y-86871D01*
X62223Y-87282D01*
X61945Y-87645D01*
X61445Y-87475D01*
X61445Y-84224D01*
X60167Y-84224D01*
X60167Y-81555D01*
X60082Y-81130D01*
X59841Y-80769D01*
X59841Y-80769D01*
X57786Y-78714D01*
X57425Y-78473D01*
X57000Y-78388D01*
X57000Y-78388D01*
X53008Y-78388D01*
X52579Y-78102D01*
X52000Y-77987D01*
X51421Y-78102D01*
X50930Y-78430D01*
X50602Y-78921D01*
X50487Y-79500D01*
X50602Y-80079D01*
X50930Y-80570D01*
X51421Y-80898D01*
X52000Y-81013D01*
X52579Y-80898D01*
X53008Y-80612D01*
X56539Y-80612D01*
X57943Y-82016D01*
X57943Y-84224D01*
X56665Y-84224D01*
X56665Y-85139D01*
X56165Y-85291D01*
X55850Y-84819D01*
X55027Y-84269D01*
X54555Y-84175D01*
X54555Y-86614D01*
X53555Y-86614D01*
X53555Y-84175D01*
X53084Y-84269D01*
X52260Y-84819D01*
X51834Y-85456D01*
X51276Y-85456D01*
X50850Y-84819D01*
X50027Y-84269D01*
X49555Y-84175D01*
X49555Y-86614D01*
X48555Y-86614D01*
X48555Y-84175D01*
X48084Y-84269D01*
X47687Y-84534D01*
X47187Y-84267D01*
X47187Y-78476D01*
X47102Y-78051D01*
X46861Y-77690D01*
X46861Y-77690D01*
X44745Y-75574D01*
X44936Y-75112D01*
X60039Y-75112D01*
X68388Y-83461D01*
X68388Y-83461D02*
G37*
%LPC*%
G36*
X64555Y-86589D02*
X64555Y-88614D01*
X66580Y-88614D01*
X66558Y-88444D01*
X66299Y-87819D01*
X65887Y-87282D01*
X65351Y-86871D01*
X64726Y-86612D01*
X64555Y-86589D01*
X64555Y-86589D02*
G37*
G36*
X66580Y-89614D02*
X64555Y-89614D01*
X64555Y-91639D01*
X64726Y-91617D01*
X65351Y-91358D01*
X65887Y-90946D01*
X66299Y-90409D01*
X66558Y-89785D01*
X66580Y-89614D01*
X66580Y-89614D02*
G37*
%LPD*%
D19*
X17543Y31500D02*
D03*
X30457Y31500D02*
D03*
D20*
X-161015Y94805D02*
D03*
X-161015Y84175D02*
D03*
X-161015Y42305D02*
D03*
X-161015Y31675D02*
D03*
X-162015Y-10195D02*
D03*
X-162015Y-20825D02*
D03*
X-163515Y-63195D02*
D03*
X-163515Y-73825D02*
D03*
X-109515Y94305D02*
D03*
X-109515Y83675D02*
D03*
X-110015Y42805D02*
D03*
X-110015Y32175D02*
D03*
X-110515Y-10695D02*
D03*
X-110515Y-21325D02*
D03*
X-118515Y-63695D02*
D03*
X-118515Y-74325D02*
D03*
X-97515Y94305D02*
D03*
X-97515Y83675D02*
D03*
X-100515Y42805D02*
D03*
X-100515Y32175D02*
D03*
X-99515Y-10695D02*
D03*
X-99515Y-21325D02*
D03*
X-110015Y-63695D02*
D03*
X-110015Y-74325D02*
D03*
X-54015Y94305D02*
D03*
X-54015Y83675D02*
D03*
X-94015Y42805D02*
D03*
X-94015Y32175D02*
D03*
X-90015Y-10695D02*
D03*
X-90015Y-21325D02*
D03*
X-102015Y-63695D02*
D03*
X-102015Y-74325D02*
D03*
D21*
X27047Y73000D02*
D03*
X32953Y73000D02*
D03*
X59953Y65000D02*
D03*
X54047Y65000D02*
D03*
X10453Y73500D02*
D03*
X4547Y73500D02*
D03*
X52047Y-23075D02*
D03*
X57953Y-23075D02*
D03*
X52047Y-41075D02*
D03*
X57953Y-41075D02*
D03*
X67153Y37900D02*
D03*
X61247Y37900D02*
D03*
X23547Y54500D02*
D03*
X29453Y54500D02*
D03*
D22*
X43524Y62945D02*
D03*
X47264Y71803D02*
D03*
X39783Y71803D02*
D03*
D23*
X-62598Y-74311D02*
D03*
X-62598Y-59547D02*
D03*
X-87008Y-59547D02*
D03*
X-87008Y-74311D02*
D03*
D24*
X-53362Y36354D02*
D03*
X-53362Y30646D02*
D03*
D25*
X-63000Y-2756D02*
D03*
X-63000Y2756D02*
D03*
X27500Y-21744D02*
D03*
X27500Y-27256D02*
D03*
X-38000Y-46744D02*
D03*
X-38000Y-52256D02*
D03*
X69000Y89756D02*
D03*
X69000Y84244D02*
D03*
D26*
X56694Y9151D02*
D03*
X61694Y9151D02*
D03*
X66694Y9151D02*
D03*
X71694Y9151D02*
D03*
X56694Y28049D02*
D03*
X66694Y28049D02*
D03*
X61694Y28049D02*
D03*
X71694Y28049D02*
D03*
D27*
X63800Y18600D02*
D03*
D28*
X41240Y-29224D02*
D03*
X33760Y-29224D02*
D03*
X33760Y-19776D02*
D03*
X41240Y-19776D02*
D03*
X37500Y-19776D02*
D03*
D29*
X41740Y-37000D02*
D03*
X34260Y-37000D02*
D03*
X30171Y19998D02*
D03*
X22691Y19998D02*
D03*
X23260Y-4000D02*
D03*
X30740Y-4000D02*
D03*
X55315Y-7874D02*
D03*
X62795Y-7874D02*
D03*
D30*
X-48362Y30547D02*
D03*
X-48362Y36453D02*
D03*
X-75185Y-5518D02*
D03*
X-75185Y388D02*
D03*
X-70785Y-5518D02*
D03*
X-70785Y388D02*
D03*
X78000Y84047D02*
D03*
X78000Y89953D02*
D03*
D31*
X-70244Y-28000D02*
D03*
X-75756Y-28000D02*
D03*
X-70244Y-15500D02*
D03*
X-75756Y-15500D02*
D03*
X-70244Y-22500D02*
D03*
X-75756Y-22500D02*
D03*
X52244Y-32075D02*
D03*
X57756Y-32075D02*
D03*
D32*
X-23713Y-54831D02*
D03*
X-30012Y-46169D02*
D03*
X-30012Y-54831D02*
D03*
X-23713Y-46169D02*
D03*
D33*
X-60077Y-11545D02*
D03*
X-60077Y-13514D02*
D03*
X-60077Y-15482D02*
D03*
X-60077Y-17451D02*
D03*
X-60077Y-19419D02*
D03*
X-60077Y-21388D02*
D03*
X-27793Y-29262D02*
D03*
X-27793Y-27293D02*
D03*
X-27793Y-25325D02*
D03*
X-27793Y-23356D02*
D03*
X-27793Y-21388D02*
D03*
X-27793Y-19419D02*
D03*
X-27793Y-17451D02*
D03*
X-27793Y-15482D02*
D03*
X-27793Y-13514D02*
D03*
X-27793Y-11545D02*
D03*
X-27793Y-9577D02*
D03*
X-27793Y-7608D02*
D03*
X-60077Y-25325D02*
D03*
X-60077Y-23356D02*
D03*
X-60077Y-7608D02*
D03*
X-60077Y-29262D02*
D03*
X-60077Y-9577D02*
D03*
X-60077Y-27293D02*
D03*
D34*
X-54762Y-34577D02*
D03*
X-52793Y-34577D02*
D03*
X-50825Y-34577D02*
D03*
X-48856Y-34577D02*
D03*
X-46888Y-34577D02*
D03*
X-44919Y-34577D02*
D03*
X-42951Y-34577D02*
D03*
X-40982Y-34577D02*
D03*
X-39014Y-34577D02*
D03*
X-33108Y-34577D02*
D03*
X-33108Y-2293D02*
D03*
X-35077Y-2293D02*
D03*
X-37045Y-2293D02*
D03*
X-39014Y-2293D02*
D03*
X-40982Y-2293D02*
D03*
X-42951Y-2293D02*
D03*
X-44919Y-2293D02*
D03*
X-46888Y-2293D02*
D03*
X-48856Y-2293D02*
D03*
X-50825Y-2293D02*
D03*
X-52793Y-2293D02*
D03*
X-54762Y-2293D02*
D03*
X-37045Y-34577D02*
D03*
X-35077Y-34577D02*
D03*
D35*
X11874Y63740D02*
D03*
X21126Y60000D02*
D03*
X11874Y56260D02*
D03*
X31626Y8000D02*
D03*
X22374Y4260D02*
D03*
X22374Y11740D02*
D03*
D36*
X48200Y27240D02*
D03*
X48200Y19760D02*
D03*
X53700Y39260D02*
D03*
X53700Y46740D02*
D03*
D37*
X22571Y47240D02*
D03*
X22571Y39760D02*
D03*
X31429Y43500D02*
D03*
D69*
X-20723Y-25362D02*
X-16138Y-25362D01*
X-27793Y-23356D02*
X-20351Y-23356D01*
X-20026Y-23681D01*
X-20760Y-25325D02*
X-20723Y-25362D01*
X-13312Y-22000D02*
X-312Y-35000D01*
X-19330Y-22000D02*
X-13312Y-22000D01*
X-20026Y-23681D02*
X-15319Y-23681D01*
X-16138Y-25362D02*
X-6000Y-35500D01*
X-19942Y-21388D02*
X-19330Y-22000D01*
X-27793Y-25325D02*
X-20760Y-25325D01*
X-15319Y-23681D02*
X-12719Y-26281D01*
X-13404Y-19530D02*
X-9085Y-23849D01*
X-16000Y-19526D02*
X-15995Y-19530D01*
X-13404Y-19530D01*
X-27793Y-21388D02*
X-19942Y-21388D01*
X-17337Y-14500D02*
X-12500Y-14500D01*
X-22307Y-17451D02*
X-22157Y-17601D01*
X-20438Y-17601D02*
X-17337Y-14500D01*
X-27793Y-15482D02*
X-21341Y-15482D01*
X-21297Y-15526D01*
X-27793Y-17451D02*
X-22307Y-17451D01*
X-22157Y-17601D02*
X-20438Y-17601D01*
X-66219Y-7386D02*
X-64029Y-9577D01*
X-66219Y-7386D02*
X-66219Y-6337D01*
X-64029Y-9577D02*
X-60077Y-9577D01*
X-66349Y-6207D02*
X-66219Y-6337D01*
X-66500Y-5500D02*
X-66349Y-5651D01*
X-66349Y-6207D02*
X-66349Y-5651D01*
X-91000Y-9711D02*
X-91000Y-3425D01*
X-94500Y-8659D02*
X-94500Y5500D01*
X-97000Y46000D02*
X-95196Y44197D01*
X-95196Y43986D02*
X-95196Y44197D01*
X-95196Y43986D02*
X-94015Y42805D01*
X-100515Y32175D02*
X-94015Y32175D01*
X-109841Y32000D02*
X-100515Y32000D01*
X-161015Y31675D02*
X-110015Y31675D01*
X-97000Y37500D02*
X-86898Y37500D01*
X-100515Y42805D02*
X-99567Y41856D01*
X-99567Y40067D02*
X-99567Y41856D01*
X-99567Y40067D02*
X-97000Y37500D01*
X-86898Y37500D02*
X-81589Y42809D01*
X-94015Y32175D02*
X-93948Y32107D01*
X-110015Y32175D02*
X-109841Y32000D01*
X-41500Y33500D02*
X-10904Y64096D01*
X-48856Y21144D02*
X-41500Y28500D01*
X-41500Y33500D01*
X-48856Y-2293D02*
X-48856Y21144D01*
X39500Y40500D02*
X41200Y42200D01*
X0Y-35000D02*
X10000Y-35000D01*
X10000Y-45000D02*
X14500Y-45000D01*
X16500Y-43000D01*
X16500Y-32500D01*
X14000Y-30000D02*
X16500Y-32500D01*
X57953Y-23075D02*
X57953Y-19953D01*
X48500Y-10500D02*
X57953Y-19953D01*
X48500Y-10500D02*
X48500Y-6500D01*
X75000Y-33000D02*
X75000Y-6511D01*
X6713Y-53575D02*
X54425Y-53575D01*
X75000Y-33000D01*
X7138Y-55500D02*
X57000Y-55500D01*
X77000Y-35500D01*
X3063Y-59575D02*
X7138Y-55500D01*
X77000Y-35500D02*
X77000Y-6134D01*
X31500Y-13500D02*
X33760Y-15760D01*
X7000Y-16000D02*
X9500Y-13500D01*
X31500Y-13500D01*
X52047Y-41075D02*
X52047Y-41075D01*
X52047Y-23075D01*
X33760Y-19776D02*
X33760Y-15760D01*
X-9000Y5000D02*
X0Y5000D01*
X-20000Y10000D02*
X6000Y10000D01*
X-33500Y7000D02*
X-23000Y7000D01*
X-20000Y10000D01*
X-10000Y65000D02*
X0Y65000D01*
X7000Y-20000D02*
X7000Y-16000D01*
X0Y-25000D02*
X10000Y-25000D01*
X0Y-45000D02*
X10000Y-45000D01*
X6000Y10000D02*
X6000Y19000D01*
X-10000Y25000D02*
X0Y25000D01*
X6000Y19000D01*
X-10000Y35000D02*
X0Y35000D01*
X-14500Y45000D02*
X-10000Y45000D01*
X-18000Y41500D02*
X-14500Y45000D01*
X-18000Y35500D02*
X-18000Y41500D01*
X-37045Y16455D02*
X-18000Y35500D01*
X-22000Y43000D02*
X-10904Y54096D01*
X-22000Y35500D02*
X-22000Y43000D01*
X-39014Y18486D02*
X-22000Y35500D01*
X-46888Y15178D02*
X-26283Y35783D01*
X-46888Y-2293D02*
X-46888Y15178D01*
X-39014Y-2293D02*
X-39014Y18486D01*
X-37045Y-2293D02*
X-37045Y16455D01*
X-10000Y55000D02*
X0Y55000D01*
X-47244Y55118D02*
X-43307Y55118D01*
X-29882Y55118D01*
X-12000Y73000D02*
X4047Y73000D01*
X-29882Y55118D02*
X-12000Y73000D01*
X9500Y-2000D02*
X9500Y35500D01*
X7000Y-4500D02*
X9500Y-2000D01*
X0Y35000D02*
X7819Y27181D01*
X0Y45000D02*
X9500Y35500D01*
X5000Y-3500D02*
X7819Y-681D01*
X7819Y27181D01*
X69606Y72874D02*
X73126Y72874D01*
X75000Y71000D01*
X75000Y60000D02*
X75000Y71000D01*
X69000Y54000D02*
X75000Y60000D01*
X46126Y54000D02*
X69000Y54000D01*
X69606Y65000D02*
X69606Y65000D01*
X59953Y65000D02*
X69606Y65000D01*
X-92000Y-68713D02*
X-91151Y-69562D01*
X-91151Y-70651D02*
X-91151Y-69562D01*
X-92000Y-68713D02*
X-92000Y-68500D01*
X-94500Y-74000D02*
X-91151Y-70651D01*
X-163515Y-73825D02*
X-102515Y-73825D01*
X-53000Y5287D02*
X-52793Y5080D01*
X-53000Y5287D02*
X-53000Y5500D01*
X-52793Y-2293D02*
X-52793Y5080D01*
X-52862Y15500D02*
X-50825Y13463D01*
X-53111Y30125D02*
X-52862Y30125D01*
X-50825Y-2293D02*
X-50825Y13463D01*
X-44919Y11081D02*
X-43500Y12500D01*
X-44919Y-2293D02*
X-44919Y11081D01*
X-125500Y-64000D02*
X-118820Y-64000D01*
X-118515Y-63695D01*
X-166805Y-63195D02*
X-163515Y-63195D01*
X-102015Y-63695D02*
X-102000Y-63680D01*
X-102000Y-60500D01*
X-104711Y-69000D02*
X-95500Y-69000D01*
X-110015Y-63695D02*
X-104711Y-69000D01*
X-101841Y-74000D02*
X-94500Y-74000D01*
X-102515Y-73825D02*
X-102015Y-74325D01*
X-91000Y-9711D02*
X-90015Y-10695D01*
X-99515Y-10695D02*
X-99000Y-10180D01*
X-99000Y-6500D01*
X-80500Y-18829D02*
X-66979Y-18829D01*
X-79362Y-15500D02*
X-79362Y-15500D01*
X-75756Y-15500D01*
X-90515Y-20825D02*
X-90015Y-21325D01*
X-97515Y83675D02*
X-54015Y83675D01*
X-161015Y84175D02*
X-98015Y84175D01*
X-104670Y-20825D02*
X-90515Y-20825D01*
X-54015Y94305D02*
X-46695Y94305D01*
X-97515Y94305D02*
X-75195Y94305D01*
X-162015Y-20825D02*
X-104670Y-20825D01*
X-114209Y-10709D02*
X-109529Y-10709D01*
X-113709Y41791D02*
X-109029Y41791D01*
X-165209Y-10709D02*
X-160529Y-10709D01*
X-165209Y41791D02*
X-160529Y41791D01*
X-165209Y94291D02*
X-160529Y94291D01*
X-109529Y94291D02*
X-109515Y94305D01*
X-114209Y94291D02*
X-109529Y94291D01*
X-98015Y84175D02*
X-97515Y83675D01*
X-28000Y-79500D02*
X41344Y-79500D01*
X-58689Y-74311D02*
X-51000Y-82000D01*
X-37962Y-79500D02*
X-28000Y-79500D01*
X-40462Y-82000D02*
X-37962Y-79500D01*
X-51000Y-82000D02*
X-40462Y-82000D01*
X-53000Y-72500D02*
X-48651Y-76849D01*
X-48651Y-78924D02*
X-48651Y-76849D01*
X-44500Y-67500D02*
X-40500Y-71500D01*
X-44500Y-67500D02*
X-44500Y-47000D01*
X-48651Y-78924D02*
X-48500Y-79075D01*
X-27793Y-27293D02*
X-17207Y-27293D01*
X-8000Y-36500D01*
X-12719Y-26281D02*
X-12719Y-26281D01*
X-4043Y-34957D01*
X-17000Y-17000D02*
X-13000Y-17000D01*
X-27793Y-19419D02*
X-19419Y-19419D01*
X-17000Y-17000D01*
X-13000Y-17000D02*
X-9000Y-21000D01*
X-9085Y-23849D02*
X-7151Y-23849D01*
X-7000Y-24000D01*
X-312Y-35000D02*
X-0Y-35000D01*
X-51000Y-46000D02*
X-44919Y-39919D01*
X-44919Y-34577D01*
X-42951Y-40451D02*
X-42951Y-34560D01*
X-49000Y-46500D02*
X-42951Y-40451D01*
X-40982Y-40982D02*
X-40982Y-34577D01*
X-39014Y-41514D02*
X-39014Y-34577D01*
X-49000Y-69500D02*
X-49000Y-46500D01*
X-47000Y-47000D02*
X-40982Y-40982D01*
X-47000Y-68000D02*
X-47000Y-47000D01*
X-44500Y-47000D02*
X-39014Y-41514D01*
X-53000Y-45500D02*
X-51724Y-44224D01*
X-51724Y-44215D01*
X-46888Y-39378D02*
X-46888Y-34577D01*
X-51724Y-44215D02*
X-46888Y-39378D01*
X-41500Y-48118D02*
X-40808Y-47426D01*
X-38682Y-47426D02*
X-38000Y-46744D01*
X-41500Y-66808D02*
X-41500Y-48118D01*
X-40808Y-47426D02*
X-38682Y-47426D01*
X-41500Y-66808D02*
X-39001Y-69307D01*
X-47000Y-68000D02*
X-41000Y-74000D01*
X-49000Y-69500D02*
X-42819Y-75681D01*
X-51000Y-71000D02*
X-44638Y-77362D01*
X-51000Y-71000D02*
X-51000Y-46000D01*
X-53000Y-72500D02*
X-53000Y-45500D01*
X-38370Y-22000D02*
X-38370Y-17504D01*
X-32411Y-11545D01*
X-27793Y-11545D01*
X42075Y-71925D02*
X46256Y-67744D01*
X-5000Y-71925D02*
X42075Y-71925D01*
X-42819Y-75681D02*
X43279Y-75681D01*
X60500Y-74000D02*
X69500Y-83000D01*
X-44638Y-77362D02*
X42583Y-77362D01*
X-41000Y-74000D02*
X60500Y-74000D01*
X42583Y-77362D02*
X44055Y-78834D01*
X43279Y-75681D02*
X46075Y-78476D01*
X36136Y-69307D02*
X36293Y-69151D01*
X36849Y-69151D01*
X-39001Y-69307D02*
X36136Y-69307D01*
X41344Y-79500D02*
X42035Y-80192D01*
X42035Y-87849D02*
X42035Y-80192D01*
X-4043Y-48819D02*
X-4043Y-34957D01*
X-6000Y-56362D02*
X-6000Y-35500D01*
X-8000Y-61138D02*
X-8000Y-36500D01*
X-12500Y-14500D02*
X-9000Y-18000D01*
X-10732Y-10819D02*
X-2819Y-18732D01*
X-11428Y-12500D02*
X-4500Y-19428D01*
X-22963Y-13514D02*
X-21949Y-12500D01*
X-27793Y-13514D02*
X-22963Y-13514D01*
X-21949Y-12500D02*
X-11428Y-12500D01*
X2862Y-9138D02*
X5000Y-7000D01*
X-18028Y-9138D02*
X2862Y-9138D01*
X-20345Y-9577D02*
X-19102Y-10819D01*
X-19557Y-7608D02*
X-18028Y-9138D01*
X-19102Y-10819D02*
X-10732Y-10819D01*
X-27793Y-9577D02*
X-20345Y-9577D01*
X0Y-25000D02*
X0Y-23956D01*
X-2819Y-21138D02*
X0Y-23956D01*
X-2819Y-21138D02*
X-2819Y-18732D01*
X-42951Y-2293D02*
X-42951Y2414D01*
X-42000Y3365D02*
X-42000Y3500D01*
X-42951Y2414D02*
X-42000Y3365D01*
X-49500Y-8000D02*
X-41674Y-8000D01*
X-40982Y-7308D01*
X-40982Y-2293D01*
X-60077Y-19419D02*
X-52451Y-19419D01*
X-52370Y-19500D01*
X-58862Y6500D02*
X-54762Y2400D01*
X-58862Y6500D02*
X-58862Y43500D01*
X-54762Y-2293D02*
X-54762Y2400D01*
X-62984Y-7608D02*
X-54892Y-7608D01*
X-62984Y-7608D02*
X-62984Y-2756D01*
X-79362Y-28000D02*
X-79362Y-28000D01*
X-75756Y-28000D01*
X-37038Y-34577D02*
X-37038Y-26772D01*
X-70362Y-28312D02*
X-65389Y-23339D01*
X-87008Y-74311D02*
X-62598Y-74311D01*
X-98943Y-34500D02*
X-73362Y-34500D01*
X-70362Y-31500D01*
X-70362Y-28312D01*
X-79362Y-22500D02*
X-79362Y-22500D01*
X-75756Y-22500D01*
X-62598Y-74311D02*
X-58689Y-74311D01*
X-48856Y-34577D02*
X-48856Y-29171D01*
X-60069Y-25308D02*
X-52558Y-25308D01*
X-63620Y-23356D02*
X-60077Y-23356D01*
X-59872Y-23356D01*
X-63637Y-23339D02*
X-63620Y-23356D01*
X-60069Y-23339D02*
X-52781Y-23339D01*
X-65389Y-23339D02*
X-63637Y-23339D01*
X-70244Y-22500D02*
X-70244Y-18947D01*
X-38000Y-46744D02*
X-38000Y-44000D01*
X-31365Y-48104D02*
X-31365Y-40135D01*
X-38000Y-44000D02*
X-37045Y-43045D01*
X-33108Y-38392D02*
X-31365Y-40135D01*
X-37045Y-43045D02*
X-37045Y-34577D01*
X-35077Y-42394D02*
X-35077Y-34577D01*
X-28000Y-65000D02*
X-11862Y-65000D01*
X-8000Y-61138D01*
X-6000Y-56362D02*
X-2787Y-59575D01*
X-23713Y-54831D02*
X-23713Y-54751D01*
X-21941Y-52979D01*
X-20302Y-52979D01*
X-15748Y-48425D01*
X-4043Y-48819D02*
X-2862Y-50000D01*
X-15748Y-48425D02*
X-15748Y-40157D01*
X-33108Y-38392D02*
X-33108Y-34577D01*
X-26000Y-35478D02*
X-20427Y-35478D01*
X-27786Y-33693D02*
X-26000Y-35478D01*
X-27786Y-33693D02*
X-27786Y-29245D01*
X-48856Y-29171D02*
X-47244Y-27559D01*
X-20427Y-35478D02*
X-15748Y-40157D01*
X-4500Y-26368D02*
X-868Y-30000D01*
X-4500Y-26368D02*
X-4500Y-19428D01*
X-26102Y5000D02*
X-9000Y5000D01*
X-35077Y-2293D02*
X-35077Y5423D01*
X61700Y27949D02*
X61700Y37447D01*
X6000Y1000D02*
X6000Y10000D01*
X11043Y63740D02*
X12071Y63740D01*
X17260Y54500D02*
X23547Y54500D01*
X21126Y60000D02*
X28260Y60000D01*
X28260Y60000D01*
X37500Y60000D01*
X38732Y58768D01*
X41200Y42200D02*
X41200Y49074D01*
X38732Y58768D02*
X48268Y58768D01*
X41200Y49074D02*
X46126Y54000D01*
X22086Y74000D02*
X23086Y73000D01*
X22000Y74000D02*
X22086Y74000D01*
X10453Y64331D02*
X10453Y73500D01*
X23086Y73000D02*
X27047Y73000D01*
X10453Y64331D02*
X11043Y63740D01*
X32953Y73000D02*
X32953Y73335D01*
X33740Y74123D01*
X35123Y74123D01*
X38287Y77287D01*
X38287Y82362D01*
X43524Y62945D02*
X46732Y62945D01*
X47287Y63500D01*
X47500Y63500D01*
X48268Y58768D02*
X54047Y64547D01*
X61247Y37900D02*
X61700Y37447D01*
X78000Y89953D02*
X78000Y95000D01*
X78000Y95000D02*
X78000Y95000D01*
X-66979Y-18829D02*
X-65584Y-17434D01*
X-70244Y-15500D02*
X-70226Y-15482D01*
X-70603Y-9000D02*
X-66106Y-13497D01*
X-74000Y-9000D02*
X-70603Y-9000D01*
X-75185Y-7815D02*
X-74000Y-9000D01*
X-69513Y-6987D02*
X-67250Y-9250D01*
X-69513Y-6987D02*
X-69513Y-6396D01*
X-75185Y-7815D02*
X-75185Y-5518D01*
X-70391Y-5518D02*
X-69513Y-6396D01*
X-70785Y-5518D02*
X-70391Y-5518D01*
X-65584Y-17434D02*
X-60069Y-17434D01*
X-70226Y-15482D02*
X-60077Y-15482D01*
X-66106Y-13497D02*
X-60069Y-13497D01*
X-64955Y-11545D02*
X-60086Y-11545D01*
X-67250Y-9250D02*
X-64955Y-11545D01*
X-54892Y-7608D02*
X-52000Y-10500D01*
X-52862Y15500D02*
X-52862Y23500D01*
X-53181Y23819D02*
X-52862Y23500D01*
X-53181Y23819D02*
X-53181Y30055D01*
X-53111Y30125D01*
X-53362Y36354D02*
X-48854Y36354D01*
X-58862Y43500D02*
X-47244Y55118D01*
X-33108Y-2293D02*
X-33108Y1931D01*
X-31890Y3150D01*
X-27793Y-7608D02*
X-19557Y-7608D01*
X-27559Y3543D02*
X-26102Y5000D01*
X-35077Y5423D02*
X-33500Y7000D01*
X61000Y-96500D02*
X65500Y-96500D01*
X59055Y-94555D02*
X61000Y-96500D01*
X65500Y-96500D02*
X69500Y-92500D01*
X59055Y-94555D02*
X59055Y-91614D01*
X69500Y-92500D02*
X69500Y-83000D01*
X59055Y-86614D02*
X59055Y-81555D01*
X57000Y-79500D02*
X59055Y-81555D01*
X-2787Y-59575D02*
X3063Y-59575D01*
X3138Y-50000D02*
X6713Y-53575D01*
X-2862Y-50000D02*
X3138Y-50000D01*
X-868Y-30000D02*
X14000Y-30000D01*
X33760Y-29224D02*
X33760Y-28535D01*
X33071Y-27847D02*
X33760Y-28535D01*
X27500Y-27847D02*
X33071Y-27847D01*
X39055Y-91614D02*
X39055Y-90911D01*
X40070Y-89896D01*
X40070Y-89814D01*
X42035Y-87849D01*
X44055Y-91614D02*
X44055Y-78834D01*
X0Y-15000D02*
X7000Y-8000D01*
X7000Y-4500D01*
X5000Y-7000D02*
X5000Y-3500D01*
X0Y-5000D02*
X6000Y1000D01*
X46075Y-88634D02*
X49055Y-91614D01*
X46075Y-88634D02*
X46075Y-78476D01*
X52000Y-79500D02*
X57000Y-79500D01*
X47000Y-5000D02*
X48500Y-6500D01*
X69476Y-67744D02*
X69606Y-67874D01*
X46256Y-67744D02*
X69476Y-67744D01*
X61753Y4247D02*
X61753Y9092D01*
X47000Y-5000D02*
X47000Y-3000D01*
X61694Y9151D02*
X61753Y9092D01*
X69989Y-1500D02*
X75000Y-6511D01*
X70366Y500D02*
X77000Y-6134D01*
X67500Y-1500D02*
X69989Y-1500D01*
X68500Y500D02*
X70366Y500D01*
X61753Y4247D02*
X67500Y-1500D01*
X66694Y2306D02*
X68500Y500D01*
X71912Y3588D02*
X72000Y3500D01*
X66694Y2306D02*
X66694Y9151D01*
X71912Y3588D02*
X71912Y8932D01*
X71694Y9151D02*
X71912Y8932D01*
X63800Y18600D02*
X64138Y18262D01*
D70*
X35500Y43500D02*
X39000Y40000D01*
X31429Y43500D02*
X35500Y43500D01*
X39000Y33000D02*
X39000Y40000D01*
X39000Y12000D02*
X47000Y4000D01*
X39000Y12000D02*
X39000Y23000D01*
X55260Y-11500D02*
X55260Y-2000D01*
X58760Y-15000D02*
X70000Y-15000D01*
X55260Y-11500D02*
X58760Y-15000D01*
X36000Y-49000D02*
X41500Y-43500D01*
X41500Y-37962D01*
X39000Y-12500D02*
X39000Y2299D01*
X39000Y-12500D02*
X41240Y-14740D01*
X41240Y-19776D02*
X41240Y-14740D01*
X31240Y8197D02*
X31240Y31500D01*
X33496Y7803D02*
X39000Y2299D01*
X33496Y7803D02*
X33496Y7803D01*
X33299Y8000D02*
X33496Y7803D01*
X31437Y8000D02*
X33299Y8000D01*
X41240Y-36500D02*
X41740Y-37000D01*
X41240Y-36500D02*
X41240Y-29224D01*
X-83000Y-16329D02*
X-80500Y-18829D01*
X34886Y79374D02*
X34886Y91874D01*
X16787Y31500D02*
X16787Y79000D01*
X-83000Y-16329D02*
X-83000Y4370D01*
X-78000Y9370D01*
X-78000Y63500D01*
X-62500Y79000D01*
X16787Y79000D01*
X34512Y79000D01*
X34886Y91874D02*
X36386Y93374D01*
X34512Y79000D02*
X34886Y79374D01*
X48200Y27240D02*
X56518Y27240D01*
X56700Y27422D01*
X56700Y27949D01*
X56618Y28030D02*
X56700Y27949D01*
X56618Y28030D02*
X56618Y32882D01*
X22374Y4260D02*
X22579Y4260D01*
X31240Y8197D02*
X31437Y8000D01*
X26000Y31500D02*
X31240Y31500D01*
X22571Y34929D02*
X26000Y31500D01*
X17000Y47500D02*
X17260Y47240D01*
X22571Y47240D01*
X22571Y34929D02*
X22571Y39760D01*
X16787Y79000D02*
X16787Y79000D01*
X36386Y93374D02*
X51886Y93374D01*
X53700Y39260D02*
X54000Y38960D01*
X54000Y35500D02*
X54000Y38960D01*
X54000Y35500D02*
X56618Y32882D01*
X66700Y36654D02*
X67153Y37106D01*
X67153Y37500D01*
X53700Y46740D02*
X69740Y46740D01*
X79500Y56500D01*
X79500Y75000D01*
X51673Y82362D02*
X51673Y87676D01*
X51673Y93161D01*
X51886Y93374D01*
X65382Y93374D01*
X73000Y81500D02*
X79500Y75000D01*
X73000Y81500D02*
X73000Y88432D01*
X71847Y89585D02*
X73000Y88432D01*
X69171Y89585D02*
X71847Y89585D01*
X69000Y89756D02*
X69171Y89585D01*
X68803Y89756D02*
X69000Y89756D01*
X68213Y90346D02*
X68803Y89756D01*
X68213Y90346D02*
X68213Y90543D01*
X65382Y93374D02*
X68213Y90543D01*
X0Y-65000D02*
X13500Y-65000D01*
X18500Y-60000D01*
X15500Y-8000D02*
X18901Y-4599D01*
X22661Y-4599D01*
X23248Y-4012D01*
X23260Y-4000D02*
X23260Y3579D01*
X22579Y4260D02*
X23260Y3579D01*
X18500Y-60000D02*
X70000Y-60000D01*
X47000Y-3000D02*
X47000Y-2000D01*
X55260Y-2000D01*
X56694Y-566D01*
X47000Y-2000D02*
X47000Y4000D01*
X56694Y-566D02*
X56694Y9151D01*
X66700Y27949D02*
X66700Y36654D01*
D71*
X-74235Y61800D02*
X-70110Y65926D01*
X-63750Y68750D02*
X-62425Y70075D01*
X-63750Y68750D02*
X-63750Y68750D01*
X-70110Y65926D02*
X-70110Y65926D01*
X-69074Y63426D02*
X-69074Y63426D01*
X-66250Y69785D02*
X-66250Y69785D01*
X-69074Y63426D02*
X-63750Y68750D01*
X-66250Y69785D02*
X-65518Y70518D01*
X-70110Y65926D02*
X-66250Y69785D01*
X-71735Y60765D02*
X-69074Y63426D01*
X-74235Y1016D02*
X-74235Y61800D01*
X39931Y73079D02*
X39931Y75282D01*
X44865Y80215D01*
X44865Y82247D01*
X44980Y82362D01*
X44800Y82542D02*
X44980Y82362D01*
X44800Y82542D02*
X44800Y84008D01*
X41634Y87174D02*
X44800Y84008D01*
X41634Y87174D02*
X41634Y87676D01*
X47024Y72043D02*
X47024Y75874D01*
X-75185Y388D02*
X-74863Y388D01*
X-71107Y388D02*
X-70785Y388D01*
X-71735Y1016D02*
X-71107Y388D01*
X-74863Y388D02*
X-74235Y1016D01*
X-71735Y1016D02*
X-71735Y60765D01*
D72*
X39000Y33000D02*
D03*
D73*
X39000Y23000D02*
D03*
X0Y-55000D02*
D03*
X0Y-45000D02*
D03*
X0Y-35000D02*
D03*
X0Y-25000D02*
D03*
X0Y-15000D02*
D03*
X0Y-5000D02*
D03*
X0Y5000D02*
D03*
X0Y15000D02*
D03*
X0Y25000D02*
D03*
X0Y35000D02*
D03*
X0Y45000D02*
D03*
X0Y55000D02*
D03*
X0Y65000D02*
D03*
D74*
X10000Y-35000D02*
D03*
X-10000Y5000D02*
D03*
X-10000Y65000D02*
D03*
X10000Y-25000D02*
D03*
X10000Y-45000D02*
D03*
X-10000Y25000D02*
D03*
X-10000Y35000D02*
D03*
X-10000Y55000D02*
D03*
X-10000Y45000D02*
D03*
X47000Y4000D02*
D03*
X36000Y-60500D02*
D03*
X-98943Y-34500D02*
D03*
X-53000Y23500D02*
D03*
X-62992Y55118D02*
D03*
X-43307Y55118D02*
D03*
D75*
X69606Y72874D02*
D03*
X70000Y-15000D02*
D03*
X69606Y-52126D02*
D03*
D76*
X69606Y65000D02*
D03*
X46500Y-67500D02*
D03*
X70000Y-22874D02*
D03*
X69606Y-67874D02*
D03*
X69606Y-60000D02*
D03*
X63800Y18600D02*
D03*
D77*
X31594Y82362D02*
D03*
X55020Y82362D02*
D03*
X55020Y87676D02*
D03*
X31594Y87676D02*
D03*
X38287Y82362D02*
D03*
X34941Y87676D02*
D03*
X38287Y87676D02*
D03*
X41634Y87676D02*
D03*
X44980Y87676D02*
D03*
X48327Y87676D02*
D03*
X51673Y87676D02*
D03*
X51673Y82362D02*
D03*
X48327Y82362D02*
D03*
X44980Y82362D02*
D03*
X41634Y82362D02*
D03*
X34941Y82362D02*
D03*
D78*
X26279Y86220D02*
D03*
X60335Y86220D02*
D03*
D79*
X26279Y99527D02*
D03*
X60335Y99527D02*
D03*
D80*
X59055Y-86614D02*
D03*
D81*
X54055Y-86614D02*
D03*
X49055Y-86614D02*
D03*
X39055Y-86614D02*
D03*
X39055Y-91614D02*
D03*
X44055Y-91614D02*
D03*
X49055Y-91614D02*
D03*
X54055Y-91614D02*
D03*
X59055Y-91614D02*
D03*
D82*
X34055Y-89114D02*
D03*
X64055Y-89114D02*
D03*
X15500Y-8000D02*
D03*
D83*
X0Y-65000D02*
D03*
D84*
X-16000Y-19526D02*
D03*
X-21297Y-15526D02*
D03*
X-66500Y-5500D02*
D03*
X-91000Y-3425D02*
D03*
X-94500Y5500D02*
D03*
X-97000Y46000D02*
D03*
X-99075Y57500D02*
D03*
X-97500Y32000D02*
D03*
X-36000Y32000D02*
D03*
X-81793Y56000D02*
D03*
X-48500Y42085D02*
D03*
X-35000Y50000D02*
D03*
X23000Y-49000D02*
D03*
X47000Y-49500D02*
D03*
X52000Y-36575D02*
D03*
X29000Y-37500D02*
D03*
X-10500Y12075D02*
D03*
X27500Y-18000D02*
D03*
X7000Y-20000D02*
D03*
X-30783Y19783D02*
D03*
X-26283Y35783D02*
D03*
X-29000Y40500D02*
D03*
X-5000Y30000D02*
D03*
X-92000Y-68500D02*
D03*
X-59000Y-3937D02*
D03*
X-53000Y5500D02*
D03*
X-82116Y8745D02*
D03*
X-125500Y-64000D02*
D03*
X-166805Y-63195D02*
D03*
X-102000Y-60500D02*
D03*
X-95500Y-69000D02*
D03*
X-99000Y-6500D02*
D03*
X-94500Y-8659D02*
D03*
X-79362Y-15500D02*
D03*
X-91000Y-16000D02*
D03*
X-81589Y42809D02*
D03*
X-104670Y-20825D02*
D03*
X-82500Y83500D02*
D03*
X-28575Y62902D02*
D03*
X-29500Y65925D02*
D03*
X-62425Y70075D02*
D03*
X-47500Y70075D02*
D03*
X-65518Y70518D02*
D03*
X-46695Y94305D02*
D03*
X-130000Y3000D02*
D03*
X-75195Y94305D02*
D03*
X-114209Y-10709D02*
D03*
X-113709Y41791D02*
D03*
X-165209Y-10709D02*
D03*
X-165209Y41791D02*
D03*
X-165209Y94291D02*
D03*
X-114209Y94291D02*
D03*
X-40500Y-71500D02*
D03*
X-48500Y-79075D02*
D03*
X-9000Y-21000D02*
D03*
X-7000Y-24000D02*
D03*
X-36870Y-24500D02*
D03*
X-38370Y-22000D02*
D03*
X36849Y-69151D02*
D03*
X-5000Y-71925D02*
D03*
X-9000Y-18000D02*
D03*
X-42000Y3500D02*
D03*
X-41500Y8500D02*
D03*
X-49500Y-8000D02*
D03*
X-52370Y-19500D02*
D03*
X-66370Y-28000D02*
D03*
X-81370Y37500D02*
D03*
X-81370Y49000D02*
D03*
X-81370Y19500D02*
D03*
X-81370Y29000D02*
D03*
X-110000Y3000D02*
D03*
X-34370Y-24500D02*
D03*
X-106693Y-24803D02*
D03*
X-79362Y-28000D02*
D03*
X-92000Y-26500D02*
D03*
X-163000Y78500D02*
D03*
X-169291Y55118D02*
D03*
X-165000Y38500D02*
D03*
X-165354Y19685D02*
D03*
X-180709Y-25197D02*
D03*
X-182370Y-52000D02*
D03*
X-166181Y-52500D02*
D03*
X-183071Y-80709D02*
D03*
X77862Y95000D02*
D03*
X55118Y21654D02*
D03*
X72835Y21654D02*
D03*
X76772Y23622D02*
D03*
X76772Y27559D02*
D03*
X76772Y31496D02*
D03*
X54000Y35500D02*
D03*
X71500Y35500D02*
D03*
X61500Y42000D02*
D03*
X62500Y51500D02*
D03*
X59500Y60000D02*
D03*
X69000Y80000D02*
D03*
X82000Y84000D02*
D03*
X47500Y-101500D02*
D03*
X23000Y-88000D02*
D03*
X8500Y-60500D02*
D03*
X36000Y-49000D02*
D03*
X-79862Y-38000D02*
D03*
X-75787Y-82677D02*
D03*
X-58000Y-82500D02*
D03*
X-98819Y-81102D02*
D03*
X-131890Y-80709D02*
D03*
X-76378Y-68504D02*
D03*
X-64500Y-67500D02*
D03*
X-92000Y-54000D02*
D03*
X-79134Y-53543D02*
D03*
X-115000Y-52500D02*
D03*
X-136500Y-52500D02*
D03*
X-65000Y-52500D02*
D03*
X-56500Y-49000D02*
D03*
X-64000Y-39500D02*
D03*
X-94882Y-39370D02*
D03*
X-59735Y-32885D02*
D03*
X-91339Y-30315D02*
D03*
X-129528Y-25197D02*
D03*
X-79362Y-22500D02*
D03*
X-98500Y-15500D02*
D03*
X-18110Y-86614D02*
D03*
X-28000Y-79500D02*
D03*
X-8000Y-65669D02*
D03*
X-28000Y-65000D02*
D03*
X-23862Y-61000D02*
D03*
X-30000Y-60500D02*
D03*
X-13362Y-60500D02*
D03*
X-38500Y-55500D02*
D03*
X-34362Y-55500D02*
D03*
X-11362Y-54000D02*
D03*
X-23862Y-41000D02*
D03*
X-10862Y-40500D02*
D03*
X-30500Y-32500D02*
D03*
X-24000Y-32500D02*
D03*
X-8500Y-5000D02*
D03*
X-30500Y-5000D02*
D03*
X-10862Y-1500D02*
D03*
X-65362Y10000D02*
D03*
X-43500Y12500D02*
D03*
X-65362Y16535D02*
D03*
X-93988Y19500D02*
D03*
X-129500Y24000D02*
D03*
X-65362Y24000D02*
D03*
X-93988Y28346D02*
D03*
X-65362Y36220D02*
D03*
X-108000Y24500D02*
D03*
X-131000Y53500D02*
D03*
X-90500Y56500D02*
D03*
X-130000Y76500D02*
D03*
X-22441Y-394D02*
D03*
X-15000Y20000D02*
D03*
X-31890Y3150D02*
D03*
X-27559Y3543D02*
D03*
X-27500Y11500D02*
D03*
X-7500Y17000D02*
D03*
X-21500Y20500D02*
D03*
X10000Y40000D02*
D03*
X-30000Y50000D02*
D03*
X-10000Y70000D02*
D03*
X10000Y45000D02*
D03*
X-18000Y84000D02*
D03*
X-30362Y84000D02*
D03*
X-42500Y84500D02*
D03*
X41000Y-24500D02*
D03*
X54000Y-47500D02*
D03*
X61500Y-32075D02*
D03*
X34000Y-24500D02*
D03*
X37500Y-24500D02*
D03*
X31000Y1000D02*
D03*
X51181Y9843D02*
D03*
X17000Y12000D02*
D03*
X45276Y13780D02*
D03*
X51181Y13780D02*
D03*
X82500Y-86500D02*
D03*
X52000Y-79500D02*
D03*
X56000Y-76500D02*
D03*
X70500Y-76500D02*
D03*
X55118Y-64961D02*
D03*
X61500Y-41075D02*
D03*
X69000Y-8000D02*
D03*
X72000Y3500D02*
D03*
X76772Y7874D02*
D03*
X76772Y11811D02*
D03*
X55118Y15748D02*
D03*
X72835Y15748D02*
D03*
X76772Y15748D02*
D03*
X59055Y17323D02*
D03*
X68504Y17323D02*
D03*
X76772Y19685D02*
D03*
X59055Y20079D02*
D03*
X68504Y20079D02*
D03*
X23500Y25500D02*
D03*
X7000Y33000D02*
D03*
X45276Y33465D02*
D03*
X49213Y33465D02*
D03*
X12000Y49000D02*
D03*
X36000Y49500D02*
D03*
X40000Y63000D02*
D03*
X47500Y63500D02*
D03*
X22000Y74000D02*
D03*
X39931Y75282D02*
D03*
X47024Y75874D02*
D03*
M02*
