G04*
G04 #@! TF.GenerationSoftware,Altium Limited,Altium Designer,25.8.1 (18)*
G04*
G04 Layer_Color=255*
%FSLAX25Y25*%
%MOIN*%
G70*
G04*
G04 #@! TF.SameCoordinates,938AAF5A-3C05-41E3-841C-15E9F8BEC9A4*
G04*
G04*
G04 #@! TF.FilePolarity,Positive*
G04*
G01*
G75*
%ADD19R,0.04803X0.03583*%
%ADD20R,0.03543X0.03543*%
%ADD21R,0.02756X0.03543*%
%ADD22R,0.02362X0.04528*%
%ADD23R,0.04724X0.03000*%
%ADD24R,0.03150X0.02362*%
%ADD25R,0.03543X0.03150*%
%ADD26O,0.02362X0.08661*%
%ADD27R,0.12992X0.07087*%
%ADD28R,0.02559X0.04331*%
%ADD29R,0.05118X0.05906*%
%ADD30R,0.03543X0.02756*%
%ADD31R,0.03150X0.03543*%
%ADD32R,0.04724X0.05512*%
%ADD33O,0.08268X0.01181*%
%ADD34O,0.01181X0.08268*%
%ADD35R,0.05709X0.02362*%
%ADD36R,0.05906X0.05118*%
%ADD37R,0.04528X0.02362*%
%ADD72R,0.05906X0.05906*%
%ADD73C,0.05906*%
%ADD74C,0.05512*%
%ADD75R,0.04724X0.04724*%
%ADD76C,0.04724*%
%ADD77O,0.02441X0.03150*%
%ADD78O,0.03937X0.09843*%
%ADD79O,0.03937X0.07087*%
%ADD80R,0.03780X0.03780*%
%ADD81C,0.03780*%
%ADD82C,0.03937*%
%ADD83R,0.05906X0.05906*%
D19*
X17543Y31500D02*
D03*
X30457Y31500D02*
D03*
D20*
X-161015Y94805D02*
D03*
X-161015Y84175D02*
D03*
X-161015Y42305D02*
D03*
X-161015Y31675D02*
D03*
X-162015Y-10195D02*
D03*
X-162015Y-20825D02*
D03*
X-163515Y-63195D02*
D03*
X-163515Y-73825D02*
D03*
X-109515Y94305D02*
D03*
X-109515Y83675D02*
D03*
X-110015Y42805D02*
D03*
X-110015Y32175D02*
D03*
X-110515Y-10695D02*
D03*
X-110515Y-21325D02*
D03*
X-118515Y-63695D02*
D03*
X-118515Y-74325D02*
D03*
X-97515Y94305D02*
D03*
X-97515Y83675D02*
D03*
X-100515Y42805D02*
D03*
X-100515Y32175D02*
D03*
X-99515Y-10695D02*
D03*
X-99515Y-21325D02*
D03*
X-110015Y-63695D02*
D03*
X-110015Y-74325D02*
D03*
X-54015Y94305D02*
D03*
X-54015Y83675D02*
D03*
X-94015Y42805D02*
D03*
X-94015Y32175D02*
D03*
X-90015Y-10695D02*
D03*
X-90015Y-21325D02*
D03*
X-102015Y-63695D02*
D03*
X-102015Y-74325D02*
D03*
D21*
X27047Y73000D02*
D03*
X32953Y73000D02*
D03*
X59953Y65000D02*
D03*
X54047Y65000D02*
D03*
X10453Y73500D02*
D03*
X4547Y73500D02*
D03*
X52047Y-23075D02*
D03*
X57953Y-23075D02*
D03*
X52047Y-41075D02*
D03*
X57953Y-41075D02*
D03*
X67153Y37900D02*
D03*
X61247Y37900D02*
D03*
X23547Y54500D02*
D03*
X29453Y54500D02*
D03*
D22*
X43524Y62945D02*
D03*
X47264Y71803D02*
D03*
X39783Y71803D02*
D03*
D23*
X-62598Y-74311D02*
D03*
X-62598Y-59547D02*
D03*
X-87008Y-59547D02*
D03*
X-87008Y-74311D02*
D03*
D24*
X-53362Y36354D02*
D03*
X-53362Y30646D02*
D03*
D25*
X-63000Y-2756D02*
D03*
X-63000Y2756D02*
D03*
X27500Y-21744D02*
D03*
X27500Y-27256D02*
D03*
X-38000Y-46744D02*
D03*
X-38000Y-52256D02*
D03*
X69000Y89756D02*
D03*
X69000Y84244D02*
D03*
D26*
X56694Y9151D02*
D03*
X61694Y9151D02*
D03*
X66694Y9151D02*
D03*
X71694Y9151D02*
D03*
X56694Y28049D02*
D03*
X66694Y28049D02*
D03*
X61694Y28049D02*
D03*
X71694Y28049D02*
D03*
D27*
X63800Y18600D02*
D03*
D28*
X41240Y-29224D02*
D03*
X33760Y-29224D02*
D03*
X33760Y-19776D02*
D03*
X41240Y-19776D02*
D03*
X37500Y-19776D02*
D03*
D29*
X41740Y-37000D02*
D03*
X34260Y-37000D02*
D03*
X30171Y19998D02*
D03*
X22691Y19998D02*
D03*
X23260Y-4000D02*
D03*
X30740Y-4000D02*
D03*
X55315Y-7874D02*
D03*
X62795Y-7874D02*
D03*
D30*
X-48362Y30547D02*
D03*
X-48362Y36453D02*
D03*
X-75185Y-5518D02*
D03*
X-75185Y388D02*
D03*
X-70785Y-5518D02*
D03*
X-70785Y388D02*
D03*
X78000Y84047D02*
D03*
X78000Y89953D02*
D03*
D31*
X-70244Y-28000D02*
D03*
X-75756Y-28000D02*
D03*
X-70244Y-15500D02*
D03*
X-75756Y-15500D02*
D03*
X-70244Y-22500D02*
D03*
X-75756Y-22500D02*
D03*
X52244Y-32075D02*
D03*
X57756Y-32075D02*
D03*
D32*
X-23713Y-54831D02*
D03*
X-30012Y-46169D02*
D03*
X-30012Y-54831D02*
D03*
X-23713Y-46169D02*
D03*
D33*
X-60077Y-11545D02*
D03*
X-60077Y-13514D02*
D03*
X-60077Y-15482D02*
D03*
X-60077Y-17451D02*
D03*
X-60077Y-19419D02*
D03*
X-60077Y-21388D02*
D03*
X-27793Y-29262D02*
D03*
X-27793Y-27293D02*
D03*
X-27793Y-25325D02*
D03*
X-27793Y-23356D02*
D03*
X-27793Y-21388D02*
D03*
X-27793Y-19419D02*
D03*
X-27793Y-17451D02*
D03*
X-27793Y-15482D02*
D03*
X-27793Y-13514D02*
D03*
X-27793Y-11545D02*
D03*
X-27793Y-9577D02*
D03*
X-27793Y-7608D02*
D03*
X-60077Y-25325D02*
D03*
X-60077Y-23356D02*
D03*
X-60077Y-7608D02*
D03*
X-60077Y-29262D02*
D03*
X-60077Y-9577D02*
D03*
X-60077Y-27293D02*
D03*
D34*
X-54762Y-34577D02*
D03*
X-52793Y-34577D02*
D03*
X-50825Y-34577D02*
D03*
X-48856Y-34577D02*
D03*
X-46888Y-34577D02*
D03*
X-44919Y-34577D02*
D03*
X-42951Y-34577D02*
D03*
X-40982Y-34577D02*
D03*
X-39014Y-34577D02*
D03*
X-33108Y-34577D02*
D03*
X-33108Y-2293D02*
D03*
X-35077Y-2293D02*
D03*
X-37045Y-2293D02*
D03*
X-39014Y-2293D02*
D03*
X-40982Y-2293D02*
D03*
X-42951Y-2293D02*
D03*
X-44919Y-2293D02*
D03*
X-46888Y-2293D02*
D03*
X-48856Y-2293D02*
D03*
X-50825Y-2293D02*
D03*
X-52793Y-2293D02*
D03*
X-54762Y-2293D02*
D03*
X-37045Y-34577D02*
D03*
X-35077Y-34577D02*
D03*
D35*
X11874Y63740D02*
D03*
X21126Y60000D02*
D03*
X11874Y56260D02*
D03*
X31626Y8000D02*
D03*
X22374Y4260D02*
D03*
X22374Y11740D02*
D03*
D36*
X48200Y27240D02*
D03*
X48200Y19760D02*
D03*
X53700Y39260D02*
D03*
X53700Y46740D02*
D03*
D37*
X22571Y47240D02*
D03*
X22571Y39760D02*
D03*
X31429Y43500D02*
D03*
D72*
X39000Y33000D02*
D03*
D73*
X39000Y23000D02*
D03*
X0Y-55000D02*
D03*
X0Y-45000D02*
D03*
X0Y-35000D02*
D03*
X0Y-25000D02*
D03*
X0Y-15000D02*
D03*
X0Y-5000D02*
D03*
X0Y5000D02*
D03*
X0Y15000D02*
D03*
X0Y25000D02*
D03*
X0Y35000D02*
D03*
X0Y45000D02*
D03*
X0Y55000D02*
D03*
X0Y65000D02*
D03*
D74*
X10000Y-35000D02*
D03*
X-10000Y5000D02*
D03*
X-10000Y65000D02*
D03*
X10000Y-25000D02*
D03*
X10000Y-45000D02*
D03*
X-10000Y25000D02*
D03*
X-10000Y35000D02*
D03*
X-10000Y55000D02*
D03*
X-10000Y45000D02*
D03*
X47000Y4000D02*
D03*
X36000Y-60500D02*
D03*
X-98943Y-34500D02*
D03*
X-53000Y23500D02*
D03*
X-62992Y55118D02*
D03*
X-43307Y55118D02*
D03*
D75*
X69606Y72874D02*
D03*
X70000Y-15000D02*
D03*
X69606Y-52126D02*
D03*
D76*
X69606Y65000D02*
D03*
X46500Y-67500D02*
D03*
X70000Y-22874D02*
D03*
X69606Y-67874D02*
D03*
X69606Y-60000D02*
D03*
D77*
X31594Y82362D02*
D03*
X55020Y82362D02*
D03*
X55020Y87676D02*
D03*
X31594Y87676D02*
D03*
X38287Y82362D02*
D03*
X34941Y87676D02*
D03*
X38287Y87676D02*
D03*
X41634Y87676D02*
D03*
X44980Y87676D02*
D03*
X48327Y87676D02*
D03*
X51673Y87676D02*
D03*
X51673Y82362D02*
D03*
X48327Y82362D02*
D03*
X44980Y82362D02*
D03*
X41634Y82362D02*
D03*
X34941Y82362D02*
D03*
D78*
X26279Y86220D02*
D03*
X60335Y86220D02*
D03*
D79*
X26279Y99527D02*
D03*
X60335Y99527D02*
D03*
D80*
X59055Y-86614D02*
D03*
D81*
X54055Y-86614D02*
D03*
X49055Y-86614D02*
D03*
X39055Y-86614D02*
D03*
X39055Y-91614D02*
D03*
X44055Y-91614D02*
D03*
X49055Y-91614D02*
D03*
X54055Y-91614D02*
D03*
X59055Y-91614D02*
D03*
D82*
X34055Y-89114D02*
D03*
X64055Y-89114D02*
D03*
D83*
X0Y-65000D02*
D03*
M02*
