G04*
G04 #@! TF.GenerationSoftware,Altium Limited,Altium Designer,25.8.1 (18)*
G04*
G04 Layer_Color=65535*
%FSLAX25Y25*%
%MOIN*%
G70*
G04*
G04 #@! TF.SameCoordinates,938AAF5A-3C05-41E3-841C-15E9F8BEC9A4*
G04*
G04*
G04 #@! TF.FilePolarity,Positive*
G04*
G01*
G75*
%ADD10C,0.00800*%
%ADD11C,0.00984*%
%ADD12C,0.01000*%
%ADD13C,0.00500*%
%ADD14C,0.02362*%
%ADD15C,0.00394*%
%ADD16C,0.00787*%
%ADD17C,0.00591*%
%ADD18C,0.00700*%
G36*
X67559Y-85834D02*
X63358Y-85834D01*
X63358Y-81634D01*
X67559Y-85834D01*
X67559Y-85834D02*
G37*
G36*
X36000Y45750D02*
X42500Y45750D01*
X39000Y40250D01*
X36000Y45750D01*
X36000Y45750D02*
G37*
G36*
X-132302Y6376D02*
X-132302Y6339D01*
X-132302Y6302D01*
X-131895Y4339D01*
X-131895Y4265D01*
X-131858Y4228D01*
X-131821Y4228D01*
X-130488Y3673D01*
X-130340Y3673D01*
X-128710Y4858D01*
X-128599Y4858D01*
X-128562Y4821D01*
X-127118Y3451D01*
X-127118Y3414D01*
X-127118Y3377D01*
X-127118Y3340D01*
X-127118Y3303D01*
X-128266Y1636D01*
X-128266Y1599D01*
X-128266Y1562D01*
X-128266Y1525D01*
X-128266Y1488D01*
X-127711Y118D01*
X-127600Y44D01*
X-127563Y44D01*
X-125674Y-289D01*
X-125637Y-289D01*
X-125600Y-326D01*
X-125600Y-363D01*
X-125600Y-400D01*
X-125600Y-2363D01*
X-125600Y-2437D01*
X-125637Y-2474D01*
X-125674Y-2474D01*
X-127526Y-2844D01*
X-127563Y-2844D01*
X-127600Y-2881D01*
X-127600Y-2919D01*
X-127600Y-2956D01*
X-128229Y-4400D01*
X-128229Y-4437D01*
X-128229Y-4474D01*
X-128229Y-4511D01*
X-128229Y-4548D01*
X-127118Y-6103D01*
X-127118Y-6140D01*
X-127118Y-6177D01*
X-127118Y-6214D01*
X-128562Y-7621D01*
X-128637Y-7658D01*
X-128674Y-7658D01*
X-128710Y-7621D01*
X-130229Y-6584D01*
X-130340Y-6584D01*
X-131006Y-6955D01*
X-131117Y-6918D01*
X-131155Y-6918D01*
X-132525Y-3548D01*
X-132525Y-3437D01*
X-132488Y-3400D01*
X-132302Y-3326D01*
X-132302Y-3289D01*
X-132265Y-3289D01*
X-132228Y-3252D01*
X-132191Y-3215D01*
X-131858Y-2956D01*
X-131599Y-2696D01*
X-131451Y-2400D01*
X-131303Y-2104D01*
X-131229Y-1845D01*
X-131192Y-1622D01*
X-131192Y-1474D01*
X-131192Y-1437D01*
X-131229Y-1104D01*
X-131303Y-808D01*
X-131377Y-549D01*
X-131525Y-326D01*
X-131636Y-141D01*
X-131710Y7D01*
X-131784Y81D01*
X-131821Y118D01*
X-132080Y340D01*
X-132340Y488D01*
X-132599Y636D01*
X-132858Y710D01*
X-133043Y747D01*
X-133228Y785D01*
X-133376Y785D01*
X-133710Y747D01*
X-134006Y673D01*
X-134265Y562D01*
X-134487Y451D01*
X-134672Y340D01*
X-134820Y229D01*
X-134895Y155D01*
X-134932Y118D01*
X-135154Y-141D01*
X-135302Y-400D01*
X-135413Y-660D01*
X-135487Y-882D01*
X-135524Y-1104D01*
X-135561Y-1289D01*
X-135561Y-1400D01*
X-135561Y-1437D01*
X-135524Y-1845D01*
X-135413Y-2215D01*
X-135228Y-2511D01*
X-135080Y-2770D01*
X-134895Y-2956D01*
X-134709Y-3104D01*
X-134598Y-3178D01*
X-134561Y-3215D01*
X-134524Y-3252D01*
X-134487Y-3289D01*
X-134450Y-3326D01*
X-134265Y-3400D01*
X-134228Y-3511D01*
X-134228Y-3548D01*
X-135635Y-6918D01*
X-135672Y-6955D01*
X-135746Y-6955D01*
X-136376Y-6584D01*
X-136524Y-6584D01*
X-138042Y-7621D01*
X-138116Y-7658D01*
X-138153Y-7658D01*
X-138190Y-7621D01*
X-139597Y-6214D01*
X-139597Y-6177D01*
X-139597Y-6103D01*
X-138523Y-4548D01*
X-138523Y-4511D01*
X-138523Y-4474D01*
X-138523Y-4437D01*
X-138523Y-4400D01*
X-139153Y-2956D01*
X-139153Y-2881D01*
X-139190Y-2844D01*
X-139227Y-2844D01*
X-141078Y-2474D01*
X-141116Y-2437D01*
X-141153Y-2400D01*
X-141153Y-2363D01*
X-141153Y-400D01*
X-141153Y-326D01*
X-141116Y-289D01*
X-141078Y-289D01*
X-139190Y44D01*
X-139116Y44D01*
X-139079Y81D01*
X-139079Y118D01*
X-138486Y1488D01*
X-138486Y1525D01*
X-138486Y1562D01*
X-138486Y1636D01*
X-139597Y3303D01*
X-139597Y3340D01*
X-139597Y3377D01*
X-139597Y3414D01*
X-139597Y3451D01*
X-138190Y4821D01*
X-138116Y4858D01*
X-138042Y4858D01*
X-136376Y3673D01*
X-136265Y3673D01*
X-134932Y4228D01*
X-134895Y4265D01*
X-134857Y4302D01*
X-134857Y4339D01*
X-134450Y6302D01*
X-134450Y6376D01*
X-134413Y6413D01*
X-132340Y6413D01*
X-132302Y6376D01*
X-132302Y6376D02*
G37*
D10*
X14134Y-35000D02*
X14014Y-34011D01*
X13660Y-33079D01*
X13094Y-32259D01*
X12348Y-31598D01*
X11466Y-31135D01*
X10498Y-30896D01*
X9502Y-30896D01*
X8534Y-31135D01*
X7652Y-31598D01*
X6906Y-32259D01*
X6340Y-33079D01*
X5986Y-34011D01*
X5866Y-35000D01*
X5986Y-35989D01*
X6340Y-36921D01*
X6906Y-37741D01*
X7652Y-38402D01*
X8534Y-38865D01*
X9502Y-39104D01*
X10498Y-39104D01*
X11466Y-38865D01*
X12348Y-38402D01*
X13094Y-37741D01*
X13660Y-36921D01*
X14014Y-35989D01*
X14134Y-35000D01*
X-5866Y5000D02*
X-5986Y5989D01*
X-6340Y6921D01*
X-6906Y7741D01*
X-7652Y8402D01*
X-8534Y8865D01*
X-9502Y9104D01*
X-10498Y9104D01*
X-11466Y8865D01*
X-12348Y8402D01*
X-13094Y7741D01*
X-13660Y6921D01*
X-14014Y5989D01*
X-14134Y5000D01*
X-14014Y4011D01*
X-13660Y3079D01*
X-13094Y2259D01*
X-12348Y1598D01*
X-11466Y1135D01*
X-10498Y896D01*
X-9502Y896D01*
X-8534Y1135D01*
X-7652Y1598D01*
X-6906Y2259D01*
X-6340Y3079D01*
X-5986Y4011D01*
X-5866Y5000D01*
X-5866Y65000D02*
X-5986Y65989D01*
X-6340Y66921D01*
X-6906Y67741D01*
X-7652Y68402D01*
X-8534Y68865D01*
X-9502Y69104D01*
X-10498Y69104D01*
X-11466Y68865D01*
X-12348Y68402D01*
X-13094Y67741D01*
X-13660Y66921D01*
X-14014Y65989D01*
X-14134Y65000D01*
X-14014Y64011D01*
X-13660Y63079D01*
X-13094Y62259D01*
X-12348Y61598D01*
X-11466Y61135D01*
X-10498Y60896D01*
X-9502Y60896D01*
X-8534Y61135D01*
X-7652Y61598D01*
X-6906Y62259D01*
X-6340Y63079D01*
X-5986Y64011D01*
X-5866Y65000D01*
X14134Y-25000D02*
X14014Y-24011D01*
X13660Y-23079D01*
X13094Y-22259D01*
X12348Y-21598D01*
X11466Y-21135D01*
X10498Y-20896D01*
X9502Y-20896D01*
X8534Y-21135D01*
X7652Y-21598D01*
X6906Y-22259D01*
X6340Y-23079D01*
X5986Y-24011D01*
X5866Y-25000D01*
X5986Y-25989D01*
X6340Y-26921D01*
X6906Y-27741D01*
X7652Y-28402D01*
X8534Y-28865D01*
X9502Y-29104D01*
X10498Y-29104D01*
X11466Y-28865D01*
X12348Y-28402D01*
X13094Y-27741D01*
X13660Y-26921D01*
X14014Y-25989D01*
X14134Y-25000D01*
X14134Y-45000D02*
X14014Y-44011D01*
X13660Y-43079D01*
X13094Y-42259D01*
X12348Y-41598D01*
X11466Y-41135D01*
X10498Y-40896D01*
X9502Y-40896D01*
X8534Y-41135D01*
X7652Y-41598D01*
X6906Y-42259D01*
X6340Y-43079D01*
X5986Y-44011D01*
X5866Y-45000D01*
X5986Y-45989D01*
X6340Y-46921D01*
X6906Y-47741D01*
X7652Y-48402D01*
X8534Y-48865D01*
X9502Y-49104D01*
X10498Y-49104D01*
X11466Y-48865D01*
X12348Y-48402D01*
X13094Y-47741D01*
X13660Y-46921D01*
X14014Y-45989D01*
X14134Y-45000D01*
X-5866Y25000D02*
X-5986Y25989D01*
X-6340Y26921D01*
X-6906Y27741D01*
X-7652Y28402D01*
X-8534Y28865D01*
X-9502Y29104D01*
X-10498Y29104D01*
X-11466Y28865D01*
X-12348Y28402D01*
X-13094Y27741D01*
X-13660Y26921D01*
X-14014Y25989D01*
X-14134Y25000D01*
X-14014Y24011D01*
X-13660Y23079D01*
X-13094Y22259D01*
X-12348Y21598D01*
X-11466Y21135D01*
X-10498Y20896D01*
X-9502Y20896D01*
X-8534Y21135D01*
X-7652Y21598D01*
X-6906Y22259D01*
X-6340Y23079D01*
X-5986Y24011D01*
X-5866Y25000D01*
X-5866Y35000D02*
X-5986Y35989D01*
X-6340Y36921D01*
X-6906Y37741D01*
X-7652Y38402D01*
X-8534Y38865D01*
X-9502Y39104D01*
X-10498Y39104D01*
X-11466Y38865D01*
X-12348Y38402D01*
X-13094Y37741D01*
X-13660Y36921D01*
X-14014Y35989D01*
X-14134Y35000D01*
X-14014Y34011D01*
X-13660Y33079D01*
X-13094Y32259D01*
X-12348Y31598D01*
X-11466Y31135D01*
X-10498Y30896D01*
X-9502Y30896D01*
X-8534Y31135D01*
X-7652Y31598D01*
X-6906Y32259D01*
X-6340Y33079D01*
X-5986Y34011D01*
X-5866Y35000D01*
X-5866Y55000D02*
X-5986Y55989D01*
X-6340Y56921D01*
X-6906Y57741D01*
X-7652Y58402D01*
X-8534Y58865D01*
X-9502Y59104D01*
X-10498Y59104D01*
X-11466Y58865D01*
X-12348Y58402D01*
X-13094Y57741D01*
X-13660Y56921D01*
X-14014Y55989D01*
X-14134Y55000D01*
X-14014Y54011D01*
X-13660Y53079D01*
X-13094Y52259D01*
X-12348Y51598D01*
X-11466Y51135D01*
X-10498Y50896D01*
X-9502Y50896D01*
X-8534Y51135D01*
X-7652Y51598D01*
X-6906Y52259D01*
X-6340Y53079D01*
X-5986Y54011D01*
X-5866Y55000D01*
X-5866Y45000D02*
X-5986Y45989D01*
X-6340Y46921D01*
X-6906Y47741D01*
X-7652Y48402D01*
X-8534Y48865D01*
X-9502Y49104D01*
X-10498Y49104D01*
X-11466Y48865D01*
X-12348Y48402D01*
X-13094Y47741D01*
X-13660Y46921D01*
X-14014Y45989D01*
X-14134Y45000D01*
X-14014Y44011D01*
X-13660Y43079D01*
X-13094Y42259D01*
X-12348Y41598D01*
X-11466Y41135D01*
X-10498Y40896D01*
X-9502Y40896D01*
X-8534Y41135D01*
X-7652Y41598D01*
X-6906Y42259D01*
X-6340Y43079D01*
X-5986Y44011D01*
X-5866Y45000D01*
X51134Y4000D02*
X51014Y4989D01*
X50660Y5921D01*
X50094Y6741D01*
X49348Y7402D01*
X48466Y7865D01*
X47498Y8104D01*
X46502Y8104D01*
X45534Y7865D01*
X44652Y7402D01*
X43906Y6741D01*
X43340Y5921D01*
X42986Y4989D01*
X42866Y4000D01*
X42986Y3011D01*
X43340Y2079D01*
X43906Y1259D01*
X44652Y598D01*
X45534Y135D01*
X46502Y-104D01*
X47498Y-104D01*
X48466Y135D01*
X49348Y598D01*
X50094Y1259D01*
X50660Y2079D01*
X51014Y3011D01*
X51134Y4000D01*
X40134Y-60500D02*
X40014Y-59511D01*
X39660Y-58579D01*
X39094Y-57759D01*
X38348Y-57098D01*
X37466Y-56635D01*
X36498Y-56396D01*
X35502Y-56396D01*
X34534Y-56635D01*
X33652Y-57098D01*
X32906Y-57759D01*
X32340Y-58579D01*
X31986Y-59511D01*
X31866Y-60500D01*
X31986Y-61489D01*
X32340Y-62421D01*
X32906Y-63241D01*
X33652Y-63902D01*
X34534Y-64365D01*
X35502Y-64604D01*
X36498Y-64604D01*
X37466Y-64365D01*
X38348Y-63902D01*
X39094Y-63241D01*
X39660Y-62421D01*
X40014Y-61489D01*
X40134Y-60500D01*
X-94810Y-34500D02*
X-94930Y-33511D01*
X-95283Y-32579D01*
X-95849Y-31759D01*
X-96595Y-31098D01*
X-97478Y-30635D01*
X-98445Y-30396D01*
X-99442Y-30396D01*
X-100409Y-30635D01*
X-101292Y-31098D01*
X-102038Y-31759D01*
X-102604Y-32579D01*
X-102957Y-33511D01*
X-103077Y-34500D01*
X-102957Y-35489D01*
X-102604Y-36421D01*
X-102038Y-37241D01*
X-101292Y-37902D01*
X-100409Y-38365D01*
X-99442Y-38604D01*
X-98445Y-38604D01*
X-97478Y-38365D01*
X-96595Y-37902D01*
X-95849Y-37241D01*
X-95283Y-36421D01*
X-94930Y-35489D01*
X-94810Y-34500D01*
X-48866Y23500D02*
X-48986Y24489D01*
X-49340Y25421D01*
X-49906Y26241D01*
X-50652Y26902D01*
X-51534Y27365D01*
X-52502Y27604D01*
X-53498Y27604D01*
X-54466Y27365D01*
X-55348Y26902D01*
X-56094Y26241D01*
X-56660Y25421D01*
X-57014Y24489D01*
X-57134Y23500D01*
X-57014Y22511D01*
X-56660Y21579D01*
X-56094Y20759D01*
X-55348Y20098D01*
X-54466Y19635D01*
X-53498Y19396D01*
X-52502Y19396D01*
X-51534Y19635D01*
X-50652Y20098D01*
X-49906Y20759D01*
X-49340Y21579D01*
X-48986Y22511D01*
X-48866Y23500D01*
X-58858Y55118D02*
X-58978Y56107D01*
X-59332Y57039D01*
X-59898Y57859D01*
X-60644Y58520D01*
X-61526Y58983D01*
X-62494Y59222D01*
X-63490Y59222D01*
X-64458Y58983D01*
X-65340Y58520D01*
X-66086Y57859D01*
X-66653Y57039D01*
X-67006Y56107D01*
X-67126Y55118D01*
X-67006Y54129D01*
X-66653Y53197D01*
X-66086Y52377D01*
X-65340Y51716D01*
X-64458Y51253D01*
X-63490Y51014D01*
X-62494Y51014D01*
X-61526Y51253D01*
X-60644Y51716D01*
X-59898Y52377D01*
X-59332Y53197D01*
X-58978Y54129D01*
X-58858Y55118D01*
X-39173Y55118D02*
X-39293Y56107D01*
X-39647Y57039D01*
X-40213Y57859D01*
X-40959Y58520D01*
X-41841Y58983D01*
X-42809Y59222D01*
X-43805Y59222D01*
X-44773Y58983D01*
X-45655Y58520D01*
X-46401Y57859D01*
X-46967Y57039D01*
X-47321Y56107D01*
X-47441Y55118D01*
X-47321Y54129D01*
X-46967Y53197D01*
X-46401Y52377D01*
X-45655Y51716D01*
X-44773Y51253D01*
X-43805Y51014D01*
X-42809Y51014D01*
X-41841Y51253D01*
X-40959Y51716D01*
X-40213Y52377D01*
X-39647Y53197D01*
X-39293Y54129D01*
X-39173Y55118D01*
X-83605Y-84429D02*
X-83605Y-80430D01*
X-81605Y-80430D01*
X-80939Y-81096D01*
X-80939Y-82429D01*
X-81605Y-83096D01*
X-83605Y-83096D01*
X-82272Y-83096D02*
X-80939Y-84429D01*
X-77607Y-84429D02*
X-78940Y-84429D01*
X-79606Y-83762D01*
X-79606Y-82429D01*
X-78940Y-81763D01*
X-77607Y-81763D01*
X-76940Y-82429D01*
X-76940Y-83096D01*
X-79606Y-83096D01*
X-75607Y-84429D02*
X-73608Y-84429D01*
X-72942Y-83762D01*
X-73608Y-83096D01*
X-74941Y-83096D01*
X-75607Y-82429D01*
X-74941Y-81763D01*
X-72942Y-81763D01*
X-69609Y-84429D02*
X-70942Y-84429D01*
X-71609Y-83762D01*
X-71609Y-82429D01*
X-70942Y-81763D01*
X-69609Y-81763D01*
X-68943Y-82429D01*
X-68943Y-83096D01*
X-71609Y-83096D01*
X-66944Y-81096D02*
X-66944Y-81763D01*
X-67610Y-81763D01*
X-66277Y-81763D01*
X-66944Y-81763D01*
X-66944Y-83762D01*
X-66277Y-84429D01*
D11*
X30992Y27500D02*
X30254Y27926D01*
X30254Y27074D01*
X30992Y27500D01*
X51016Y71803D02*
X50278Y72229D01*
X50278Y71377D01*
X51016Y71803D01*
X72686Y20897D02*
X71948Y21323D01*
X71948Y20471D01*
X72686Y20897D01*
X75532Y28049D02*
X74794Y28475D01*
X74794Y27623D01*
X75532Y28049D01*
X45177Y-19776D02*
X44439Y-19349D01*
X44439Y-20202D01*
X45177Y-19776D01*
X-59584Y-4852D02*
X-60323Y-4426D01*
X-60323Y-5279D01*
X-59584Y-4852D01*
X12392Y67000D02*
X11654Y67426D01*
X11654Y66574D01*
X12392Y67000D01*
X22892Y15000D02*
X22154Y15426D01*
X22154Y14574D01*
X22892Y15000D01*
X23063Y50500D02*
X22325Y50926D01*
X22325Y50074D01*
X23063Y50500D01*
D12*
X-67913Y-66929D02*
X-67987Y-65926D01*
X-68205Y-64944D01*
X-68565Y-64005D01*
X-69057Y-63128D01*
X-69672Y-62331D01*
X-70396Y-61633D01*
X-71214Y-61048D01*
X-72109Y-60588D01*
X-73061Y-60263D01*
X-74050Y-60081D01*
X-75055Y-60044D01*
X-76055Y-60154D01*
X-77028Y-60408D01*
X-77953Y-60802D01*
X-78812Y-61326D01*
X-79585Y-61969D01*
X-80256Y-62718D01*
X-80811Y-63557D01*
X-81238Y-64468D01*
X-81528Y-65431D01*
X-81674Y-66426D01*
X-81674Y-67432D01*
X-81528Y-68427D01*
X-81238Y-69390D01*
X-80811Y-70301D01*
X-80256Y-71140D01*
X-79585Y-71889D01*
X-78812Y-72532D01*
X-77953Y-73057D01*
X-77028Y-73450D01*
X-76055Y-73704D01*
X-75055Y-73814D01*
X-74050Y-73778D01*
X-73061Y-73595D01*
X-72109Y-73270D01*
X-71214Y-72810D01*
X-70396Y-72225D01*
X-69672Y-71527D01*
X-69057Y-70731D01*
X-68565Y-69854D01*
X-68205Y-68914D01*
X-67987Y-67932D01*
X-67913Y-66929D01*
X-79803Y-66929D02*
X-69303Y-66929D01*
X-74803Y-71653D02*
X-74803Y-61929D01*
X-80709Y-76968D02*
X-68898Y-76968D01*
X-64764Y-71653D02*
X-64764Y-62205D01*
X-84842Y-71653D02*
X-84842Y-62205D01*
X-80709Y-56890D02*
X-68898Y-56890D01*
X-54368Y-28868D02*
X-33502Y-28868D01*
X-54368Y-8002D02*
X-33502Y-8002D01*
X-33502Y-28868D02*
X-33502Y-8002D01*
X-54368Y-28868D02*
X-54368Y-8002D01*
X-15748Y0D02*
X15748Y0D01*
X79436Y-50080D02*
X78452Y-49096D01*
X76484Y-49096D01*
X75500Y-50080D01*
X75500Y-54016D01*
X76484Y-55000D01*
X78452Y-55000D01*
X79436Y-54016D01*
X79436Y-52048D01*
X77468Y-52048D01*
X79436Y-66580D02*
X78452Y-65596D01*
X76484Y-65596D01*
X75500Y-66580D01*
X75500Y-67564D01*
X76484Y-68548D01*
X78452Y-68548D01*
X79436Y-69532D01*
X79436Y-70516D01*
X78452Y-71500D01*
X76484Y-71500D01*
X75500Y-70516D01*
X76500Y-14690D02*
X81748Y-14690D01*
X79124Y-12066D02*
X79124Y-17314D01*
X76500Y-22564D02*
X81748Y-22564D01*
X75500Y-57096D02*
X75500Y-61032D01*
X77468Y-63000D01*
X79436Y-61032D01*
X79436Y-57096D01*
X-152168Y7000D02*
X-155500Y7000D01*
X-152168Y10332D01*
X-152168Y11165D01*
X-153001Y11998D01*
X-154667Y11998D01*
X-155500Y11165D01*
X-150502Y7000D02*
X-150502Y7833D01*
X-149669Y7833D01*
X-149669Y7000D01*
X-150502Y7000D01*
X-146336Y11165D02*
X-145503Y11998D01*
X-143837Y11998D01*
X-143004Y11165D01*
X-143004Y7833D01*
X-143837Y7000D01*
X-145503Y7000D01*
X-146336Y7833D01*
X-146336Y11165D01*
X-155500Y20498D02*
X-153834Y20498D01*
X-154667Y20498D01*
X-154667Y15500D01*
X-155500Y15500D01*
X-153834Y15500D01*
X-151335Y15500D02*
X-151335Y20498D01*
X-148836Y20498D01*
X-148002Y19665D01*
X-148002Y17999D01*
X-148836Y17166D01*
X-151335Y17166D01*
X-149669Y17166D02*
X-148002Y15500D01*
X-141338Y15500D02*
X-141338Y20498D01*
X-138839Y20498D01*
X-138006Y19665D01*
X-138006Y17999D01*
X-138839Y17166D01*
X-141338Y17166D01*
X-139672Y17166D02*
X-138006Y15500D01*
X-133840Y15500D02*
X-135506Y15500D01*
X-136339Y16333D01*
X-136339Y17999D01*
X-135506Y18832D01*
X-133840Y18832D01*
X-133007Y17999D01*
X-133007Y17166D01*
X-136339Y17166D01*
X-131341Y15500D02*
X-131341Y18832D01*
X-130508Y18832D01*
X-129675Y17999D01*
X-129675Y15500D01*
X-129675Y17999D01*
X-128842Y18832D01*
X-128009Y17999D01*
X-128009Y15500D01*
X-125510Y15500D02*
X-123844Y15500D01*
X-123011Y16333D01*
X-123011Y17999D01*
X-123844Y18832D01*
X-125510Y18832D01*
X-126343Y17999D01*
X-126343Y16333D01*
X-125510Y15500D01*
X-120511Y19665D02*
X-120511Y18832D01*
X-121344Y18832D01*
X-119678Y18832D01*
X-120511Y18832D01*
X-120511Y16333D01*
X-119678Y15500D01*
X-114680Y15500D02*
X-116346Y15500D01*
X-117179Y16333D01*
X-117179Y17999D01*
X-116346Y18832D01*
X-114680Y18832D01*
X-113847Y17999D01*
X-113847Y17166D01*
X-117179Y17166D01*
D13*
X49650Y-67500D02*
X49496Y-66527D01*
X49048Y-65649D01*
X48351Y-64952D01*
X47473Y-64504D01*
X46500Y-64350D01*
X45527Y-64504D01*
X44649Y-64952D01*
X43952Y-65649D01*
X43505Y-66527D01*
X43350Y-67500D01*
X43505Y-68473D01*
X43952Y-69351D01*
X44649Y-70048D01*
X45527Y-70495D01*
X46500Y-70650D01*
X47473Y-70495D01*
X48351Y-70048D01*
X49048Y-69351D01*
X49496Y-68473D01*
X49650Y-67500D01*
X29450Y28000D02*
X29450Y28300D01*
X18450Y28000D02*
X18450Y28300D01*
X29450Y34700D02*
X29450Y35000D01*
X18450Y34700D02*
X18450Y35000D01*
X18450Y28000D02*
X29450Y28000D01*
X18450Y35000D02*
X29450Y35000D01*
X27650Y29000D02*
X27650Y34000D01*
X21500Y29000D02*
X21500Y34000D01*
X24000Y31500D01*
X21500Y29000D02*
X24000Y31500D01*
X24500Y29000D02*
X24500Y34000D01*
X-162500Y90000D02*
X-159500Y90000D01*
X-161000Y88500D02*
X-159500Y90000D01*
X-162500Y90000D02*
X-161000Y88500D01*
X-162500Y88500D02*
X-159500Y88500D01*
X-162500Y37500D02*
X-159500Y37500D01*
X-161000Y36000D02*
X-159500Y37500D01*
X-162500Y37500D02*
X-161000Y36000D01*
X-162500Y36000D02*
X-159500Y36000D01*
X-163500Y-15000D02*
X-160500Y-15000D01*
X-162000Y-16500D02*
X-160500Y-15000D01*
X-163500Y-15000D02*
X-162000Y-16500D01*
X-163500Y-16500D02*
X-160500Y-16500D01*
X63359Y-81634D02*
X67559Y-85834D01*
X34752Y-96595D02*
X63359Y-96595D01*
X67559Y-92395D02*
X67559Y-85834D01*
X63359Y-96595D02*
X67559Y-92395D01*
X30551Y-92395D02*
X34751Y-96595D01*
X30551Y-85834D02*
X34751Y-81634D01*
X30551Y-92395D02*
X30551Y-85834D01*
X34751Y-81634D02*
X63358Y-81634D01*
X-165000Y-68000D02*
X-162000Y-68000D01*
X-163500Y-69500D02*
X-162000Y-68000D01*
X-165000Y-68000D02*
X-163500Y-69500D01*
X-165000Y-69500D02*
X-162000Y-69500D01*
X-111000Y89500D02*
X-108000Y89500D01*
X-109500Y88000D02*
X-108000Y89500D01*
X-111000Y89500D02*
X-109500Y88000D01*
X-111000Y88000D02*
X-108000Y88000D01*
X-111500Y38000D02*
X-108500Y38000D01*
X-110000Y36500D02*
X-108500Y38000D01*
X-111500Y38000D02*
X-110000Y36500D01*
X-111500Y36500D02*
X-108500Y36500D01*
X-112000Y-15500D02*
X-109000Y-15500D01*
X-110500Y-17000D02*
X-109000Y-15500D01*
X-112000Y-15500D02*
X-110500Y-17000D01*
X-112000Y-17000D02*
X-109000Y-17000D01*
X-120000Y-68500D02*
X-117000Y-68500D01*
X-118500Y-70000D02*
X-117000Y-68500D01*
X-120000Y-68500D02*
X-118500Y-70000D01*
X-120000Y-70000D02*
X-117000Y-70000D01*
X-99000Y89500D02*
X-96000Y89500D01*
X-97500Y88000D02*
X-96000Y89500D01*
X-99000Y89500D02*
X-97500Y88000D01*
X-99000Y88000D02*
X-96000Y88000D01*
X-102000Y38000D02*
X-99000Y38000D01*
X-100500Y36500D02*
X-99000Y38000D01*
X-102000Y38000D02*
X-100500Y36500D01*
X-102000Y36500D02*
X-99000Y36500D01*
X-101000Y-15500D02*
X-98000Y-15500D01*
X-99500Y-17000D02*
X-98000Y-15500D01*
X-101000Y-15500D02*
X-99500Y-17000D01*
X-101000Y-17000D02*
X-98000Y-17000D01*
X-111500Y-68500D02*
X-108500Y-68500D01*
X-110000Y-70000D02*
X-108500Y-68500D01*
X-111500Y-68500D02*
X-110000Y-70000D01*
X-111500Y-70000D02*
X-108500Y-70000D01*
X-55500Y89500D02*
X-52500Y89500D01*
X-54000Y88000D02*
X-52500Y89500D01*
X-55500Y89500D02*
X-54000Y88000D01*
X-55500Y88000D02*
X-52500Y88000D01*
X-95500Y38000D02*
X-92500Y38000D01*
X-94000Y36500D02*
X-92500Y38000D01*
X-95500Y38000D02*
X-94000Y36500D01*
X-95500Y36500D02*
X-92500Y36500D01*
X-91500Y-15500D02*
X-88500Y-15500D01*
X-90000Y-17000D02*
X-88500Y-15500D01*
X-91500Y-15500D02*
X-90000Y-17000D01*
X-91500Y-17000D02*
X-88500Y-17000D01*
X-103500Y-68500D02*
X-100500Y-68500D01*
X-102000Y-70000D02*
X-100500Y-68500D01*
X-103500Y-68500D02*
X-102000Y-70000D01*
X-103500Y-70000D02*
X-100500Y-70000D01*
X37001Y49999D02*
X37001Y47001D01*
X39000Y47001D01*
X40000Y47001D02*
X40999Y47001D01*
X40499Y47001D01*
X40499Y49999D01*
X40000Y49500D01*
X15502Y-33251D02*
X17501Y-33251D01*
X16502Y-33251D01*
X16502Y-36250D01*
X18501Y-36749D02*
X20501Y-36749D01*
X21500Y-36250D02*
X21500Y-33251D01*
X23000Y-33251D01*
X23499Y-33750D01*
X23499Y-34750D01*
X23000Y-35250D01*
X21500Y-35250D01*
X22500Y-35250D02*
X23499Y-36250D01*
X24499Y-36250D02*
X25999Y-36250D01*
X26498Y-35750D01*
X25999Y-35250D01*
X24999Y-35250D01*
X24499Y-34750D01*
X24999Y-34250D01*
X26498Y-34250D01*
X27998Y-33750D02*
X27998Y-34250D01*
X27498Y-34250D01*
X28498Y-34250D01*
X27998Y-34250D01*
X27998Y-35750D01*
X28498Y-36250D01*
X-31748Y66749D02*
X-29748Y66749D01*
X-30748Y66749D01*
X-30748Y63750D01*
X-28749Y63251D02*
X-26749Y63251D01*
X-25750Y66749D02*
X-24750Y66749D01*
X-25250Y66749D01*
X-25250Y63750D01*
X-25750Y63750D01*
X-24750Y63750D01*
X-23251Y63750D02*
X-23251Y66749D01*
X-21751Y66749D01*
X-21251Y66250D01*
X-21251Y65250D01*
X-21751Y64750D01*
X-23251Y64750D01*
X-22251Y64750D02*
X-21251Y63750D01*
X-18252Y64250D02*
X-18252Y66250D01*
X-18752Y66749D01*
X-19752Y66749D01*
X-20252Y66250D01*
X-20252Y64250D01*
X-19752Y63750D01*
X-18752Y63750D01*
X-19252Y64750D02*
X-18252Y63750D01*
X-18752Y63750D02*
X-18252Y64250D01*
X-27498Y6749D02*
X-25499Y6749D01*
X-26498Y6749D01*
X-26498Y3750D01*
X-24499Y3251D02*
X-22500Y3251D01*
X-21500Y6749D02*
X-21500Y3750D01*
X-20001Y3750D01*
X-19501Y4250D01*
X-19501Y4750D01*
X-20001Y5250D01*
X-21500Y5250D01*
X-20001Y5250D01*
X-19501Y5750D01*
X-19501Y6250D01*
X-20001Y6749D01*
X-21500Y6749D01*
X-18501Y6749D02*
X-18501Y3750D01*
X-16502Y3750D01*
X-29998Y36749D02*
X-27998Y36749D01*
X-28998Y36749D01*
X-28998Y33750D01*
X-26999Y33750D02*
X-26999Y36749D01*
X-25499Y36749D01*
X-24999Y36250D01*
X-24999Y35250D01*
X-25499Y34750D01*
X-26999Y34750D01*
X-24000Y33251D02*
X-22000Y33251D01*
X-19001Y36250D02*
X-19501Y36749D01*
X-20501Y36749D01*
X-21001Y36250D01*
X-21001Y34250D01*
X-20501Y33750D01*
X-19501Y33750D01*
X-19001Y34250D01*
X-16002Y36250D02*
X-16502Y36749D01*
X-17502Y36749D01*
X-18002Y36250D01*
X-18002Y35750D01*
X-17502Y35250D01*
X-16502Y35250D01*
X-16002Y34750D01*
X-16002Y34250D01*
X-16502Y33750D01*
X-17502Y33750D01*
X-18002Y34250D01*
X5002Y-14751D02*
X7001Y-14751D01*
X6002Y-14751D01*
X6002Y-17750D01*
X8001Y-18249D02*
X10000Y-18249D01*
X11000Y-14751D02*
X11000Y-17750D01*
X12499Y-17750D01*
X12999Y-17250D01*
X12999Y-15250D01*
X12499Y-14751D01*
X11000Y-14751D01*
X15998Y-15250D02*
X15498Y-14751D01*
X14499Y-14751D01*
X13999Y-15250D01*
X13999Y-17250D01*
X14499Y-17750D01*
X15498Y-17750D01*
X15998Y-17250D01*
X15502Y-42751D02*
X17501Y-42751D01*
X16501Y-42751D01*
X16501Y-45750D01*
X18501Y-46249D02*
X20500Y-46249D01*
X23499Y-43250D02*
X22999Y-42751D01*
X22000Y-42751D01*
X21500Y-43250D01*
X21500Y-45250D01*
X22000Y-45750D01*
X22999Y-45750D01*
X23499Y-45250D01*
X26498Y-43250D02*
X25998Y-42751D01*
X24999Y-42751D01*
X24499Y-43250D01*
X24499Y-43750D01*
X24999Y-44250D01*
X25998Y-44250D01*
X26498Y-44750D01*
X26498Y-45250D01*
X25998Y-45750D01*
X24999Y-45750D01*
X24499Y-45250D01*
X-23999Y45500D02*
X-24499Y46000D01*
X-25499Y46000D01*
X-25999Y45500D01*
X-25999Y45000D01*
X-25499Y44500D01*
X-24499Y44500D01*
X-23999Y44000D01*
X-23999Y43500D01*
X-24499Y43001D01*
X-25499Y43001D01*
X-25999Y43500D01*
X-21000Y45500D02*
X-21500Y46000D01*
X-22500Y46000D01*
X-23000Y45500D01*
X-23000Y43500D01*
X-22500Y43001D01*
X-21500Y43001D01*
X-21000Y43500D01*
X-20001Y46000D02*
X-20001Y43001D01*
X-20001Y44000D01*
X-18001Y46000D01*
X-19501Y44500D01*
X-18001Y43001D01*
X-26498Y24001D02*
X-26498Y27000D01*
X-25499Y26000D01*
X-24499Y27000D01*
X-24499Y24001D01*
X-22000Y27000D02*
X-22999Y27000D01*
X-23499Y26500D01*
X-23499Y24500D01*
X-22999Y24001D01*
X-22000Y24001D01*
X-21500Y24500D01*
X-21500Y26500D01*
X-22000Y27000D01*
X-18501Y26500D02*
X-19001Y27000D01*
X-20000Y27000D01*
X-20500Y26500D01*
X-20500Y26000D01*
X-20000Y25500D01*
X-19001Y25500D01*
X-18501Y25000D01*
X-18501Y24500D01*
X-19001Y24001D01*
X-20000Y24001D01*
X-20500Y24500D01*
X-17501Y27000D02*
X-16502Y27000D01*
X-17001Y27000D01*
X-17001Y24001D01*
X-17501Y24001D01*
X-16502Y24001D01*
X-27248Y53500D02*
X-27248Y56499D01*
X-26249Y55500D01*
X-25249Y56499D01*
X-25249Y53500D01*
X-24249Y56499D02*
X-23250Y56499D01*
X-23749Y56499D01*
X-23749Y53500D01*
X-24249Y53500D01*
X-23250Y53500D01*
X-19751Y56000D02*
X-20251Y56499D01*
X-21250Y56499D01*
X-21750Y56000D01*
X-21750Y55500D01*
X-21250Y55000D01*
X-20251Y55000D01*
X-19751Y54500D01*
X-19751Y54000D01*
X-20251Y53500D01*
X-21250Y53500D01*
X-21750Y54000D01*
X-17252Y56499D02*
X-18251Y56499D01*
X-18751Y56000D01*
X-18751Y54000D01*
X-18251Y53500D01*
X-17252Y53500D01*
X-16752Y54000D01*
X-16752Y56000D01*
X-17252Y56499D01*
X-163432Y102499D02*
X-163432Y99500D01*
X-161933Y99500D01*
X-161433Y100000D01*
X-161433Y101999D01*
X-161933Y102499D01*
X-163432Y102499D01*
X-160433Y99500D02*
X-159434Y99500D01*
X-159933Y99500D01*
X-159933Y102499D01*
X-160433Y101999D01*
X-155935Y102499D02*
X-156934Y101999D01*
X-157934Y100999D01*
X-157934Y100000D01*
X-157434Y99500D01*
X-156435Y99500D01*
X-155935Y100000D01*
X-155935Y100500D01*
X-156435Y100999D01*
X-157934Y100999D01*
X-163432Y49999D02*
X-163432Y47000D01*
X-161933Y47000D01*
X-161433Y47500D01*
X-161433Y49499D01*
X-161933Y49999D01*
X-163432Y49999D01*
X-160433Y47000D02*
X-159434Y47000D01*
X-159933Y47000D01*
X-159933Y49999D01*
X-160433Y49499D01*
X-155935Y49999D02*
X-157934Y49999D01*
X-157934Y48500D01*
X-156934Y48999D01*
X-156435Y48999D01*
X-155935Y48500D01*
X-155935Y47500D01*
X-156435Y47000D01*
X-157434Y47000D01*
X-157934Y47500D01*
X-164432Y-2501D02*
X-164432Y-5500D01*
X-162933Y-5500D01*
X-162433Y-5000D01*
X-162433Y-3001D01*
X-162933Y-2501D01*
X-164432Y-2501D01*
X-161433Y-5500D02*
X-160434Y-5500D01*
X-160933Y-5500D01*
X-160933Y-2501D01*
X-161433Y-3001D01*
X-157434Y-5500D02*
X-157434Y-2501D01*
X-158934Y-4000D01*
X-156935Y-4000D01*
X-165932Y-55501D02*
X-165932Y-58500D01*
X-164433Y-58500D01*
X-163933Y-58000D01*
X-163933Y-56001D01*
X-164433Y-55501D01*
X-165932Y-55501D01*
X-162933Y-58500D02*
X-161934Y-58500D01*
X-162433Y-58500D01*
X-162433Y-55501D01*
X-162933Y-56001D01*
X-160434Y-56001D02*
X-159934Y-55501D01*
X-158934Y-55501D01*
X-158435Y-56001D01*
X-158435Y-56501D01*
X-158934Y-57000D01*
X-159434Y-57000D01*
X-158934Y-57000D01*
X-158435Y-57500D01*
X-158435Y-58000D01*
X-158934Y-58500D01*
X-159934Y-58500D01*
X-160434Y-58000D01*
X-111932Y101999D02*
X-111932Y99000D01*
X-110433Y99000D01*
X-109933Y99500D01*
X-109933Y101499D01*
X-110433Y101999D01*
X-111932Y101999D01*
X-108933Y99000D02*
X-107934Y99000D01*
X-108433Y99000D01*
X-108433Y101999D01*
X-108933Y101499D01*
X-104435Y99000D02*
X-106434Y99000D01*
X-104435Y100999D01*
X-104435Y101499D01*
X-104935Y101999D01*
X-105934Y101999D01*
X-106434Y101499D01*
X-112432Y50499D02*
X-112432Y47500D01*
X-110933Y47500D01*
X-110433Y48000D01*
X-110433Y49999D01*
X-110933Y50499D01*
X-112432Y50499D01*
X-109433Y47500D02*
X-108434Y47500D01*
X-108933Y47500D01*
X-108933Y50499D01*
X-109433Y49999D01*
X-106934Y47500D02*
X-105934Y47500D01*
X-106434Y47500D01*
X-106434Y50499D01*
X-106934Y49999D01*
X-112932Y-3001D02*
X-112932Y-6000D01*
X-111433Y-6000D01*
X-110933Y-5500D01*
X-110933Y-3501D01*
X-111433Y-3001D01*
X-112932Y-3001D01*
X-109933Y-6000D02*
X-108934Y-6000D01*
X-109433Y-6000D01*
X-109433Y-3001D01*
X-109933Y-3501D01*
X-107434Y-3501D02*
X-106934Y-3001D01*
X-105935Y-3001D01*
X-105435Y-3501D01*
X-105435Y-5500D01*
X-105935Y-6000D01*
X-106934Y-6000D01*
X-107434Y-5500D01*
X-107434Y-3501D01*
X-120932Y-56001D02*
X-120932Y-59000D01*
X-119433Y-59000D01*
X-118933Y-58500D01*
X-118933Y-56501D01*
X-119433Y-56001D01*
X-120932Y-56001D01*
X-117933Y-58500D02*
X-117433Y-59000D01*
X-116434Y-59000D01*
X-115934Y-58500D01*
X-115934Y-56501D01*
X-116434Y-56001D01*
X-117433Y-56001D01*
X-117933Y-56501D01*
X-117933Y-57001D01*
X-117433Y-57500D01*
X-115934Y-57500D01*
X-99932Y101999D02*
X-99932Y99000D01*
X-98433Y99000D01*
X-97933Y99500D01*
X-97933Y101499D01*
X-98433Y101999D01*
X-99932Y101999D01*
X-96933Y101499D02*
X-96433Y101999D01*
X-95434Y101999D01*
X-94934Y101499D01*
X-94934Y100999D01*
X-95434Y100499D01*
X-94934Y100000D01*
X-94934Y99500D01*
X-95434Y99000D01*
X-96433Y99000D01*
X-96933Y99500D01*
X-96933Y100000D01*
X-96433Y100499D01*
X-96933Y100999D01*
X-96933Y101499D01*
X-96433Y100499D02*
X-95434Y100499D01*
X-102932Y50499D02*
X-102932Y47500D01*
X-101433Y47500D01*
X-100933Y48000D01*
X-100933Y49999D01*
X-101433Y50499D01*
X-102932Y50499D01*
X-99933Y50499D02*
X-97934Y50499D01*
X-97934Y49999D01*
X-99933Y48000D01*
X-99933Y47500D01*
X-101932Y-3001D02*
X-101932Y-6000D01*
X-100433Y-6000D01*
X-99933Y-5500D01*
X-99933Y-3501D01*
X-100433Y-3001D01*
X-101932Y-3001D01*
X-96934Y-3001D02*
X-97934Y-3501D01*
X-98933Y-4501D01*
X-98933Y-5500D01*
X-98433Y-6000D01*
X-97434Y-6000D01*
X-96934Y-5500D01*
X-96934Y-5000D01*
X-97434Y-4501D01*
X-98933Y-4501D01*
X-112432Y-56001D02*
X-112432Y-59000D01*
X-110933Y-59000D01*
X-110433Y-58500D01*
X-110433Y-56501D01*
X-110933Y-56001D01*
X-112432Y-56001D01*
X-107434Y-56001D02*
X-109433Y-56001D01*
X-109433Y-57500D01*
X-108434Y-57001D01*
X-107934Y-57001D01*
X-107434Y-57500D01*
X-107434Y-58500D01*
X-107934Y-59000D01*
X-108933Y-59000D01*
X-109433Y-58500D01*
X-56432Y101999D02*
X-56432Y99000D01*
X-54933Y99000D01*
X-54433Y99500D01*
X-54433Y101499D01*
X-54933Y101999D01*
X-56432Y101999D01*
X-51934Y99000D02*
X-51934Y101999D01*
X-53433Y100499D01*
X-51434Y100499D01*
X-96432Y50499D02*
X-96432Y47500D01*
X-94933Y47500D01*
X-94433Y48000D01*
X-94433Y49999D01*
X-94933Y50499D01*
X-96432Y50499D01*
X-93433Y49999D02*
X-92933Y50499D01*
X-91934Y50499D01*
X-91434Y49999D01*
X-91434Y49499D01*
X-91934Y49000D01*
X-92434Y49000D01*
X-91934Y49000D01*
X-91434Y48500D01*
X-91434Y48000D01*
X-91934Y47500D01*
X-92933Y47500D01*
X-93433Y48000D01*
X-92432Y-3001D02*
X-92432Y-6000D01*
X-90933Y-6000D01*
X-90433Y-5500D01*
X-90433Y-3501D01*
X-90933Y-3001D01*
X-92432Y-3001D01*
X-87434Y-6000D02*
X-89433Y-6000D01*
X-87434Y-4001D01*
X-87434Y-3501D01*
X-87934Y-3001D01*
X-88933Y-3001D01*
X-89433Y-3501D01*
X-104432Y-56001D02*
X-104432Y-59000D01*
X-102933Y-59000D01*
X-102433Y-58500D01*
X-102433Y-56501D01*
X-102933Y-56001D01*
X-104432Y-56001D01*
X-101433Y-59000D02*
X-100434Y-59000D01*
X-100933Y-59000D01*
X-100933Y-56001D01*
X-101433Y-56501D01*
X26500Y76500D02*
X26500Y78999D01*
X27750Y78999D01*
X28166Y78583D01*
X28166Y77750D01*
X27750Y77333D01*
X26500Y77333D01*
X27333Y77333D02*
X28166Y76500D01*
X28999Y78583D02*
X29416Y78999D01*
X30249Y78999D01*
X30665Y78583D01*
X30665Y78166D01*
X30249Y77750D01*
X29832Y77750D01*
X30249Y77750D01*
X30665Y77333D01*
X30665Y76916D01*
X30249Y76500D01*
X29416Y76500D01*
X28999Y76916D01*
X32001Y68499D02*
X34000Y68499D01*
X34000Y68000D01*
X32001Y66000D01*
X32001Y65500D01*
X34000Y65500D01*
X35000Y65500D02*
X35999Y65500D01*
X35500Y65500D01*
X35500Y68499D01*
X35000Y68000D01*
X-43862Y32500D02*
X-43862Y34999D01*
X-42613Y34999D01*
X-42196Y34583D01*
X-42196Y33750D01*
X-42613Y33333D01*
X-43862Y33333D01*
X-43029Y33333D02*
X-42196Y32500D01*
X-39697Y34999D02*
X-40530Y34583D01*
X-41363Y33750D01*
X-41363Y32917D01*
X-40946Y32500D01*
X-40113Y32500D01*
X-39697Y32917D01*
X-39697Y33333D01*
X-40113Y33750D01*
X-41363Y33750D01*
X-81334Y-27917D02*
X-81750Y-27501D01*
X-82583Y-27501D01*
X-83000Y-27917D01*
X-83000Y-29583D01*
X-82583Y-30000D01*
X-81750Y-30000D01*
X-81334Y-29583D01*
X-80501Y-27501D02*
X-78835Y-27501D01*
X-78835Y-27917D01*
X-80501Y-29583D01*
X-80501Y-30000D01*
X-81334Y-14417D02*
X-81750Y-14001D01*
X-82583Y-14001D01*
X-83000Y-14417D01*
X-83000Y-16083D01*
X-82583Y-16500D01*
X-81750Y-16500D01*
X-81334Y-16083D01*
X-79251Y-16500D02*
X-79251Y-14001D01*
X-80501Y-15250D01*
X-78835Y-15250D01*
X-78500Y-10500D02*
X-78500Y-8001D01*
X-77250Y-8001D01*
X-76834Y-8417D01*
X-76834Y-9250D01*
X-77250Y-9667D01*
X-78500Y-9667D01*
X-77667Y-9667D02*
X-76834Y-10500D01*
X-74335Y-10500D02*
X-76001Y-10500D01*
X-74335Y-8834D01*
X-74335Y-8417D01*
X-74751Y-8001D01*
X-75584Y-8001D01*
X-76001Y-8417D01*
X-72000Y-10500D02*
X-72000Y-8001D01*
X-70750Y-8001D01*
X-70334Y-8417D01*
X-70334Y-9250D01*
X-70750Y-9667D01*
X-72000Y-9667D01*
X-71167Y-9667D02*
X-70334Y-10500D01*
X-69501Y-10500D02*
X-68668Y-10500D01*
X-69084Y-10500D01*
X-69084Y-8001D01*
X-69501Y-8417D01*
X-29647Y-38066D02*
X-29647Y-38482D01*
X-28814Y-39316D01*
X-27981Y-38482D01*
X-27981Y-38066D01*
X-28814Y-39316D02*
X-28814Y-40565D01*
X-27148Y-40565D02*
X-26315Y-40565D01*
X-26732Y-40565D01*
X-26732Y-38066D01*
X-27148Y-38482D01*
X-30000Y-1001D02*
X-30000Y-3084D01*
X-29583Y-3500D01*
X-28750Y-3500D01*
X-28334Y-3084D01*
X-28334Y-1001D01*
X-25835Y-3500D02*
X-27501Y-3500D01*
X-25835Y-1834D01*
X-25835Y-1417D01*
X-26251Y-1001D01*
X-27084Y-1001D01*
X-27501Y-1417D01*
X-81399Y-21232D02*
X-81815Y-20816D01*
X-82649Y-20816D01*
X-83065Y-21232D01*
X-83065Y-22898D01*
X-82649Y-23315D01*
X-81815Y-23315D01*
X-81399Y-22898D01*
X-78900Y-20816D02*
X-79733Y-21232D01*
X-80566Y-22065D01*
X-80566Y-22898D01*
X-80149Y-23315D01*
X-79316Y-23315D01*
X-78900Y-22898D01*
X-78900Y-22482D01*
X-79316Y-22065D01*
X-80566Y-22065D01*
X70425Y-88854D02*
X70425Y-86355D01*
X71675Y-86355D01*
X72091Y-86772D01*
X72091Y-87605D01*
X71675Y-88021D01*
X70425Y-88021D01*
X72924Y-88854D02*
X73757Y-88854D01*
X73341Y-88854D01*
X73341Y-86355D01*
X72924Y-86772D01*
X76000Y93500D02*
X76000Y95999D01*
X77250Y95999D01*
X77666Y95583D01*
X77666Y94750D01*
X77250Y94333D01*
X76000Y94333D01*
X76833Y94333D02*
X77666Y93500D01*
X79749Y93500D02*
X79749Y95999D01*
X78499Y94750D01*
X80165Y94750D01*
X-45334Y-48417D02*
X-45750Y-48001D01*
X-46584Y-48001D01*
X-47000Y-48417D01*
X-47000Y-50084D01*
X-46584Y-50500D01*
X-45750Y-50500D01*
X-45334Y-50084D01*
X-44501Y-48417D02*
X-44084Y-48001D01*
X-43251Y-48001D01*
X-42835Y-48417D01*
X-42835Y-48834D01*
X-43251Y-49250D01*
X-42835Y-49667D01*
X-42835Y-50084D01*
X-43251Y-50500D01*
X-44084Y-50500D01*
X-44501Y-50084D01*
X-44501Y-49667D01*
X-44084Y-49250D01*
X-44501Y-48834D01*
X-44501Y-48417D01*
X-44084Y-49250D02*
X-43251Y-49250D01*
X68666Y95583D02*
X68250Y95999D01*
X67417Y95999D01*
X67000Y95583D01*
X67000Y93916D01*
X67417Y93500D01*
X68250Y93500D01*
X68666Y93916D01*
X69499Y93500D02*
X70332Y93500D01*
X69916Y93500D01*
X69916Y95999D01*
X69499Y95583D01*
X7500Y59000D02*
X7500Y61000D01*
X7000Y61500D01*
X6001Y61500D01*
X5501Y61000D01*
X5501Y59000D01*
X6001Y58500D01*
X7000Y58500D01*
X6500Y59500D02*
X7500Y58500D01*
X7000Y58500D02*
X7500Y59000D01*
X8500Y58500D02*
X9499Y58500D01*
X8999Y58500D01*
X8999Y61500D01*
X8500Y61000D01*
X55001Y68001D02*
X55001Y70999D01*
X56500Y70999D01*
X57000Y70500D01*
X57000Y69500D01*
X56500Y69000D01*
X55001Y69000D01*
X56001Y69000D02*
X57000Y68001D01*
X58000Y70999D02*
X59999Y70999D01*
X59999Y70500D01*
X58000Y68500D01*
X58000Y68001D01*
X5001Y77000D02*
X5001Y80000D01*
X6500Y80000D01*
X7000Y79500D01*
X7000Y78500D01*
X6500Y78000D01*
X5001Y78000D01*
X6001Y78000D02*
X7000Y77000D01*
X8000Y79500D02*
X8500Y80000D01*
X9499Y80000D01*
X9999Y79500D01*
X9999Y79000D01*
X9499Y78500D01*
X9999Y78000D01*
X9999Y77500D01*
X9499Y77000D01*
X8500Y77000D01*
X8000Y77500D01*
X8000Y78000D01*
X8500Y78500D01*
X8000Y79000D01*
X8000Y79500D01*
X8500Y78500D02*
X9499Y78500D01*
X14931Y20997D02*
X14432Y21497D01*
X13432Y21497D01*
X12932Y20997D01*
X12932Y18998D01*
X13432Y18498D01*
X14432Y18498D01*
X14931Y18998D01*
X17930Y18498D02*
X15931Y18498D01*
X17930Y20497D01*
X17930Y20997D01*
X17431Y21497D01*
X16431Y21497D01*
X15931Y20997D01*
X16000Y-2500D02*
X15500Y-2001D01*
X14501Y-2001D01*
X14001Y-2500D01*
X14001Y-4500D01*
X14501Y-5000D01*
X15500Y-5000D01*
X16000Y-4500D01*
X17000Y-2500D02*
X17500Y-2001D01*
X18499Y-2001D01*
X18999Y-2500D01*
X18999Y-3000D01*
X18499Y-3500D01*
X18000Y-3500D01*
X18499Y-3500D01*
X18999Y-4000D01*
X18999Y-4500D01*
X18499Y-5000D01*
X17500Y-5000D01*
X17000Y-4500D01*
X14501Y8999D02*
X14501Y6500D01*
X15000Y6001D01*
X16000Y6001D01*
X16500Y6500D01*
X16500Y8999D01*
X17500Y6001D02*
X18499Y6001D01*
X18000Y6001D01*
X18000Y8999D01*
X17500Y8500D01*
X51751Y-20074D02*
X51751Y-17075D01*
X53251Y-17075D01*
X53751Y-17575D01*
X53751Y-18575D01*
X53251Y-19075D01*
X51751Y-19075D01*
X52751Y-19075D02*
X53751Y-20074D01*
X54750Y-20074D02*
X55750Y-20074D01*
X55250Y-20074D01*
X55250Y-17075D01*
X54750Y-17575D01*
X59249Y-20074D02*
X57249Y-20074D01*
X59249Y-18075D01*
X59249Y-17575D01*
X58749Y-17075D01*
X57749Y-17075D01*
X57249Y-17575D01*
X51751Y-38074D02*
X51751Y-35075D01*
X53251Y-35075D01*
X53751Y-35575D01*
X53751Y-36575D01*
X53251Y-37075D01*
X51751Y-37075D01*
X52751Y-37075D02*
X53751Y-38074D01*
X54750Y-38074D02*
X55750Y-38074D01*
X55250Y-38074D01*
X55250Y-35075D01*
X54750Y-35575D01*
X57249Y-35575D02*
X57749Y-35075D01*
X58749Y-35075D01*
X59249Y-35575D01*
X59249Y-36075D01*
X58749Y-36575D01*
X58249Y-36575D01*
X58749Y-36575D01*
X59249Y-37075D01*
X59249Y-37574D01*
X58749Y-38074D01*
X57749Y-38074D01*
X57249Y-37574D01*
X-76997Y23749D02*
X-74998Y23749D01*
X-75998Y23749D01*
X-75998Y20750D01*
X-73998Y20750D02*
X-73998Y23749D01*
X-72499Y23749D01*
X-71999Y23250D01*
X-71999Y22250D01*
X-72499Y21750D01*
X-73998Y21750D01*
X-70999Y20251D02*
X-69000Y20251D01*
X-68000Y23749D02*
X-68000Y20750D01*
X-66501Y20750D01*
X-66001Y21250D01*
X-66001Y23250D01*
X-66501Y23749D01*
X-68000Y23749D01*
X-65001Y23749D02*
X-65001Y20750D01*
X-63502Y20750D01*
X-63002Y21250D01*
X-63002Y21750D01*
X-63502Y22250D01*
X-65001Y22250D01*
X-63502Y22250D01*
X-63002Y22750D01*
X-63002Y23250D01*
X-63502Y23749D01*
X-65001Y23749D01*
X-60003Y23250D02*
X-60503Y23749D01*
X-61502Y23749D01*
X-62002Y23250D01*
X-62002Y21250D01*
X-61502Y20750D01*
X-60503Y20750D01*
X-60003Y21250D01*
X-60003Y22250D01*
X-61002Y22250D01*
X-122998Y-34251D02*
X-120998Y-34251D01*
X-121998Y-34251D01*
X-121998Y-37250D01*
X-119999Y-37250D02*
X-119999Y-34251D01*
X-118499Y-34251D01*
X-117999Y-34750D01*
X-117999Y-35750D01*
X-118499Y-36250D01*
X-119999Y-36250D01*
X-117000Y-37749D02*
X-115000Y-37749D01*
X-114001Y-34750D02*
X-113501Y-34251D01*
X-112501Y-34251D01*
X-112001Y-34750D01*
X-112001Y-35250D01*
X-112501Y-35750D01*
X-113001Y-35750D01*
X-112501Y-35750D01*
X-112001Y-36250D01*
X-112001Y-36750D01*
X-112501Y-37250D01*
X-113501Y-37250D01*
X-114001Y-36750D01*
X-111002Y-34251D02*
X-111002Y-36250D01*
X-110002Y-37250D01*
X-109002Y-36250D01*
X-109002Y-34251D01*
X36003Y-3251D02*
X38002Y-3251D01*
X37002Y-3251D01*
X37002Y-6250D01*
X39002Y-6250D02*
X39002Y-3251D01*
X40501Y-3251D01*
X41001Y-3750D01*
X41001Y-4750D01*
X40501Y-5250D01*
X39002Y-5250D01*
X42001Y-6749D02*
X44000Y-6749D01*
X45000Y-3251D02*
X45000Y-6250D01*
X46499Y-6250D01*
X46999Y-5750D01*
X46999Y-5250D01*
X46499Y-4750D01*
X45000Y-4750D01*
X46499Y-4750D01*
X46999Y-4250D01*
X46999Y-3750D01*
X46499Y-3251D01*
X45000Y-3251D01*
X47999Y-6250D02*
X47999Y-4250D01*
X48999Y-3251D01*
X49998Y-4250D01*
X49998Y-6250D01*
X49998Y-4750D01*
X47999Y-4750D01*
X50998Y-3251D02*
X52997Y-3251D01*
X51998Y-3251D01*
X51998Y-6250D01*
X-71997Y48749D02*
X-69998Y48749D01*
X-70998Y48749D01*
X-70998Y45750D01*
X-68998Y45750D02*
X-68998Y48749D01*
X-67499Y48749D01*
X-66999Y48250D01*
X-66999Y47250D01*
X-67499Y46750D01*
X-68998Y46750D01*
X-65999Y45251D02*
X-64000Y45251D01*
X-61001Y48250D02*
X-61501Y48749D01*
X-62500Y48749D01*
X-63000Y48250D01*
X-63000Y46250D01*
X-62500Y45750D01*
X-61501Y45750D01*
X-61001Y46250D01*
X-61001Y47250D01*
X-62001Y47250D01*
X-60001Y45750D02*
X-60001Y48749D01*
X-58002Y45750D01*
X-58002Y48749D01*
X-57002Y48749D02*
X-57002Y45750D01*
X-55503Y45750D01*
X-55003Y46250D01*
X-55003Y48250D01*
X-55503Y48749D01*
X-57002Y48749D01*
X-49998Y48749D02*
X-47998Y48749D01*
X-48998Y48749D01*
X-48998Y45750D01*
X-46999Y45750D02*
X-46999Y48749D01*
X-45499Y48749D01*
X-44999Y48250D01*
X-44999Y47250D01*
X-45499Y46750D01*
X-46999Y46750D01*
X-44000Y45251D02*
X-42000Y45251D01*
X-41001Y48749D02*
X-39001Y48749D01*
X-40001Y48749D01*
X-40001Y45750D01*
X-38002Y47750D02*
X-36002Y45750D01*
X-37002Y46750D01*
X-36002Y47750D01*
X-38002Y45750D01*
X58000Y-0D02*
X57500Y500D01*
X56501Y500D01*
X56001Y-0D01*
X56001Y-2000D01*
X56501Y-2499D01*
X57500Y-2499D01*
X58000Y-2000D01*
X60999Y500D02*
X59000Y500D01*
X59000Y-1000D01*
X60000Y-500D01*
X60499Y-500D01*
X60999Y-1000D01*
X60999Y-2000D01*
X60499Y-2499D01*
X59500Y-2499D01*
X59000Y-2000D01*
X70001Y36500D02*
X70001Y39500D01*
X71500Y39500D01*
X72000Y39000D01*
X72000Y38000D01*
X71500Y37500D01*
X70001Y37500D01*
X71000Y37500D02*
X72000Y36500D01*
X73000Y37000D02*
X73500Y36500D01*
X74499Y36500D01*
X74999Y37000D01*
X74999Y39000D01*
X74499Y39500D01*
X73500Y39500D01*
X73000Y39000D01*
X73000Y38500D01*
X73500Y38000D01*
X74999Y38000D01*
X47500Y33500D02*
X47000Y33999D01*
X46001Y33999D01*
X45501Y33500D01*
X45501Y31500D01*
X46001Y31001D01*
X47000Y31001D01*
X47500Y31500D01*
X48500Y31500D02*
X49000Y31001D01*
X49999Y31001D01*
X50499Y31500D01*
X50499Y33500D01*
X49999Y33999D01*
X49000Y33999D01*
X48500Y33500D01*
X48500Y33000D01*
X49000Y32500D01*
X50499Y32500D01*
X5501Y33000D02*
X5501Y30000D01*
X7001Y30000D01*
X7501Y30500D01*
X7501Y32500D01*
X7001Y33000D01*
X5501Y33000D01*
X10500Y30000D02*
X8500Y30000D01*
X10500Y32000D01*
X10500Y32500D01*
X10000Y33000D01*
X9000Y33000D01*
X8500Y32500D01*
X11499Y32500D02*
X11999Y33000D01*
X12999Y33000D01*
X13499Y32500D01*
X13499Y30500D01*
X12999Y30000D01*
X11999Y30000D01*
X11499Y30500D01*
X11499Y32500D01*
X16000Y42000D02*
X16000Y44000D01*
X15500Y44499D01*
X14501Y44499D01*
X14001Y44000D01*
X14001Y42000D01*
X14501Y41500D01*
X15500Y41500D01*
X15000Y42500D02*
X16000Y41500D01*
X15500Y41500D02*
X16000Y42000D01*
X18999Y41500D02*
X17000Y41500D01*
X18999Y43500D01*
X18999Y44000D01*
X18499Y44499D01*
X17500Y44499D01*
X17000Y44000D01*
X32751Y53000D02*
X32751Y55999D01*
X34251Y55999D01*
X34751Y55500D01*
X34751Y54500D01*
X34251Y54000D01*
X32751Y54000D01*
X33751Y54000D02*
X34751Y53000D01*
X35750Y53000D02*
X36750Y53000D01*
X36250Y53000D01*
X36250Y55999D01*
X35750Y55500D01*
X38249Y55500D02*
X38749Y55999D01*
X39749Y55999D01*
X40249Y55500D01*
X40249Y53500D01*
X39749Y53000D01*
X38749Y53000D01*
X38249Y53500D01*
X38249Y55500D01*
X49751Y51500D02*
X49751Y54500D01*
X51251Y54500D01*
X51750Y54000D01*
X51750Y53000D01*
X51251Y52500D01*
X49751Y52500D01*
X50751Y52500D02*
X51750Y51500D01*
X52750Y51500D02*
X53750Y51500D01*
X53250Y51500D01*
X53250Y54500D01*
X52750Y54000D01*
X55249Y51500D02*
X56249Y51500D01*
X55749Y51500D01*
X55749Y54500D01*
X55249Y54000D01*
X53251Y-26575D02*
X52751Y-26075D01*
X51751Y-26075D01*
X51251Y-26575D01*
X51251Y-28574D01*
X51751Y-29074D01*
X52751Y-29074D01*
X53251Y-28574D01*
X54250Y-29074D02*
X55250Y-29074D01*
X54750Y-29074D01*
X54750Y-26075D01*
X54250Y-26575D01*
X56749Y-26575D02*
X57249Y-26075D01*
X58249Y-26075D01*
X58749Y-26575D01*
X58749Y-28574D01*
X58249Y-29074D01*
X57249Y-29074D01*
X56749Y-28574D01*
X56749Y-26575D01*
X-65250Y8000D02*
X-65749Y8500D01*
X-66749Y8500D01*
X-67249Y8000D01*
X-67249Y6000D01*
X-66749Y5500D01*
X-65749Y5500D01*
X-65250Y6000D01*
X-64250Y5500D02*
X-63250Y5500D01*
X-63750Y5500D01*
X-63750Y8500D01*
X-64250Y8000D01*
X-61751Y5500D02*
X-60751Y5500D01*
X-61251Y5500D01*
X-61251Y8500D01*
X-61751Y8000D01*
X76901Y19399D02*
X76901Y16900D01*
X77401Y16400D01*
X78400Y16400D01*
X78900Y16900D01*
X78900Y19399D01*
X79900Y18900D02*
X80400Y19399D01*
X81399Y19399D01*
X81899Y18900D01*
X81899Y18400D01*
X81399Y17900D01*
X80900Y17900D01*
X81399Y17900D01*
X81899Y17400D01*
X81899Y16900D01*
X81399Y16400D01*
X80400Y16400D01*
X79900Y16900D01*
X34501Y-13500D02*
X34501Y-16000D01*
X35001Y-16499D01*
X36000Y-16499D01*
X36500Y-16000D01*
X36500Y-13500D01*
X38999Y-16499D02*
X38999Y-13500D01*
X37500Y-15000D01*
X39499Y-15000D01*
X18751Y-23500D02*
X18251Y-23000D01*
X17251Y-23000D01*
X16751Y-23500D01*
X16751Y-25500D01*
X17251Y-26000D01*
X18251Y-26000D01*
X18751Y-25500D01*
X19750Y-26000D02*
X20750Y-26000D01*
X20250Y-26000D01*
X20250Y-23000D01*
X19750Y-23500D01*
X24249Y-26000D02*
X22249Y-26000D01*
X24249Y-24000D01*
X24249Y-23500D01*
X23749Y-23000D01*
X22749Y-23000D01*
X22249Y-23500D01*
X36751Y-42500D02*
X36251Y-42000D01*
X35251Y-42000D01*
X34751Y-42500D01*
X34751Y-44500D01*
X35251Y-45000D01*
X36251Y-45000D01*
X36751Y-44500D01*
X37750Y-45000D02*
X38750Y-45000D01*
X38250Y-45000D01*
X38250Y-42000D01*
X37750Y-42500D01*
X40249Y-42500D02*
X40749Y-42000D01*
X41749Y-42000D01*
X42249Y-42500D01*
X42249Y-43000D01*
X41749Y-43500D01*
X41249Y-43500D01*
X41749Y-43500D01*
X42249Y-44000D01*
X42249Y-44500D01*
X41749Y-45000D01*
X40749Y-45000D01*
X40249Y-44500D01*
X10003Y-58751D02*
X12003Y-58751D01*
X11003Y-58751D01*
X11003Y-61750D01*
X13002Y-61750D02*
X13002Y-58751D01*
X14502Y-58751D01*
X15002Y-59250D01*
X15002Y-60250D01*
X14502Y-60750D01*
X13002Y-60750D01*
X16001Y-62249D02*
X18001Y-62249D01*
X19000Y-59250D02*
X19500Y-58751D01*
X20500Y-58751D01*
X21000Y-59250D01*
X21000Y-59750D01*
X20500Y-60250D01*
X20000Y-60250D01*
X20500Y-60250D01*
X21000Y-60750D01*
X21000Y-61250D01*
X20500Y-61750D01*
X19500Y-61750D01*
X19000Y-61250D01*
X21999Y-58751D02*
X21999Y-60750D01*
X22999Y-61750D01*
X23999Y-60750D01*
X23999Y-58751D01*
X26998Y-59250D02*
X26498Y-58751D01*
X25498Y-58751D01*
X24998Y-59250D01*
X24998Y-59750D01*
X25498Y-60250D01*
X26498Y-60250D01*
X26998Y-60750D01*
X26998Y-61250D01*
X26498Y-61750D01*
X25498Y-61750D01*
X24998Y-61250D01*
X27997Y-59750D02*
X27997Y-61250D01*
X28497Y-61750D01*
X28997Y-61250D01*
X29497Y-61750D01*
X29997Y-61250D01*
X29997Y-59750D01*
X39876Y-73877D02*
X41876Y-73877D01*
X40876Y-73877D01*
X40876Y-76876D01*
X42875Y-76876D02*
X42875Y-73877D01*
X44375Y-73877D01*
X44875Y-74376D01*
X44875Y-75376D01*
X44375Y-75876D01*
X42875Y-75876D01*
X45874Y-77375D02*
X47874Y-77375D01*
X48873Y-76876D02*
X48873Y-73877D01*
X50373Y-73877D01*
X50873Y-74376D01*
X50873Y-75376D01*
X50373Y-75876D01*
X48873Y-75876D01*
X49873Y-75876D02*
X50873Y-76876D01*
X51872Y-74876D02*
X53872Y-76876D01*
X52872Y-75876D01*
X53872Y-74876D01*
X51872Y-76876D01*
D14*
X-49250Y-11939D02*
X-49695Y-11016D01*
X-50694Y-10787D01*
X-51495Y-11427D01*
X-51495Y-12451D01*
X-50694Y-13091D01*
X-49695Y-12862D01*
X-49250Y-11939D01*
D15*
X34000Y18000D02*
X44000Y18000D01*
X34000Y18000D02*
X34000Y38000D01*
X44000Y38000D01*
X44000Y18000D02*
X44000Y38000D01*
X29213Y74378D02*
X30787Y74378D01*
X29213Y71622D02*
X30787Y71622D01*
X-54912Y38800D02*
X-51762Y38800D01*
X-64900Y0D02*
X-61100Y0D01*
X25600Y-24500D02*
X29400Y-24500D01*
X38000Y-39953D02*
X38000Y-34047D01*
X-49740Y32713D02*
X-49740Y34287D01*
X-46984Y32713D02*
X-46984Y34287D01*
X-73000Y-29900D02*
X-73000Y-26100D01*
X-73000Y-17400D02*
X-73000Y-13600D01*
X-73807Y-3353D02*
X-73807Y-1778D01*
X-76563Y-3353D02*
X-76563Y-1778D01*
X-69407Y-3353D02*
X-69407Y-1778D01*
X-72163Y-3353D02*
X-72163Y-1778D01*
X-21941Y-51091D02*
X-21941Y-49909D01*
X-31784Y-50992D02*
X-31784Y-49811D01*
X-73000Y-24400D02*
X-73000Y-20600D01*
X49055Y-96595D02*
X49055Y-94615D01*
X49055Y-83734D02*
X49055Y-81634D01*
X46555Y-89114D02*
X51555Y-89114D01*
X76622Y86213D02*
X76622Y87787D01*
X79378Y86213D02*
X79378Y87787D01*
X-39900Y-49500D02*
X-36100Y-49500D01*
X67100Y87000D02*
X70900Y87000D01*
X56213Y63622D02*
X57787Y63622D01*
X56213Y66378D02*
X57787Y66378D01*
X6713Y72122D02*
X8287Y72122D01*
X6713Y74878D02*
X8287Y74878D01*
X26431Y17045D02*
X26431Y22951D01*
X27000Y-6953D02*
X27000Y-1047D01*
X54213Y-21697D02*
X55787Y-21697D01*
X54213Y-24453D02*
X55787Y-24453D01*
X54213Y-39697D02*
X55787Y-39697D01*
X54213Y-42453D02*
X55787Y-42453D01*
X59055Y-10827D02*
X59055Y-4921D01*
X63413Y39278D02*
X64987Y39278D01*
X63413Y36522D02*
X64987Y36522D01*
X45247Y23500D02*
X51153Y23500D01*
X25713Y55878D02*
X27287Y55878D01*
X25713Y53122D02*
X27287Y53122D01*
X50747Y43000D02*
X56653Y43000D01*
X55000Y-33975D02*
X55000Y-30175D01*
D16*
X-158653Y83978D02*
X-158653Y95002D01*
X-163501Y84007D02*
X-163501Y95030D01*
X-163501Y86490D02*
X-158653Y86490D01*
X-158653Y31478D02*
X-158653Y42502D01*
X-163501Y31507D02*
X-163501Y42530D01*
X-163501Y33990D02*
X-158653Y33990D01*
X-159653Y-21022D02*
X-159653Y-9998D01*
X-164501Y-20993D02*
X-164501Y-9970D01*
X-164501Y-18510D02*
X-159653Y-18510D01*
X49429Y64618D02*
X49429Y68161D01*
X46279Y64618D02*
X49429Y64618D01*
X37618Y64618D02*
X37618Y68161D01*
X37618Y64618D02*
X40768Y64618D01*
X31398Y-25484D02*
X43602Y-25484D01*
X31398Y-23516D02*
X43602Y-23516D01*
X31398Y-25484D02*
X31398Y-23516D01*
X43602Y-25484D02*
X43602Y-23516D01*
X16106Y65905D02*
X19256Y65905D01*
X19256Y62756D02*
X19256Y65905D01*
X16106Y54094D02*
X19256Y54094D01*
X19256Y57244D01*
X26606Y13905D02*
X29756Y13905D01*
X29756Y10756D02*
X29756Y13905D01*
X26606Y2094D02*
X29756Y2094D01*
X29756Y5244D01*
X26213Y49406D02*
X29756Y49406D01*
X29756Y46256D02*
X29756Y49406D01*
X26213Y37595D02*
X29756Y37595D01*
X29756Y40744D01*
X-161153Y-74022D02*
X-161153Y-62998D01*
X-166001Y-73993D02*
X-166001Y-62970D01*
X-166001Y-71510D02*
X-161153Y-71510D01*
X-107153Y83478D02*
X-107153Y94502D01*
X-112001Y83507D02*
X-112001Y94530D01*
X-112001Y85990D02*
X-107153Y85990D01*
X-107653Y31978D02*
X-107653Y43002D01*
X-112501Y32007D02*
X-112501Y43030D01*
X-112501Y34490D02*
X-107653Y34490D01*
X-108153Y-21522D02*
X-108153Y-10498D01*
X-113001Y-21493D02*
X-113001Y-10470D01*
X-113001Y-19010D02*
X-108153Y-19010D01*
X-116153Y-74522D02*
X-116153Y-63498D01*
X-121001Y-74493D02*
X-121001Y-63470D01*
X-121001Y-72010D02*
X-116153Y-72010D01*
X-95153Y83478D02*
X-95153Y94502D01*
X-100001Y83507D02*
X-100001Y94530D01*
X-100001Y85990D02*
X-95153Y85990D01*
X-98153Y31978D02*
X-98153Y43002D01*
X-103001Y32007D02*
X-103001Y43030D01*
X-103001Y34490D02*
X-98153Y34490D01*
X-97153Y-21522D02*
X-97153Y-10498D01*
X-102001Y-21493D02*
X-102001Y-10470D01*
X-102001Y-19010D02*
X-97153Y-19010D01*
X-107653Y-74522D02*
X-107653Y-63498D01*
X-112501Y-74493D02*
X-112501Y-63470D01*
X-112501Y-72010D02*
X-107653Y-72010D01*
X-51653Y83478D02*
X-51653Y94502D01*
X-56501Y83507D02*
X-56501Y94530D01*
X-56501Y85990D02*
X-51653Y85990D01*
X-91653Y31978D02*
X-91653Y43002D01*
X-96501Y32007D02*
X-96501Y43030D01*
X-96501Y34490D02*
X-91653Y34490D01*
X-87653Y-21522D02*
X-87653Y-10498D01*
X-92501Y-21493D02*
X-92501Y-10470D01*
X-92501Y-19010D02*
X-87653Y-19010D01*
X-99653Y-74522D02*
X-99653Y-63498D01*
X-104501Y-74493D02*
X-104501Y-63470D01*
X-104501Y-72010D02*
X-99653Y-72010D01*
X74787Y75691D02*
X74787Y71755D01*
X76755Y69787D01*
X78723Y71755D01*
X78723Y75691D01*
X80691Y72739D02*
X84627Y72739D01*
X82659Y74707D02*
X82659Y70771D01*
X75287Y67691D02*
X75287Y61787D01*
X78239Y61787D01*
X79223Y62771D01*
X79223Y66707D01*
X78239Y67691D01*
X75287Y67691D01*
D17*
X54351Y22143D02*
X55532Y22143D01*
X54351Y15057D02*
X55532Y15057D01*
X72855Y22143D02*
X74036Y22143D01*
X72855Y15057D02*
X74036Y15057D01*
X54351Y15057D02*
X54351Y22143D01*
X74036Y15057D02*
X74036Y22143D01*
D18*
X-137700Y-8801D02*
X-138700Y-8801D01*
X-139200Y-9301D01*
X-139200Y-11300D01*
X-138700Y-11800D01*
X-137700Y-11800D01*
X-137201Y-11300D01*
X-137201Y-9301D01*
X-137700Y-8801D01*
X-134202Y-9301D02*
X-134701Y-8801D01*
X-135701Y-8801D01*
X-136201Y-9301D01*
X-136201Y-9801D01*
X-135701Y-10300D01*
X-134701Y-10300D01*
X-134202Y-10800D01*
X-134202Y-11300D01*
X-134701Y-11800D01*
X-135701Y-11800D01*
X-136201Y-11300D01*
X-133202Y-8801D02*
X-133202Y-11800D01*
X-133202Y-10300D01*
X-131203Y-10300D01*
X-131203Y-8801D01*
X-131203Y-11800D01*
X-130203Y-8801D02*
X-130203Y-11800D01*
X-129203Y-10800D01*
X-128204Y-11800D01*
X-128204Y-8801D01*
M02*
