G04*
G04 #@! TF.GenerationSoftware,Altium Limited,Altium Designer,25.8.1 (18)*
G04*
G04 Layer_Color=8388736*
%FSLAX25Y25*%
%MOIN*%
G70*
G04*
G04 #@! TF.SameCoordinates,938AAF5A-3C05-41E3-841C-15E9F8BEC9A4*
G04*
G04*
G04 #@! TF.FilePolarity,Negative*
G04*
G01*
G75*
%ADD38R,0.05603X0.04383*%
%ADD39R,0.04343X0.04343*%
%ADD40R,0.03556X0.04343*%
%ADD41R,0.03162X0.05328*%
%ADD42R,0.05524X0.03800*%
%ADD43R,0.03950X0.03162*%
%ADD44R,0.04343X0.03950*%
%ADD45O,0.03162X0.09461*%
%ADD46R,0.13792X0.07887*%
%ADD47R,0.03359X0.05131*%
%ADD48R,0.05918X0.06706*%
%ADD49R,0.04343X0.03556*%
%ADD50R,0.03950X0.04343*%
%ADD51R,0.05524X0.06312*%
%ADD52O,0.09068X0.01981*%
%ADD53O,0.01981X0.09068*%
%ADD54R,0.06509X0.03162*%
%ADD55R,0.06706X0.05918*%
%ADD56R,0.05328X0.03162*%
%ADD57R,0.06706X0.06706*%
%ADD58C,0.06706*%
%ADD59C,0.06312*%
%ADD60R,0.05524X0.05524*%
%ADD61C,0.05524*%
%ADD62O,0.03241X0.03950*%
%ADD63O,0.04737X0.10642*%
%ADD64O,0.04737X0.07887*%
%ADD65R,0.04580X0.04580*%
%ADD66C,0.04580*%
%ADD67C,0.04737*%
%ADD68R,0.06706X0.06706*%
D38*
X17543Y31500D02*
D03*
X30457Y31500D02*
D03*
D39*
X-161015Y94805D02*
D03*
X-161015Y84175D02*
D03*
X-161015Y42305D02*
D03*
X-161015Y31675D02*
D03*
X-162015Y-10195D02*
D03*
X-162015Y-20825D02*
D03*
X-163515Y-63195D02*
D03*
X-163515Y-73825D02*
D03*
X-109515Y94305D02*
D03*
X-109515Y83675D02*
D03*
X-110015Y42805D02*
D03*
X-110015Y32175D02*
D03*
X-110515Y-10695D02*
D03*
X-110515Y-21325D02*
D03*
X-118515Y-63695D02*
D03*
X-118515Y-74325D02*
D03*
X-97515Y94305D02*
D03*
X-97515Y83675D02*
D03*
X-100515Y42805D02*
D03*
X-100515Y32175D02*
D03*
X-99515Y-10695D02*
D03*
X-99515Y-21325D02*
D03*
X-110015Y-63695D02*
D03*
X-110015Y-74325D02*
D03*
X-54015Y94305D02*
D03*
X-54015Y83675D02*
D03*
X-94015Y42805D02*
D03*
X-94015Y32175D02*
D03*
X-90015Y-10695D02*
D03*
X-90015Y-21325D02*
D03*
X-102015Y-63695D02*
D03*
X-102015Y-74325D02*
D03*
D40*
X27047Y73000D02*
D03*
X32953Y73000D02*
D03*
X59953Y65000D02*
D03*
X54047Y65000D02*
D03*
X10453Y73500D02*
D03*
X4547Y73500D02*
D03*
X52047Y-23075D02*
D03*
X57953Y-23075D02*
D03*
X52047Y-41075D02*
D03*
X57953Y-41075D02*
D03*
X67153Y37900D02*
D03*
X61247Y37900D02*
D03*
X23547Y54500D02*
D03*
X29453Y54500D02*
D03*
D41*
X43524Y62945D02*
D03*
X47264Y71803D02*
D03*
X39783Y71803D02*
D03*
D42*
X-62598Y-74311D02*
D03*
X-62598Y-59547D02*
D03*
X-87008Y-59547D02*
D03*
X-87008Y-74311D02*
D03*
D43*
X-53362Y36354D02*
D03*
X-53362Y30646D02*
D03*
D44*
X-63000Y-2756D02*
D03*
X-63000Y2756D02*
D03*
X27500Y-21744D02*
D03*
X27500Y-27256D02*
D03*
X-38000Y-46744D02*
D03*
X-38000Y-52256D02*
D03*
X69000Y89756D02*
D03*
X69000Y84244D02*
D03*
D45*
X56694Y9151D02*
D03*
X61694Y9151D02*
D03*
X66694Y9151D02*
D03*
X71694Y9151D02*
D03*
X56694Y28049D02*
D03*
X66694Y28049D02*
D03*
X61694Y28049D02*
D03*
X71694Y28049D02*
D03*
D46*
X63800Y18600D02*
D03*
D47*
X41240Y-29224D02*
D03*
X33760Y-29224D02*
D03*
X33760Y-19776D02*
D03*
X41240Y-19776D02*
D03*
X37500Y-19776D02*
D03*
D48*
X41740Y-37000D02*
D03*
X34260Y-37000D02*
D03*
X30171Y19998D02*
D03*
X22691Y19998D02*
D03*
X23260Y-4000D02*
D03*
X30740Y-4000D02*
D03*
X55315Y-7874D02*
D03*
X62795Y-7874D02*
D03*
D49*
X-48362Y30547D02*
D03*
X-48362Y36453D02*
D03*
X-75185Y-5518D02*
D03*
X-75185Y388D02*
D03*
X-70785Y-5518D02*
D03*
X-70785Y388D02*
D03*
X78000Y84047D02*
D03*
X78000Y89953D02*
D03*
D50*
X-70244Y-28000D02*
D03*
X-75756Y-28000D02*
D03*
X-70244Y-15500D02*
D03*
X-75756Y-15500D02*
D03*
X-70244Y-22500D02*
D03*
X-75756Y-22500D02*
D03*
X52244Y-32075D02*
D03*
X57756Y-32075D02*
D03*
D51*
X-23713Y-54831D02*
D03*
X-30012Y-46169D02*
D03*
X-30012Y-54831D02*
D03*
X-23713Y-46169D02*
D03*
D52*
X-60077Y-11545D02*
D03*
X-60077Y-13514D02*
D03*
X-60077Y-15482D02*
D03*
X-60077Y-17451D02*
D03*
X-60077Y-19419D02*
D03*
X-60077Y-21388D02*
D03*
X-27793Y-29262D02*
D03*
X-27793Y-27293D02*
D03*
X-27793Y-25325D02*
D03*
X-27793Y-23356D02*
D03*
X-27793Y-21388D02*
D03*
X-27793Y-19419D02*
D03*
X-27793Y-17451D02*
D03*
X-27793Y-15482D02*
D03*
X-27793Y-13514D02*
D03*
X-27793Y-11545D02*
D03*
X-27793Y-9577D02*
D03*
X-27793Y-7608D02*
D03*
X-60077Y-25325D02*
D03*
X-60077Y-23356D02*
D03*
X-60077Y-7608D02*
D03*
X-60077Y-29262D02*
D03*
X-60077Y-9577D02*
D03*
X-60077Y-27293D02*
D03*
D53*
X-54762Y-34577D02*
D03*
X-52793Y-34577D02*
D03*
X-50825Y-34577D02*
D03*
X-48856Y-34577D02*
D03*
X-46888Y-34577D02*
D03*
X-44919Y-34577D02*
D03*
X-42951Y-34577D02*
D03*
X-40982Y-34577D02*
D03*
X-39014Y-34577D02*
D03*
X-33108Y-34577D02*
D03*
X-33108Y-2293D02*
D03*
X-35077Y-2293D02*
D03*
X-37045Y-2293D02*
D03*
X-39014Y-2293D02*
D03*
X-40982Y-2293D02*
D03*
X-42951Y-2293D02*
D03*
X-44919Y-2293D02*
D03*
X-46888Y-2293D02*
D03*
X-48856Y-2293D02*
D03*
X-50825Y-2293D02*
D03*
X-52793Y-2293D02*
D03*
X-54762Y-2293D02*
D03*
X-37045Y-34577D02*
D03*
X-35077Y-34577D02*
D03*
D54*
X11874Y63740D02*
D03*
X21126Y60000D02*
D03*
X11874Y56260D02*
D03*
X31626Y8000D02*
D03*
X22374Y4260D02*
D03*
X22374Y11740D02*
D03*
D55*
X48200Y27240D02*
D03*
X48200Y19760D02*
D03*
X53700Y39260D02*
D03*
X53700Y46740D02*
D03*
D56*
X22571Y47240D02*
D03*
X22571Y39760D02*
D03*
X31429Y43500D02*
D03*
D57*
X39000Y33000D02*
D03*
D58*
X39000Y23000D02*
D03*
X0Y-55000D02*
D03*
X0Y-45000D02*
D03*
X0Y-35000D02*
D03*
X0Y-25000D02*
D03*
X0Y-15000D02*
D03*
X0Y-5000D02*
D03*
X0Y5000D02*
D03*
X0Y15000D02*
D03*
X0Y25000D02*
D03*
X0Y35000D02*
D03*
X0Y45000D02*
D03*
X0Y55000D02*
D03*
X0Y65000D02*
D03*
D59*
X10000Y-35000D02*
D03*
X-10000Y5000D02*
D03*
X-10000Y65000D02*
D03*
X10000Y-25000D02*
D03*
X10000Y-45000D02*
D03*
X-10000Y25000D02*
D03*
X-10000Y35000D02*
D03*
X-10000Y55000D02*
D03*
X-10000Y45000D02*
D03*
X47000Y4000D02*
D03*
X36000Y-60500D02*
D03*
X-98943Y-34500D02*
D03*
X-53000Y23500D02*
D03*
X-62992Y55118D02*
D03*
X-43307Y55118D02*
D03*
D60*
X69606Y72874D02*
D03*
X70000Y-15000D02*
D03*
X69606Y-52126D02*
D03*
D61*
X69606Y65000D02*
D03*
X46500Y-67500D02*
D03*
X70000Y-22874D02*
D03*
X69606Y-67874D02*
D03*
X69606Y-60000D02*
D03*
D62*
X31594Y82362D02*
D03*
X55020Y82362D02*
D03*
X55020Y87676D02*
D03*
X31594Y87676D02*
D03*
X38287Y82362D02*
D03*
X34941Y87676D02*
D03*
X38287Y87676D02*
D03*
X41634Y87676D02*
D03*
X44980Y87676D02*
D03*
X48327Y87676D02*
D03*
X51673Y87676D02*
D03*
X51673Y82362D02*
D03*
X48327Y82362D02*
D03*
X44980Y82362D02*
D03*
X41634Y82362D02*
D03*
X34941Y82362D02*
D03*
D63*
X26279Y86220D02*
D03*
X60335Y86220D02*
D03*
D64*
X26279Y99527D02*
D03*
X60335Y99527D02*
D03*
D65*
X59055Y-86614D02*
D03*
D66*
X54055Y-86614D02*
D03*
X49055Y-86614D02*
D03*
X39055Y-86614D02*
D03*
X39055Y-91614D02*
D03*
X44055Y-91614D02*
D03*
X49055Y-91614D02*
D03*
X54055Y-91614D02*
D03*
X59055Y-91614D02*
D03*
D67*
X34055Y-89114D02*
D03*
X64055Y-89114D02*
D03*
D68*
X0Y-65000D02*
D03*
M02*
