M48
;Layer_Color=9474304
;FILE_FORMAT=2:5
INCH,TZ
;TYPE=PLATED
T01F00S00C0.01181
T02F00S00C0.01575
T03F00S00C0.01968
T04F00S00C0.02362
T06F00S00C0.02756
T07F00S00C0.03150
T08F00S00C0.03543
%
T01
X-183071Y-80709
X-182370Y-52000
X-166181Y-52500
X-166805Y-63195
X-136500Y-52500
X-115000
X-102000Y-60500
X-95500Y-69000
X-92000Y-68500
Y-54000
X-79134Y-53543
X-79862Y-38000
X-79362Y-28000
Y-22500
Y-15500
X-91000Y-16000
X-98500Y-15500
X-99000Y-6500
X-94500Y-8659
X-91000Y-3425
X-94500Y5500
X-93988Y19500
Y28346
X-97500Y32000
X-108000Y24500
X-129500Y24000
X-130000Y3000
X-110000
X-114209Y-10709
X-104670Y-20825
X-106693Y-24803
X-92000Y-26500
X-91339Y-30315
X-94882Y-39370
X-98819Y-81102
X-75787Y-82677
X-76378Y-68504
X-125500Y-64000
X-131890Y-80709
X-129528Y-25197
X-165209Y-10709
X-180709Y-25197
X-165354Y19685
X-81370Y19500
Y29000
X-82116Y8745
X-65362Y10000
Y16535
Y24000
X-66500Y-5500
X-59000Y-3937
X-49500Y-8000
X-52370Y-19500
X-38370Y-22000
X-36870Y-24500
X-34370
X-30500Y-32500
X-24000
X-23862Y-41000
X-10862Y-40500
X-11362Y-54000
X-13362Y-60500
X-8000Y-65669
X-5000Y-71925
X8500Y-60500
X23000Y-49000
X36000
X47000Y-49500
X54000Y-47500
X52000Y-36575
X61500Y-32075
Y-41075
X55118Y-64961
X56000Y-76500
X52000Y-79500
X70500Y-76500
X36849Y-69151
X23000Y-88000
X47500Y-101500
X-18110Y-86614
X-28000Y-79500
Y-65000
X-30000Y-60500
X-23862Y-61000
X-34362Y-55500
X-38500
X-40500Y-71500
X-48500Y-79075
X-58000Y-82500
X-64500Y-67500
X-65000Y-52500
X-56500Y-49000
X-64000Y-39500
X-59735Y-32885
X-66370Y-28000
X-53000Y5500
X-42000Y3500
X-41500Y8500
X-43500Y12500
X-27500Y11500
X-27559Y3543
X-31890Y3150
X-30500Y-5000
X-22441Y-394
X-10862Y-1500
X-8500Y-5000
X-9000Y-18000
Y-21000
X-7000Y-24000
X-16000Y-19526
X-21297Y-15526
X7000Y-20000
X27500Y-18000
X34000Y-24500
X37500
X41000
X29000Y-37500
X31000Y1000
X17000Y12000
X23500Y25500
X7000Y33000
X-5000Y30000
X-7500Y17000
X-10500Y12075
X-15000Y20000
X-21500Y20500
X-30783Y19783
X-36000Y32000
X45276Y33465
X49213
X55118Y21654
X59055Y20079
Y17323
X55118Y15748
X51181Y13780
Y9843
X45276Y13780
X68504Y17323
Y20079
X72835Y21654
X76772Y19685
Y23622
Y27559
Y31496
Y15748
X72835
X76772Y11811
Y7874
X72000Y3500
X69000Y-8000
X82500Y-86500
X82000Y84000
X77862Y95000
X69000Y80000
X47024Y75874
X39931Y75282
X40000Y63000
X47500Y63500
X59500Y60000
X62500Y51500
X61500Y42000
X54000Y35500
X71500
X36000Y49500
X12000Y49000
X10000Y45000
Y40000
X-29000Y40500
X-26283Y35783
X-30000Y50000
X-35000
X-28575Y62902
X-29500Y65925
X-30362Y84000
X-18000
X-10000Y70000
X22000Y74000
X-47500Y70075
X-62425
X-65518Y70518
X-75195Y94305
X-46695
X-42500Y84500
X-48500Y42085
X-65362Y36220
X-81370Y37500
X-81589Y42809
X-81370Y49000
X-81793Y56000
X-90500Y56500
X-99075Y57500
X-97000Y46000
X-113709Y41791
X-131000Y53500
X-130000Y76500
X-114209Y94291
X-82500Y83500
X-163000Y78500
X-165209Y94291
X-169291Y55118
X-165209Y41791
X-165000Y38500
T02
X31594Y82362
X34941
X38287
X41634
X44980
X48327
X51673
X55020
Y87676
X51673
X48327
X44980
X41634
X38287
X34941
X31594
T03
X15500Y-8000
T04
X39055Y-91614
Y-86614
X49055
X54055
X59055
Y-91614
X54055
X49055
X44055
T06
X34055Y-89114
X64055
X46500Y-67500
T07
X69606Y-67874
Y-60000
Y-52126
X70000Y-22874
Y-15000
X69606Y65000
Y72874
T08
X-98943Y-34500
X0Y-35000
X10000
Y-25000
X0
Y-15000
Y-5000
Y5000
X-10000
Y25000
X0
Y15000
X39000Y23000
Y33000
X47000Y4000
X63800Y18600
X36000Y-60500
X0Y-65000
Y-55000
Y-45000
X10000
X-53000Y23500
X-43307Y55118
X-62992
X-10000Y55000
Y65000
X0
Y55000
Y45000
X-10000
Y35000
X0
M30
