G04*
G04 #@! TF.GenerationSoftware,Altium Limited,Altium Designer,25.8.1 (18)*
G04*
G04 Layer_Physical_Order=1*
G04 Layer_Color=255*
%FSLAX25Y25*%
%MOIN*%
G70*
G04*
G04 #@! TF.SameCoordinates,6D970350-AD33-4A12-9F58-B6E33CBD9266*
G04*
G04*
G04 #@! TF.FilePolarity,Positive*
G04*
G01*
G75*
%ADD17R,0.04724X0.04724*%
%ADD18C,0.04724*%
%ADD19C,0.06200*%
G36*
X67276Y-14126D02*
X-67276Y-14126D01*
X-67276Y14126D01*
X67276Y14126D01*
X67276Y-14126D01*
X67276Y-14126D02*
G37*
%LPC*%
G36*
X-42767Y9100D02*
X-42807Y9100D01*
X-42807Y5500D01*
X-39207Y5500D01*
X-39207Y5540D01*
X-39487Y6583D01*
X-40026Y7518D01*
X-40790Y8281D01*
X-41725Y8821D01*
X-42767Y9100D01*
X-42767Y9100D02*
G37*
G36*
X-43807Y9100D02*
X-43847Y9100D01*
X-44890Y8821D01*
X-45825Y8281D01*
X-46588Y7518D01*
X-47128Y6583D01*
X-47407Y5540D01*
X-47407Y5500D01*
X-43807Y5500D01*
X-43807Y9100D01*
X-43807Y9100D02*
G37*
G36*
X43847Y9100D02*
X43807Y9100D01*
X43807Y5500D01*
X47407Y5500D01*
X47407Y5540D01*
X47128Y6583D01*
X46588Y7518D01*
X45825Y8281D01*
X44890Y8821D01*
X43847Y9100D01*
X43847Y9100D02*
G37*
G36*
X42807Y9100D02*
X42767Y9100D01*
X41725Y8821D01*
X40790Y8281D01*
X40026Y7518D01*
X39487Y6583D01*
X39207Y5540D01*
X39207Y5500D01*
X42807Y5500D01*
X42807Y9100D01*
X42807Y9100D02*
G37*
G36*
X-57661Y7299D02*
X-60524Y7299D01*
X-60524Y4437D01*
X-57661Y4437D01*
X-57661Y7299D01*
X-57661Y7299D02*
G37*
G36*
X-61524Y7299D02*
X-64386Y7299D01*
X-64386Y4437D01*
X-61524Y4437D01*
X-61524Y7299D01*
X-61524Y7299D02*
G37*
G36*
X47407Y4500D02*
X43807Y4500D01*
X43807Y900D01*
X43847Y900D01*
X44890Y1179D01*
X45825Y1719D01*
X46588Y2482D01*
X47128Y3418D01*
X47407Y4460D01*
X47407Y4500D01*
X47407Y4500D02*
G37*
G36*
X42807Y4500D02*
X39207Y4500D01*
X39207Y4460D01*
X39487Y3418D01*
X40026Y2482D01*
X40790Y1719D01*
X41725Y1179D01*
X42767Y900D01*
X42807Y900D01*
X42807Y4500D01*
X42807Y4500D02*
G37*
G36*
X-39207Y4500D02*
X-42807Y4500D01*
X-42807Y900D01*
X-42767Y900D01*
X-41725Y1179D01*
X-40790Y1719D01*
X-40026Y2482D01*
X-39487Y3418D01*
X-39207Y4460D01*
X-39207Y4500D01*
X-39207Y4500D02*
G37*
G36*
X-43807Y4500D02*
X-47407Y4500D01*
X-47407Y4460D01*
X-47128Y3418D01*
X-46588Y2482D01*
X-45825Y1719D01*
X-44890Y1179D01*
X-43847Y900D01*
X-43807Y900D01*
X-43807Y4500D01*
X-43807Y4500D02*
G37*
G36*
X-57661Y3437D02*
X-60524Y3437D01*
X-60524Y575D01*
X-57661Y575D01*
X-57661Y3437D01*
X-57661Y3437D02*
G37*
G36*
X-61524Y3437D02*
X-64386Y3437D01*
X-64386Y575D01*
X-61524Y575D01*
X-61524Y3437D01*
X-61524Y3437D02*
G37*
G36*
X680Y6905D02*
X-680Y6905D01*
X-2014Y6640D01*
X-3271Y6120D01*
X-4402Y5364D01*
X-5364Y4402D01*
X-6120Y3271D01*
X-6640Y2014D01*
X-6905Y680D01*
X-6905Y-680D01*
X-6640Y-2014D01*
X-6120Y-3271D01*
X-5364Y-4402D01*
X-4402Y-5364D01*
X-3271Y-6120D01*
X-2014Y-6640D01*
X-680Y-6905D01*
X680Y-6905D01*
X2014Y-6640D01*
X3271Y-6120D01*
X4402Y-5364D01*
X5364Y-4402D01*
X6120Y-3271D01*
X6640Y-2014D01*
X6905Y-680D01*
X6905Y680D01*
X6640Y2014D01*
X6120Y3271D01*
X5364Y4402D01*
X4402Y5364D01*
X3271Y6120D01*
X2014Y6640D01*
X680Y6905D01*
X680Y6905D02*
G37*
G36*
X-60581Y-575D02*
X-61466Y-575D01*
X-62321Y-804D01*
X-63088Y-1247D01*
X-63714Y-1873D01*
X-64157Y-2639D01*
X-64386Y-3494D01*
X-64386Y-4380D01*
X-64157Y-5235D01*
X-63714Y-6001D01*
X-63088Y-6627D01*
X-62321Y-7070D01*
X-61466Y-7299D01*
X-60581Y-7299D01*
X-59726Y-7070D01*
X-58959Y-6627D01*
X-58333Y-6001D01*
X-57890Y-5235D01*
X-57661Y-4380D01*
X-57661Y-3494D01*
X-57890Y-2639D01*
X-58333Y-1873D01*
X-58959Y-1247D01*
X-59726Y-804D01*
X-60581Y-575D01*
X-60581Y-575D02*
G37*
G36*
X43847Y-900D02*
X42767Y-900D01*
X41725Y-1179D01*
X40790Y-1719D01*
X40026Y-2482D01*
X39487Y-3418D01*
X39207Y-4460D01*
X39207Y-5540D01*
X39487Y-6583D01*
X40026Y-7518D01*
X40790Y-8281D01*
X41725Y-8821D01*
X42767Y-9100D01*
X43847Y-9100D01*
X44890Y-8821D01*
X45825Y-8281D01*
X46588Y-7518D01*
X47128Y-6583D01*
X47407Y-5540D01*
X47407Y-4460D01*
X47128Y-3418D01*
X46588Y-2482D01*
X45825Y-1719D01*
X44890Y-1179D01*
X43847Y-900D01*
X43847Y-900D02*
G37*
G36*
X-42767Y-900D02*
X-43847Y-900D01*
X-44890Y-1179D01*
X-45825Y-1719D01*
X-46588Y-2482D01*
X-47128Y-3418D01*
X-47407Y-4460D01*
X-47407Y-5540D01*
X-47128Y-6583D01*
X-46588Y-7518D01*
X-45825Y-8281D01*
X-44890Y-8821D01*
X-43847Y-9100D01*
X-42767Y-9100D01*
X-41725Y-8821D01*
X-40790Y-8281D01*
X-40026Y-7518D01*
X-39487Y-6583D01*
X-39207Y-5540D01*
X-39207Y-4460D01*
X-39487Y-3418D01*
X-40026Y-2482D01*
X-40790Y-1719D01*
X-41725Y-1179D01*
X-42767Y-900D01*
X-42767Y-900D02*
G37*
%LPD*%
D17*
X-61024Y3937D02*
D03*
D18*
X-61024Y-3937D02*
D03*
D19*
X43307Y5000D02*
D03*
X43307Y-5000D02*
D03*
X-43307Y5000D02*
D03*
X-43307Y-5000D02*
D03*
M02*
