G04*
G04 #@! TF.GenerationSoftware,Altium Limited,Altium Designer,25.8.1 (18)*
G04*
G04 Layer_Color=32896*
%FSLAX25Y25*%
%MOIN*%
G70*
G04*
G04 #@! TF.SameCoordinates,6D970350-AD33-4A12-9F58-B6E33CBD9266*
G04*
G04*
G04 #@! TF.FilePolarity,Positive*
G04*
G01*
G75*
%ADD12C,0.00500*%
%ADD23C,0.00787*%
%ADD24C,0.00394*%
D12*
X-43307Y13310D02*
X-42307Y13310D01*
X-42807Y13310D01*
X-42807Y10811D01*
X-42307Y10311D01*
X-41808Y10311D01*
X-41308Y10811D01*
X-44307Y10311D02*
X-45307Y10311D01*
X-44807Y10311D01*
X-44807Y13310D01*
X-44307Y12811D01*
X25191Y935D02*
X25191Y3934D01*
X23691Y3934D01*
X23191Y3434D01*
X23191Y2434D01*
X23691Y1934D01*
X25191Y1934D01*
X24191Y1934D02*
X23191Y935D01*
X22192Y935D02*
X21192Y935D01*
X21692Y935D01*
X21692Y3934D01*
X22192Y3434D01*
X-25009Y935D02*
X-25009Y3934D01*
X-26509Y3934D01*
X-27009Y3434D01*
X-27009Y2434D01*
X-26509Y1934D01*
X-25009Y1934D01*
X-26009Y1934D02*
X-27009Y935D01*
X-30008Y935D02*
X-28008Y935D01*
X-30008Y2934D01*
X-30008Y3434D01*
X-29508Y3934D01*
X-28508Y3934D01*
X-28008Y3434D01*
D23*
X-68110Y-11811D02*
X-50000Y-11811D01*
X-68110Y-11811D02*
X-68110Y11811D01*
X-50000Y11811D01*
X-50000Y-11811D02*
X-50000Y11811D01*
D24*
X24803Y-2559D02*
X26378Y-2559D01*
X24803Y-5315D02*
X26378Y-5315D01*
X-26378Y-5315D02*
X-24803Y-5315D01*
X-26378Y-2559D02*
X-24803Y-2559D01*
M02*
