G04*
G04 #@! TF.GenerationSoftware,Altium Limited,Altium Designer,25.8.1 (18)*
G04*
G04 Layer_Color=65535*
%FSLAX25Y25*%
%MOIN*%
G70*
G04*
G04 #@! TF.SameCoordinates,975DA3B7-34EA-4549-B874-C5DC3664A566*
G04*
G04*
G04 #@! TF.FilePolarity,Positive*
G04*
G01*
G75*
%ADD10C,0.00800*%
%ADD11C,0.01181*%
%ADD12C,0.00500*%
D10*
X50378Y-7071D02*
X51050Y-6328D01*
X51645Y-5521D01*
X52156Y-4659D01*
X52578Y-3749D01*
X52906Y-2803D01*
X53139Y-1828D01*
X53272Y-835D01*
X53306Y167D01*
X53239Y1167D01*
X53072Y2155D01*
X52807Y3122D01*
X52447Y4057D01*
X51995Y4952D01*
X51456Y5796D01*
X50835Y6583D01*
X50138Y7303D01*
X49373Y7950D01*
X48546Y8518D01*
X47667Y8999D01*
X46745Y9391D01*
X45788Y9687D01*
X44805Y9887D01*
X43808Y9987D01*
X42806Y9987D01*
X41809Y9887D01*
X40827Y9687D01*
X39869Y9391D01*
X38947Y8999D01*
X38068Y8518D01*
X37242Y7950D01*
X36476Y7303D01*
X35780Y6583D01*
X35158Y5796D01*
X34619Y4952D01*
X34167Y4057D01*
X33807Y3122D01*
X33542Y2155D01*
X33375Y1167D01*
X33309Y167D01*
X33342Y-835D01*
X33476Y-1828D01*
X33708Y-2803D01*
X34037Y-3750D01*
X34459Y-4659D01*
X34969Y-5521D01*
X35564Y-6328D01*
X36236Y-7071D01*
X-36236Y-7071D02*
X-35564Y-6328D01*
X-34969Y-5521D01*
X-34459Y-4659D01*
X-34037Y-3749D01*
X-33708Y-2803D01*
X-33476Y-1828D01*
X-33342Y-835D01*
X-33309Y167D01*
X-33375Y1167D01*
X-33542Y2155D01*
X-33807Y3122D01*
X-34167Y4057D01*
X-34619Y4952D01*
X-35158Y5796D01*
X-35780Y6583D01*
X-36476Y7303D01*
X-37242Y7950D01*
X-38068Y8518D01*
X-38947Y8999D01*
X-39869Y9391D01*
X-40827Y9687D01*
X-41809Y9887D01*
X-42806Y9987D01*
X-43808Y9987D01*
X-44805Y9887D01*
X-45788Y9687D01*
X-46745Y9391D01*
X-47668Y8999D01*
X-48546Y8518D01*
X-49373Y7950D01*
X-50138Y7303D01*
X-50835Y6583D01*
X-51456Y5796D01*
X-51995Y4952D01*
X-52447Y4057D01*
X-52807Y3122D01*
X-53072Y2155D01*
X-53239Y1167D01*
X-53306Y167D01*
X-53272Y-835D01*
X-53139Y-1828D01*
X-52906Y-2803D01*
X-52578Y-3750D01*
X-52156Y-4659D01*
X-51645Y-5521D01*
X-51050Y-6328D01*
X-50378Y-7071D01*
X47307Y-7071D02*
X50378Y-7071D01*
X36236Y-7071D02*
X39307Y-7071D01*
X-39307Y-7071D02*
X-36236Y-7071D01*
X-50378Y-7071D02*
X-47307Y-7071D01*
D11*
X-7874Y0D02*
X7874Y0D01*
X0Y-7874D02*
X0Y7874D01*
D12*
X-30058Y3468D02*
X-30058Y469D01*
X-28559Y469D01*
X-28059Y969D01*
X-28059Y2968D01*
X-28559Y3468D01*
X-30058Y3468D01*
X-25060Y469D02*
X-27059Y469D01*
X-25060Y2468D01*
X-25060Y2968D01*
X-25560Y3468D01*
X-26559Y3468D01*
X-27059Y2968D01*
X23591Y3468D02*
X23591Y469D01*
X25091Y469D01*
X25591Y969D01*
X25591Y2968D01*
X25091Y3468D01*
X23591Y3468D01*
X26590Y469D02*
X27590Y469D01*
X27090Y469D01*
X27090Y3468D01*
X26590Y2968D01*
M02*
